<svg xmlns="http://www.w3.org/2000/svg" viewBox="0 0 600 250"><defs><linearGradient id="a" x1="133.9" x2="227.6" y1="8.7" y2="-125" gradientTransform="rotate(61.5)" gradientUnits="userSpaceOnUse"><stop offset="0" stop-color="#FFC907" stop-opacity=".2"/><stop offset=".7" stop-color="#FFC907"/></linearGradient><linearGradient id="b" x1="156.3" x2="226.1" y1="-30" y2="-129.8" gradientTransform="rotate(61.5)" gradientUnits="userSpaceOnUse"><stop offset="0" stop-color="#F89C1C" stop-opacity=".2"/><stop offset=".8" stop-color="#F89C1C"/></linearGradient><linearGradient id="c" x1="166.6" x2="216.9" y1="-40.1" y2="-120.3" gradientTransform="rotate(61.5)" gradientUnits="userSpaceOnUse"><stop offset="0" stop-color="#F37720" stop-opacity=".2"/><stop offset="0" stop-color="#F37720" stop-opacity=".2"/><stop offset=".9" stop-color="#F37720"/></linearGradient><radialGradient id="d" cx="116.5" cy="-525.4" r="39.8" gradientTransform="rotate(90)" gradientUnits="userSpaceOnUse"><stop offset="0" stop-color="#FFF"/><stop offset="1"/></radialGradient><radialGradient id="e" cx="112.2" cy="532.8" r="13.6" gradientTransform="matrix(0 1 1 0 0 0)" gradientUnits="userSpaceOnUse"><stop offset="0" stop-color="#FFF"/><stop offset="1" stop-color="#FFF" stop-opacity=".2"/></radialGradient><linearGradient id="f" x1="94.3" x2="94.7" y1="-482.9" y2="-380.1" gradientTransform="rotate(90)" gradientUnits="userSpaceOnUse"><stop offset="0" stop-color="#930035"/><stop offset="1" stop-color="#790D2B"/></linearGradient><linearGradient id="g" x1="52.2" x2="126.9" y1="-433.1" y2="-433.1" gradientTransform="rotate(90)" gradientUnits="userSpaceOnUse"><stop offset="0" stop-color="#930035"/><stop offset="1" stop-color="#790D2B"/></linearGradient><linearGradient id="h" x1="129.1" x2="136" y1="-433.8" y2="-433.8" gradientTransform="rotate(90)" gradientUnits="userSpaceOnUse"><stop offset="0" stop-color="#EFBD50"/><stop offset=".2" stop-color="#F4BC71"/><stop offset="1" stop-color="#C16000"/></linearGradient><linearGradient id="i" x1="129.8" x2="135.3" y1="-434.1" y2="-434.1" gradientTransform="rotate(90)" gradientUnits="userSpaceOnUse"><stop offset="0" stop-color="#C64473"/><stop offset=".3" stop-color="#B72358"/><stop offset="1" stop-color="#930035"/></linearGradient><linearGradient id="j" x1="124.5" x2="131.1" y1="-457.1" y2="-457.1" gradientTransform="rotate(90)" gradientUnits="userSpaceOnUse"><stop offset="0" stop-color="#EFBD50"/><stop offset=".2" stop-color="#F4BC71"/><stop offset="1" stop-color="#C16000"/></linearGradient><linearGradient id="k" x1="125.2" x2="130.5" y1="-457.4" y2="-457.4" gradientTransform="rotate(90)" gradientUnits="userSpaceOnUse"><stop offset="0" stop-color="#C64473"/><stop offset=".3" stop-color="#B72358"/><stop offset="1" stop-color="#930035"/></linearGradient><linearGradient id="l" x1="112.8" x2="118.4" y1="-472.9" y2="-472.9" gradientTransform="rotate(90)" gradientUnits="userSpaceOnUse"><stop offset="0" stop-color="#EFBD50"/><stop offset=".2" stop-color="#F4BC71"/><stop offset="1" stop-color="#C16000"/></linearGradient><linearGradient id="m" x1="114.4" x2="117.1" y1="-474.8" y2="-471.3" gradientTransform="rotate(90)" gradientUnits="userSpaceOnUse"><stop offset="0" stop-color="#C64473"/><stop offset=".3" stop-color="#B72358"/><stop offset="1" stop-color="#930035"/></linearGradient><linearGradient id="n" x1="96.9" x2="102.5" y1="-478.2" y2="-478.2" gradientTransform="rotate(90)" gradientUnits="userSpaceOnUse"><stop offset="0" stop-color="#EFBD50"/><stop offset=".2" stop-color="#F4BC71"/><stop offset="1" stop-color="#C16000"/></linearGradient><linearGradient id="o" x1="100" x2="99.8" y1="-480.4" y2="-476" gradientTransform="rotate(90)" gradientUnits="userSpaceOnUse"><stop offset="0" stop-color="#C64473"/><stop offset=".3" stop-color="#B72358"/><stop offset="1" stop-color="#930035"/></linearGradient><linearGradient id="p" x1="81.3" x2="86.9" y1="-478.3" y2="-478.3" gradientTransform="rotate(90)" gradientUnits="userSpaceOnUse"><stop offset="0" stop-color="#EFBD50"/><stop offset=".2" stop-color="#F4BC71"/><stop offset="1" stop-color="#C16000"/></linearGradient><linearGradient id="q" x1="85.8" x2="82.7" y1="-479.7" y2="-476.6" gradientTransform="rotate(90)" gradientUnits="userSpaceOnUse"><stop offset="0" stop-color="#C64473"/><stop offset=".3" stop-color="#B72358"/><stop offset="1" stop-color="#930035"/></linearGradient><linearGradient id="r" x1="122.2" x2="129.1" y1="-409.8" y2="-409.8" gradientTransform="rotate(90)" gradientUnits="userSpaceOnUse"><stop offset="0" stop-color="#EFBD50"/><stop offset=".2" stop-color="#F4BC71"/><stop offset="1" stop-color="#C16000"/></linearGradient><linearGradient id="s" x1="122.9" x2="128.4" y1="-410" y2="-410" gradientTransform="rotate(90)" gradientUnits="userSpaceOnUse"><stop offset="0" stop-color="#C64473"/><stop offset=".3" stop-color="#B72358"/><stop offset="1" stop-color="#930035"/></linearGradient><linearGradient id="t" x1="108.7" x2="114.9" y1="-393.9" y2="-393.9" gradientTransform="rotate(90)" gradientUnits="userSpaceOnUse"><stop offset="0" stop-color="#EFBD50"/><stop offset=".2" stop-color="#F4BC71"/><stop offset="1" stop-color="#C16000"/></linearGradient><linearGradient id="u" x1="109.3" x2="114.3" y1="-394.1" y2="-394.1" gradientTransform="rotate(90)" gradientUnits="userSpaceOnUse"><stop offset="0" stop-color="#C64473"/><stop offset=".3" stop-color="#B72358"/><stop offset="1" stop-color="#930035"/></linearGradient><linearGradient id="v" x1="88.7" x2="95" y1="-386.1" y2="-386.1" gradientTransform="rotate(90)" gradientUnits="userSpaceOnUse"><stop offset="0" stop-color="#EFBD50"/><stop offset=".2" stop-color="#F4BC71"/><stop offset="1" stop-color="#C16000"/></linearGradient><linearGradient id="w" x1="93.3" x2="90.8" y1="-388.1" y2="-383.8" gradientTransform="rotate(90)" gradientUnits="userSpaceOnUse"><stop offset="0" stop-color="#C64473"/><stop offset=".3" stop-color="#B72358"/><stop offset="1" stop-color="#930035"/></linearGradient><linearGradient id="x" x1="71.6" x2="77.8" y1="-387.6" y2="-387.6" gradientTransform="rotate(90)" gradientUnits="userSpaceOnUse"><stop offset="0" stop-color="#EFBD50"/><stop offset=".2" stop-color="#F4BC71"/><stop offset="1" stop-color="#C16000"/></linearGradient><linearGradient id="y" x1="76.4" x2="73.4" y1="-389.5" y2="-385.5" gradientTransform="rotate(90)" gradientUnits="userSpaceOnUse"><stop offset="0" stop-color="#C64473"/><stop offset=".3" stop-color="#B72358"/><stop offset="1" stop-color="#930035"/></linearGradient><linearGradient id="z" x1="57.2" x2="63.4" y1="-397.3" y2="-397.3" gradientTransform="rotate(90)" gradientUnits="userSpaceOnUse"><stop offset="0" stop-color="#EFBD50"/><stop offset=".2" stop-color="#F4BC71"/><stop offset="1" stop-color="#C16000"/></linearGradient><linearGradient id="A" x1="62.6" x2="57.9" y1="-396.3" y2="-397.8" gradientTransform="rotate(90)" gradientUnits="userSpaceOnUse"><stop offset="0" stop-color="#C64473"/><stop offset=".3" stop-color="#B72358"/><stop offset="1" stop-color="#930035"/></linearGradient><linearGradient id="B" x1="48.8" x2="54" y1="-411.7" y2="-411.7" gradientTransform="rotate(90)" gradientUnits="userSpaceOnUse"><stop offset="0" stop-color="#EFBD50"/><stop offset=".2" stop-color="#F4BC71"/><stop offset="1" stop-color="#C16000"/></linearGradient><linearGradient id="C" x1="53.5" x2="49.3" y1="-411.6" y2="-411.4" gradientTransform="rotate(90)" gradientUnits="userSpaceOnUse"><stop offset="0" stop-color="#C64473"/><stop offset=".3" stop-color="#B72358"/><stop offset="1" stop-color="#930035"/></linearGradient><linearGradient id="D" x1="46.1" x2="51.4" y1="-427.6" y2="-427.6" gradientTransform="rotate(90)" gradientUnits="userSpaceOnUse"><stop offset="0" stop-color="#EFBD50"/><stop offset=".2" stop-color="#F4BC71"/><stop offset="1" stop-color="#C16000"/></linearGradient><linearGradient id="E" x1="50.8" x2="46.7" y1="-427.8" y2="-427.1" gradientTransform="rotate(90)" gradientUnits="userSpaceOnUse"><stop offset="0" stop-color="#C64473"/><stop offset=".3" stop-color="#B72358"/><stop offset="1" stop-color="#930035"/></linearGradient><linearGradient id="F" x1="47.8" x2="53.1" y1="-440.8" y2="-440.8" gradientTransform="rotate(90)" gradientUnits="userSpaceOnUse"><stop offset="0" stop-color="#EFBD50"/><stop offset=".2" stop-color="#F4BC71"/><stop offset="1" stop-color="#C16000"/></linearGradient><linearGradient id="G" x1="52.5" x2="48.5" y1="-441.1" y2="-440.1" gradientTransform="rotate(90)" gradientUnits="userSpaceOnUse"><stop offset="0" stop-color="#C64473"/><stop offset=".3" stop-color="#B72358"/><stop offset="1" stop-color="#930035"/></linearGradient><linearGradient id="H" x1="54.3" x2="59.6" y1="-457.1" y2="-457.1" gradientTransform="rotate(90)" gradientUnits="userSpaceOnUse"><stop offset="0" stop-color="#EFBD50"/><stop offset=".2" stop-color="#F4BC71"/><stop offset="1" stop-color="#C16000"/></linearGradient><linearGradient id="I" x1="59" x2="54.9" y1="-456.8" y2="-457" gradientTransform="rotate(90)" gradientUnits="userSpaceOnUse"><stop offset="0" stop-color="#C64473"/><stop offset=".3" stop-color="#B72358"/><stop offset="1" stop-color="#930035"/></linearGradient><linearGradient id="J" x1="64.4" x2="69.6" y1="-468.9" y2="-468.9" gradientTransform="rotate(90)" gradientUnits="userSpaceOnUse"><stop offset="0" stop-color="#EFBD50"/><stop offset=".2" stop-color="#F4BC71"/><stop offset="1" stop-color="#C16000"/></linearGradient><linearGradient id="K" x1="69" x2="65.1" y1="-469.5" y2="-468" gradientTransform="rotate(90)" gradientUnits="userSpaceOnUse"><stop offset="0" stop-color="#C64473"/><stop offset=".3" stop-color="#B72358"/><stop offset="1" stop-color="#930035"/></linearGradient><radialGradient id="L" cx="107.7" cy="-424.1" r="17.1" gradientTransform="rotate(90)" gradientUnits="userSpaceOnUse"><stop offset="0" stop-color="#FFF"/><stop offset="0" stop-color="#FFF"/><stop offset="1" stop-color="#FFF" stop-opacity=".2"/></radialGradient><radialGradient id="M" cx="74.8" cy="-443" r="21.9" gradientTransform="rotate(90)" gradientUnits="userSpaceOnUse"><stop offset="0" stop-color="#FFF"/><stop offset="1" stop-color="#FFF" stop-opacity=".2"/></radialGradient></defs><path d="M246.2 184c-23.6 0-44.7-7-63.2-21.8 17.2-.4 34-4.6 50.2-9.7 2.4 11 6.6 22 13 31.4z"/><path fill="#4D4D4D" d="M249 188a110.1 110.1 0 0 1-66-25.8c14.1 2 28.7 1.6 42.8-.6 6.4-1 6.2-1 9.4-1.7A87.4 87.4 0 0 0 249 188z"/><path fill="url(#a)" d="M225.4 157.3l11.8-30.9-11.6-30.8S167.9 52 109.7 70.7c0 0 27.2 5.9 35.5 10 0 0-70.3.4-118 45.8C74.8 171.8 145 172 145 172a249.9 249.9 0 0 1-35.6 10.1c58.2 18.9 116-24.9 116-24.9z"/><path fill="url(#b)" d="M227.1 149.5l8.9-23-8.7-23S184.3 71 140.8 85c0 0 20.3 4.4 26.5 7.5 0 0-52.5.3-88 34.1 35.4 33.8 87.8 34.1 87.8 34.1-6.2 3.2-26.5 7.5-26.5 7.5 43.3 14.1 86.5-18.6 86.5-18.6z"/><path fill="url(#c)" d="M212.6 141.6l5.8-15-5.7-15s-28-21.4-56.5-12.2c0 0 13.3 2.8 17.3 5 0 0-34.2.1-57.5 22.2 23.2 22.1 57.5 22.3 57.5 22.3-4 2-17.4 4.9-17.4 4.9 28.3 9 56.5-12.2 56.5-12.2z"/><path d="M347.6 24.3c-7 .2-4 0-9.2.5h.2l-4.6.4-1.1.1-8.8 1.1h.3l-5 .9-4.1.8-8 2-3.8 1-.4.2-9.3 3.3-3.6 1.6-6 2.7-2.4 1.4c-7.4 3.7-14 8.8-20.3 14.3A213.3 213.3 0 0 0 185 24.2c6.5-3.8 3.5-2.1 9.2-5 6-3.2 3.8-2.2 6.6-3.4l1.1-.5c50.4-23 98.5-19.7 145.7 9z"/><path fill="#333" d="M347.6 24.3c-8 0-16 1-24 2.1a112 112 0 0 0-67 17.5c-20-10.6-45.8-16.1-71.6-19.7C238-7.2 295-9 347.6 24.2z"/><path fill="#E84D35" d="M353.6 231.7c-84 0-123-46.5-123-103.8s41-103.7 123-103.7c100.4 0 181.8 71.4 181.8 105.4 0 38-81.4 102-181.8 102"/><path fill="#952145" fill-opacity=".2" d="M502.2 180.2c-41.1 34.6-95.6 50.4-148.6 51.5-84 0-123-46.5-123-103.8s41-103.7 123-103.7h.4c-25.7 9.5-50 26.1-60.2 52.6-7.8 20.2-6 42-.9 62.6 25.3 88.4 146.2 58.6 209.3 40.8z"/><path fill="#952145" fill-opacity=".2" d="M535.4 129.6c0 38-81.4 102-181.8 102-12.1-.1-5.2.1-20.8-1 55.4-5.3 114.6-22.9 151.6-67 11-13.2 20.7-29.7 20.6-47.3-.6-30.6-19.6-51-45.3-65.4a197.7 197.7 0 0 1 57.7 43.6c8.5 9.6 17.5 21.8 18 35.1z"/><path fill="#952145" fill-opacity=".2" d="M488.7 190.5c-39.2 27.7-87.7 40.2-135.1 41.2-84 0-123-46.5-123-103.8.4-19 4.2-39 15.3-54.8 9.4 10.5 14.2 44.8 16.3 58.3 13 74.6 99.7 85.5 161.5 76.3a336 336 0 0 0 65-17.2z"/><path fill="#952145" fill-opacity=".2" d="M488.7 190.5c-39.2 27.7-87.7 40.2-135.1 41.2-84 0-123-46.5-123-103.8.4-19 4.2-39 15.3-54.8 9.4 10.5 14.2 44.8 16.3 58.3 13 74.6 99.7 85.5 161.5 76.3a336 336 0 0 0 65-17.2z"/><path fill="#333" fill-opacity=".7" d="M440.3 215.5a244.8 244.8 0 0 1-86.7 16.2c-36.1-.2-75-9-99.6-37.4 6 5 7 6.2 14 10.6 49.4 31.4 118.4 25.8 172.3 10.6z"/><path fill="#FFF" fill-opacity=".2" d="M535.4 129.6c-1 20-16.7 36.5-31 48.8 12.4-11.8 24.4-29.2 18.5-47-14.6-39.4-51.3-63-124-87-38.3-11.9-79.6-10.4-118.7-3.3 22.1-13 48.1-16.5 73.4-17 100.4 0 181.8 71.5 181.8 105.5z"/><path fill="#0A090B" fill-opacity=".2" d="M346.5 21.3c-1.4 7.7 0 216.4 0 216.4l15.4-1.2-5.4-215.2z"/><path d="M355 21.3c-1.4 7.7 0 216.4 0 216.4l15.5-1.2L365 21.3z"/><path d="M170 215.5s64 17.6 184.5-2.8l.6 19S247.9 282.2 170 215.5"/><path fill="#4D4D4D" d="M170 215.5s71.9-9.4 92.2-25c55.5 29.8 92.3 22.2 92.3 22.2s-94.2 51.5-184.5 2.8"/><path fill="#333" d="M245.2 74c-.6 3.8-1.2 7.6-1.6 11.5-1.7 12.8-2 25.6-2.1 38.5v3.9c0 11.3 0 22.7 1 34 .6 6.7 1.6 13.3 2.7 20-1.5-.1-1 0-1.6-.2-10.7-.7-16.5-8.2-18.8-18-3.6-2.8-5-7.4-5.1-11.8V147c-1-.2-.7 0-1.3-.3l-.5-.2-.9-.4c-3.7-1.8-7.2-5.3-7.6-9.6v-17.2c.5-4.7 4.9-9.2 9.4-10.3l.9-.2v-5c0-4.3 1.6-9 5.1-11.7a21 21 0 0 1 20.4-18.2z"/><path fill="#0B0A0C" d="M219.7 147c-5.3-.8-6.5-5.8-6.6-10.5l.5-19.6c.5-3.8 2-7.3 6.1-8.1V147zm5 15.3c-2-3-2.3-6.8-2.4-10.4l.8-48c.1-2.9.2-7 1.6-9.5v68zm16.8-34.4c0-21 .6-33.8 3.7-54-4 0-7.3 9.1-9 24.1l-.1 2.7-2 45.7c0 28.3 3 35.5 11.1 35.5a267 267 0 0 1-3.7-54" opacity=".2"/><path d="M599.7 128.6a3 3 0 0 1-2.9 3c-1.6-.1-2.2-1-2.8-2.3l-40 1.7a25.7 25.7 0 0 1-22.8 20.3c-9.4 0 5-10 5-22.5s-14.4-22.6-5-22.6a26 26 0 0 1 21.7 15.9l1.1 4.4v.1l39.9 2a3 3 0 1 1 5.8 0z"/><path fill="#FFF" d="M598.3 131.2c-1.3.4-2.7-.5-3.3-2s0-3.2 1.3-3.6c1.2-.4 2.7.5 3.2 2s0 3.1-1.3 3.6" opacity=".1"/><path fill="#FFF" d="M599.2 129.2c-.7.7-1.9.5-2.7-.4-.7-.9-.8-2.1-.1-2.7.7-.6 1.8-.4 2.6.4.8.9.9 2.1.2 2.7" opacity=".2"/><path fill="#0B0A0C" d="M499.6 78.6c6.3 10.7 27.7 48.5 2.7 101 6-1.9 9.4-4 9.4-4s21.9-62.4 8.6-79.2c-12-15.3-20.7-17.8-20.7-17.8" opacity=".3"/><path fill="#4D4D4D" d="M504.1 180.9c17.6-25 19.8-75.1-3.7-104.2 5.7.8 50 20.7 50 53 0 30.8-40.3 51.2-46.3 51.2"/><path fill="url(#d)" d="M550.3 129.7c0 10-4.4 18.8-10.4 26.6 10-19-7.5-33-23.3-39.8a81.8 81.8 0 0 0-16.2-39.8h.4l.9.3c3 1 1.4.5 4.6 1.8 20.8 9.4 43 26.2 44 50.9z" opacity=".4"/><path fill="gray" d="M550.3 129.7C550 149.3 535 164 519.4 174c-4.2 2.6-9 5.3-13.8 6.5l-1.5.3c24-9.2 45.9-31.1 38.4-58.7-5.7-21-24.1-35.1-42.1-45.5a63.4 63.4 0 0 1 16.2 7.3c16.8 10.2 32.8 24.7 33.7 45.7z"/><path fill="gray" fill-opacity=".7" d="M547.4 143.9c-6.2 14.7-26 32.7-41.5 36.6l-1.8.4a72 72 0 0 0 10.2-23c11.6-2.6 24.1-5.7 33.1-14z"/><path fill-opacity=".7" d="M540.5 155.5c-7.5 9.5-22.3 22-34.7 25l-1.7.4c2.2-3.3 2.2-3.5 4.6-7.7a60.1 60.1 0 0 0 31.8-17.7z"/><path fill="url(#e)" d="M518.5 100.7a23.7 23.7 0 0 0 5 13.5c3.8 4.1 23.6 19 23.7 13.2.4-18.3-10.6-29-21-31.5-2.5-.5-6-.8-7.2 2l-.6 2.8z" opacity=".4"/><path fill="#0B0A0C" d="M441.7 53c26.7 7.5 44.7 34.3 38 58.1-6.7 24-34.3 40.2-64.5 31.5-26.7-7.7-42.8-38-35-61.4 8-23.5 34.8-35.7 61.5-28.2"/><path fill="url(#f)" d="M443.3 49.9c-26.8-7.5-54 4.2-61.2 27.3-7.8 24.4 8.4 54.3 35.2 61.8 32.2 9 57.7-8.6 64.2-32 1-3.2 1.4-6.5 1.4-9.8 0-20.5-16.6-40.9-39.6-47.3z"/><path fill="#1A1A1A" d="M444.4 48.2c26.5 7.4 44.5 33.3 38 56.2-6.3 23-31.6 40.1-63.5 31.2-26.5-7.5-42.6-36.8-35-60.8 7.1-22.6 34-34 60.5-26.6"/><path fill="url(#g)" d="M443 54c-22.6-6.3-45.5 4.4-51 24s8.5 40.7 31.1 47c22.7 6.4 45.5-4.4 51-24 .8-2.8 1.2-5.8 1.2-8.7 0-16.7-13-32.8-32.3-38.3z"/><path fill="#682563" d="M434 135.8a3.4 3.4 0 1 1 0-6.9 3.4 3.4 0 0 1 0 6.9"/><path fill="url(#h)" d="M433.8 129.1a3.4 3.4 0 0 0 0 6.9 3.4 3.4 0 1 0 0-6.9z"/><path fill="url(#i)" d="M431.7 129.8l-.2.2 4.3 5.3.5-.4.3-.4z"/><path fill="#682563" d="M457 131.3a3.3 3.3 0 1 1 0-6.6 3.3 3.3 0 0 1 0 6.6"/><path fill="url(#j)" d="M457.1 124.5a3.3 3.3 0 1 0 0 6.6 3.3 3.3 0 1 0 0-6.6z"/><path fill="url(#k)" d="M455.1 125.2l-.2.2 4.2 5.1.5-.4.3-.4z"/><path fill="#682563" d="M470.7 117.4a2.8 2.8 0 1 1 4.5-3.3 2.8 2.8 0 0 1-4.5 3.3"/><path fill="url(#l)" d="M475.2 114a2.8 2.8 0 0 0-4.5 3.3 2.8 2.8 0 1 0 5-1.7c0-.6-.2-1.2-.5-1.7z"/><path fill="url(#m)" d="M473.4 112.9l-1.2 5.4h.9l.6-5.4z"/><path fill="#682563" d="M475.6 99.7a2.8 2.8 0 1 1 5.5.3 2.8 2.8 0 0 1-5.5-.3"/><path fill="url(#n)" d="M478.4 97a2.8 2.8 0 0 0-.3 5.5 2.8 2.8 0 0 0 3-2.6v-.2c0-1.5-1.2-2.7-2.7-2.8z"/><path fill="url(#o)" d="M480.4 98l-4.5 3.2.3.4.4.3 4-3.8z"/><path fill="#682563" d="M476.3 82.4a2.8 2.8 0 1 1 4 3.9 2.8 2.8 0 0 1-4-4"/><path fill="url(#p)" d="M480.3 82.2a2.8 2.8 0 1 0-4 3.9 2.8 2.8 0 1 0 4.8-2c0-.7-.3-1.4-.8-2z"/><path fill="url(#q)" d="M475.6 83.7v.9l5.5-.1v-.3z"/><path fill="#682563" d="M410 128.9a3.4 3.4 0 1 1 0-6.9 3.4 3.4 0 0 1 0 7"/><path fill="url(#r)" d="M409.8 122.2a3.4 3.4 0 1 0 0 7 3.4 3.4 0 1 0 0-7z"/><path fill="url(#s)" d="M407.6 123l-.2.1 4.4 5.3.5-.4.3-.4z"/><path fill="#682563" d="M394 114.7a3.1 3.1 0 1 1 0-6.2 3.1 3.1 0 0 1 0 6.2"/><path fill="url(#t)" d="M393.9 108.7a3.1 3.1 0 0 0 0 6.2 3.1 3.1 0 0 0 0-6.2z"/><path fill="url(#u)" d="M392 109.3l-.3.2 4 4.8.4-.4.3-.4z"/><path fill="#682563" d="M383.4 90.5a3.1 3.1 0 1 1 5.5 3.1 3.1 3.1 0 0 1-5.5-3"/><path fill="url(#v)" d="M387.6 89.2a3.1 3.1 0 0 0-3 5.4c1.4.8 3.3.3 4.2-1.2a3.1 3.1 0 0 0-1.2-4.2z"/><path fill="url(#w)" d="M389.1 91.2l-6.1 1 .1.6.2.4 5.9-1.8z"/><path fill="#682563" d="M385.2 73.1a3.1 3.1 0 1 1 5 3.7 3.1 3.1 0 0 1-5-3.7"/><path fill="url(#x)" d="M389.5 72.2a3.1 3.1 0 0 0-3.7 5 3.1 3.1 0 1 0 5-2.5c0-1-.5-1.9-1.3-2.5z"/><path fill="url(#y)" d="M390.7 74.4l-6.2.3v.6l.2.5 6-1.1z"/><path fill="#682563" d="M398 57.5a3.1 3.1 0 1 1-2 5.9 3.1 3.1 0 0 1 2-6"/><path fill="url(#z)" d="M398.2 57.4a3.1 3.1 0 1 0-2 5.9c1.7.5 3.5-.4 4-2a3.1 3.1 0 0 0-2-4z"/><path fill="url(#A)" d="M396.3 57.4l-.5.2-.4.2 2.9 5.5.2-.1z"/><path fill="#682563" d="M411.4 49a2.6 2.6 0 1 1 .3 5.2 2.6 2.6 0 0 1-.3-5.3"/><path fill="url(#B)" d="M414.3 51.2a2.6 2.6 0 0 0-5.2.3 2.6 2.6 0 1 0 5.2-.1v-.2z"/><path fill="url(#C)" d="M410 49.4l-.3.3-.2.3 4 3.4v-.2z"/><path fill="#682563" d="M427.1 46.3a2.6 2.6 0 1 1 .8 5.2 2.6 2.6 0 0 1-.8-5.2"/><path fill="url(#D)" d="M430.2 48.3a2.6 2.6 0 0 0-5.2.9 2.6 2.6 0 1 0 5.3-.5v-.4z"/><path fill="url(#E)" d="M425.8 46.9l-.3.4-.2.3 4.2 3 .2-.2z"/><path fill="#682563" d="M440.1 48a2.6 2.6 0 1 1 1.2 5.2 2.6 2.6 0 0 1-1.2-5.1"/><path fill="url(#F)" d="M443.4 49.9a2.6 2.6 0 0 0-5.1 1.2 2.6 2.6 0 1 0 5.1-.6v-.6z"/><path fill="url(#G)" d="M438.8 48.8l-.3.3-.1.4 4.5 2.6V52z"/><path fill="#682563" d="M457 54.5a2.6 2.6 0 1 1-.1 5.2 2.6 2.6 0 0 1 .2-5.2"/><path fill="url(#H)" d="M457.2 54.4a2.6 2.6 0 0 0-.2 5.2 2.6 2.6 0 0 0 2.7-2.5V57c0-1.4-1-2.6-2.5-2.7z"/><path fill="url(#I)" d="M455.6 54.8l-.3.3-.3.3 3.6 3.7.2-.1z"/><path fill="#682563" d="M468 64.7a2.6 2.6 0 1 1 1.8 5 2.6 2.6 0 0 1-1.8-5"/><path fill="url(#J)" d="M471.4 66a2.6 2.6 0 0 0-5 1.9 2.6 2.6 0 1 0 5.2-1c0-.2 0-.5-.2-.8z"/><path fill="url(#K)" d="M466.8 65.5l-.3.4v.4l4.7 2v-.1z"/><path fill="#1CACB7" d="M473.9 91.6c0 2.8-.4 5.6-1.2 8.4-5.3 19-27.3 29.3-49.2 23.2-17.6-5-29.7-19-31-34.2v-5.5c.1-1.9.5-3.8 1-5.7 5.3-18.9 27.3-29.2 49.2-23 18.7 5.1 31.2 20.7 31.2 36.8z"/><path fill="#FFF" fill-opacity=".2" d="M473.9 91.6c0 2.8-.4 5.6-1.2 8.4a30 30 0 0 1-4.5 9.6c-11.8 10-30.3 8.4-44.3 5.9-24-5-29.4-29-29.4-32-.8-4.2.5-8 1.5-11.9 9.6-17.2 28.6-21.1 46.7-16.9 18.7 5.2 31.2 20.8 31.2 37z"/><path fill="#FFF" d="M397.3 81.9c-.5 9.9 9.2 27.8 27 30.3 23.5 3.4 47.4-6.4 47.6-20.6.3-26.1-29.6-41.1-58.7-34.2-10.4 2.4-15.9 21.5-15.9 24.5" opacity=".2"/><path fill="#FFF" d="M410.8 69.1c2.4 4.5 3.4 6.8 20.6 9.2 30.4 4.2 35.9 18.1 38.2 13.4 1.6-15-23.2-40.5-52.5-34-6.6 1.4-9.3 7.6-6.3 11.4" opacity=".2"/><path fill="#376E88" fill-opacity=".3" d="M471.2 104.2c-5.7 13.7-21.2 21-35.5 20.7-5.8 0-7.4-.6-12.2-1.7-17.6-5-29.7-19-31-34.2v-5.5c.1-1.9.4-3.8 1-5.7A36.7 36.7 0 0 1 431.2 53c-31.2 2.7-43 46.6-16.1 63.7 21.3 12.1 42.1 7.3 56-12.5z"/><path fill="url(#L)" d="M453.3 121.3c-8.1 4-17 4-25.7 2.8A43.7 43.7 0 0 1 395 99a23 23 0 0 1 13-7.5c16.2-3.4 31.5 4.9 40.7 18a24.5 24.5 0 0 1 4.6 11.9z" opacity=".5"/><path fill="url(#M)" d="M473.3 86.1c-2.7 6.4-10.6 9-16.9 10a76.8 76.8 0 0 1-36-4.4c-7.4-3.3-7.8-13-7.7-19.9.2-2.8.3-5.7 1.2-8.4.6-4.7 5.1-7.8 9-9.9 8.3-.6 7.2-1 15.7.3a41.8 41.8 0 0 1 34.7 32.4z" opacity=".5"/><path d="M307.3 66c0 1.2-.2 2.3-.6 3.4l-.1.2c-.8-.7-1.8-.8-2.8-1l-1-.4.1-.4c.7-.4.3-.3 1-.3l1.7.2h.9l-.4-.7-.7-.4h-.2a28.6 28.6 0 0 0-2.8-.6h-2.3a2.7 2.7 0 0 0-1.7.2l-1 .6c.2.3 1.5 1.2 1.7 1.4l.4.4.2.1.9.8h.4c1.5.4 2.3.8 3.1 1.2l1 .5a.7.7 0 0 1 .3.7l-.1 1.7-.2 1-.5.3v-1c0-.4-.2-.6-.6-.9-1.3-.7-.6-.4-1.9-.9h-.2a9.7 9.7 0 0 0-2.3-.5h-.7l.3.3 2.2 1.3 1.7 1.2c.2.2.3.4.2.7v.4c0 1-.2 1.1-1.2.8a9.7 9.7 0 0 0-2.6-.5h-.3c1 .8.4.4 1.5 1.5h1.2l.4.2h.1l1.9.2h1.1c.2.2.2.5.2.7l-.1.8v.3c-.2.3-.4.3-.8.3l-3-.1.5.4h.1l.6.6 1.5 1.3c.5.6.3.2.5 1.1v.9c-1.3.2-.7.2-1.9 0H301l.2.2.2.2 1.3 1.1 1 .8c.6.3 1.2 1.3 1 1.8v.1c-.2.2-.1.2-.3.2h-.2l-1-.1-1.2-.2-1.1-.2h-1.6l.8.8.5.4.4.3 2.4.4h2c.4-.2.7 0 .8.4v.5c0 1.4 0 1.6-1.7 1.7l-2-.1.5.3 1.6 1.1a3.2 3.2 0 0 1 1.4 3c0 .5-.5 1-1.1 1.1-.4 0-1.9 0-2.2-.2a5.4 5.4 0 0 1-2.7-1.8c-1.1-1.2-1.1-2-.7-2.5 0 0 .2-.2.3 0 .3 0 .6.4.8.6 1.1 1.1 2.3 2 4.1 2.2 0 0 .5 0 .8-.2l-.3-.5a20 20 0 0 0-4.3-3.5s-1.8-.6-3.7-.9c-1.3-.2-2.3.2-2.1.8 0 .1-.5.2-.6 0-.3-.5-.6-1.4 0-2.2.5-1 1.4-.9 2.5-.8l2.5.5h.2l-.2-.1c-.9-1.2-.6-.5-.5-2.3v-.1l.4-.6a3.3 3.3 0 0 1 1.9 0l2.4.8c-.7-.6-1.5-1-2.2-1.5l-.7-.5-.3-.2-.9-.8-.1-.3c0-.6.6-1.5 1.2-1.5h1.7l1.6.2h.4a4.2 4.2 0 0 0-1.4-1c-.7-.4-1.3-1-2-1.3l-.8-.7-.6-.4c-.3-.1-.2 0-.2-.3l.2-.5.2-.3.2-.2.2-.1-1.8-1.2c-.7-1-.5-.4-.3-1.7 0-.4 0-.1.5-.6l1.3-.5-1.3-.7c-1-.5-1-1-1-1.8.1-.6.4-1.2 1-1.5l.3-.1h1.2l-.5-.3-.3-.2-.5-.3c-1.7-1-1.7-1-1.6-2.8 0-.5 0-.1.7-1l.9-.8 1.4-.5c1.7 0 3.4.1 5 .7.8.3 1.5.8 2.2 1.2l.2.4v.1zm3.8 10v-2h-1.9v2h2zm0 11.2v-7.5h-1.9v7.5h2zm0 11.3V91h-1.9v7.5h2zm1.9 11.2v-1.9H311v-7.5h-1.9v7.5h2v1.9h1.8zm1.9-45v-1.9h-5.7v2h5.7zm3.7-5.6v-7.5h-9.4v1.9h2V59h1.8v-5.6h3.7V59h2zm0 16.9v-2h-1.9v-1.8H315v-1.9H313v-1.8h-1.9v-1.9h-1.9v1.9h2v1.8h1.8v2h1.9V74h1.9V76h1.8zm-5.6-2v-1.8h-1.9v1.9h1.9zm5.6 11.3v-5.6h-1.9v-1.9h-5.6v2h1.9v5.5h1.9v1.9h1.9v-1.9h-2v-5.6h2v5.6h1.8zm0 5.7v-2h-7.5v2h7.5zm-3.7 16.8v-5.6H313v5.6h1.9zm1.9-46.8V59H313V61h3.8zm0 9.3v-1.8h-2v1.8h2zm1.8 39.4v-7.5h-1.9v-1.9H315v2h1.9v7.4h1.8zm0-45V63h-1.9v1.8h2zm0 3.8v-1.9h-1.9v1.9h2zm24.2 11.7a9 9 0 1 1-18 0 9 9 0 0 1 18 0zm-9.8 7.5v-1.9a5.6 5.6 0 0 1-4.8-5.3v-.2h-1.8a7.5 7.5 0 0 0 6.6 7.4zm4.6-7.5a3.7 3.7 0 0 0-3.4-3.7h-6.8l-.8 2h4a3.7 3.7 0 1 0 7 1.7zm-1.9 0a1.9 1.9 0 1 1-3.7 0c0-.9.7-1.6 1.6-1.8h.8c.8.3 1.3 1 1.3 1.8zm5.6 0a7.5 7.5 0 0 0-7.5-7.4 7.7 7.7 0 0 0-4.9 1.9h5a5.6 5.6 0 0 1 1 11.1v1.9a7.5 7.5 0 0 0 6.4-7.4z" opacity=".7"/></svg>