<svg xmlns="http://www.w3.org/2000/svg" viewBox="0 0 620 620">
  <path fill="#6B4E3F" d="M304.49 18.53l.93.02c.77.45 1.56.52 2.37.11 1.76 1.2 3.8 1.05 5.77 1.2 4.29.34 8.59.58 12.88.88.95.06 1.96-.04 3.24 1.17-5.73.99-11.1.15-16.37 1.04.39 1.22 1.35 1.4 2.09 1.77 4.2 2.19 8.45 4.31 12.69 6.46 1.29.66 2.64 1.08 4.08 1.27 9.31 1.17 18.63 2.32 27.92 3.58 8.32 1.12 16.5 2.97 24.74 4.57 2.63.52 4.7 2.38 6.9 3.85 5.48 3.7 10.93 7.46 16.38 11.22 1.41.98 2.99 1.37 4.64 1.58 5.48.7 10.95 1.42 16.43 2.05 2.23.26 4.31.85 6.33 1.81 7.68 3.64 15.38 7.24 23.08 10.84 3.15 1.47 3.55 1.3 4.76-2.05.3-.83.55-1.68.82-2.52 1.3-3.97 1.8-4.12 4.6-1.2 2.51 2.63 4.95 5.34 7.43 8.01l2.03 2.18c8.94 9.44 5.3 7 18.04 12.88 3.9 1.8 7.7 3.87 11.82 5.16l1.45 1.3.47.57.83.82c.03.63.37 1 .97 1.16l1.82 1.77c.24 1.78 1.58 2.87 2.66 4.1 4.13 4.75 8.33 9.44 12.46 14.2 2.98 3.43 3.06 3.94.22 7.3-4.85 5.73-9.1 11.97-14.52 17.22a7.8 7.8 0 0 0-2.3 3.38c1.48.11 2.55-.52 3.61-.96 7.74-3.27 15.45-6.58 23.17-9.89a9.97 9.97 0 0 0 3.62-2.28c1.13 1.16 1.94 2.53 2.77 3.9-.2 1.42.56 2.56 1.16 3.73 3.6 7.09 7.08 14.24 10.89 21.22 1.7 3.12 1.4 5.43-.99 7.98-5.96 6.35-11.26 13.3-17.3 19.59-1.41 1.46-2.3 3.23-3.13 5.04-3.09 6.73-6.28 13.4-9.23 20.2-1.23 2.84-2.96 4.71-5.99 5.6-2.85.85-5.6 2.05-8.36 3.18-2.12.88-2.28 1.28-1.95 3.54.4 2.73.75 5.47 1.21 8.2.59 3.45 1.17 3.78 4.36 2.48 7.77-3.16 15.56-6.3 23.29-9.56 11.3-4.77 22.97-8.53 34.52-12.63 3.3-1.17 6.76-.87 10.17-1.06.77-.04 1.53-.15 2.3-.22.24.21.65.4.7.65 1.35 8.55 4.7 16.52 7.22 24.74.8 2.63 1.94 5.17 2.22 7.95 1.1 11.08 2.83 22.08 3.89 33.17 1.03 10.87 2.34 21.7 1.27 32.66-1.09 11.2-.25 22.5-1.98 33.66-.77 1.12-1.07 2.41-1.38 3.7-1.89 7.85-3.82 15.68-5.65 23.54-.63 2.7-1.53 5.3-2.62 7.84-3.22 7.52-6.52 15-9.64 22.56-1.4 3.39-3.42 5.61-7.13 6.68-5.4 1.57-10.62 3.77-15.95 5.59-1.93.66-2.8 1.85-3.06 3.83-.83 6.35-1.84 12.69-2.62 19.05-.33 2.68-1.3 4.76-3.47 6.47-6.08 4.78-12.05 9.7-18.07 14.55-.43.35-.88.68-1.34.98-1.17.77-2.15.52-2.7-.74-.77-1.71-1.41-3.48-2.1-5.22-.3-.72-.52-1.47-.86-2.16-.74-1.47-1.47-1.58-2.4-.3-4.64 6.32-9.32 12.61-13.82 19.03-2.17 3.09-1.94 6.96-2.74 10.5-.19.82.56 1.13 1.32.94.75-.18 1.48-.44 2.2-.74 9.17-3.83 18.39-7.57 27.5-11.55 5.08-2.22 9.43-5.73 14.05-8.75l10.17-6.68c.8.8.24 1.25-.05 1.6-4.66 5.63-8.39 11.94-13.18 17.46a23.92 23.92 0 0 1-4.9 4.42c-9.59 6.32-19.11 12.76-28.74 19.03-7.7 5.01-16.08 8.82-24.03 13.4-16.42 9.42-33.65 17.19-50.82 25.07-6.04 2.77-12.39 4.75-18.64 6.92a266.07 266.07 0 0 0-26.46 10.6c-7.82 3.69-16.04 6.25-24.16 9.13-16.8 5.96-34.12 10.07-51.3 14.68-1.27.34-2.61.55-3.92.59-6.76.18-13.43 1.23-20.14 1.8-1.21.1-2.44.43-3.63.33-5.58-.47-10.36 1.51-14.92 4.47-3.06 1.98-6.32 3.64-9.44 5.54a8.4 8.4 0 0 1-6.01 1.17c-9.16-1.53-18.37-2.78-27.48-4.55-5.07-.98-10-2.77-14.98-4.22l-15.27-4.49c-1.16-.34-2.32-.8-3.57-.5-7.77-2.77-15.27-6.2-22.8-9.53a34.8 34.8 0 0 1-9.64-6.2c.8-.16 1.57.03 2.22.46 2.84 1.9 6.13 2.44 9.35 3.2 9.14 2.15 18.29 4.29 27.43 6.45 4.64 1.1 9.4 1.32 14.12 1.9 7.68.93 15.37 1.73 23.04 2.7 2.41.3 4.16-.34 5.9-2.08a84.01 84.01 0 0 0 7.36-8.53c2.05-2.68 4.57-3.8 7.88-4.07 7.37-.63 14.72-1.57 22.08-2.37 1.88-.2 3.69-.61 5.48-1.24 7.61-2.66 15.28-5.16 22.87-7.9 2.76-1 4.88-.66 6.82 1.56 1.67 1.9 3.53 3.65 5.21 5.55 1.88 2.14 1.63 2.89-1.1 3.44-3.8.77-7.6 1.45-11.4 2.16l-38.13 7.05c-1.2.22-2.41.4-3.43 1.14v-.04c3.74.71 7.47-.19 11.21-.13 10.62.15 20.75-2.78 31.03-4.84 18.33-3.67 36.39-8.45 54.45-13.17 8.35-2.18 16.38-5.36 24.55-8.12 11.93-4.02 23.92-7.9 35.56-12.75a27 27 0 0 0 4.15-2.06c5.5-3.5 10.97-7.06 16.53-10.45 5.23-3.19 9.77-7.22 14.42-11.13.32-.27.54-.66.93-1.15-1.15-.81-2.18-.15-3.13.1-14.31 3.8-28.61 7.64-42.91 11.48-2.14.58-4.26 1.2-6.4 1.78-.72.2-1.45.59-2.22.02-.38-1.05.43-1.66.99-2.25 4.4-4.65 8.6-9.53 13.36-13.8a48.65 48.65 0 0 1 15.56-9.31c6.93-2.59 14-4.8 21.07-7.03a5.53 5.53 0 0 0 3.97-3.98c.96-3.06 2.08-6.07 3.2-9.07 1.03-2.79 1.42-3 4.45-2.53 3.82.58 7.64 1.22 11.46 1.8 1.18.19 2.35.53 3.95.2-1.23-1.35-2.73-1.75-4-2.44-2.42-1.33-4.94-2.5-7.35-3.82-1.92-1.06-1.93-1.71-.2-3.13.59-.5 1.24-.92 1.88-1.35 17.36-11.62 34.7-23.25 52.08-34.83 2.44-1.62 4.58-3.46 6.15-5.93 6.77-10.63 14.55-20.54 21.7-30.91 2.5-3.64 5.46-6.94 7.79-10.72.82-1.34 2.2-2.16 3.42-3.1 7.61-5.87 15.24-11.72 22.83-17.63.89-.69 2.51-1.17 2.08-2.63-.36-1.17-1.87-.93-2.92-1.15-1.18-.25-2.42-.29-3.6-.54-2.3-.5-4.32 0-6.34 1.15a3811.93 3811.93 0 0 1-33.02 18.4c-8.9 4.89-17.92 9.6-26.83 14.49a6.94 6.94 0 0 1-6.61.32c-10.14-4.4-20.57-8.1-30.89-12.05-1.23-.47-2.53-.76-3.8-1.14a106.28 106.28 0 0 0-20.43-7.3c1.3-.91 2.56-.45 3.8-.3 16 1.9 31.99 3.84 47.99 5.75 1.26.15 2.57.52 4.3-.3-3.78-3.83-8.17-6.56-11.41-10.75 2.62.98 5.34 1.78 7.86 3 3.23 1.55 6.25 1.43 9.55.15 4-1.56 8.16-2.72 12.25-4.06.53-.17 1.06-.31 1.57-.52.7-.27 1.67-.28 1.86-1.17.2-.98-.79-1.2-1.4-1.6-1-.67-2.07-1.26-3.1-1.9-.55-.34-1.24-.53-1.42-1.25.15-.18.26-.47.4-.48 3.98-.39 4-.38 5.2-4.22 1.8-5.69 3.56-11.38 5.34-17.07.2-.63.4-1.27.51-1.92.3-1.88-.12-2.42-2.1-2.35-2.97.11-5.95.32-8.91.58-4.07.35-8.13.79-12.2 1.18-.88.09-1.76.08-2.62-.2l-.04-.24c3.25-2.86 7-5.04 10.65-7.28 7.49-4.6 14.12-10.22 20.6-16.07 5.58-5.03 11.38-9.8 16.73-15.09a31.06 31.06 0 0 0 4.53-5.66c8.03-12.82 16.05-25.64 24.2-38.38 1.52-2.37 1.68-4.34.22-6.7-1.1-1.78-1.85-3.77-2.78-5.65-1.93-3.9-2.38-4.09-6.38-2.7-2.71.94-5.45 1.83-8.11 2.9-2.3.9-4.33.8-6.09-1-2.96-3.05-6.5-3.51-10.61-3.13-9.78.89-19.6 1.38-29.4 2.04-3.25.21-6.24 1.43-9.3 2.33-6.78 2-13.56 4.02-20.26 6.25-3.34 1.11-6.66 1.59-10.1.96-4.1-.76-7.73.02-11.35 2.23-5.28 3.2-10.81 5.99-16.27 8.9-.94.51-1.8 1.34-3.01 1.18-.75-.84 0-1.45.36-2.03 2.72-4.42 5.5-8.8 8.23-13.22a11.08 11.08 0 0 1 4.6-4.15c3.15-1.6 6.21-3.37 9.4-4.9 1.91-.91 2.44-2.2 2.25-4.23-.68-7.03-1.1-14.1-1.84-21.12-.28-2.73.49-4.55 2.7-6.2 6.3-4.66 12.49-9.49 18.65-14.33a9.21 9.21 0 0 1 6.1-2.09c3.76.06 7.52-.13 11.27-.02 2.39.07 4.35-.64 5.93-2.37 3.42-3.76 6.81-7.53 10.2-11.31.91-1.01 1.57-2.15 1.35-3.6-.46-2.94-.9-5.89-1.38-8.83-.3-1.78-1.34-2.64-3.19-2.7-9.38-.3-18.76-.67-28.15-1-.43-.02-.9-.02-1.31.1a219.42 219.42 0 0 0-19.53 6.31c-.3.12-.54.38-.8.58-3.11 1.2-6.47 1.66-9.47 3.16a3.1 3.1 0 0 0-2.33.8 2.35 2.35 0 0 0-1.8.46c-1.26-.2-2.4.32-3.56.62-5.6 1.43-11.36 1.56-17.08 1.98-.17.01-.36-.21-.58-.36.04-1.1 1.01-1.31 1.73-1.7 3.7-2 7.34-4.1 11.13-5.9 10.88-5.13 20.15-12.71 29.93-19.52 3.36-2.34 6.6-4.82 9.98-7.13a5.04 5.04 0 0 0 2.36-5.07c-.4-4.62-.63-9.25-.97-13.88-.2-2.64-.48-3-2.96-2.72-6.58.74-13.17 1.52-19.73 2.47-3.95.57-7.84 1-11.85.34a915.83 915.83 0 0 0-22.61-3.42 12.88 12.88 0 0 1-6.57-2.85c-3.94-3.22-8-6.28-11.94-9.49-2.87-2.33-2.81-3.08.06-5.23 2.13-1.6 4.3-3.1 6.89-3.9.8-.25 1.93-.4 2.02-1.46.11-1.22-1.1-1.51-1.93-1.98-4.32-2.45-8.66-4.89-13-7.3-4.35-2.42-8.71-4.8-13.07-7.2-.68-.37-1.35-.76-2.07-1.06-1.93-.79-2.74-.7-3.55 1.1-2.98 6.59-7.71 12.46-8.42 20.02-.03.3-.27.57-.44.9-1.28.02-1.6-1.07-2.12-1.82-3.8-5.3-7.55-10.63-11.32-15.95-.45-.63-.9-1.26-1.4-1.85-.75-.86-1.67-1.29-2.5-.2-1.18 1.54-2.67 1.29-4.2.93-3.34-.79-6.67-1.6-10-2.38-.86-.2-1.73-.36-2.61-.46-1.32-.15-2.13.42-2.25 1.8-.04.43-.04.88-.06 1.32-.24 4.5-.35 4.35-4.61 5.24-12.87 2.7-25.95 2.47-38.95 2.68-11.36.18-22.4 2.26-33.5 4.1-4.04.68-8.1 1.12-12.18 1.37-2.75.17-5.5.47-8.25.73-1.57.15-3 .73-4.28 1.65-6.81 4.9-14.41 8-22.45 10.29a396.87 396.87 0 0 0-21.45 6.93c-3.05 1.06-5.73 1.12-8.45-.79-1.53-1.06-3.33-1.74-4.96-2.67-1.57-.9-2.9-.68-4.2.55-2 1.9-4.04 3.77-6.08 5.64-.73.67-1.48 1.32-2.25 1.95-1.34 1.11-2.6.95-3.81-.26-1.4-1.4-2.83-2.8-4.25-4.2-.62-.61-1.2-1.3-1.88-1.85-3.21-2.6-6.56-4.22-10.95-2.84-3.46 1.08-7.12 1.54-10.7 2.23-3.95.76-4.38.44-5.2-3.37-.47-2.27-.92-4.55-1.51-6.8-.53-2-1.17-2.35-2.77-1.27-9.3 6.29-19.57 11.2-27.32 19.72-4.15 4.57-8.75 8.74-13.15 13.1-1.2 1.18-2.48 2.2-4.18 2.54-7.59 1.48-15.18 2.95-22.78 4.4-.42.08-.87 0-1.31-.01.1-1.07.81-1.79 1.41-2.57 2.09-2.72 4.16-5.44 6.27-8.14a92.57 92.57 0 0 1 8.72-9.95c4.87-4.65 9.53-9.52 14.4-14.17 4.63-4.41 8.84-9.29 13.9-13.23 9.66-7.55 19.42-14.96 29.12-22.46a49.17 49.17 0 0 1 7.83-4.92c8.56-4.35 17.07-8.82 25.64-13.16 5.02-2.54 9.86-5.43 15.25-7.22 11.64-3.86 23.24-7.83 34.85-11.75 3.77-1.27 7.54-2.46 11.5-3.07 11.9-1.8 23.77-3.75 35.65-5.64 6.86-1.1 13.71-2.42 20.72-1.41.77.44 1.56.51 2.38.1zm264.72 320.4c3.17 2.67 3.29 3.08 1.3 6.61-2.04 3.66-4.15 7.3-6.22 10.94-.64 1.13-1.24 2.27-2.03 3.74 1.67-.7 33.19-26.32 35.26-28.52-.96-.67-1.92-.23-2.82-.07-5.87 1.02-11.74 2.08-17.6 3.12-3.19.56-6.36.77-9.53-.15-.9-.26-1.88-.7-3.3 0 1.57 1.86 3.35 2.99 4.94 4.33z"/>
  <path fill="#996A4A" d="M479.43 379.36c-11.02 2.86-22.04 5.7-33.04 8.6-1.86.5-3.2.18-4.2-1.55a27.77 27.77 0 0 0-2.28-3.26c-1.36-1.72-2.04-1.78-3.85-.45-.45.33-.83.73-1.25 1.1-8.78 7.74-17.54 15.51-26.37 23.21-4.5 3.93-9.62 7.04-14.4 10.61-2.03 1.53-4.23 2.84-6.18 4.46-5.37 4.44-11.55 7.27-18.03 9.6-3.95 1.43-7.84 3.01-11.7 4.67-7.24 3.12-14.76 5.12-22.48 6.72-15.78 3.26-31.6 6.47-46.93 11.6-11.88 3.96-24.16 6.16-36.41 8.59a478.32 478.32 0 0 0-30.36 6.95c-5.51 1.47-10.88 3.72-16.08 6.14-6.05 2.82-12.05 3.45-18.63 2.3-8.7-1.5-17.53-2.23-26.28-3.44-2.68-.37-4.49.42-6.42 2.33-6.5 6.4-3.82 6.07-13.96 7.54-8.42 1.22-16.8 2.63-25.2 3.97-1.2.19-2.42.31-3.51.91l-1.56-.23c-1.41-.98-3.09-1.16-4.7-1.5a6254.8 6254.8 0 0 0-25.01-5.09c-1.38-.28-2.8-.85-4.15.16-.9-.7-2.06-1.48-.05-2.16 1.43-.49 1.27-1.39.78-2.34-2.37-4.6-4.38-9.48-7.32-13.7A17 17 0 0 0 59 458.24l-.92-1.23c.01-.18-.07-.28-.24-.3-2.5-3.64-4.91-7.3-6.68-11.39-2.72-6.25-5.2-12.61-8.39-18.66-.95-1.8-1.9-3.72-2.2-5.81 1.75-1.24 2.85.02 4.02 1.04a37.37 37.37 0 0 0 6.48 13.57c.67.86 1.57 1.55 2.23 2.42 3.89 5.14 8.91 8.1 15.34 9.24 6.71 1.19 13.3 3.09 19.93 4.67.31.08.64.09 1.43.19-1.14-1.28-2.39-1.58-3.5-2.09-3-1.36-6.17-2.38-8.82-4.43v-.05c5 .42 9.75 1.98 14.53 3.28 10.6 2.9 21.34 4.69 32.26 5.68 3.4.31 6.8.83 10.2 1.17a7.52 7.52 0 0 1 5.38 2.9c.96 1.21 1.97 2.38 3 3.54 2.84 3.22 3.07 3.26 6.5.85 4.34-3.04 8.83-5.92 12.94-9.25 3.5-2.82 7.25-3.78 11.63-3.74 13.15.12 26.26-.89 39.39-1.64a8.91 8.91 0 0 0 6.61-3.15c3.67-4.12 7.57-8.04 11.32-12.08a14.2 14.2 0 0 1 7.22-4.4c8.8-2.16 17.57-4.42 26.3-6.87 6.41-1.8 12.93-2.88 19.54-3.49 6.17-.57 12.26-1.67 18.4-2.45 1.08-.14 2.15-.45 3.21-.76a925.43 925.43 0 0 0 56.92-18.93c2.75-1.02 5.27-1.4 7.94.06 5.45 2.98 10.8 3.11 16.75.71 7.97-3.21 16.34-5.45 24.54-8.12 3.6-1.17 3.66-1.36 2.07-4.91-.59-1.31-1.2-2.6-1.8-3.92-1.51-3.41-1.4-3.66 2.15-4.32a701 701 0 0 1 11.41-2.04c9.15-1.54 18.3-3.05 27.46-4.57.22-.03.44-.05.66-.1.93-.25 2.19-.15 2.45-1.3.21-.95-.85-1.47-1.38-2.14-.35-.43-.76-.8-1.12-1.22-2.84-3.4-6.08-4.46-10.55-2.95-5.53 1.86-11.3 3.02-16.99 4.45-.93.24-1.86.7-2.93.42-.19-1.06.76-1.23 1.33-1.58 3.47-2.15 6.93-4.34 10.5-6.33 2.53-1.42 4.13-3.31 4.17-6.27.04-2.73 1.49-4.09 3.98-4.96 7.2-2.5 14.35-5.16 21.5-7.82 8.1-3 15.63-7.22 23.3-11.16.48-.25.88-.66 1.31-1 1.81-.79 3.76-1 5.68-1.32 1.33-.22 2.23-.8 2.19-2.3 9.63-4.46 19.62-8.03 29.53-11.8 3.3-1.24 5.68-3 7.36-6.14 2.45-4.57 5.33-8.91 7.9-13.42 1.89-3.32 1.6-4.1-1.6-6.15-.38-.24-.77-.45-1.15-.67-4.85-2.9-8.83-6.5-10.76-12.08-1.22-3.54-2.99-6.89-4.44-10.35-.85-2.03-2.28-3.2-4.49-3.37-.22-.02-.44-.04-.65-.1-12.1-3.84-24.27-1.31-36.46-.74-9.28.43-18.05 2.93-26.93 5.15-1.18.3-2.37.57-3.54.87-1.5.38-2.62-.12-3.35-1.44-2.2-3.96-4.45-7.89-6.54-11.9-.91-1.77-.58-2.4 1.38-3.84 4.01-2.94 8.05-5.84 12.05-8.79.84-.61 1.83-1.13 2.16-2.34-18.71 9.17-37.12 18.81-54.61 30.14.58 1.35 1.6 1.02 2.4 1.06 4.63.2 9.27.32 13.9.48.77.03 1.55.04 2.31.17 1.28.2 1.65 1.01 1.19 2.17-.25.6-.6 1.19-.96 1.73-1.67 2.47-3.42 4.89-5.03 7.4-1.4 2.2-3.14 3.08-5.85 2.6-5.54-.96-11.15-1.56-16.7-2.5a13.13 13.13 0 0 0-7.41.9c-13.63 5.5-27.29 10.9-40.95 16.32-1.2.48-2.4 1.07-4.21 1.1 1.28-2.83 3.68-4.28 5.4-6.27 1.8-2.08 3.9-3.9 5.85-5.85 1.87-1.88 3.8-3.7 5.56-5.68 1.83-2.05 4.06-3.72 5.83-6.23-1.04-.27-1.58.29-2.1.7-12.3 9.71-26.59 16.14-40.09 23.86a20.67 20.67 0 0 1-4.3 1.71c-9.2 2.78-18.5 5.27-27.6 8.34-7.94 2.68-15.7 5.9-23.48 9.08-7.56 3.1-15.02 6.43-22.51 9.7-1.74.77-3.5 1.33-5.38 1.59-11.04 1.53-22.11 2.91-33.11 4.74-6.41 1.06-12.7 2.85-19.05 4.32-.43.1-.84.29-1.28.36-9.87 1.55-18.71 5.82-27.47 10.33-.88.45-1.68 1.04-2.52 1.56-.83.28-1.66.78-2.5.8-3.68.1-6.4 1.88-8.67 4.6-7.3.44-14.57-.37-21.86-.58-3.01-.09-5.92.15-8.85.93-9.72 2.56-19.47 5.03-29.22 7.5-1.13.3-2.27.93-3.51.4-.45-1.04.41-1.42.96-1.86 4.76-3.78 9.54-7.53 14.3-11.3a10.93 10.93 0 0 1 6.05-2.47c4.1-.3 7.67-1.84 10.92-4.33 2.36-1.82 4.95-3.33 7.35-5.1 1.9-1.4 1.73-2.2-.46-3.2-2.2-1-4.4-1.15-6.77-.5-10.02 2.75-20.1 5.27-30.08 8.14-3.7 1.07-7.07 1.24-10.53-.63-1.3-.7-2.96-2-4.29-1.06-1.54 1.1-.4 3.07-.2 4.63.4 3.29 1.01 6.55 1.5 9.83.42 2.86.33 3.1-2.35 4.28-4.86 2.14-9.77 4.14-14.62 6.27-2.61 1.15-5.45 1.9-7.6 3.93l-.23-.08-.87.12c-3.27-.66-6.3-1.95-9.33-3.29-2.98-3-6.64-5.16-10.01-7.66-.2-.15-.63-.01-.95 0-.42.02-.84.06-1.26.1a37.36 37.36 0 0 1-1.42-7.77c-.69-9.09-1.46-18.17-2.07-27.26-.39-5.78-1.34-11.53-.93-17.35v.15l.08-1.16.01.13-.39-1.8.17.13.22-.62c-.46-1.18-.55-2.34.18-3.45l.04-1.33c-.49-.42-.39-.76.15-1.02l.1-1.46c-.51-.35-.5-.65.1-.88l.11-1.48c-.4-.27-.55-.53.03-.75l.24-1.09-.03.13c.1-.57.22-1.13.33-1.7 1.75.96 1.81 2.88 2.38 4.45 1.5 4.15 2.9 8.35 4.2 12.58.67 2.17 1.9 3.3 4.2 3.51 13.52 1.32 26.93 3.63 40.56 3.94 3.29.07 5.59-.58 6.73-3.86.85-2.46 2.77-3.4 5.27-3.89 12.58-2.43 25.16-4.88 37.7-7.54 8.42-1.8 16.63-4.48 24.92-6.84 5.95-1.7 11.9-3.4 17.85-5.08 1.83-.52 3.7-.58 5.6-.57 14.24.03 28.5.03 42.75.07 5.8.02 11.39-1.48 17.06-2.33 9.39-1.4 18.73-3.16 28.1-4.71 2.3-.38 4.53-.93 6.74-1.65 8.4-2.73 16.84-5.4 25.27-8.07.92-.29 1.82-.83 3.06-.49-.06 1.36-1.12 2.07-1.92 2.87-6.52 6.45-13.08 12.85-19.6 19.3a15.2 15.2 0 0 1-5.56 3.5c-13.6 4.95-27.17 10-40.8 14.87-4.8 1.72-9.92 2.14-14.9 3.12-11.28 2.22-22.57 4.33-33.85 6.52-1.62.31-3.2.82-4.81 1.23l.02.19c4 1.67 8.18 2.63 12.44 3.3 1.78.29 3.5-.27 5.22-.71l47.83-12.27c6.32-1.61 12.62-3.28 18.98-4.73a43.78 43.78 0 0 0 12.55-5c2.67-1.57 5.47-2.92 8.08-4.58 8.84-5.62 18.47-9.4 28.44-12.43 3.38-1.02 6.71-2.22 10.06-3.36.8-.28 1.71-.39 2.24-1.24-2.85-1.47-2.93-1.5-1.67-4.45 3.3-7.73 1.8-6.37 9.27-9.78 8.74-4 17.5-7.97 26.33-11.75 5.39-2.3 11.15-3.55 16.73-5.3 6.01-1.87 12.03-3.76 18.1-5.39 3.4-.9 5.95-2.8 8.18-5.32 3.8-4.3 7.7-8.53 11.38-12.93 2.52-3 5.3-4.73 9.43-4.19 5.34.7 10.46-.28 15.56-2.2 8.48-3.18 17.13-5.9 25.7-8.8.63-.22 1.26-.44 1.86-.72 1.26-.57 1.54-1.54.86-2.7-.77-1.34-1.66-2.61-2.46-3.93-1.6-2.65-1.46-3.29 1.36-4.49 4.78-2.03 9.57-4.02 14.41-5.9a200.28 200.28 0 0 0 24.96-11.5 16.94 16.94 0 0 0 5.33-4.36c3-3.84 6.1-7.58 9.1-11.4.65-.83 1.65-1.52 1.47-2.8-.78-.75-1.7-.46-2.54-.4-7.05.46-14.1.95-21.15 1.44-1.43.1-2.86.27-4.27-.23.27-.2.5-.46.8-.58 6.4-2.46 12.94-4.45 19.53-6.3a4.4 4.4 0 0 1 1.32-.1c9.38.33 18.76.69 28.15 1 1.85.06 2.89.91 3.18 2.7.48 2.93.93 5.88 1.38 8.83.23 1.45-.43 2.58-1.34 3.6-3.4 3.77-6.79 7.55-10.2 11.3a7.24 7.24 0 0 1-5.94 2.37c-3.75-.11-7.5.08-11.26.03a9.21 9.21 0 0 0-6.1 2.08 847.01 847.01 0 0 1-18.65 14.34c-2.22 1.64-2.99 3.46-2.7 6.2.73 7.02 1.16 14.08 1.83 21.11.2 2.04-.33 3.32-2.25 4.24-3.18 1.52-6.24 3.3-9.4 4.89-1.93.97-3.46 2.3-4.6 4.16-2.72 4.41-5.5 8.8-8.23 13.21-.36.59-1.1 1.2-.36 2.03 1.22.16 2.08-.67 3.02-1.17 5.45-2.92 10.99-5.7 16.27-8.91 3.62-2.2 7.25-2.99 11.35-2.23 3.44.63 6.75.16 10.1-.95 6.7-2.24 13.48-4.26 20.25-6.26 3.07-.9 6.06-2.11 9.3-2.33 9.8-.65 19.62-1.15 29.4-2.04 4.12-.38 7.65.08 10.62 3.13 1.75 1.81 3.8 1.91 6.09 1 2.66-1.07 5.4-1.95 8.1-2.9 4.01-1.39 4.45-1.2 6.38 2.7.93 1.88 1.68 3.87 2.78 5.64 1.47 2.37 1.3 4.34-.2 6.71-8.16 12.74-16.18 25.56-24.21 38.38a31.02 31.02 0 0 1-4.54 5.67c-5.34 5.28-11.15 10.06-16.72 15.09-6.48 5.85-13.11 11.47-20.6 16.06-3.65 2.25-7.4 4.42-10.65 7.29-.08.03-.17.05-.23.1-.02.02.02.12.03.18l.24-.05c.86.29 1.74.3 2.62.2 4.06-.39 8.13-.83 12.2-1.18 2.96-.26 5.93-.46 8.9-.58 1.99-.07 2.41.47 2.1 2.36-.1.65-.31 1.28-.5 1.91-1.78 5.7-3.55 11.39-5.34 17.07-1.21 3.84-1.23 3.83-5.2 4.22-.14.02-.26.3-.4.48.17.73.87.91 1.41 1.25 1.04.64 2.1 1.23 3.11 1.9.6.4 1.6.63 1.4 1.6-.2.9-1.17.9-1.86 1.18-.51.2-1.05.34-1.57.52-4.1 1.33-8.25 2.5-12.26 4.06-3.3 1.28-6.31 1.4-9.55-.16-2.51-1.22-5.23-2.01-7.86-3 3.24 4.2 7.63 6.93 11.41 10.76-1.72.81-3.03.45-4.3.3l-48-5.76c-1.23-.15-2.5-.6-3.79.3a106.34 106.34 0 0 1 20.44 7.3l-.02.43zm-9.5-24.7l.22.05c3.02 1.15 6.23 1.37 9.36 1.96 5.84 1.1 11.73 1.96 17.58 3.03 2.1.39 3.87.1 5.5-1.35 2.15-1.9 4.4-3.67 6.58-5.52.42-.36.81-.82.47-1.43-.24-.42-.71-.5-1.15-.48-1 .02-1.99.05-2.97.14l-27.3 2.48c-1.42.13-2.85.2-4.28.25-1.34.04-2.64.15-3.79.94l-.21-.06z"/>
  <path fill="#B1876F" d="M170.75 321.92c1.6-.42 3.19-.93 4.81-1.24 11.28-2.19 22.57-4.3 33.85-6.52 4.98-.98 10.1-1.4 14.9-3.12 13.63-4.88 27.2-9.92 40.8-14.87a15.18 15.18 0 0 0 5.56-3.5c6.52-6.44 13.08-12.85 19.6-19.3.8-.8 1.86-1.51 1.92-2.86-1.24-.35-2.14.2-3.06.48-8.43 2.67-16.86 5.34-25.27 8.07a45.99 45.99 0 0 1-6.74 1.65c-9.38 1.55-18.71 3.3-28.1 4.71-5.67.85-11.26 2.35-17.06 2.33-14.25-.04-28.5-.04-42.76-.07-1.88 0-3.76.05-5.59.57-5.95 1.68-11.9 3.38-17.85 5.08-8.29 2.36-16.5 5.04-24.93 6.84a2035.8 2035.8 0 0 1-37.7 7.54c-2.49.48-4.4 1.43-5.26 3.9-1.14 3.28-3.44 3.92-6.73 3.85-13.63-.3-27.04-2.62-40.56-3.93-2.3-.23-3.53-1.35-4.2-3.52a269.3 269.3 0 0 0-4.2-12.58c-.57-1.57-.63-3.49-2.39-4.45-.56-1.06-.2-2.16-.09-3.23.86-8.34 1.74-16.67 2.61-25a73.4 73.4 0 0 1 2.4-12.66c2-7 3.9-14.02 5.85-21.04.44-1.59.86-3.19 1.78-4.6.6-.46 1.34-.84 1.8-1.42 3.36-4.24 7.47-7.83 10.64-12.24a14.93 14.93 0 0 1 4.95-4.32c5.29-2.98 10.54-6.03 15.8-9.06.97-.55 1.93-1.08 2.87-1.67 3.27-2.06 3.37-2.56 1.15-5.66-.84-1.16-1.54-2.47-2.55-3.46-3.55-3.49-4.01-7.93-4.2-12.52-.06-1.5.3-2.58 1.8-3.14 4.74-1.8 9.47-3.67 14.24-5.41 1.62-.6 2.13-.1 2.07 1.8-.15 4.19-.37 8.38-.56 12.57-.03.66-.1 1.33-.08 1.99.06 1.91.73 2.45 2.5 1.63 3.6-1.67 7.14-3.5 10.68-5.3 7.1-3.6 14.18-7.2 21.25-10.84a12.8 12.8 0 0 1 5.74-1.3c10.4-.25 7.02 1.04 14.73-5.46 3.13-2.63 6.16-5.37 9.25-8.05 1-.87 1.98-1.77 3.03-2.57 2.22-1.71 2.78-1.6 3.94.85.57 1.2 1 2.45 1.53 3.67.52 1.22 1 2.47 1.64 3.62.74 1.35 1.5 1.48 2.6.33 1.89-2.01 3.62-4.17 5.03-6.56a49.04 49.04 0 0 1 5.42-7.1c1.5-1.73 2.41-1.91 3.76-.13 2.62 3.5 5.89 4.21 9.9 3.35 1.27-.27 2.64-.06 3.96-.17 4.1-.33 4.37-.66 3.8-4.62-.25-1.74-.68-3.47-.9-5.22-.37-2.88.08-3.32 2.67-4.5 5.64-2.6 11.54-2.65 17.53-2.04.89.1 1.77.29 2.48.83 1.93 1.48 3.9 2.91 5.7 4.54 1.48 1.34 1.39 2.22-.05 3.61-.63.61-1.36 1.13-2.07 1.66-3.95 3.02-7.91 6.01-11.87 9.03-1.23.93-2.5 1.83-3.47 3.06l-.54.24c.33.39.37-.14.56-.18 2.28-.12 4.18-1.36 6.2-2.19 5.93-2.44 11.64-5.39 17.81-7.2 1.27-.37 2.53-.89 3.83-1.05 6.54-.8 12.64-3 18.64-5.62 8.82-3.85 18.04-6.6 27.15-9.67 9-3.04 17.92-6.32 26.88-9.48a14.52 14.52 0 0 0 5.04-3.1c3.33-3.08 6.68-6.13 10.05-9.15.95-.84 1.83-1.84 3.47-2.44.06 2.4-.82 4.2-1.37 6.05-1.85 6.3-2.15 5.63 3.15 9.9.77.63 1.58 1.21 2.34 1.85a5.1 5.1 0 0 0 4.64 1.12c4.85-1.07 9.77-1.8 14.6-3.07 7.15-1.87 14.36-3.57 21.54-5.34.63-.15 1.27-.45 2.2.01-.35 1.74-1.85 2.83-2.7 4.27a41.11 41.11 0 0 1-2.76 4.12c-2.77 3.59-5.6 7.12-8.4 10.68-.48.61-.95 1.23-1.35 1.9-.56.93-.26 1.68.64 2.22.1.06.2.12.3.16 6.69 2.6 13.38 5.2 20.08 7.77 1.07.4 2.19.17 3.26-.14 9.35-2.7 18.7-5.37 28.02-8.1 2.05-.6 2.2-1.28.74-2.67-2.15-2.06-4.38-4.03-6.58-6.05a6.8 6.8 0 0 0-5.79-1.77c-4.6.57-9.22 1.03-13.85 1.38-1.47.12-3.76.81-4.28-.56-.66-1.7 1.76-2.14 2.93-2.94 3.65-2.48 7.4-4.82 11.14-7.19 3.65-2.31 3.9-2.25 6.84 1.1 4.97 5.64 10.02 11.2 14.88 16.93 1.8 2.13 3.66 2.75 6.37 2.18 18.8-3.96 37.68-7.58 56.57-11.13 2.48-.46 4.57-.21 6.42 1.6 3.16 3.08 6.43 6.05 9.52 9.2 1.8 1.85 1.63 2.45-.74 3.62s-4.83 2.18-7.21 3.35c-17.15 8.46-34.7 16.03-52.28 23.52-9.55 4.07-18.92 8.59-28.33 12.98-5.61 2.62-11.27 5.07-17.29 6.65-17.68 4.66-34.5 11.71-51.21 19-9.27 4.03-18.9 6.8-28.6 9.4-5.65 1.5-11.37 2.8-16.86 4.87-.31.07-.67.06-.94.21-.24.14-.12.43.14.36.3-.08.54-.34.81-.52 1.62.76 3.27.27 4.88.02 9.72-1.49 19.26-3.75 28.65-6.67 4.53-1.4 9.12-2.6 13.67-3.9 2.25-.65 4.53-.87 6.87-.76 3.2.15 6.42-.01 9.6.31 6.27.65 11.93-1.74 17.74-3.34 9.15-2.5 18.25-5.17 27.37-7.77a6 6 0 0 1 2.92-.33c-1.49 1.36-3.33 2.16-5.09 3.07-4.6 2.4-9.27 4.68-13.86 7.12a25.26 25.26 0 0 1-8.16 2.62c-8.52 1.3-17.03 2.6-25.57 3.78-6.28.87-12.21 3.05-18.21 4.91a1649.84 1649.84 0 0 1-68.22 19.38c-18.5 4.9-37.24 8.66-55.85 13a653.94 653.94 0 0 0-32.97 8.84c-12.98 3.76-26.2 6.3-39.4 9.03-20.77 4.3-41.55 8.61-62.33 12.88-1.98.4-3.96 1.21-6.23.78.75-2.8 2.77-3.76 5.03-4.47 7.16-2.28 14.39-4.38 21.47-6.89 15.7-5.56 31.98-8.59 48.3-11.54 5.01-.9 9.9-2.26 14.66-4.07a276.3 276.3 0 0 1 47.55-13.07c15.13-2.82 29.71-7.72 44.47-11.94 20.19-5.77 40.02-12.7 60.27-18.28 6.07-1.67 12.19-3.26 18.1-5.4 6.43-2.33 12.65-5.25 18.95-7.92 5.09-2.16 10.16-4.35 15.25-6.48a34.03 34.03 0 0 0 8.04-4.58c4.08-3.2 8.27-6.27 12.38-9.45a11.65 11.65 0 0 1 5.38-2.38c10.36-1.7 20.7-3.48 31.05-5.17a21.7 21.7 0 0 0 7.49-2.51c7.76-4.47 15.52-8.92 23.32-13.32 2.3-1.3 3.98-3.1 5.22-5.39 1.67-3.11 3.4-6.2 5.07-9.3.5-.94 1.55-1.96.7-3-.72-.86-1.88-.17-2.81.07-6.3 1.65-12.64 3.2-18.9 5-16.28 4.66-32.85 8.01-49.37 11.57-8.15 1.76-15.81 4.95-23.66 7.59-5.86 1.97-11.71 4-17.5 6.2-6.03 2.28-12.35 3.37-18.6 4.8-5.91 1.36-11.92 2.4-17.79 3.94-7.15 1.87-14.41 2.05-21.7 2.18-2.3.04-4.63.57-6.92-.1l-.04-.32c3.15-1.98 6.81-2.52 10.27-3.6 6.64-2.1 13.33-4.02 19.99-6.05 2.94-.9 2.97-1.01 2.88-4.25-.01-.44-.06-.89-.05-1.33.05-2.31.3-2.7 2.61-2.94 3.96-.4 7.93-.68 11.89-1.03 1.19-.11 2.43.13 3.7-.56-.27-1.06-1.25-1.1-1.98-1.38a175.8 175.8 0 0 0-39.4-10.03c-.77-.1-1.57-.16-2.3-.4-4.87-1.58-9.3-.66-13.55 2.06-2.13 1.37-4.54 2.3-6.77 3.5-.93.5-2.33.78-2.38 2.06-.05 1.3 1.3 1.64 2.24 2.17 4.32 2.46 8.66 4.89 13 7.33.57.32 1.18.6 1.71 1 1.3.95 1.27 1.58-.1 2.48-.54.37-1.15.64-1.74.94-9.16 4.66-18.36 9.2-28.22 12.3-6.43 2.02-12.72 4.47-19.11 6.6-2.37.79-4.1 2.09-5.06 4.4-.34.8-.85 1.55-1.2 2.36-.95 2.2-2.6 3.4-4.92 3.99-14.25 3.6-28.52 7.1-42.89 10.18-.54.12-1.09.2-1.63.26-.45.05-.93.01-1.16-.44-.32-.61.07-1.05.53-1.38.7-.53 1.44-1.02 2.18-1.5 5.01-3.25 10.02-6.49 15.04-9.71a11.3 11.3 0 0 0 3.64-3.32c4.56-7.14 10.34-13.2 16.76-18.67 3.7-3.15 7.35-6.37 11-9.57.56-.5 1.04-1.09 1.6-1.69-1-.79-1.85-.25-2.62-.04a74.92 74.92 0 0 0-5.7 1.77c-10.9 3.94-22.34 5.26-33.68 7.06-5.23.84-5.5 1.06-4.84 6.36.37 2.96.84 5.9 1.32 8.85.34 2.1-.2 3.86-1.56 5.52-5.23 6.43-10.4 12.91-15.57 19.39a8.45 8.45 0 0 1-4.24 3 18349 18349 0 0 0-41.86 12.75 29.5 29.5 0 0 1-6.5 1.25c-7.6.55-15.13 1.79-22.76 2.08-3.54.13-6.99.83-10.41 1.85-6.56 1.96-13.2 3.64-19.8 5.5-1.76.49-3.45.53-5.23.17-4.98-1.01-9.97-1.96-14.96-2.9-4.15-.79-4.23-.65-5.5 3.48-.99 3.15-.84 6.09 1.05 8.86.35 2.34.79 4.68 1.01 7.03.16 1.64.7 2.9 2.21 3.65-.21 2.07.62 3.94 1.3 5.77 1.79 4.74.47 9.38-.14 14.05-.16 1.3-1.21 2.07-2.22 2.76-1.81 1.26-3.67 2.46-5.47 3.74-2.02 1.43-2.02 1.6-.66 3.96.12 3.96 1.73 6.6 6.06 6.91.72.06 1.42.53 2.13.8 1.93 3.72 5.26 6.2 8.05 9.14.9.95 2.25.8 3.47.64 9.19-1.27 18.37-2.59 27.57-3.82 4.27-.58 8.55-1.2 12.84-1.46 11.04-.69 22-2.11 32.98-3.3 5.05-.54 9.81-2.57 14.69-3.99 8.28-2.4 16.54-4.86 24.8-7.3 1.16-.34 2.37-.61 3.24-1.57l8.01-1.44c1.32.76 2.78.67 4.2.64 12.16-.21 24.3-.45 36.45-.67 1.9-.03 3.74-.36 5.56-.85l32.6-8.93c4.81-1.3 9.8-1.6 14.7-2.45 5.87-1.01 11.8-1.76 17.7-2.58 4.3-.6 8.35-2.02 12.38-3.6 7.72-3 15.47-5.94 23.2-8.94 2.58-1 5.23-1.7 7.99-2.06 7.12-.92 14.23-1.9 21.34-2.9 3.05-.42 3.22-.67 3.35-3.78.08-2.1.12-4.2.22-6.3.08-1.7.98-2.64 2.7-2.74 1.65-.1 3.3-.16 4.96-.26 8.15-.47 16.31-.99 24.47-1.38 1.92-.09 3.05-.84 3.82-2.56 1.26-2.82 2.8-5.52 3.99-8.37 1.18-2.83 3.1-4.61 5.88-5.9a3274.2 3274.2 0 0 0 36.29-17.07c7.98-3.8 15.9-7.73 23.84-11.6.5-.25 1-.48 1.46-.78 1.1-.7 1.13-1.62.22-2.45a39.32 39.32 0 0 0-3.37-2.67c-1.43-1.03-3-1.89-4.34-3.03-1.88-1.63-3.74-1.87-6.1-1.03-7.7 2.73-15.47 5.28-23.22 7.89-1.14.38-2.25.98-3.52.7 2.65-2.29 6.01-3.18 9.1-4.6 13.36-6.1 27.28-10.71 41.15-15.45 1.57-.54 3.17-1 4.39-2.22.66.1 1.26-.04 1.8-.46.9.11 1.68-.16 2.33-.8 3-1.5 6.36-1.96 9.47-3.16 1.4.5 2.84.32 4.27.23 7.05-.49 14.1-.98 21.15-1.44.84-.06 1.76-.35 2.54.4.18 1.28-.83 1.97-1.47 2.8-3.01 3.82-6.11 7.56-9.1 11.4a16.93 16.93 0 0 1-5.33 4.35 200.28 200.28 0 0 1-24.96 11.5 496.59 496.59 0 0 0-14.41 5.91c-2.82 1.2-2.96 1.83-1.36 4.49.8 1.32 1.68 2.59 2.46 3.92.68 1.17.4 2.14-.86 2.71-.6.28-1.23.5-1.86.71-8.57 2.92-17.22 5.64-25.7 8.81-5.1 1.92-10.22 2.9-15.56 2.2-4.13-.54-6.92 1.2-9.43 4.2-3.69 4.4-7.57 8.62-11.38 12.92-2.23 2.53-4.8 4.42-8.18 5.32-6.07 1.63-12.09 3.52-18.1 5.4-5.58 1.74-11.35 2.99-16.73 5.3a1196.9 1196.9 0 0 0-26.33 11.74c-7.47 3.41-5.97 2.05-9.27 9.78-1.26 2.95-1.19 2.98 1.67 4.45-.53.85-1.44.96-2.24 1.24-3.35 1.14-6.68 2.34-10.06 3.36-9.97 3.03-19.6 6.8-28.45 12.43-2.6 1.66-5.4 3.01-8.07 4.58a43.8 43.8 0 0 1-12.56 5c-6.35 1.45-12.65 3.12-18.97 4.73-15.95 4.08-31.89 8.18-47.84 12.27-1.7.44-3.43 1-5.21.72a53.5 53.5 0 0 1-12.45-3.31l-.01-.2zm-9.3-129.63c-8.66 3.02-17.29 6.13-25.96 9.1-8.99 3.07-18.27 5.13-27.38 7.8-3.6 1.06-7.3 1.82-10.84 3.05-2.96 1.03-5.5.67-8.21-.8-5.14-2.8-10.45-5.27-15.61-8.04-2.3-1.23-4.48-1.57-6.96-.71-3.13 1.07-6.34 1.93-9.48 2.97-2.37.78-2.62 1.3-1.4 3.28 3.3 5.36 6.7 10.66 10.01 16 1.03 1.66 2.4 2.11 4.23 1.75 4.77-.92 9.55-1.77 14.33-2.68 21.9-4.2 43.76-8.65 65.58-13.28 6.8-1.45 5.44-.57 8.9-6.6 1.71-2.98 3.33-6 4.97-9 .52-.96 1.11-1.9 1.25-3.24-1.43-.58-2.43.05-3.44.4zm74.26-20.39c-2.95-.8-4.88 1.11-6.86 3.02 2.47 1.07 11.89 1.42 16.53.1-3.22-1.05-6.4-2.24-9.67-3.12z"/>
  <path fill="#996A4A" d="M199.07 154.29c2.28-.13 4.18-1.36 6.2-2.2 5.93-2.43 11.64-5.38 17.81-7.2 1.27-.37 2.53-.88 3.83-1.04 6.55-.81 12.64-3.02 18.64-5.63 8.83-3.84 18.05-6.59 27.15-9.66 9-3.04 17.92-6.33 26.88-9.49a14.52 14.52 0 0 0 5.04-3.1c3.33-3.07 6.68-6.12 10.06-9.14.94-.85 1.83-1.85 3.47-2.44.05 2.4-.83 4.2-1.38 6.05-1.85 6.3-2.15 5.62 3.15 9.9.77.62 1.58 1.2 2.34 1.85a5.1 5.1 0 0 0 4.64 1.11c4.86-1.07 9.77-1.8 14.6-3.06 7.15-1.87 14.36-3.58 21.55-5.34.62-.16 1.26-.45 2.2 0-.36 1.74-1.86 2.83-2.71 4.27a41.11 41.11 0 0 1-2.76 4.13c-2.77 3.58-5.6 7.12-8.4 10.68-.48.6-.95 1.23-1.35 1.89-.56.93-.26 1.68.64 2.22.1.06.2.12.3.16 6.69 2.6 13.38 5.2 20.08 7.77 1.07.41 2.19.17 3.27-.14 9.34-2.7 18.68-5.37 28.01-8.1 2.05-.6 2.2-1.28.75-2.67-2.16-2.05-4.4-4.03-6.59-6.05a6.8 6.8 0 0 0-5.79-1.76c-4.6.56-9.22 1.02-13.85 1.38-1.47.11-3.76.8-4.28-.57-.65-1.7 1.76-2.14 2.93-2.93 3.65-2.5 7.4-4.83 11.14-7.2 3.65-2.31 3.9-2.24 6.85 1.1 4.96 5.64 10.01 11.2 14.87 16.94 1.8 2.12 3.66 2.74 6.37 2.17 18.8-3.96 37.68-7.57 56.58-11.12 2.47-.47 4.56-.22 6.4 1.59 3.17 3.08 6.44 6.05 9.53 9.2 1.81 1.86 1.63 2.45-.74 3.62-2.37 1.18-4.83 2.19-7.2 3.36-17.16 8.45-34.7 16.02-52.29 23.52-9.55 4.07-18.91 8.58-28.32 12.98-5.62 2.62-11.27 5.06-17.3 6.65-17.68 4.66-34.5 11.7-51.21 19-9.26 4.03-18.89 6.8-28.6 9.4-5.65 1.5-11.37 2.8-16.85 4.87v.04c1.63.76 3.27.28 4.89.03 9.71-1.5 19.25-3.76 28.64-6.68 4.53-1.4 9.12-2.6 13.68-3.9 2.24-.64 4.53-.86 6.87-.75 3.2.14 6.41-.02 9.58.3 6.28.65 11.94-1.74 17.75-3.33 9.15-2.51 18.25-5.18 27.37-7.78a6 6 0 0 1 2.93-.33 204.35 204.35 0 0 1 18.02-7.55c.5-.48 1.1-.7 1.79-.6l.06-.04c2.65-2.29 6.02-3.18 9.1-4.6 13.36-6.1 27.28-10.7 41.16-15.45 1.56-.53 3.16-1 4.38-2.21-1.26-.2-2.39.31-3.56.61-5.6 1.44-11.36 1.57-17.08 1.99-.17 0-.35-.22-.58-.37.04-1.1 1.02-1.3 1.74-1.7 3.7-2 7.34-4.1 11.13-5.9 10.88-5.13 20.15-12.7 29.93-19.52 3.35-2.33 6.6-4.82 9.98-7.13a5.04 5.04 0 0 0 2.35-5.06c-.39-4.62-.63-9.26-.96-13.89-.2-2.64-.49-3-2.96-2.72-6.59.75-13.17 1.52-19.73 2.47-3.96.58-7.84 1.01-11.85.34a915.83 915.83 0 0 0-22.61-3.41 12.88 12.88 0 0 1-6.58-2.85c-3.93-3.22-7.99-6.29-11.93-9.5-2.87-2.33-2.82-3.08.06-5.23 2.13-1.59 4.29-3.1 6.88-3.9.8-.25 1.94-.4 2.03-1.45.1-1.23-1.1-1.52-1.93-1.99-4.33-2.45-8.66-4.88-13.01-7.3s-8.7-4.8-13.06-7.2c-.68-.37-1.36-.76-2.07-1.05-1.93-.8-2.74-.7-3.55 1.09-2.99 6.6-7.71 12.47-8.42 20.02-.03.3-.28.58-.44.9-1.29.02-1.6-1.07-2.13-1.82-3.79-5.3-7.54-10.63-11.32-15.94-.44-.63-.9-1.27-1.4-1.85-.74-.87-1.67-1.3-2.5-.21-1.18 1.54-2.66 1.3-4.2.93-3.33-.78-6.66-1.6-10-2.38-.85-.2-1.73-.36-2.6-.46-1.32-.15-2.13.42-2.25 1.8-.04.44-.04.88-.07 1.32-.23 4.5-.34 4.36-4.6 5.25-12.88 2.69-25.95 2.46-38.96 2.67-11.36.18-22.4 2.26-33.5 4.1-4.03.68-8.09 1.12-12.17 1.38-2.75.17-5.5.47-8.25.72-1.58.15-3 .74-4.28 1.66-6.81 4.9-14.42 8-22.46 10.28a396.87 396.87 0 0 0-21.44 6.93c-3.05 1.06-5.73 1.13-8.46-.78-1.53-1.07-3.32-1.75-4.95-2.68-1.58-.9-2.91-.68-4.2.56-2 1.9-4.05 3.76-6.08 5.63-.73.67-1.48 1.32-2.25 1.96-1.34 1.1-2.61.95-3.82-.27-1.4-1.4-2.83-2.8-4.24-4.19-.63-.62-1.2-1.3-1.89-1.86-3.2-2.6-6.55-4.21-10.94-2.84-3.46 1.08-7.12 1.54-10.7 2.23-3.95.76-4.39.45-5.2-3.37-.48-2.27-.92-4.55-1.52-6.79-.53-2-1.16-2.36-2.77-1.28-9.3 6.3-19.57 11.21-27.31 19.72-4.16 4.57-8.76 8.74-13.15 13.1-1.2 1.18-2.49 2.2-4.18 2.54-7.6 1.48-15.19 2.95-22.78 4.4-.42.08-.88 0-1.32-.01l-1.52 2.06c-.01.44.1.93-.06 1.3-1.96 4.45-3.22 9.14-4.78 13.72a13.51 13.51 0 0 1-2.59 4.57c-4.6 5.33-9.2 10.66-13.82 15.99a6.46 6.46 0 0 1-2.3 1.84l-.89 1.73-.26.8-.54 1.1c.02.55-.17 1-.58 1.37l-.54 1.15c.02.51-.15.95-.53 1.3l-.57 1.1c.26.66.04 1.13-.6 1.41l-.51 1.1c.26.65.06 1.12-.58 1.4l-.56 1.08c.31 1.44-.12 2.57-1.4 3.35l-.55 1.05c.3.9.06 1.77-.28 2.58a597.1 597.1 0 0 1-3.7 8.5c-.31.7-.72 1.37-1.45 1.75l-.57 1.06c.34 2.2-.78 3.82-2.1 5.37l-.5 1.16c.03.5-.12.91-.47 1.26-.1.21-.18.43-.27.65l-.01.76c-.57 2.63-2.1 5.02-1.96 7.83.6-.47 1.33-.84 1.8-1.43 3.35-4.24 7.47-7.83 10.63-12.24a14.93 14.93 0 0 1 4.95-4.32c5.3-2.97 10.55-6.03 15.81-9.06.96-.55 1.93-1.08 2.86-1.67 3.28-2.05 3.37-2.56 1.15-5.65-.84-1.17-1.54-2.48-2.55-3.47-3.55-3.49-4-7.93-4.2-12.52-.06-1.5.3-2.57 1.8-3.14 4.75-1.8 9.47-3.67 14.24-5.41 1.62-.6 2.14-.1 2.07 1.8-.15 4.19-.37 8.38-.56 12.57-.03.66-.1 1.33-.08 1.99.07 1.91.74 2.45 2.5 1.63 3.61-1.66 7.14-3.5 10.69-5.3 7.09-3.6 14.18-7.2 21.24-10.84a12.8 12.8 0 0 1 5.74-1.3c10.41-.25 7.02 1.04 14.73-5.46 3.13-2.63 6.17-5.37 9.25-8.05 1-.87 1.98-1.77 3.03-2.57 2.22-1.7 2.78-1.59 3.95.85.57 1.2 1 2.46 1.52 3.67.52 1.22 1 2.47 1.64 3.62.75 1.35 1.51 1.48 2.6.33 1.9-2.01 3.63-4.16 5.03-6.56a49.04 49.04 0 0 1 5.42-7.1c1.5-1.73 2.42-1.91 3.76-.12 2.63 3.49 5.9 4.2 9.9 3.35 1.28-.28 2.65-.07 3.97-.18 4.1-.33 4.36-.66 3.8-4.61-.26-1.75-.69-3.47-.91-5.22-.37-2.9.08-3.33 2.67-4.52 5.65-2.58 11.54-2.64 17.53-2.03.9.1 1.77.3 2.49.84 1.93 1.47 3.9 2.9 5.7 4.53 1.48 1.34 1.38 2.22-.06 3.61-.63.62-1.36 1.13-2.06 1.67-3.96 3-7.92 6-11.87 9.02-1.23.94-2.5 1.84-3.47 3.06l.01.07z"/>
  <path fill="#BCABA8" d="M123.28 491.07c14.4-2.07 28.8-4.17 43.22-6.18 7.66-1.07 15.4-1 23.1-1.4.43-.02.87.17 1.3.26-.99.81-2.17 1.05-3.38 1.26-11.09 2-22.17 4.05-33.27 5.97-7.85 1.36-15.84 1.4-23.75 2.2-5.72.57-11.45.96-17.17 1.43-.55.05-1.11.05-1.65.16-.94.18-2.18.1-2.29 1.43-.08 1.04.9 1.44 1.68 1.83 5.86 2.86 11.73 5.7 17.6 8.54a6.7 6.7 0 0 0 3.24.52c13.8-.46 27.6-.86 41.4-1.42 2.62-.1 5.23-.78 7.83-1.27 17.26-3.25 34.52-6.54 51.78-9.79 8.25-1.55 16.5-3.05 24.76-4.58.44-.08.9-.12 1.3-.3 6.48-2.8 12.96-5.62 19.43-8.46.26-.1.4-.47 1-1.2-9.68-.31-18.85 1.56-28.3 1.41.51-1.99 2.07-2.64 3.06-3.73.96-1.06 2.09-1.97 3.07-3.02 1.07-1.15 1.51-2.44.45-3.87-1.06-1.44-2.32-.92-3.56-.35-6.83 3.12-13.67 6.24-20.48 9.41-4.18 1.95-8.49 2.19-12.93 1.3.88-.9 2-1.37 3.15-1.78 18.17-6.6 36.05-14 54.62-19.51 9.53-2.83 18.91-6.2 28.5-8.83 7.87-2.16 15.93-3.62 23.92-5.38l22.99-5.03c4.67-1.03 8.95-3.17 13.37-4.87 8.57-3.29 17.05-6.77 25.61-10.07a19.6 19.6 0 0 0 7.73-5.47c6.7-7.5 13.56-14.83 20.37-22.22.14-.15.38-.2.73-.38.17 1-.37 1.7-.78 2.43-2.58 4.63-5.11 9.3-7.79 13.87a14.48 14.48 0 0 0-2.02 6.9c-.27 6.4-.74 12.8-.97 19.2-.12 3.34-.83 6.57-1.43 9.82-.73 3.95-.58 4.17 3.42 5.13l25.13 6.05c.65.15 1.29.33 1.91.56.51.18 1.1.38 1.12 1.05.01.62-.5.96-.97 1.23l-11.37 6.15c-3.8 2.04-7.66 3.97-11.37 6.16-6.14 3.63-12.77 6.02-19.52 8.16-12.42 3.96-24.8 8.06-37.27 11.85-11 3.35-22.16 6.12-33.1 9.6a1201.28 1201.28 0 0 0-38.28 13.05c-4.95 1.76-10.07 2.5-15.16 3.46-18.77 3.58-37.62 6.75-56.46 9.94-.21.04-.44.05-.65.1-.72.18-1.73-.01-2 .86-.32 1 .75 1.2 1.34 1.62 1.44 1.01 2.92 1.98 4.4 2.95.54.35 1.15.62 1.4 1.48-1.18.7-2.4.4-3.56.33-8.71-.51-17.43-.98-26.13-1.63-11.38-.85-22.76-.24-34.13-.04-11.45.2-11.34.12-21.44-5.53-11.22-6.28-21.46-13.96-31.89-21.4-4.05-2.88-8.17-5.65-12-8.83-1.24-1.02-1.9-2.8-3.8-2.95l-1.38-1.6-.24-1.33-.13-.23-7.34-9.34c1.52-.58 3.06-.22 4.57-.03 7.63.96 15.26 1.97 22.89 2.94 1.2.16 2.4.4 3.6.07l1.55.23a25.82 25.82 0 0 0 11.42 1.11zm131.44 23.07c-7.28.28-14.55.59-21.82.89-.55.02-1.1.08-1.66.06-2.31-.08-2.9-.4-3.49-2.68-.47-1.8-1.33-2.6-3.22-2.54-9.15.25-18.3.44-27.46.66-.42.01-.83.17-1.17.25-.38.96.24 1.4.74 1.75 4.12 2.93 7.15 6.88 10.08 10.88 1.96 2.66 4.12 3.32 7.4 2.73 10.41-1.9 20.9-3.46 31.36-5.04 4.86-.74 8.65-3.57 13.27-5.9-1.6-1.34-2.86-1.1-4.03-1.06z"/>
  <path fill="#996A4A" d="M164.19 562.37c-.33-.86-.89-1.33-1.85-1.14l-1.63-.9c-2.2-2.54-4.75-4.44-8.22-4.78l-1.45-1.17a4.48 4.48 0 0 0-1.73-1.95 240.96 240.96 0 0 1-20.92-14.42c-.33-.26-.8-.35-1.2-.51-1.2-.96-2.6-1.7-3.5-3 1.48-1.15 2.76-.16 4 .43 9.78 4.65 19.54 9.32 29.3 14.02 1.6.77 3.25 1.37 4.99 1.75l30.8 6.57c1.74.38 3.48.42 5.26.22 10.2-1.17 20.43-2.19 30.62-3.52 4.6-.6 9.18-1.34 13.79-1.84 1.55-.17 3.02-.65 4.48-1.18 18.68-6.8 37.35-13.66 56.4-19.4 1.05-.31 2.03-.85 3.05-1.28v-.05c-2.99-1.41-6.29-1.07-9.41-1.71-1.15-.24-2.44.05-3.44-.96.51-1.06 1.49-.77 2.28-.78 4.2-.09 8.4-.2 12.58-.15 5.22.05 10.35-.7 15.47-1.54 4.8-.79 9.57-1.79 14.4-2.25 11.08-1.07 21.64-4 32-8 11.01-4.25 22.12-8.28 33.19-12.4 1.24-.47 2.49-.93 3.46-1.9l.12-.17-.15-.14c-4.74-.59-9.48.09-14.22.02-3.09-.05-6.18.08-9.27.1-1.3 0-2.41-.26-2.74-1.8-.4-1.88.16-3.54 1.65-4.24.8-.38 1.66-.6 2.5-.87 8.64-2.74 17.2-5.72 25.93-8.14 10.32-2.88 19.57-8.1 29.18-12.53 10.34-4.76 20.6-9.69 30.88-14.55 6.19-2.93 12.35-5.93 18.58-8.76 2.2-1 3.21-2.38 3.2-4.82-.02-3.53.24-7.06.3-10.6.04-2.1.7-3.88 2.17-5.38 5.03-5.12 9.76-10.58 15.19-15.24 4.58-3.93 9.95-6.94 15-10.31 4.59-3.08 9.21-6.1 13.8-9.16.61-.41 1.42-.7 1.48-1.67-.7-.72-1.48-.2-2.17-.05-6.25 1.4-12.49 2.87-18.74 4.27a12.8 12.8 0 0 0-5 2.48c-10.01 7.63-19.95 15.38-30.1 22.83-6.76 4.96-14.03 9.2-21.23 13.52-1.17.71-2.5.84-3.83.9l-36.72 1.79c-.11 0-.23.02-.33.01-.84-.06-1.95.37-2.32-.72-.29-.83.59-1.34 1.1-1.9 1.9-2.14 3.89-4.22 5.75-6.4 3.7-4.34 8.29-7.57 12.99-10.7 8.46-5.62 16.84-11.36 25.32-16.97 4-2.65 8.72-3.7 13.15-5.4 3.3-1.27 6.66-2.37 9.95-3.65 2.67-1.04 2.94-1.79 1.05-3.73-3.14-3.24-6.03-6.78-9.95-9.19l.02-.42c1.27.37 2.57.67 3.8 1.14 10.32 3.96 20.74 7.64 30.88 12.05a6.94 6.94 0 0 0 6.61-.32c8.92-4.89 17.93-9.6 26.84-14.5a3785.46 3785.46 0 0 0 33.01-18.4c2.03-1.14 4.06-1.64 6.35-1.15 1.18.26 2.41.3 3.6.55 1.04.22 2.56-.02 2.91 1.15.44 1.46-1.18 1.94-2.07 2.63-7.59 5.9-15.22 11.75-22.84 17.62-1.22.95-2.6 1.77-3.42 3.1-2.32 3.79-5.28 7.1-7.79 10.73-7.14 10.36-14.92 20.28-21.69 30.9-1.57 2.47-3.72 4.31-6.15 5.93-17.38 11.58-34.72 23.22-52.08 34.84-.64.43-1.3.85-1.89 1.34-1.72 1.43-1.71 2.08.2 3.13 2.42 1.34 4.93 2.5 7.36 3.83 1.27.7 2.77 1.09 4 2.44-1.6.33-2.78-.01-3.95-.2-3.82-.58-7.64-1.22-11.46-1.8-3.04-.47-3.42-.26-4.46 2.53-1.12 3-2.24 6.01-3.19 9.07a5.53 5.53 0 0 1-3.97 3.97c-7.06 2.24-14.14 4.45-21.07 7.03a48.62 48.62 0 0 0-15.56 9.31c-4.75 4.27-8.96 9.16-13.36 13.8-.56.6-1.37 1.2-1 2.25.78.58 1.51.18 2.24-.02 2.13-.58 4.25-1.2 6.38-1.77 14.3-3.84 28.6-7.68 42.92-11.49.95-.25 1.98-.9 3.13-.1-.39.5-.61.88-.93 1.16-4.65 3.91-9.2 7.94-14.42 11.12-5.56 3.4-11.03 6.96-16.53 10.46a27 27 0 0 1-4.15 2.05c-11.64 4.86-23.63 8.73-35.57 12.76-8.16 2.75-16.2 5.94-24.54 8.12-18.07 4.72-36.12 9.5-54.45 13.17-10.28 2.06-20.41 4.99-31.03 4.83-3.74-.05-7.47.85-11.22.14v.04c1.03-.75 2.24-.92 3.44-1.14l38.13-7.06c3.8-.7 7.6-1.39 11.4-2.15 2.73-.56 2.98-1.3 1.1-3.44-1.68-1.9-3.55-3.64-5.22-5.56-1.93-2.21-4.05-2.56-6.81-1.56-7.59 2.75-15.26 5.25-22.87 7.9-1.8.63-3.6 1.05-5.48 1.25-7.36.8-14.71 1.73-22.09 2.36-3.3.29-5.82 1.4-7.88 4.08a84.01 84.01 0 0 1-7.35 8.53 6.46 6.46 0 0 1-5.9 2.08c-7.67-.97-15.37-1.77-23.05-2.7-4.7-.58-9.47-.8-14.11-1.9-9.14-2.17-18.29-4.3-27.43-6.46-3.22-.76-6.51-1.28-9.35-3.2a2.92 2.92 0 0 0-2.22-.46l-1.01-.59zm39.3-2.45c.97.14 1.95.38 2.93.4 11.92.3 23.82 1.13 35.75.93 6.29-.11 12.57-.38 18.86-.59.54-.01 1.11.02 1.55-.52-.1-1.04-1.04-.96-1.71-1.09-7.38-1.4-14.76-2.75-22.13-4.12-1.44-.27-2.86-.1-4.29.1l-26.87 3.77c-1.42.2-2.87.3-4.1 1.16v-.04zm128.91-21.94c7.62-.37 15.18-1.34 22.7-2.52 2.62-.4 5.24-.81 7.87-1.15a12.7 12.7 0 0 0 6.27-2.78c3.91-3.03 7.92-5.94 11.78-9.15-1.58-.2-2.96.36-4.35.83-8.9 2.99-17.79 6.02-26.7 9-5.77 1.95-11.82 2.79-17.7 4.31-.9.24-2 .1-2.68 1.1.88.87 1.89.4 2.81.36z"/>
  <path fill="#B1876F" d="M406.9 500.54c-.96.96-2.21 1.42-3.45 1.88-11.07 4.13-22.18 8.16-33.2 12.41-10.35 4-20.92 6.93-32 8-4.82.46-9.6 1.46-14.4 2.25-5.12.84-10.24 1.59-15.46 1.54-4.2-.04-8.39.06-12.58.15-.8.01-1.77-.28-2.29.78 1 1.01 2.3.72 3.45.96 3.12.64 6.42.3 9.4 1.71v.05c-1 .43-1.99.97-3.04 1.28-19.05 5.74-37.72 12.6-56.4 19.4a19.2 19.2 0 0 1-4.48 1.18c-4.61.5-9.2 1.23-13.8 1.83-10.18 1.34-20.4 2.36-30.61 3.53-1.78.2-3.52.16-5.27-.22-10.26-2.2-20.53-4.4-30.8-6.58a22 22 0 0 1-4.98-1.74c-9.76-4.7-19.52-9.37-29.3-14.02-1.25-.6-2.53-1.58-4-.44-2.3-1.42-4.31-3.24-6.37-4.98-.02-.15-.03-.3-.08-.44-.01-.05-.14-.05-.22-.08-7.63-6.19-14.86-12.8-21.06-20.46-.13-.17-.34-.3-.47-.47-2.26-3.03-5.66-5.14-7.15-8.8 1.9.13 2.57 1.92 3.8 2.95 3.84 3.17 7.96 5.94 12 8.83 10.43 7.44 20.67 15.11 31.9 21.39 10.1 5.65 9.98 5.74 21.44 5.54 11.37-.2 22.74-.81 34.12.04 8.7.65 17.42 1.11 26.14 1.62 1.15.07 2.38.38 3.55-.32-.24-.87-.85-1.13-1.4-1.49-1.47-.97-2.95-1.93-4.4-2.95-.58-.41-1.65-.62-1.34-1.62.28-.87 1.28-.67 2-.85.22-.05.44-.07.66-.1 18.84-3.2 37.69-6.37 56.46-9.94 5.09-.97 10.2-1.7 15.16-3.47 12.7-4.5 25.43-8.97 38.27-13.05 10.94-3.48 22.11-6.25 33.1-9.6 12.47-3.79 24.85-7.89 37.28-11.84 6.74-2.15 13.38-4.53 19.52-8.17 3.7-2.19 7.57-4.11 11.36-6.16 3.8-2.05 7.59-4.09 11.37-6.15.48-.26.99-.6.98-1.23-.02-.66-.61-.87-1.12-1.05-.63-.22-1.27-.4-1.91-.56l-25.14-6.05c-4-.95-4.14-1.18-3.41-5.13.6-3.25 1.3-6.48 1.43-9.82.23-6.4.7-12.8.96-19.2.1-2.5.76-4.73 2.03-6.9 2.67-4.57 5.2-9.23 7.79-13.87.4-.72.95-1.42.78-2.43-.36.18-.6.24-.73.38-6.81 7.4-13.68 14.73-20.38 22.22a19.6 19.6 0 0 1-7.72 5.48c-8.56 3.3-17.05 6.77-25.61 10.06-4.43 1.7-8.7 3.85-13.38 4.87l-22.99 5.04c-7.98 1.76-16.05 3.21-23.92 5.38-9.58 2.63-18.97 5.99-28.5 8.82-18.56 5.5-36.44 12.91-54.62 19.51a8 8 0 0 0-3.14 1.78c-4.73 1.2-9.6 1-14.41 1.27-5.16.29-10.3.7-15.42 1.26-.43-.09-.87-.28-1.29-.26-7.7.4-15.45.33-23.1 1.4-14.42 2.02-28.82 4.1-43.23 6.18-3.9.56-7.68.04-11.41-1.1 1.1-.6 2.31-.73 3.5-.92 8.4-1.34 16.8-2.75 25.21-3.97 10.14-1.46 7.47-1.13 13.96-7.54 1.94-1.91 3.75-2.7 6.42-2.33 8.75 1.2 17.59 1.93 26.28 3.44 6.58 1.15 12.58.52 18.64-2.3 5.19-2.42 10.56-4.67 16.08-6.14a478.16 478.16 0 0 1 30.35-6.95c12.25-2.43 24.53-4.62 36.4-8.6 15.34-5.12 31.16-8.33 46.94-11.6 7.73-1.59 15.24-3.6 22.48-6.7 3.86-1.67 7.75-3.25 11.7-4.67 6.48-2.34 12.67-5.17 18.03-9.61 1.95-1.62 4.15-2.93 6.18-4.46 4.78-3.57 9.9-6.68 14.4-10.61 8.83-7.7 17.59-15.47 26.37-23.22.42-.36.8-.76 1.25-1.09 1.81-1.33 2.49-1.27 3.86.45a27.48 27.48 0 0 1 2.27 3.26c1 1.73 2.34 2.05 4.2 1.56 11-2.9 22.03-5.75 33.04-8.61 3.92 2.4 6.8 5.95 9.95 9.19 1.89 1.94 1.62 2.69-1.05 3.73-3.3 1.28-6.66 2.38-9.95 3.65-4.43 1.7-9.14 2.75-13.15 5.4-8.48 5.6-16.86 11.35-25.32 16.98-4.7 3.12-9.3 6.35-13 10.69-1.85 2.18-3.83 4.26-5.75 6.4-.5.56-1.38 1.07-1.1 1.9.38 1.09 1.49.66 2.33.72.1.01.22 0 .33-.01l36.72-1.79c1.33-.06 2.66-.2 3.83-.9 7.2-4.31 14.47-8.56 21.23-13.52 10.15-7.45 20.09-15.2 30.1-22.83a12.8 12.8 0 0 1 5-2.48c6.25-1.4 12.49-2.87 18.74-4.27.69-.15 1.46-.67 2.17.05-.06.96-.87 1.26-1.48 1.67-4.59 3.07-9.21 6.08-13.8 9.16-5.05 3.38-10.42 6.38-15 10.3-5.43 4.67-10.16 10.13-15.2 15.25a7.53 7.53 0 0 0-2.16 5.39c-.06 3.53-.32 7.06-.3 10.6.01 2.43-1 3.81-3.2 4.8-6.23 2.84-12.4 5.84-18.58 8.77-10.29 4.86-20.54 9.79-30.88 14.55-9.61 4.43-18.86 9.66-29.18 12.53-8.73 2.42-17.3 5.4-25.93 8.14-.84.27-1.7.5-2.5.87-1.49.7-2.05 2.36-1.65 4.23.33 1.55 1.45 1.82 2.74 1.8 3.09-.01 6.18-.14 9.27-.1 4.74.08 9.48-.6 14.22-.02l.03.33zm-115.96 26.7v-.02.01z"/>
  <path fill="#463024" d="M599.6 347.12c-.78 1.12-1.08 2.41-1.39 3.7-1.89 7.85-3.82 15.68-5.65 23.53-.63 2.71-1.53 5.3-2.62 7.85-3.22 7.52-6.52 15-9.64 22.56-1.4 3.39-3.42 5.6-7.13 6.68-5.4 1.57-10.61 3.77-15.95 5.59-1.93.66-2.8 1.85-3.06 3.83-.83 6.35-1.84 12.68-2.62 19.05-.33 2.68-1.3 4.76-3.47 6.46-6.08 4.78-12.05 9.7-18.07 14.56-.43.35-.88.68-1.34.98-1.17.77-2.15.52-2.7-.74-.77-1.71-1.41-3.48-2.1-5.23-.3-.71-.52-1.46-.86-2.15-.74-1.47-1.47-1.58-2.4-.3-4.64 6.32-9.31 12.61-13.82 19.03-2.17 3.09-1.94 6.96-2.74 10.49-.19.83.56 1.14 1.32.95.75-.18 1.48-.44 2.2-.74 9.17-3.83 18.39-7.57 27.5-11.55 5.08-2.22 9.43-5.73 14.05-8.75l10.17-6.68c.8.8.24 1.25-.05 1.6-4.66 5.63-8.39 11.94-13.18 17.46a23.92 23.92 0 0 1-4.9 4.41c-9.59 6.33-19.11 12.76-28.74 19.04-7.7 5.01-16.08 8.82-24.03 13.39-16.42 9.43-33.65 17.2-50.82 25.08-6.04 2.77-12.39 4.75-18.64 6.92a266.07 266.07 0 0 0-26.46 10.59c-7.82 3.7-16.04 6.26-24.16 9.14-16.8 5.96-34.12 10.07-51.3 14.67-1.27.35-2.61.56-3.92.6-6.76.18-13.43 1.22-20.14 1.8-1.21.1-2.44.43-3.63.33-5.58-.47-10.36 1.51-14.92 4.47-3.06 1.98-6.32 3.64-9.44 5.53a8.4 8.4 0 0 1-6.01 1.18c-9.16-1.53-18.37-2.78-27.48-4.55-5.07-.98-10-2.78-14.98-4.23-5.1-1.48-10.18-3-15.27-4.48-1.16-.34-2.32-.8-3.57-.5 8.2 4.13 16.6 7.65 25.61 9.75 11.73 2.72 23.38 5.77 35.08 8.65 1.28.31 2.6.52 3.91.64 15.41 1.38 30.82 2.73 46.23 4.1 1.44.13 2.86.15 4.3 0 6.37-.65 12.75-1.3 19.13-1.91 6.92-.68 13.8-1.77 20.77-2 8.94-.31 17.38-3.05 25.9-5.36 10.56-2.87 21.08-5.87 31.64-8.7 3.46-.93 6.6-2.53 9.79-4.04 11.28-5.34 22.52-10.76 33.78-16.16 3.41-1.64 6.29-4.1 9.37-6.23 7.81-5.41 15.5-11.01 23.35-16.36 5.42-3.7 10.09-8.23 14.92-12.6 6.8-6.15 13.56-12.35 20.3-18.56a35.06 35.06 0 0 0 3.43-3.59c7.34-8.98 14.62-18 21.96-27a67.08 67.08 0 0 0 6.21-8.97c5.8-10.05 11.66-20.05 17.55-30.05 1.58-2.68 2.69-5.57 3.89-8.41 2.83-6.72 5.46-13.53 8.43-20.19a134.29 134.29 0 0 0 9.05-27.63c2.12-10.28 4.59-20.49 6.9-30.72.46-2.05.86-4.11.45-6.23zM545.32 137c-.2 1.42.56 2.55 1.16 3.73 3.6 7.09 7.08 14.24 10.89 21.22 1.7 3.12 1.4 5.43-.99 7.97-5.96 6.36-11.26 13.3-17.3 19.6-1.41 1.46-2.3 3.23-3.13 5.04-3.09 6.73-6.28 13.4-9.23 20.19-1.23 2.85-2.96 4.72-5.99 5.62-2.85.84-5.6 2.04-8.36 3.17-2.12.87-2.28 1.27-1.95 3.54.4 2.73.75 5.47 1.21 8.2.59 3.45 1.17 3.78 4.36 2.48 7.77-3.17 15.56-6.3 23.29-9.56 11.3-4.77 22.97-8.53 34.52-12.63 3.3-1.17 6.76-.87 10.17-1.06.77-.04 1.53-.15 2.3-.23a8.03 8.03 0 0 1-1.34-3c-2.5-9.45-6.76-18.15-11.18-26.8-4.25-8.35-8.35-16.78-12.57-25.15-.79-1.57-1.7-3.1-2.71-4.54-3.48-4.96-7.02-9.89-10.55-14.82-.77-1.07-1.49-2.2-2.6-2.97zM310.4 18.31c10.7.28 21.42.54 32.13.86 1.43.04 2.86.29 4.26.57 12.89 2.6 25.77 5.23 38.66 7.83 3.25.65 6.44 1.51 9.55 2.7 10.33 3.9 20.67 7.83 31.05 11.6 4.6 1.66 8.98 3.69 13.26 6.02 2.8 1.54 5.67 2.98 8.46 4.56 10.52 6.01 21.82 10.66 31.3 18.51 8.09 6.68 16.9 12.44 24.98 19.15 1.52 1.26 3.18 2.42 4.04 4.3-4.12-1.29-7.91-3.36-11.82-5.16-12.75-5.88-9.1-3.44-18.04-12.88l-2.03-2.18c-2.48-2.67-4.92-5.38-7.44-8-2.8-2.92-3.28-2.77-4.59 1.2-.27.83-.52 1.68-.82 2.51-1.21 3.34-1.6 3.52-4.76 2.05-7.7-3.6-15.4-7.2-23.08-10.84a19.9 19.9 0 0 0-6.32-1.8c-5.49-.64-10.96-1.37-16.43-2.06a10.1 10.1 0 0 1-4.65-1.58 1533.6 1533.6 0 0 0-16.39-11.22c-2.18-1.47-4.26-3.33-6.89-3.85-8.23-1.6-16.42-3.45-24.74-4.57-9.3-1.26-18.6-2.4-27.92-3.58-1.44-.19-2.8-.61-4.08-1.27-4.24-2.15-8.48-4.27-12.7-6.46-.73-.38-1.7-.55-2.08-1.77 5.28-.89 10.64-.05 16.37-1.04-1.28-1.21-2.3-1.1-3.24-1.17-4.3-.3-8.6-.54-12.88-.88-1.96-.15-4 0-5.76-1.2.82-.45 1.71-.37 2.6-.35zm22.13 3.1c-.1.02-.23 0-.29.06-.04.04.02.18.04.27l.3-.05-.05-.28z"/>
  <path fill="#BCABA8" d="M44.43 370.4c-3.27-.65-6.3-1.94-9.33-3.28-1.35-.35-2.73-.6-4.04-1.07-1.77-.63-3.16-.53-3.99 1.4-.17.39-.48.7-.73 1.06-.2.8-.27 1.64-.97 2.21v.02c.92.7.8 2.1 1.8 2.74 1.64.48 3 1.43 4.13 2.65 1.96 2.12 4.2 3.88 6.39 5.74 4.36 3.7 8.42 7.76 12.92 11.31 1.82 1.44 3.6 1.9 5.8 1.1 2.6-.94 5.26-1.66 7.87-2.54 2.94-.98 3.1-1.17 2.56-4.3-.73-4.23-1.63-8.44-2.38-12.67-.59-3.36-.54-3.37 2.57-5.09-1.15-.56-2.35-.35-3.55-.24-3.7.34-7.4.73-11.11 1.04-2.28.2-4.57.53-6.84-.11l-.23-.09-.87.13zM40.58 420.84c1.75-1.24 2.85.02 4.02 1.04 1.36-.35 2.54.28 3.76.69 2.25.74 4.4 1.8 6.75 2.25-.47-1.23-.9-2.48-1.4-3.7-3.17-7.58-7.8-14.3-12.64-20.86a74.72 74.72 0 0 1-10.1-18.5c-.49-1.34-1.14-2.62-1.76-3.91-.33-.69-.67-1.41-1.54-1.6l-.39 1.95a.69.69 0 0 0-.05.44l.1.07-.12.02c1.13 4.78 2.13 9.6 3.44 14.35 1.74 6.33 3.26 12.73 5.72 18.87a56.53 56.53 0 0 0 4.21 8.89z"/>
  <path fill="#463024" d="M513.63 100.03c.24 1.78 1.58 2.87 2.66 4.1 4.13 4.75 8.33 9.44 12.46 14.2 2.98 3.43 3.06 3.94.22 7.3-4.85 5.73-9.1 11.97-14.52 17.22a7.8 7.8 0 0 0-2.3 3.38c1.48.11 2.55-.52 3.61-.96 7.74-3.27 15.45-6.58 23.17-9.89a9.97 9.97 0 0 0 3.62-2.28 65.95 65.95 0 0 0-9.26-13.15c-5.74-6.36-11.88-12.36-17.86-18.5-.53-.53-1.2-.95-1.8-1.42z"/>
  <path fill="#6B4E3F" d="M86.97 497.65l-.24-1.33-.14-.06v-.16l-7.33-9.34-.8-.89-.4-.74c-.54-.6-1.07-1.22-1.6-1.83-.92-.7-2.07-1.48-.06-2.16 1.43-.49 1.27-1.39.78-2.34-2.37-4.6-4.38-9.48-7.32-13.7A17 17 0 0 0 59 458.24c0 1.07.69 1.85 1.21 2.67 5.17 8.1 10.18 16.3 15.6 24.22 3.15 4.61 6.72 9 11.15 12.53zM51.77 175.59a6.48 6.48 0 0 0 2.3-1.84l13.82-15.98a13.55 13.55 0 0 0 2.59-4.57c1.55-4.6 2.82-9.28 4.78-13.73.16-.36.04-.86.06-1.3-2.62 2.57-4.22 5.87-6.24 8.85-4.86 7.17-9.53 14.47-14.23 21.74-1.36 2.11-2.68 4.27-3.09 6.83zM151.04 554.38a4.48 4.48 0 0 0-1.73-1.95 240.96 240.96 0 0 1-20.92-14.42c-.33-.26-.8-.35-1.2-.51 5.58 4.98 11.37 9.7 17.88 13.44 1.99 1.14 3.69 2.8 5.97 3.44zM38.23 206.36a3.41 3.41 0 0 0 1.45-1.75c1.25-2.82 2.49-5.66 3.7-8.5.34-.81.57-1.67.28-2.57a60.28 60.28 0 0 0-5.43 12.82z"/>
  <path fill="#996A4A" d="M25.37 370.73c.7-.58.78-1.42.97-2.22-1.46-2.84-1.46-6.04-2.2-9.06l-1.25.1c-.21 3.96 1 7.6 2.48 11.18z"/>
  <path fill="#6B4E3F" d="M160.7 560.33c-2.18-2.54-4.74-4.44-8.2-4.78a44.48 44.48 0 0 0 8.2 4.78zM35.56 212.8c1.31-1.56 2.44-3.18 2.1-5.38a9.18 9.18 0 0 0-2.1 5.37z"/>
  <path fill="#996A4A" d="M27.17 373.48c-1-.65-.88-2.03-1.8-2.74-.11 1.73.53 3.28 1.2 4.82l.67-.02-.07-2.06z"/>
  <path fill="#B1876F" d="M18.55 304.01c-.46-1.18-.55-2.34.18-3.45-.78 1.12-1 2.25-.18 3.45z"/>
  <path fill="#6B4E3F" d="M44.21 192.48c1.28-.77 1.71-1.9 1.4-3.34a5.94 5.94 0 0 0-1.4 3.34zM164.19 562.37c-.33-.86-.89-1.33-1.85-1.14.45.65.99 1.15 1.85 1.13z"/>
  <path fill="#B1876F" d="M19.03 296.75c-.52-.35-.5-.65.09-.88-.3.27-.44.55-.1.88z"/>
  <path fill="#463024" d="M305.42 18.55c.77.45 1.56.52 2.37.11a2.64 2.64 0 0 0-2.37-.11zM302.1 18.43c.78.44 1.57.51 2.39.1a2.8 2.8 0 0 0-2.39-.1z"/>
  <path fill="#B1876F" d="M19.23 294.4c-.4-.28-.55-.54.04-.76-.12.25-.41.49-.04.75zM18.77 299.23c-.49-.43-.39-.76.15-1.02-.44.29-.56.61-.15 1.02z"/>
  <path fill="#6B4E3F" d="M47.26 185.56c.64-.3.86-.75.6-1.42-.44.37-.68.83-.6 1.42zM46.16 188.06c.65-.29.85-.75.58-1.41-.48.35-.61.85-.58 1.41z"/>
  <path fill="#463024" d="M510.84 97.1c.03.63.37 1 .97 1.16a1.7 1.7 0 0 0-.97-1.16z"/>
  <path fill="#996A4A" d="M27.29 378.2l.38-1.96a.5.5 0 0 0-.33.11l-.58.12a2.6 2.6 0 0 0 .52 1.73z"/>
  <path fill="#6B4E3F" d="M49.5 180.59c.4-.37.6-.82.57-1.36-.44.35-.66.78-.57 1.36zM48.43 183.05c.37-.36.55-.8.53-1.31-.43.33-.64.76-.53 1.3zM34.58 215.21c.36-.34.5-.77.47-1.25-.43.3-.54.75-.47 1.25z"/>
  <path fill="#B1876F" d="M18.16 304.5l.17.13-.17-.13z"/>
  <path fill="#6B4E3F" d="M117.32 529.5c-.02-.14-.03-.3-.08-.43-.01-.05-.14-.05-.22-.08.02.15.02.31.07.45.01.04.15.05.23.07z"/>
  <path fill="#996A4A" d="M27.21 378.73l.13-.02-.1-.07-.14.02z"/>
  <path fill="#B1876F" d="M19.5 292.55l-.03.12.03-.12z"/>
  <path fill="#6B4E3F" d="M50.61 178.12l.27-.8c-.3.2-.37.47-.27.8zM34.3 216.62l.02-.75c-.23.25-.25.5-.02.75z"/>
  <path fill="#463024" d="M509.54 95.7l.47.58-.47-.58z"/>
  <path fill="#996A4A" d="M26.56 375.56l.2.92.58-.13-.1-.82-.68.03z"/>
  <path fill="#6B4E3F" d="M58.09 457c.01-.18-.07-.28-.24-.3l.01.24.23.06z"/>
  <path fill="#B1876F" d="M18.46 307.18v0zM18.54 306.17v0z"/>
  <path fill="#463024" d="M564.27 334.6c1.57 1.86 3.35 2.99 4.94 4.33 3.17 2.67 3.29 3.08 1.3 6.61-2.04 3.66-4.15 7.3-6.22 10.94-.64 1.13-1.24 2.27-2.03 3.74 1.67-.7 33.19-26.32 35.26-28.52-.96-.67-1.92-.23-2.82-.07-5.87 1.02-11.74 2.08-17.6 3.12-3.19.56-6.35.77-9.53-.15-.9-.26-1.88-.7-3.3 0z"/>
  <path fill="#996A4A" d="M472.76 167.94c.9.12 1.67-.16 2.32-.8-.88-.03-1.66.2-2.32.8zM470.95 168.4c.67.1 1.27-.03 1.8-.46a2.35 2.35 0 0 0-1.8.47zM270.9 572.38l-.01-.04v.04z"/>
  <path fill="#B1876F" d="M55.11 424.82c-2.35-.44-4.5-1.5-6.75-2.26-1.22-.4-2.4-1.03-3.76-.68a37.4 37.4 0 0 0 6.48 13.57c.67.86 1.57 1.55 2.23 2.42 3.9 5.14 8.91 8.1 15.35 9.24 6.7 1.19 13.29 3.09 19.93 4.67.3.08.63.09 1.42.19-1.14-1.28-2.39-1.58-3.5-2.09-3-1.36-6.17-2.38-8.82-4.43l-.27-.07.27.02c5 .42 9.75 1.98 14.53 3.28 10.6 2.9 21.34 4.69 32.26 5.68 3.4.31 6.8.83 10.2 1.17a7.52 7.52 0 0 1 5.38 2.9c.96 1.21 1.98 2.38 3 3.54 2.85 3.22 3.07 3.26 6.5.85 4.34-3.04 8.83-5.92 12.94-9.25 3.5-2.82 7.25-3.78 11.63-3.74 13.15.12 26.27-.89 39.39-1.64a8.91 8.91 0 0 0 6.61-3.15c3.67-4.12 7.57-8.04 11.33-12.08a14.2 14.2 0 0 1 7.21-4.4c8.8-2.16 17.57-4.42 26.3-6.87 6.42-1.8 12.94-2.88 19.54-3.49 6.17-.57 12.26-1.67 18.4-2.45 1.08-.14 2.16-.45 3.21-.76a925.43 925.43 0 0 0 56.93-18.93c2.74-1.02 5.26-1.4 7.93.06 5.45 2.98 10.8 3.11 16.75.71 7.97-3.21 16.34-5.45 24.54-8.12 3.6-1.17 3.66-1.36 2.07-4.91-.58-1.31-1.2-2.6-1.8-3.92-1.51-3.41-1.4-3.66 2.15-4.32a701 701 0 0 1 11.42-2.04c9.15-1.54 18.3-3.05 27.45-4.57.22-.03.44-.05.66-.1.93-.25 2.19-.15 2.45-1.3.21-.95-.84-1.47-1.38-2.14-.35-.43-.76-.8-1.12-1.22-2.84-3.4-6.08-4.46-10.55-2.95-5.53 1.86-11.3 3.02-16.98 4.45-.94.24-1.87.7-2.94.42-.18-1.06.77-1.23 1.33-1.58 3.47-2.15 6.93-4.34 10.5-6.33 2.53-1.42 4.13-3.31 4.17-6.27.04-2.73 1.49-4.09 3.99-4.96 7.2-2.5 14.34-5.16 21.49-7.82 8.1-3 15.64-7.22 23.3-11.16.48-.25.88-.66 1.32-1-.66-.02-1.34-.18-1.97-.07-7.08 1.18-14.18 2.24-21.21 3.65-8.68 1.72-16.98 4.85-25.5 7.16-3.2.87-5.78 2.46-8.1 4.83-4.1 4.17-8.44 8.1-12.65 12.16a9.84 9.84 0 0 1-4.91 2.55c-6.69 1.47-13.34 3.09-20.03 4.52-7.72 1.65-15 4.56-22.1 7.9-7.78 3.65-15.38 7.72-23.05 11.64-1.8.92-3.63 1.52-5.67 1.62-4.52.24-9.03.65-13.54.9-1.91.1-3.68.59-5.42 1.37-17.33 7.79-35.06 14.57-52.96 20.9a17.26 17.26 0 0 1-4.81 1.13c-9.03.51-18.06 1.18-27.1 1.62-3.61.18-7.23.88-10.87.25l-2.9.4a11.56 11.56 0 0 0-1.32 4.08c-.31 1.85-.59 3.7-.96 5.55-.67 3.31-1.49 3.67-4.45 1.92a101.2 101.2 0 0 1-5.63-3.49c-1.48-1-3-1.22-4.72-.89-5.2 1.02-10.4 2.02-15.62 2.94-2.47.44-4.58 1.5-6.51 3.05a862.55 862.55 0 0 1-9.87 7.82c-3.02 2.36-4.05 3.65-6.54-.82-1.2-2.14-1.77-2.16-4.1-1.2-2.34.97-4.65 2.04-6.97 3.08-5.24 2.35-10.52 4.33-16.42 4.7-9.58.6-19.12 1.7-28.68 2.61a18.2 18.2 0 0 1-4.62-.19c-10.03-1.6-20.07-3.18-30.1-4.77a27 27 0 0 1-9.06-3.03 10.5 10.5 0 0 0-3.56-.17c-2.38.17-4.78.19-7.16.4-1.66.14-2.64-.48-3.29-2-.64-1.49-1.24-3.02-2.32-4.29zM497.66 323.38c9.63-4.47 19.62-8.04 29.53-11.8 3.3-1.25 5.68-3.01 7.36-6.15 2.45-4.58 5.33-8.91 7.9-13.42 1.89-3.32 1.6-4.1-1.6-6.15-.38-.24-.77-.45-1.15-.68-4.85-2.89-8.83-6.49-10.76-12.07-1.22-3.54-2.99-6.89-4.44-10.35-.85-2.04-2.28-3.2-4.49-3.38-.22-.01-.44-.03-.65-.1-12.1-3.83-24.27-1.3-36.46-.73-9.28.43-18.05 2.93-26.93 5.15-1.18.3-2.37.57-3.54.87-1.5.38-2.62-.12-3.35-1.44-2.2-3.96-4.45-7.9-6.54-11.9-.91-1.77-.58-2.4 1.38-3.84 4.01-2.94 8.05-5.84 12.05-8.79.84-.62 1.83-1.13 2.16-2.34-18.7 9.17-37.12 18.8-54.61 30.13.58 1.35 1.6 1.03 2.4 1.07 4.63.2 9.27.32 13.9.48.77.03 1.55.04 2.31.17 1.28.2 1.65 1.01 1.19 2.17-.25.6-.6 1.19-.96 1.73-1.67 2.47-3.42 4.89-5.03 7.4-1.4 2.2-3.14 3.08-5.85 2.6-5.54-.96-11.15-1.56-16.7-2.5a13.13 13.13 0 0 0-7.41.9c-13.63 5.5-27.29 10.9-40.95 16.32-1.2.48-2.4 1.07-4.2 1.1 1.27-2.83 3.67-4.28 5.39-6.27 1.8-2.08 3.9-3.9 5.85-5.85 1.87-1.88 3.8-3.7 5.56-5.68 1.83-2.05 4.06-3.72 5.83-6.23-1.04-.27-1.58.29-2.1.7-12.3 9.71-26.59 16.14-40.09 23.86a20.67 20.67 0 0 1-4.3 1.71c-9.2 2.78-18.5 5.27-27.6 8.34-7.94 2.68-15.7 5.9-23.47 9.08-7.57 3.1-15.03 6.43-22.52 9.7-1.74.77-3.5 1.33-5.38 1.59-11.04 1.53-22.11 2.91-33.1 4.74-6.42 1.06-12.71 2.85-19.06 4.32-.43.1-.84.29-1.27.36-9.87 1.55-18.72 5.82-27.48 10.33-.88.45-1.68 1.04-2.52 1.56.65.05 1.33.22 1.96.12 5.67-.9 11.39-1.58 16.97-2.84 23.06-5.23 46.44-8.53 69.83-11.7 3.74-.51 7.35-1.3 10.68-3.25 3.14-1.83 6.42-3.45 9.67-5.1 1.46-.73 2.82-1.75 4.54-1.9.62-.31 1.23-.64 1.85-.96a26.7 26.7 0 0 1 10.6-5.15l28.3-6.52c1.07-.25 2.15-.52 3.26-.27.57-.41 1.2-.52 1.88-.39 5.47-1.53 11.08-2.5 16.43-4.46a2.64 2.64 0 0 1 1.87-.55l.4-.17a2.12 2.12 0 0 1 1.81-.52l.07-.01c.95-1 2.23-1.4 3.47-1.85 9.04-3.25 18.09-6.48 27.12-9.75 2.4-.86 4.86-1.4 7.4-1.67 16.9-1.82 33.82-3.6 50.7-5.59 9.13-1.08 18.23-1.7 27.42-.97 5.94.46 11.9.53 17.86.82.8.04 2.01-.27 2.14.96.1.9-.93 1.11-1.63 1.4-3.07 1.22-6.17 2.4-9.24 3.65-.97.4-2.15.5-2.76 1.63.82.8 1.7.33 2.5.19 5.86-1.08 11.7-2.25 17.58-3.27 6.33-1.1 12.49-2.63 18.26-5.64 5.77-3.02 11.7-5.72 17.58-8.51 1.34-.64 2.63-1.53 4.5-1.64-.55 1.38-1.55 1.91-2.34 2.61-5.79 5.13-11.56 10.27-17.39 15.34a9.44 9.44 0 0 0-3.38 5.86c-.45 2.83-1.12 5.63-1.7 8.44-.21 1.09-.5 2.21-.17 3.28 1.2 3.9 1.88 7.96 3.66 11.67z"/>
  <path fill="#BCABA8" d="M497.66 323.38c-1.79-3.72-2.46-7.77-3.67-11.67-.33-1.07-.03-2.2.19-3.28.57-2.81 1.24-5.6 1.7-8.44a9.45 9.45 0 0 1 3.37-5.86c5.83-5.07 11.6-10.21 17.39-15.34.79-.7 1.79-1.23 2.34-2.62-1.88.12-3.16 1.01-4.5 1.65-5.88 2.79-11.82 5.5-17.59 8.5-5.77 3.02-11.92 4.55-18.25 5.65-5.88 1.02-11.72 2.2-17.59 3.26-.8.15-1.67.63-2.5-.18.62-1.14 1.8-1.23 2.77-1.63 3.07-1.24 6.16-2.43 9.24-3.66.7-.28 1.72-.5 1.63-1.4-.13-1.22-1.35-.91-2.14-.95-5.95-.3-11.92-.36-17.86-.83-9.2-.72-18.29-.1-27.41.98-16.89 2-33.8 3.77-50.7 5.59-2.55.27-5 .8-7.41 1.67-9.03 3.27-18.08 6.5-27.12 9.75-1.24.44-2.52.84-3.48 1.85 1.13.38 2.2-.03 3.25-.3 3-.76 6-1.51 8.98-2.37 2.78-.8 5.58-1.2 8.5-1.15 8.94.16 17.9.2 26.85.28 3.64.03 7.3 0 10.94.12 2.97.1 3.31.56 2.82 3.39-.24 1.41-.65 2.8-.87 4.22-.17 1.15-1.12 2.54-.03 3.43 1.1.9 2.29-.27 3.34-.74 9.05-4.12 18.08-8.3 27.12-12.45.8-.37 1.6-.78 2.43-1.06 1.59-.54 2.1-.2 2.04 1.4-.03.87-.21 1.75-.37 2.62-.6 3.16-.84 6.35-.99 9.56-.13 2.88.06 3.2 2.9 3.81 4.22.9 8.47 1.65 12.68 2.53 4.48.94 4.74 1.54 2.17 5.26-1.83 2.63-4.08 4.99-5.7 7.73-1.66 2.81-3.94 4.17-6.98 5.03-11.7 3.31-23.34 6.81-35 10.23-1.81.53-3.6 1.12-5.27 1.98-11.52 5.86-23.06 11.71-34.56 17.62a42.18 42.18 0 0 1-7.99 3.17 4225 4225 0 0 0-28.38 8.03 35.9 35.9 0 0 0-6.8 2.6c-6.77 3.53-13.55 7.03-20.29 10.58a32.53 32.53 0 0 1-8.04 3.02 8400.2 8400.2 0 0 0-50.09 11.47c-2.98.7-6.12 1-8.82 2.7 3.64.62 7.26-.08 10.87-.26 9.04-.44 18.07-1.1 27.1-1.63 1.7-.1 3.24-.56 4.81-1.12 17.9-6.33 35.63-13.11 52.97-20.9 1.73-.79 3.5-1.26 5.4-1.37 4.53-.25 9.03-.66 13.55-.9 2.04-.1 3.88-.7 5.67-1.62 7.67-3.92 15.27-7.99 23.06-11.65 7.09-3.33 14.37-6.24 22.09-7.9 6.7-1.42 13.34-3.04 20.03-4.5 1.9-.42 3.5-1.21 4.9-2.56 4.22-4.07 8.56-8 12.66-12.17a17.42 17.42 0 0 1 8.1-4.82c8.52-2.31 16.83-5.44 25.5-7.16 7.03-1.4 14.13-2.47 21.21-3.65.63-.1 1.31.04 1.97.08 1.8-.8 3.75-1.02 5.67-1.33 1.33-.22 2.23-.8 2.19-2.3zM269.61 325.43c-1.72.14-3.08 1.16-4.55 1.9-3.25 1.64-6.52 3.26-9.66 5.1-3.33 1.94-6.94 2.73-10.68 3.23-23.4 3.18-46.77 6.48-69.83 11.7-5.58 1.27-11.3 1.94-16.97 2.84-.63.1-1.3-.06-1.96-.1-.83.27-1.66.77-2.5.79-3.68.1-6.41 1.87-8.67 4.6-1.23 3.69-3.5 5.9-7.68 5.76-2.06-.07-4.15.13-6.2.38-2.38.29-4.83-.02-7.1.98 1.38.84 2.95.83 4.48 1 12.74 1.36 25.48 2.7 38.22 4.08 4.22.45 4.51.07 2.81-3.97-1.42-3.37-1.25-3.7 2.41-4.8 4.55-1.37 9.08-2.8 13.63-4.15 13.02-3.89 25.76-8.64 38.58-13.11a13.58 13.58 0 0 1 7.45-.7c9.52 1.95 19.1 3.6 28.58 5.75 5.85 1.33 11.62.83 17.45.48.53-.03 1.13-.06 1.42-.85-.39-.8-1.28-1.07-2.02-1.48-3.11-1.68-6.26-3.29-9.36-4.98-3.3-1.8-3.32-2.03-1.83-5.38 1.34-3.02 3.24-5.8 3.98-9.07z"/>
  <path fill="#B1876F" d="M123.8 362.6c2.28-.99 4.73-.68 7.1-.97 2.06-.25 4.15-.45 6.21-.38 4.18.15 6.45-2.07 7.68-5.77-7.3.44-14.57-.36-21.86-.57-3.01-.1-5.92.15-8.84.92-9.73 2.57-19.48 5.04-29.23 7.51-1.13.29-2.27.93-3.51.4-.45-1.05.41-1.42.96-1.86 4.76-3.78 9.55-7.53 14.3-11.3a10.93 10.93 0 0 1 6.06-2.47c4.1-.31 7.66-1.84 10.91-4.34 2.36-1.81 4.95-3.33 7.35-5.1 1.9-1.4 1.74-2.19-.46-3.2-2.2-1-4.4-1.14-6.77-.49-10.02 2.75-20.1 5.27-30.08 8.14-3.7 1.07-7.07 1.24-10.53-.64-1.3-.7-2.96-2-4.28-1.06-1.55 1.1-.4 3.08-.22 4.64.4 3.29 1.03 6.55 1.51 9.82.43 2.87.33 3.12-2.35 4.3-4.86 2.12-9.77 4.13-14.62 6.26-2.61 1.15-5.44 1.9-7.6 3.93 2.27.64 4.56.3 6.84.11 3.7-.3 7.4-.7 11.11-1.04 1.2-.11 2.4-.32 3.56.24l7.44-.72c.64-.16 1.27-.38 1.92-.46 13.1-1.64 26.15-3.7 39.2-5.7 2.72-.41 5.46-.65 8.21-.2zM470.15 354.71c3.02 1.15 6.23 1.37 9.36 1.96 5.84 1.1 11.73 1.96 17.58 3.03 2.1.39 3.87.1 5.5-1.35 2.15-1.9 4.4-3.67 6.58-5.52.42-.36.81-.82.47-1.43-.24-.42-.71-.5-1.15-.48-1 .02-1.99.05-2.97.14l-27.3 2.48c-1.42.13-2.85.2-4.28.25-1.34.04-2.64.15-3.79.94v-.02zM76.45 483.3l1.6 1.83.4.74.8.89c1.52-.58 3.06-.22 4.57-.03 7.64.95 15.26 1.96 22.9 2.94 1.19.15 2.39.4 3.6.06-1.42-.98-3.1-1.16-4.71-1.49a6254.8 6254.8 0 0 0-25-5.1c-1.4-.28-2.81-.85-4.16.16zM24.14 359.45c.73 3.02.74 6.22 2.2 9.06.25-.35.56-.67.73-1.06.83-1.93 2.22-2.03 3.99-1.4 1.31.46 2.7.72 4.04 1.07-2.98-3-6.64-5.16-10.02-7.66-.2-.15-.62-.01-.94 0zM470.15 354.73l-.21-.06.21.04z"/>
  <path fill="#6B4E3F" d="M516.45 333.97c-.08.03-.17.05-.23.1-.02.03.02.12.03.18l.24-.05-.04-.23z"/>
  <path fill="#B1876F" d="M44.43 370.4l.87-.12-.87.13zM170.75 321.92l.02.18-.02-.19z"/>
  <path fill="#BCABA8" d="M414.46 191.3c-6.1 2.3-12.16 4.69-18.02 7.56-1.5 1.36-3.34 2.16-5.1 3.08-4.6 2.4-9.27 4.68-13.85 7.11a25.26 25.26 0 0 1-8.17 2.62c-8.51 1.3-17.03 2.6-25.56 3.79-6.3.87-12.22 3.04-18.22 4.9a1649.84 1649.84 0 0 1-68.22 19.38c-18.5 4.9-37.24 8.66-55.85 13a653.94 653.94 0 0 0-32.97 8.85c-12.98 3.75-26.2 6.29-39.4 9.02-20.77 4.3-41.54 8.62-62.32 12.88-1.99.4-3.96 1.22-6.23.78.75-2.79 2.77-3.75 5.02-4.47 7.17-2.28 14.39-4.38 21.47-6.89 15.7-5.55 31.98-8.59 48.3-11.53 5.02-.91 9.9-2.27 14.67-4.08a276.3 276.3 0 0 1 47.54-13.07c15.13-2.82 29.72-7.71 44.48-11.93 20.18-5.77 40.02-12.7 60.26-18.28 6.07-1.68 12.2-3.27 18.1-5.41 6.43-2.33 12.65-5.25 18.95-7.92 5.09-2.15 10.16-4.35 15.26-6.48a34.03 34.03 0 0 0 8.03-4.57c4.08-3.21 8.28-6.28 12.38-9.46a11.65 11.65 0 0 1 5.38-2.38c10.36-1.7 20.7-3.47 31.06-5.16a21.7 21.7 0 0 0 7.48-2.52c7.76-4.47 15.53-8.92 23.32-13.31 2.3-1.3 3.98-3.1 5.22-5.4 1.67-3.11 3.41-6.19 5.08-9.3.5-.93 1.54-1.96.69-2.99-.71-.86-1.88-.17-2.8.07-6.31 1.64-12.65 3.2-18.91 5-16.27 4.65-32.85 8-49.37 11.57-8.15 1.75-15.8 4.94-23.66 7.58-5.86 1.97-11.7 4.01-17.5 6.2-6.03 2.29-12.35 3.37-18.59 4.8-5.92 1.36-11.92 2.4-17.8 3.94-7.14 1.87-14.41 2.06-21.7 2.19-2.3.04-4.63.56-6.92-.11l-.16-.14.12-.17c3.15-1.99 6.82-2.53 10.27-3.62 6.64-2.09 13.34-4 20-6.04 2.93-.9 2.96-1 2.87-4.25 0-.44-.05-.88-.04-1.32.04-2.32.3-2.7 2.6-2.95 3.96-.4 7.93-.67 11.89-1.03 1.19-.1 2.43.13 3.7-.55-.27-1.06-1.25-1.11-1.98-1.4a175.8 175.8 0 0 0-39.4-10.02c-.77-.1-1.56-.15-2.3-.39-4.87-1.58-9.29-.67-13.55 2.06-2.13 1.36-4.54 2.28-6.77 3.5-.93.5-2.32.77-2.38 2.06-.05 1.3 1.31 1.64 2.24 2.16 4.32 2.46 8.66 4.9 13 7.33.57.33 1.18.6 1.71 1 1.3.95 1.27 1.59-.09 2.49-.55.36-1.16.63-1.75.93-9.16 4.67-18.36 9.2-28.22 12.3-6.43 2.02-12.72 4.47-19.11 6.6-2.36.8-4.09 2.1-5.06 4.4-.34.8-.85 1.55-1.2 2.36-.95 2.2-2.6 3.4-4.92 4-14.25 3.6-28.52 7.1-42.89 10.17-.54.12-1.08.2-1.63.27-.45.05-.93 0-1.16-.44-.32-.62.07-1.06.53-1.4.71-.52 1.44-1.01 2.18-1.5 5.01-3.23 10.02-6.48 15.04-9.7a11.3 11.3 0 0 0 3.65-3.32c4.56-7.14 10.33-13.2 16.75-18.67 3.7-3.15 7.35-6.36 11-9.57.57-.5 1.04-1.09 1.6-1.69-1-.79-1.85-.25-2.62-.03a74.92 74.92 0 0 0-5.7 1.76c-10.9 3.95-22.34 5.27-33.67 7.07-5.24.83-5.5 1.05-4.85 6.35.37 2.96.84 5.9 1.32 8.85.34 2.1-.2 3.86-1.55 5.53-5.24 6.43-10.4 12.9-15.57 19.38a8.45 8.45 0 0 1-4.25 3 18349 18349 0 0 0-41.85 12.75 29.5 29.5 0 0 1-6.5 1.25c-7.6.56-15.14 1.8-22.77 2.08-3.53.14-6.99.84-10.4 1.86-6.57 1.95-13.22 3.63-19.8 5.49-1.77.49-3.46.53-5.24.17-4.98-1-9.97-1.96-14.96-2.9-4.15-.78-4.22-.65-5.5 3.48-.98 3.16-.84 6.09 1.05 8.86 1.3-.69 2.72-.86 4.13-1.13 11.18-2.09 22.38-4.07 33.52-6.35 17.84-3.66 35.62-7.63 53.4-11.58 20.59-4.57 41.33-8.39 61.99-12.66 9.07-1.87 18.28-3.26 27.15-6.02 19.08-5.95 38.07-12.2 57.13-18.2 7.36-2.31 14.58-5.1 22.21-6.56 18.44-3.54 36.63-8.2 54.9-12.53 4.26-1 8.52-.9 12.78-.02v.02c-.92 1-2.14 1.53-3.34 2.1l-16.83 7.81c-1.4.66-2.85 1.17-4.37 1.53-4.73 1.1-9.45 2.25-14.18 3.38-3.02.72-3.44 1.11-3.78 4.14-.46 4.17-.84 8.35-1.27 12.53-.38 3.7-.6 3.92-4.2 3.95-8.5.07-17 .22-25.5.15-3.1-.02-5.8.68-8.47 2.25-8.57 5.03-17.27 9.85-25.85 14.87a15.16 15.16 0 0 1-8.14 2.24c-4.3-.07-8.62.03-12.92.2-3.4.12-6.86-.3-10.21.67-11.67 3.38-23.32 6.83-35.01 10.12-5.41 1.52-10.74 3.4-16.35 4.15l-1.4.49c-1.06.66-2.27.83-3.44 1.14-10 2.7-20.05 5.24-29.54 9.6-4.9 2.24-10.09 3.9-14.96 6.23-4.13 1.97-8.38 2.38-12.83 2.46-16.22.27-32.42.87-48.3 4.73-1.83.44-3.4.08-5.09-.68-6.03-2.72-11.79-6.03-18-8.34-.22 2.06.61 3.93 1.3 5.76 1.78 4.74.46 9.39-.14 14.06-.17 1.3-1.22 2.06-2.23 2.76-1.81 1.26-3.67 2.45-5.47 3.73-2.02 1.44-2.02 1.6-.66 3.97 1.8-.8 3.7-.56 5.56-.55 14.9.13 29.82-.1 44.72-.5 2.43-.06 4.83-.23 7.15-1.13 7.1-2.75 14.33-5.22 21.35-8.17a68.8 68.8 0 0 1 22.78-5.15c9.68-.59 19.39-.99 28.92-3.2 9.04-2.08 18.13-3.86 26.66-7.75 4.71-2.15 9.6-3.95 14.41-5.89 2.46-.98 4.87-2.18 7.42-2.8a2278.2 2278.2 0 0 1 40.6-9.73c10.67-2.43 21.61-3.24 32.46-4.5 10.04-1.17 19.75-3.49 29.45-6.14 10-2.74 19.9-5.94 30.1-7.95 8.01-1.58 16.07-2.98 24.03-4.81a96.98 96.98 0 0 1 23.99-2.42c2.41.05 4.85-.4 7.25.2l.14.11-.1.15c-1.82 1.57-4.14 2.07-6.3 2.87-20.7 7.68-41.44 15.24-61.9 23.58-6.93 2.84-13.81 5.86-21.09 7.85-18.1 4.96-36.15 10.04-54.26 14.96-6.39 1.74-12.7 3.82-19.24 4.93-16.76 2.85-33.59 5.26-50.28 8.46-3.33.64-6.83.64-9.97 2.19 1.31.76 2.77.66 4.2.64l36.45-.67c1.89-.04 3.73-.36 5.55-.86 10.87-2.97 21.73-5.96 32.6-8.92 4.81-1.31 9.8-1.6 14.7-2.45 5.87-1.02 11.8-1.76 17.7-2.59 4.3-.6 8.36-2.02 12.38-3.59 7.72-3.01 15.47-5.94 23.2-8.94 2.59-1 5.23-1.71 8-2.07 7.11-.92 14.22-1.9 21.33-2.9 3.05-.42 3.23-.66 3.35-3.77.08-2.1.13-4.2.22-6.3.08-1.7.98-2.64 2.7-2.74 1.65-.1 3.3-.17 4.96-.26 8.16-.47 16.31-.99 24.48-1.38 1.9-.1 3.04-.84 3.81-2.56 1.27-2.82 2.8-5.52 4-8.37 1.17-2.83 3.1-4.62 5.88-5.9a3274.2 3274.2 0 0 0 36.28-17.07c7.98-3.8 15.9-7.73 23.84-11.6.5-.25 1-.48 1.46-.78 1.1-.71 1.14-1.63.23-2.46a39.32 39.32 0 0 0-3.38-2.66c-1.43-1.04-3-1.89-4.33-3.04-1.89-1.62-3.75-1.86-6.1-1.03-7.71 2.73-15.48 5.29-23.23 7.9-1.14.38-2.24.98-3.52.7l-.06.04c-.5.45-1.12.62-1.79.59z"/>
  <path fill="#DCCECE" d="M30.68 255.8c-.22-2.35-.66-4.69-1-7.03 1.29-.7 2.71-.86 4.13-1.13 11.17-2.09 22.37-4.07 33.5-6.35 17.86-3.66 35.63-7.63 53.42-11.58 20.58-4.57 41.33-8.4 61.98-12.66 9.08-1.87 18.29-3.26 27.15-6.03 19.08-5.94 38.07-12.19 57.13-18.19 7.36-2.32 14.58-5.1 22.21-6.56 18.44-3.55 36.63-8.21 54.9-12.53 4.26-1 8.52-.91 12.78-.02v.01c-.92 1-2.14 1.54-3.34 2.1-5.61 2.61-11.22 5.2-16.83 7.82-1.4.65-2.85 1.17-4.37 1.53-4.73 1.1-9.45 2.25-14.18 3.37-3.02.73-3.43 1.12-3.77 4.15-.47 4.17-.85 8.35-1.28 12.53-.37 3.7-.6 3.92-4.2 3.95-8.5.07-17 .21-25.5.15-3.1-.03-5.8.68-8.47 2.25-8.57 5.03-17.27 9.85-25.85 14.87a15.16 15.16 0 0 1-8.14 2.23c-4.3-.06-8.62.04-12.92.2-3.4.13-6.86-.29-10.21.68-11.67 3.38-23.32 6.83-35.01 10.11-5.41 1.52-10.74 3.4-16.35 4.16.99-1.22 2.27-2.08 3.54-2.97 6.36-4.4 12.69-8.83 19.08-13.18 2.06-1.4 3.36-3.11 3.41-5.69.05-2.25-.53-2.87-2.7-2.47-1.4.26-2.77.7-4.15 1.11-7.4 2.23-14.8 4.44-22.2 6.7-5.41 1.67-11.04 2.17-16.58 3.14-14.25 2.48-28.6 4.35-42.75 7.38-1.72.37-3.5.5-5.22.88-1.17.25-1.42 1.1-.57 1.94 1.1 1.09 2.32 2.05 3.51 3.02 1.8 1.47 3.68 2.84 5.42 4.37 2.08 1.83 4.17 2.05 6.69.84 5.26-2.55 10.65-4.86 15.93-7.4 2.2-1.05 4.32-1.5 6.69-.65 1.24.44 2.64.49 3.83 1.01 3.77 1.66 7.16 1 10.74-.84 5.13-2.65 5.24-2.5 10.17.58 1.3.82 2.5 1.8 3.76 2.72-1.06.66-2.27.83-3.44 1.14-10.01 2.7-20.05 5.24-29.54 9.6-4.9 2.24-10.09 3.9-14.96 6.23-4.13 1.97-8.38 2.38-12.83 2.46-16.22.27-32.43.87-48.3 4.73-1.83.44-3.4.08-5.1-.68-6.02-2.72-11.78-6.03-18-8.34-1.5-.76-2.05-2.02-2.2-3.66zm49.34-7.1c-.3-.07-.66 0-.97.07-.45.11-.83.38-.87.88-.05.52.31.83.76.93 1.73.38 3.45.76 5.19 1.06 1.8.3 3.6.51 5.4.76-2.95-2.1-6.23-2.89-9.5-3.7zM161.53 285.79c-4.23-.23-8.23 1.1-12.32 1.79-7.68 1.27-15.32 2.74-22.98 4.1-1.18.22-2.38.5-3.6.23a3.4 3.4 0 0 0-1.71-3.02c-2.96-1.91-5.94-3.8-8.93-5.66-1.54-.97-3.09-.9-4.7-.04-7.3 3.88-14.61 7.73-21.92 11.6-.27.15-.47.44-.84.8.85.95 1.88.5 2.75.4 7.65-.97 15.3-1.99 22.95-2.98 1.52-.2 3.06-.48 4.55.22-3.13 1.55-6.62 1.6-9.96 2.21-11.51 2.14-23.18 3.14-34.77 4.78-1.97.28-4 .24-5.92.7-6.7 1.65-13.12.33-19.57-1.38-3.5-.93-6.96-2.17-10.67-2.1-.7-.27-1.4-.74-2.13-.8-4.33-.32-5.93-2.95-6.06-6.9 1.8-.8 3.7-.57 5.56-.55 14.9.13 29.81-.11 44.72-.5 2.43-.07 4.83-.24 7.15-1.14 7.1-2.75 14.33-5.22 21.35-8.16a68.8 68.8 0 0 1 22.78-5.16c9.68-.58 19.39-.99 28.92-3.19 9.04-2.09 18.13-3.86 26.66-7.75 4.71-2.16 9.6-3.96 14.4-5.9 2.47-.98 4.88-2.17 7.43-2.8a2278.2 2278.2 0 0 1 40.6-9.73c10.67-2.43 21.61-3.24 32.45-4.5 10.05-1.17 19.76-3.48 29.46-6.14 10-2.74 19.9-5.93 30.1-7.94 8.01-1.59 16.07-2.98 24.03-4.82a96.98 96.98 0 0 1 23.98-2.41c2.42.05 4.86-.4 7.26.2l.03.26c-1.8 1.57-4.13 2.06-6.28 2.86-20.7 7.68-41.45 15.25-61.9 23.59-6.95 2.83-13.83 5.86-21.1 7.85-18.1 4.95-36.15 10.04-54.26 14.96-6.39 1.73-12.7 3.81-19.24 4.92-16.76 2.85-33.59 5.26-50.28 8.47-3.33.64-6.83.64-9.97 2.18l-8.02 1.45zm118.65-35.47c-10.34.88-20.6 2.44-30.84 3.96-6.86 1.02-13.6 2.84-20.38 4.32-.65.14-1.3.33-1.9.6-.95.41-1.82 1.1-1.57 2.24.27 1.19 1.4.86 2.23.76 5.9-.78 11.85-1.15 17.73-2.2 3.9-.7 7.86-1.08 11.8-1.51 2.65-.28 5.22-.84 7.75-1.64 5.05-1.6 10.14-3.08 15.19-4.66.99-.31 2.19-.33 2.82-1.5-.9-.88-1.9-.44-2.83-.37zm-72.71 11.7c-8.02 3.08-16.04 6.17-24.04 9.28-2.47.96-3.16 1.77-2.79 3.05.42 1.46 1.6 1.77 4.23.93 6.28-2.03 12.55-4.12 18.83-6.18 3.57-1.17 5.25-4.02 6.88-7.31-1.52-.56-2.32-.07-3.11.24zm105.21-23.15c-6.5 1.13-12.99 2.28-19.48 3.43-.43.08-.86.16-1.28.3-.54.17-1.03.46-1.08 1.1-.05.73.37 1.24.96 1.6.82.5 1.7.46 2.56.24 6.52-1.6 12.9-3.65 19.32-5.6.31-.1.55-.35.5-.76-.4-.53-.98-.4-1.5-.31z"/>
  <path fill="#996A4A" d="M164.88 191.9c-1.43-.59-2.43.04-3.44.4-8.65 3.01-17.27 6.12-25.95 9.08-8.99 3.08-18.27 5.14-27.38 7.81-3.6 1.06-7.3 1.82-10.84 3.05-2.96 1.02-5.5.67-8.21-.8-5.14-2.8-10.45-5.27-15.61-8.04-2.3-1.24-4.48-1.57-6.96-.72-3.13 1.08-6.34 1.94-9.48 2.98-2.37.78-2.62 1.3-1.4 3.28 3.3 5.36 6.7 10.65 10.01 16 1.03 1.65 2.4 2.11 4.23 1.75 4.77-.92 9.56-1.77 14.33-2.68 21.9-4.2 43.76-8.65 65.58-13.28 6.8-1.45 5.44-.58 8.9-6.6 1.71-2.98 3.33-6 4.97-9 .52-.96 1.11-1.9 1.25-3.24z"/>
  <path fill="#BCABA8" d="M114.78 293.23c-3.13 1.55-6.62 1.6-9.96 2.21-11.5 2.14-23.18 3.14-34.77 4.78-1.97.28-4 .24-5.92.7-6.7 1.65-13.12.33-19.57-1.38-3.5-.93-6.96-2.17-10.67-2.1 1.93 3.72 5.26 6.2 8.05 9.14.9.95 2.25.8 3.47.64 9.2-1.27 18.38-2.58 27.57-3.82 4.27-.57 8.55-1.2 12.84-1.46 11.04-.69 22-2.11 32.98-3.3 5.05-.54 9.81-2.57 14.7-3.99 8.27-2.4 16.53-4.86 24.8-7.3 1.16-.34 2.36-.61 3.23-1.57-4.23-.22-8.23 1.12-12.32 1.8-7.68 1.27-15.32 2.74-22.98 4.1-1.18.22-2.38.5-3.6.23l-.9.12c-1.57 1-3.3 1.11-5.09 1l-1.86.2z"/>
  <path fill="#996A4A" d="M245.38 175.03c-3.22-1.06-6.4-2.25-9.67-3.13-2.95-.8-4.88 1.11-6.86 3.02 2.47 1.07 11.89 1.42 16.53.1zM284.73 221.26c-.32.06-.68.05-.94.2-.25.14-.13.44.14.36.3-.08.54-.34.8-.52v-.04zM199.06 154.22l-.54.24c.32.39.36-.13.55-.17l-.01-.07z"/>
  <path fill="#B1876F" d="M414.46 191.3a2.4 2.4 0 0 0 1.8-.58c-.7-.1-1.3.1-1.8.59z"/>
  <path fill="#DCCECE" d="M220.72 481.22c-4.73 1.2-9.59 1-14.4 1.27-5.16.29-10.3.69-15.43 1.26-.98.8-2.16 1.05-3.37 1.26-11.09 2-22.17 4.05-33.27 5.97-7.85 1.36-15.84 1.4-23.75 2.2-5.72.57-11.45.96-17.17 1.43-.55.05-1.11.05-1.65.16-.94.18-2.18.1-2.29 1.43-.08 1.04.9 1.44 1.69 1.83 5.85 2.86 11.72 5.7 17.59 8.54a6.7 6.7 0 0 0 3.24.52c13.8-.46 27.6-.86 41.4-1.42 2.62-.1 5.23-.78 7.83-1.27 17.27-3.25 34.52-6.54 51.78-9.79 8.25-1.55 16.51-3.05 24.76-4.58.44-.08.9-.12 1.3-.3 6.48-2.8 12.96-5.62 19.44-8.46.25-.1.4-.47.99-1.2-9.68-.31-18.85 1.56-28.3 1.41.51-1.99 2.07-2.64 3.06-3.73.96-1.06 2.09-1.97 3.07-3.02 1.07-1.15 1.51-2.44.45-3.87-1.06-1.44-2.32-.92-3.56-.35-6.83 3.12-13.67 6.24-20.48 9.41-4.18 1.95-8.49 2.19-12.93 1.3zM258.75 515.2c-1.6-1.34-2.86-1.1-4.03-1.06-7.28.28-14.55.59-21.82.89-.56.02-1.1.08-1.66.06-2.32-.08-2.9-.4-3.49-2.68-.47-1.8-1.33-2.6-3.22-2.54-9.15.25-18.3.44-27.46.66-.42.01-.83.17-1.17.25-.38.96.24 1.4.74 1.75 4.12 2.93 7.15 6.88 10.08 10.88 1.96 2.66 4.12 3.32 7.4 2.73 10.41-1.9 20.9-3.46 31.36-5.04 4.86-.74 8.65-3.58 13.27-5.9z"/>
  <path fill="#B1876F" d="M86.6 496.1l-.01.16.14.06z"/>
  <path fill="#6B4E3F" d="M203.48 559.92c.98.14 1.96.38 2.94.4 11.92.3 23.82 1.13 35.75.93 6.29-.11 12.57-.38 18.86-.59.54-.01 1.1.02 1.54-.52-.1-1.04-1.03-.96-1.7-1.09-7.38-1.4-14.76-2.75-22.13-4.12-1.44-.27-2.86-.1-4.29.1l-26.87 3.77c-1.42.2-2.87.3-4.1 1.16v-.04zM329.6 537.62c.87.87 1.88.4 2.8.36 7.62-.37 15.18-1.34 22.7-2.52 2.62-.4 5.24-.81 7.87-1.15a12.7 12.7 0 0 0 6.27-2.78c3.91-3.03 7.92-5.94 11.78-9.16-1.58-.19-2.96.37-4.35.84-8.9 2.99-17.79 6.02-26.7 9-5.77 1.95-11.82 2.79-17.7 4.31-.9.24-2 .1-2.68 1.1zM203.49 559.96v-.04.04z"/>
  <path fill="#B1876F" d="M306.37 530.27v-.05.05zM406.9 500.54l.13-.18-.15-.14z"/>
  <path fill="#996A4A" d="M290.94 527.23zM290.94 527.22v.01z"/>
  <path fill="#6B4E3F" d="M332.57 21.7l-.04-.29c-.1.02-.23 0-.29.06-.04.04.02.18.04.27l.3-.05z"/>
  <path fill="#DCCECE" d="M78.98 369.47c14-.71 27.75-3.23 41.54-5.52 1.2-.2 2.38-.44 3.3-1.35h-.01c1.38.85 2.95.84 4.48 1l38.22 4.09c4.22.46 4.51.07 2.81-3.97-1.42-3.37-1.25-3.7 2.41-4.8 4.55-1.37 9.08-2.8 13.63-4.15 13.03-3.89 25.76-8.64 38.59-13.11a13.58 13.58 0 0 1 7.44-.7c9.52 1.95 19.1 3.6 28.58 5.75 5.85 1.33 11.62.83 17.45.48.53-.03 1.13-.06 1.42-.85-.39-.8-1.27-1.07-2.02-1.48-3.11-1.68-6.26-3.29-9.36-4.98-3.3-1.8-3.32-2.03-1.83-5.38 1.34-3.02 3.23-5.8 3.98-9.07l1.84-.97c1.48.22 2.84-.3 4.21-.69 11.57-3.23 23.14-6.5 34.7-9.74 1.17-.33 2.36-.6 3.26-1.51.68.15 1.3.02 1.88-.38 5.46-1.54 11.08-2.52 16.43-4.47.71.13 1.33-.07 1.87-.55l.39-.17c.68.1 1.3 0 1.82-.52l.06-.01c1.13.38 2.2-.02 3.25-.3 3-.76 6-1.51 8.98-2.37 2.78-.8 5.58-1.2 8.49-1.15 8.95.16 17.9.2 26.85.28 3.65.03 7.3 0 10.94.12 2.98.1 3.32.56 2.83 3.4-.25 1.4-.66 2.8-.87 4.21-.18 1.15-1.12 2.54-.03 3.43 1.1.9 2.29-.26 3.33-.74 9.06-4.12 18.09-8.3 27.13-12.45.8-.36 1.6-.78 2.43-1.06 1.59-.54 2.1-.2 2.04 1.4-.03.88-.21 1.75-.38 2.62-.6 3.16-.84 6.35-.98 9.56-.13 2.88.05 3.2 2.9 3.81 4.22.9 8.46 1.65 12.68 2.54 4.47.93 4.74 1.53 2.16 5.25-1.82 2.63-4.07 4.99-5.69 7.73-1.66 2.81-3.94 4.18-6.98 5.04-11.7 3.3-23.34 6.8-35 10.22-1.82.53-3.6 1.12-5.28 1.98-11.52 5.86-23.05 11.71-34.55 17.62a42.18 42.18 0 0 1-7.99 3.17 4225 4225 0 0 0-28.39 8.04 35.9 35.9 0 0 0-6.8 2.6c-6.76 3.53-13.54 7.02-20.28 10.58a32.53 32.53 0 0 1-8.04 3 8400.2 8400.2 0 0 0-50.1 11.49c-2.98.7-6.12 1-8.81 2.68l-2.91.4c-4.62.46-9.07 1.77-13.61 2.65-12.77 2.48-25.52 5.12-38.3 7.58-4.21.81-8.5 1.28-12.75 1.9a8.8 8.8 0 0 1-3.3-.04c3.04-3.87 7.2-6.51 10.73-9.84 3.22-3.03 6.68-5.8 9.97-8.74a22.26 22.26 0 0 1 7.62-4.55c8.45-2.95 16.84-6.06 25.27-9.07.9-.32 1.78-.9 2.87-.54-.27 1.08-1.26 1.2-1.98 1.61-8.65 4.91-17.32 9.8-25.98 14.69-.48.27-.97.52-1.43.83-.99.66-2.3 1.15-1.85 2.74.32 1.14 2.07 2.12 3.53 1.98 1.34-.12 2.52-.79 3.72-1.34 9.75-4.46 19.53-8.85 29.22-13.44a10.85 10.85 0 0 1 8.26-.7c6.15 1.82 12.4 3.25 18.57 4.98 2.68.75 5.25.34 7.87-.12 6.09-1.08 12.16-2.3 18.27-3.22a53.85 53.85 0 0 0 11.77-3.3c15.95-6.28 31.55-13.35 47.07-20.6 1.92-.9 3.68-1.96 5.24-3.41 3.64-3.39 7.35-6.7 11.01-10.06.74-.68 1.44-1.38 2.14-2.1.38-.38.85-.8.62-1.4-.23-.64-.87-.59-1.42-.59l-4.64.03c-4.3.03-8.63.29-12.92.04-5.53-.32-10.36 1.94-15.35 3.62-4.4 1.48-8.74 3.12-13.1 4.7-1.05.4-2.08.76-3.22.5v.03c2.1-1.47 4.49-2.38 6.78-3.48 4.77-2.3 9.56-4.57 14.33-6.9.73-.36 1.74-.5 1.85-1.63-.84-.79-1.71-.27-2.53-.1-5.19 1.1-10.36 2.25-15.55 3.35a11.18 11.18 0 0 0-4.68 2.37c-1.64 1.31-3.33 2.56-4.91 3.94-1.6 1.4-3.27 1.59-5.23.9-5.73-2.02-11.49-3.96-17.23-5.94-3.55-1.22-7.13-2.39-10.65-3.68a7.64 7.64 0 0 0-6.94.59c-8.53 4.88-17.17 9.58-25.77 14.35-.67.37-1.35.74-2.06 1.07-1.22.56-2.14.26-2.66-1.03-.13-.31-.23-.63-.36-.93-2.3-5.42-2.13-6.3 1.98-10.54l7.62-7.83c.61-.63 1.27-1.22 1.55-2.3-1.15-.52-1.92.28-2.68.7a941.52 941.52 0 0 0-15.3 8.65c-3.18 1.85-6.43 3.36-10.13 3.86-3.66.5-7.01 1.87-10.2 3.73-2.68 1.56-5.46 2.92-8.23 4.3-2.1 1.04-3.28 2.32-2.65 4.96.51 2.13.03 2.75-2.2 3.3-6.65 1.65-13.33 3.15-20 4.7-1.62.37-3.04-.28-4.46-.93-5.52-2.55-11.06-5.05-16.54-7.66a9.71 9.71 0 0 0-6.72-.72c-10.77 2.48-21.57 4.77-32.36 7.17-1.34.3-2.79.4-4.55 1.6 7.95 1.45 15.59 1.62 22.7 4.62-9.13 2.42-18.14 5.08-27.33 7.12-9.1 2.02-18.25 3.97-27.16 6.29 0 .87.22 1.13.54 1.24 5.43 1.85 10.8 3.82 16.75 3.34 4.17-.34 8.39-.24 12.58-.34.44 0 .89 0 1.33.04 2.53.17 2.79.58 1.7 2.74a25.05 25.05 0 0 1-2.88 4.44 313.9 313.9 0 0 0-3.69 4.7 7.44 7.44 0 0 0-1.42 2.6c-.97 3.6-.02 4.9 3.7 4.94 8.73.08 17.46.15 26.19.17 5.03.02 9.75-1.78 14.65-2.6 2.72-.47 5.4-1.18 8.1-1.77 3.91-.86 5.04-.31 6.77 3.3.18.4.24.85.36 1.28-3.5 1.26-7.17 1.2-10.79 1.4-9.15.5-18.32.78-27.46 1.39-9.49.63-18.8 2.65-28.17 4.18-3.63.59-7.27.45-10.88.93-1.53.2-3.1.08-4.57.66a10.5 10.5 0 0 0-3.57-.17c-2.38.17-4.78.19-7.16.4-1.66.14-2.64-.48-3.29-2-.64-1.48-1.24-3.02-2.31-4.28-.47-1.24-.9-2.49-1.4-3.7-3.18-7.58-7.8-14.3-12.64-20.86a74.72 74.72 0 0 1-10.1-18.5c-.5-1.34-1.14-2.63-1.76-3.92-.34-.68-.68-1.41-1.55-1.6a.5.5 0 0 0-.32.1l-.11-.81-.06-2.05c1.64.47 3 1.42 4.13 2.64 1.95 2.12 4.2 3.89 6.39 5.74 4.36 3.7 8.41 7.76 12.92 11.32 1.81 1.43 3.59 1.89 5.8 1.09 2.59-.94 5.25-1.66 7.86-2.53 2.95-.98 3.1-1.18 2.56-4.3-.73-4.24-1.62-8.44-2.37-12.67-.6-3.37-.54-3.38 2.57-5.1l7.45-.72c1.42.9 2.96.59 4.5.51zm218.96-46.54c1.4 1.51 2.95 1.77 4.74 1.45 4.65-.84 9.3-1.6 13.94-2.5 1.86-.35 3.84-.33 6.14-1.27-2.93-.69-20.81 1.08-24.82 2.32z"/>
  <path fill="#996A4A" d="M78.46 485.87l-.4-.74.4.74z"/>
  <path fill="#BCABA8" d="M227 409.52c-4.62.46-9.07 1.76-13.61 2.64-12.77 2.48-25.52 5.12-38.3 7.58-4.21.82-8.5 1.3-12.75 1.9-1.1.16-2.2.23-3.3-.03-1.79 1.15-3.53 2.78-5.73.7-3.49 1.27-7.16 1.2-10.78 1.4-9.16.51-18.32.78-27.46 1.4-9.5.63-18.8 2.65-28.18 4.17-3.62.6-7.27.46-10.88.94-1.52.2-3.1.08-4.57.66a26.99 26.99 0 0 0 9.06 3.02l30.1 4.78c1.53.24 3.06.33 4.61.19 9.56-.92 19.11-2 28.7-2.61 5.89-.37 11.16-2.35 16.41-4.7 2.32-1.04 4.62-2.11 6.97-3.08 2.33-.97 2.9-.94 4.1 1.2 2.5 4.47 3.52 3.17 6.54.81 3.3-2.58 6.6-5.18 9.86-7.81a14.13 14.13 0 0 1 6.52-3.05c5.22-.93 10.42-1.92 15.62-2.94a5.88 5.88 0 0 1 4.72.89 101.2 101.2 0 0 0 5.62 3.49c2.97 1.74 3.79 1.4 4.46-1.93.37-1.84.65-3.7.96-5.55.24-1.42.56-2.81 1.31-4.07z"/>
  <path fill="#996A4A" d="M77.7 445.4l-.28-.02.27.06z"/>
  <path fill="#BCABA8" d="M271.45 324.46c1.48.22 2.84-.3 4.21-.69 11.57-3.23 23.14-6.5 34.7-9.75 1.17-.32 2.36-.6 3.26-1.5-1.11-.24-2.2.02-3.26.27-9.44 2.17-18.88 4.34-28.31 6.53-3.92.9-7.44 2.65-10.6 5.14zM313.62 312.52c.68.15 1.31.02 1.88-.39a2.35 2.35 0 0 0-1.88.39zM331.93 307.67c.71.12 1.33-.07 1.87-.55-.7-.07-1.31.14-1.87.55zM334.19 306.95c.69.1 1.31 0 1.82-.52-.69-.12-1.3.06-1.82.52zM74.48 368.96c1.42.9 2.96.59 4.5.51 14-.71 27.75-3.23 41.54-5.52 1.2-.2 2.38-.44 3.3-1.35-2.76-.45-5.5-.2-8.22.2-13.06 2-26.1 4.06-39.2 5.7-.65.08-1.28.3-1.92.46z"/>
  <path fill="#EAE2E7" d="M166.46 243.83c.99-1.22 2.27-2.09 3.54-2.97 6.36-4.4 12.69-8.83 19.08-13.18 2.06-1.4 3.36-3.11 3.41-5.69.04-2.25-.53-2.87-2.7-2.47-1.4.26-2.77.7-4.15 1.11-7.4 2.23-14.8 4.44-22.2 6.7-5.41 1.67-11.04 2.17-16.58 3.14-14.25 2.48-28.6 4.35-42.75 7.38-1.72.37-3.5.5-5.22.88-1.17.25-1.42 1.1-.57 1.94 1.1 1.09 2.32 2.05 3.51 3.02 1.8 1.47 3.68 2.84 5.42 4.37 2.08 1.83 4.17 2.05 6.69.84 5.26-2.55 10.65-4.86 15.93-7.4 2.2-1.05 4.32-1.5 6.69-.65 1.24.44 2.64.49 3.83 1.01 3.77 1.66 7.16 1 10.74-.84 5.13-2.65 5.24-2.5 10.17.58 1.3.82 2.5 1.8 3.76 2.72l1.4-.49z"/>
  <path fill="#DCCECE" d="M392.58 219.5l.11-.14-.14-.11z"/>
  <path fill="#B1876F" d="M275.95 180.05l-.13.17.17.13z"/>
  <path fill="#DCCECE" d="M356.88 173.73v-.01.01z"/>
  <path fill="#EAE2E7" d="M89.53 252.4c-2.95-2.1-6.23-2.88-9.5-3.7-.31-.07-.67 0-.98.07-.45.11-.83.38-.87.88-.05.52.31.84.76.93 1.73.38 3.45.76 5.19 1.06 1.8.3 3.6.51 5.4.76zM121.72 292.03l.92-.12a3.4 3.4 0 0 0-1.72-3.02c-2.96-1.91-5.94-3.79-8.93-5.66-1.54-.97-3.09-.9-4.7-.04-7.3 3.88-14.61 7.73-21.92 11.6-.27.15-.47.44-.84.8.85.95 1.88.5 2.75.4 7.65-.97 15.3-1.99 22.95-2.98 1.52-.2 3.06-.48 4.55.22l1.86-.2a4.44 4.44 0 0 1 5.08-1zM283 250.7c-.89-.9-1.9-.45-2.82-.37-10.34.87-20.6 2.43-30.84 3.95-6.86 1.02-13.6 2.84-20.38 4.32-.65.14-1.3.33-1.9.6-.95.41-1.82 1.1-1.57 2.24.27 1.19 1.4.86 2.23.76 5.9-.78 11.85-1.15 17.73-2.2 3.9-.7 7.86-1.08 11.8-1.51 2.65-.28 5.22-.84 7.75-1.64 5.05-1.6 10.14-3.08 15.19-4.66.99-.3 2.2-.33 2.82-1.5zM210.58 261.79c-1.52-.56-2.32-.07-3.11.24-8.02 3.07-16.04 6.16-24.04 9.27-2.47.96-3.16 1.77-2.79 3.05.42 1.46 1.6 1.77 4.23.93 6.28-2.03 12.55-4.12 18.83-6.18 3.57-1.17 5.25-4.02 6.88-7.31zM314.18 239.18c-.4-.53-.98-.4-1.5-.31-6.5 1.13-12.99 2.28-19.48 3.43-.43.08-.86.16-1.28.3-.54.17-1.03.46-1.08 1.1-.05.73.37 1.24.96 1.6.82.5 1.7.46 2.56.24 6.52-1.6 12.9-3.65 19.32-5.6.31-.1.55-.35.5-.76z"/>
  <path fill="#DCCECE" d="M121.72 292.03a4.44 4.44 0 0 0-5.08 1c1.78.12 3.52 0 5.08-1z"/>
  <path fill="#EAE2E7" d="M152.95 421.05c-1.72-3.62-2.85-4.17-6.77-3.31-2.7.6-5.38 1.3-8.1 1.76-4.9.82-9.62 2.63-14.65 2.61-8.73-.02-17.46-.1-26.18-.17-3.73-.03-4.68-1.34-3.7-4.95.26-.99.8-1.8 1.42-2.6 1.21-1.57 2.44-3.14 3.68-4.69a25.05 25.05 0 0 0 2.88-4.44c1.1-2.17.83-2.58-1.7-2.75-.44-.03-.88-.04-1.32-.03-4.2.1-8.41 0-12.59.33-5.94.48-11.31-1.49-16.74-3.34-.32-.1-.55-.36-.55-1.23 8.92-2.32 18.06-4.27 27.16-6.3 9.2-2.03 18.2-4.7 27.33-7.12-7.1-2.99-14.74-3.16-22.7-4.62 1.77-1.19 3.21-1.3 4.56-1.6 10.78-2.39 21.59-4.69 32.35-7.16a9.71 9.71 0 0 1 6.72.71c5.49 2.62 11.03 5.12 16.55 7.66 1.4.66 2.84 1.31 4.45.94 6.67-1.55 13.35-3.06 20-4.7 2.24-.55 2.71-1.17 2.2-3.3-.63-2.64.56-3.92 2.65-4.97 2.77-1.38 5.56-2.74 8.23-4.3a27.57 27.57 0 0 1 10.2-3.72c3.7-.5 6.96-2.01 10.14-3.86 5.06-2.95 10.17-5.8 15.29-8.65.76-.43 1.53-1.23 2.69-.71-.29 1.08-.94 1.68-1.55 2.3l-7.62 7.84c-4.11 4.24-4.28 5.12-1.98 10.53l.35.93c.52 1.3 1.45 1.6 2.67 1.03.7-.32 1.38-.69 2.06-1.06 8.6-4.77 17.23-9.48 25.77-14.36a7.64 7.64 0 0 1 6.93-.58c3.53 1.29 7.1 2.46 10.65 3.68 5.75 1.97 11.5 3.92 17.23 5.93 1.96.7 3.63.5 5.23-.89 1.58-1.38 3.27-2.63 4.91-3.94 1.4-1.11 2.9-2 4.68-2.37 5.2-1.1 10.37-2.25 15.56-3.35.81-.17 1.68-.7 2.52.1-.1 1.13-1.12 1.27-1.85 1.63-4.76 2.32-9.55 4.6-14.33 6.9-2.29 1.1-4.67 2-6.77 3.48v-.03c1.13.26 2.17-.11 3.22-.5 4.35-1.58 8.7-3.22 13.1-4.7 4.99-1.69 9.81-3.94 15.34-3.62 4.3.24 8.62-.01 12.93-.04l4.64-.03c.54 0 1.18-.05 1.42.58.22.6-.25 1.03-.63 1.41-.7.71-1.4 1.42-2.13 2.1-3.67 3.35-7.37 6.67-11.01 10.05a19.86 19.86 0 0 1-5.25 3.42c-15.52 7.25-31.12 14.32-47.06 20.6a53.86 53.86 0 0 1-11.78 3.3c-6.1.92-12.18 2.13-18.27 3.22-2.61.46-5.18.87-7.86.12-6.17-1.73-12.43-3.17-18.57-4.99-2.96-.87-5.5-.61-8.27.7-9.69 4.6-19.47 8.99-29.22 13.45-1.2.55-2.37 1.22-3.72 1.34-1.45.13-3.2-.84-3.52-1.98-.45-1.6.86-2.08 1.84-2.74.46-.31.96-.56 1.44-.84 8.66-4.89 17.32-9.77 25.97-14.68.72-.4 1.72-.53 1.99-1.61-1.1-.36-1.98.22-2.87.54-8.43 3.01-16.83 6.11-25.28 9.06-2.88 1-5.36 2.54-7.61 4.56-3.3 2.94-6.76 5.7-9.97 8.73-3.53 3.33-7.7 5.98-10.73 9.85-1.8 1.15-3.53 2.78-5.73.7-.12-.42-.18-.87-.37-1.26zm116.26-53.01c-9.15 3.58-18.28 7.22-27.42 10.85a12 12 0 0 0-1.2.56c-.4.2-.82.46-.85.94-.04.7.53.91 1.08 1.05 4.7 1.23 9.4 2.45 14.1 3.65 1.42.37 2.73.03 3.61-1.1 4.16-5.3 9.24-9.8 13.22-15.26.26-.36.5-.74.22-1.26-1.03-.48-1.89.23-2.76.57zM322.76 320.61c-2.93-.69-20.81 1.08-24.82 2.32 1.4 1.51 2.95 1.77 4.74 1.45 4.65-.84 9.3-1.6 13.94-2.5 1.86-.35 3.84-.33 6.14-1.27z"/>
  <path fill="#DCCECE" d="M271.97 367.47c-1.03-.48-1.89.23-2.76.57-9.15 3.58-18.28 7.22-27.42 10.85a12 12 0 0 0-1.2.56c-.4.2-.82.46-.85.94-.04.7.53.91 1.08 1.05 4.7 1.23 9.4 2.45 14.1 3.65 1.42.37 2.73.03 3.61-1.1 4.16-5.3 9.24-9.8 13.22-15.26.25-.36.5-.74.22-1.26zM300.9 364.34v-.03.03z"/>
</svg>
