<svg xmlns="http://www.w3.org/2000/svg" viewBox="0 0 620 620">
  <path fill="#D7673F" d="M137.83 68.01l.05-.03.67-.51.04-.04.67-.51.05-.03.67-.52.04-.03.67-.51.05-.03.67-.52.04-.03.67-.51.05-.04.67-.5.04-.04.67-.51.05-.04.92-.68.07-.2.21-.01.9-.72.04-.04c1.18-.58 2.36-1.2 3.57-1.75.7-.32 2.05-.84 2.1-.74.6 1.17-.5 1.6-1.17 2.18-.96.83-2.07 1.5-2.95 2.4-.86.89-1.5 1.98-2.25 2.98l-.55.05.13.32.47-.3c2.15-.87 4.36-1.62 6.44-2.63 5.82-2.83 11.74-5.38 18.04-7 7.41-1.9 14.5-4.68 21.4-7.98a24.63 24.63 0 0 1 10.37-2.68c4.27-.06 8.08-1.52 11.62-3.73 5.75-3.58 12.27-5.2 18.55-7.4.76-.26 1.7-.33 2.48-.13 5.94 1.5 11.82 3.22 17.8 4.6a149.71 149.71 0 0 0 15.28 2.8c5.68.7 10.54 2.83 14.85 6.51 2.17 1.86 4.57 3.44 6.85 5.17 1 .76 1.99 1.1 3.23.54 3.17-1.46 6.36-2.9 9.57-4.28 1.46-.63 1.98-1.49 1.12-2.94-.16-.28-.32-.56-.42-.86-1.3-3.98-4.12-6.26-7.8-8.2-7.02-3.68-13.76-7.9-20.6-11.92-.9-.53-1.7-1.21-2.95-2.1 1.03-.34 1.65-.65 2.3-.73 10.4-1.34 20.8-2.72 31.21-3.91 3.76-.44 7.55-1.15 11.37-.21 5.33 1.32 10.68 2.58 16.02 3.87 2.15.52 4.29 1.24 6.48 1.5 4.3.53 7.68 2.95 11.12 5.18 5.52 3.59 11.22 6.8 17.1 9.74a4295.87 4295.87 0 0 1 43.13 21.79c1.44.74 2.8 1.96 3.72 3.29a152.31 152.31 0 0 1 11.75 19.95c1.11 2.32.87 4.16-.46 6.23-1.72 2.66-3.19 5.5-4.8 8.23-2.52 4.26-3.35 9.1-4.78 13.74-.25.8-.04 1.94.38 2.7 1.74 3.15 3.64 6.2 6.84 8.18 2.25 1.4 4.37 3 6.6 4.44 1.22.8 1.68 1.78 1.42 3.22-.25 1.35-.3 2.74-.57 4.09-.34 1.7.44 2.6 1.93 3.11 1.2.42 2.37.94 3.59 1.26 1.86.49 2.78 1.7 3.32 3.47.83 2.73 1.78 5.44 2.75 8.13.86 2.41.9 2.4 3.32 1.28.19-.08.4-.15.6-.19.1-.02.2.05.5.14.27 1.8-1.16 3.02-1.93 4.36-.87 1.51-.91 2.56.17 3.98 2.26 2.94 4.17 6.14 6.5 9 1.07 1.34 2.82 2.12 4.25 3.17 1.16.86 2.43 1.62 3.41 2.66a71.44 71.44 0 0 1 9.97 13.47c1.89 3.43 3.51 7 5.17 10.56a59.2 59.2 0 0 0 7.67 12.39 8.22 8.22 0 0 1 1.88 7c-1.42 9.12-2.47 18.28-3.87 27.4-.37 2.4.22 4.09 2 5.57 1.13.96 2.25 1.94 3.25 3.03 1.39 1.51 1.35 1.94.1 3.53-.2.25-.38.51-.62.72-4.3 3.66-5.9 8.42-6.42 13.94-.58 6.22-1.45 12.4-1.24 18.67.05 1.52.58 2.36 1.93 2.86 3.84 1.43 7.5 3.44 11.85 3.07 2.11-.18 2.42.36 1.84 2.36-1.2 4.17-2.39 8.34-3.75 12.46-1.15 3.5-1.44 7-.82 10.64.49 2.82.82 5.66 1.2 8.5.29 2.13.24 2.26-1.77 1.85-1.31-.27-1.78.2-1.93 1.33-.71 5.25-1.36 10.51-2.15 15.75-.34 2.32 1.73 1.95 3.24 2.96-1.87 1.4-3.5 2.66-5.18 3.85a91.9 91.9 0 0 1-5.02 3.34 25.48 25.48 0 0 1-3.91 2.05c-9.06 3.57-18.14 7.12-27.24 10.59a24.4 24.4 0 0 1-5.18 1.19c-4.82.7-9.49.18-13.89-2.1-.93-.48-2.02-.68-2.93-1.2-5.1-2.9-10.72-3.04-16.33-3.09-1.76-.02-3.57.43-5.28.93a98.04 98.04 0 0 0-7.82 2.67c-1.68.64-2.88.5-4.2-.95-3.14-3.43-6.55-6.61-9.73-10.01-2.45-2.62-5.6-4.15-8.6-5.92-1.6-.94-2.01-.68-2.3 1.15-.5 3.14-.94 6.3-1.27 9.46a9.38 9.38 0 0 1-2.16 5.15 658.14 658.14 0 0 0-10.21 12.99c-.88 1.13-1.76 1.64-3.25 1.25-2.14-.58-4.33-.94-6.5-1.38-.73-.14-1.48-.19-2.2-.37-3.37-.85-3.58-1.16-3.13-4.57l1.81-13.56.5-3.77c-2.54 1.05-4.5 1.96-6.53 2.65a6.81 6.81 0 0 0-4.82 5.29c-.85 3.48-2.2 6.84-3.16 10.3a4.32 4.32 0 0 1-2.22 2.9c-3.44 1.87-6.74 4.06-10.32 5.6-2.47 1.06-5.28 1.44-7.99 1.81-7.44 1.03-14.92 1.86-22.37 2.83-2.6.34-5.05-.1-7.4-1.14a14.52 14.52 0 0 0-8.07-1.02c-1.67.24-3.38.4-5.06.37-7.08-.2-13.51 2.35-19.97 4.72-2.25.82-3.87.73-5.7-1-2.39-2.24-5.16-4.07-7.68-6.17-.96-.8-1.74-.94-2.84-.34-2.99 1.61-5.9 3.27-8.38 5.68-2.87 2.81-5.96 5.4-8.97 8.06-.3.27-.7.57-1.09.6-3.85.36-7.64 1.21-11.35-1.22-5.13-3.37-10.53-6.33-15.84-9.42a19.95 19.95 0 0 0-3.46-1.55c-3.7-1.29-3.77-1.3-6.19 1.92-1.84 2.46-3.46 5.08-5.3 7.55-1.77 2.37-2.01 2.36-4.19.48-2.96-2.57-5.82-5.26-8.88-7.71-1.83-1.46-2.4-3.1-1.82-5.28.41-1.53.8-3.06 1.18-4.6.53-2.16.18-2.56-1.98-2.68-2.64-.16-5.27-.47-7.9-.64-3.57-.24-6.94.76-10.22 1.93-3.11 1.1-5.46 1-7.69-1.93-2.55-3.35-5.7-6.26-8.49-9.43a11.28 11.28 0 0 0-5.19-3.46c-4.53-1.45-9-3.1-13.52-4.63-.9-.3-1.85-.67-2.76-.62-5.49.3-11.04.27-16.42 1.23-4.02.71-7.98.92-11.96.65-2.96-.2-5.08.61-7.38 2.62-5.02 4.39-8.08 9.99-11.03 15.74-.77 1.5-1.6 2.99-2.43 4.47-.6 1.08-1.33 1.17-2.3.36-3.23-2.75-6.54-5.4-9.7-8.21a6.03 6.03 0 0 1-1.48-2.73c-2.99-9.94-5.94-19.89-8.84-29.85-1.98-6.81-3.97-13.63-5.74-20.5-.82-3.16-1.1-6.45-1.63-9.7l.95-6.81c.82-6.1 1.73-12.18 2.46-18.28.77-6.51 1.3-13.05 2.07-19.56.18-1.54.7-3.1 1.34-4.53a78.42 78.42 0 0 1 8.16-14.3c4.07-5.54 7.4-11.58 12.18-16.64 1.59-1.68 2.3-4.26 3.16-6.52 3.69-9.58 7.28-19.2 10.92-28.79.26-.67.54-1.4 1.02-1.93 2.7-2.98 5.43-5.93 8.22-8.83.97-1.02 4.42-.48 4.97.79.19.42-.1 1.21-.41 1.65-2.55 3.52-5.15 6.99-7.74 10.48-2.6 3.48-5.2 6.95-7.75 10.47a2.9 2.9 0 0 0-.62 1.71c.22 3.15.55 6.28.88 9.73 1-.93 1.62-2 2.54-.47.97 1.63 2.13 3.15 3.14 4.76 1.53 2.47 2.18 2.6 3.66.14 3.06-5.08 5.97-10.25 8.95-15.37.85-1.47 1.73-2.92 2.6-4.37.69-1.13 1.58-1.37 2.63-.5 2.5 2.05 3.28 2.8 1.73 5.82-1.44 2.83-2.52 5.83-3.88 8.7a4.11 4.11 0 0 0-.18 3.65c.76 1.72 1.5 3.45 2.51 5.82l3.05-5.3c.47-.82 1-1.62 1.44-2.46.55-1.03 1.17-1.15 1.94-.26.34.4.65.84 1.02 1.22 3.73 3.93 3.73 3.92.65 8.53-3.35 5-3.4 5.16 2.34 6.97 2.56.8 3.6 2.17 3.87 4.66.35 3.15.94 6.28 1.34 9.43.3 2.45-.3 2.92-2.56 2.1-1.3-.46-2.62-.87-3.84-1.5-1.57-.8-2.44-.2-2.9 1.25-.63 2.02-1.03 4.1-1.76 6.08-.8 2.18-1.65 4.4-2.88 6.34-.8 1.25-2.22 2.24-3.56 3-2.15 1.22-3.54 2.64-3.97 5.29-.59 3.63-1.7 7.19-2.71 10.74-.16.56-.87 1.26-1.42 1.36-1.79.3-5-1.71-5.88-3.46-1.71-3.4-3.42-6.8-5.18-10.17-.53-1.02-1.21-1.96-2.1-3.35-.39 1.03-.7 1.62-.85 2.26-.58 2.46-1.06 4.95-1.71 7.4-.2.76-.74 1.52-1.32 2.08a67.08 67.08 0 0 1-4.73 4.21 6.3 6.3 0 0 0-2.41 4.96c-.21 4.85-.48 9.7-.69 14.55-.02.58.14 1.17.29 2.36 1.7-1.72 3.12-2.93 4.27-4.38 1.37-1.73 2.98-2.2 5.03-1.66.51.13 1.05.13 1.58.2 1.23.19 2-.2 2.32-1.51.35-1.43.88-2.82 1.51-4.76 1.22 1.17 2.23 2.13 3.22 3.12.9.89 1.83 1.77 2.64 2.74 1 1.2 2.2 1.42 3.68 1.33a98.16 98.16 0 0 0 26.66-5.5c3.9-1.37 7.91-2.4 11.78-3.82a14.4 14.4 0 0 0 4.48-2.82c3.3-2.96 6.43-6.12 9.65-9.18.36-.34.84-.55 1.6-1.03.28 3.25-.9 5.86-2.01 8.35-1.59 3.58-3.58 6.97-5.4 10.45l-1.16 2.25c-.62 1.17-.2 2.04.81 2.7 3.56 2.36 7.33 4.3 11.65 4.67 4.85.4 9.32 2.25 13.58 4.2 3.77 1.75 6.95 4.79 10.39 7.27.34.24.63.56.96.82 1.6 1.2 2.77 1.27 3.8-.73 2-3.86 4.23-7.59 6.37-11.37.2-.35.47-.68 1.01-1.46.69 2.21 1.28 4.04 1.82 5.88.35 1.22.87 2.45.9 3.7.13 5.18 3.87 7.43 7.64 9.66 1.55.92 2.52.82 2.92-.99 1.11-4.97 4.68-4.82 8.44-4.65 2.21.1 4.44.02 6.64.24 1.58.16 2.61-.4 3.56-1.55a84.6 84.6 0 0 1 4.41-5c1.31-1.37 1.96-1.25 2.86.42 1.3 2.42 2.63 4.84 3.75 7.35.76 1.68 1.76 2.12 3.5 1.68 1.95-.48 4.05-.46 5.92-1.12 1.96-.69 3.75-1.88 5.56-2.94.9-.53 1.65-1.35 2.55-1.89 2.47-1.48 4.1-3.6 5.13-6.26.26-.68.7-1.3.96-2 .65-1.74 1.92-2.14 3.57-1.72 4.19 1.08 8.42 2.04 12.54 3.33 4.13 1.3 8.17 2.92 12.22 4.48 1.35.53 2.57.64 3.97.13 3.37-1.22 6.71-2.64 10.41-2.59 1.5.02 1.94-.67 1.85-2.2-.2-3.26-.23-6.54-.2-9.82.02-1.5-.6-2.18-2-2.26-3.05-.17-6.11-.41-9.17-.43-1.47-.01-1.93-.53-1.72-1.87l.08-.63c.5-5.28.5-5.29 5.35-7.35.68-.29 1.43-.45 2.06-.83 1.64-.98 2.97-.49 4.35.6 3.88 3.04 3.88 3 6.25-1.4 1.16-2.14 2.34-4.28 3.6-6.35.94-1.53 1.88-1.52 2.91-.04.79 1.13 1.46 2.33 2.2 3.49 1.03 1.61.93 1.99-.64 3.04-2.43 1.63-4.83 3.3-7.24 4.97l.25.6c.55-.03 1.11.02 1.64-.09 2.18-.42 4.4-.75 6.53-1.39 4.75-1.42 9.48-2.94 14.18-4.57.73-.25 1.61-1.24 1.7-1.97.32-2.93.56-5.9.42-8.85-.06-1.09-1.13-2.22-1.94-3.16-2-2.32-4.05-4.6-6.2-6.78a31.4 31.4 0 0 1-5.53-8.06c-.74-1.46-1.25-1.46-2.3-.23-1.16 1.37-2.26 2.78-3.62 4.47-.4-.92-.76-1.51-.93-2.15-.73-2.66-1.5-5.3-2.07-8-1.24-5.82-5.3-9.46-10.19-11.8-5.87-2.8-11.55-5.72-16.47-10.02a12.89 12.89 0 0 0-3.16-2.12c-.9-.4-2.2-.77-3-.42-2.85 1.26-6.07 1.7-8.36 4.3-1.87 2.12-4.23 3.82-6.45 5.61-1.66 1.35-2.57 1.06-2.64-.98-.13-3.38-2.05-5.6-4.19-7.88-2.54-2.69-4.85-5.6-7.25-8.4-.41-.49-.71-1.23-1.23-1.43-.8-.31-1.84-.55-2.58-.27-.49.18-.92 1.36-.85 2.03.19 1.67.69 3.3 1.04 4.96.22 1.05-.13 1.54-1.28 1.62-3.46.23-6.82.3-9.33-2.69-.14-.16-.34-.26-.52-.37l-3.8-2.21c-.56 1.19-1.11 2.38-1.68 3.56-.1.19-.23.35-.5.73-.72-1.67-.64-3.23-.42-4.82.53-3.89 1.09-7.77 1.56-11.66.26-2.21-.02-2.37-2.22-2.06-1.2.17-2.83.65-3.57.09a10.26 10.26 0 0 1-3.16-4.2 85.19 85.19 0 0 1-3.28-10.28c-.51-2.02-.4-4.18-.72-6.26-.71-4.62.91-8.5 3.63-12.07.25-.34.54-.67.7-1.05.44-1.02.82-2.07 1.22-3.1-1.1-.15-2.2-.38-3.32-.43-1.9-.07-3.8.03-5.7-.04-1.44-.06-2.18.57-2.3 1.98-.3 3.47-.64 6.94-.93 10.42-.36 4.32-.56 8.67-2.53 12.68a58.92 58.92 0 0 0-1.78 4.08c-.56 1.42-1.55 1.94-3.01 1.57-2.05-.52-4.14-.92-6.12-1.64-.8-.29-1.5-1.17-1.97-1.95-2-3.24-3.98-6.5-5.8-9.84-2.32-4.22-1.43-8.63-.47-13.01.24-1.07.23-2.2.34-3.29-1.13.07-2.4-.18-3.36.25-4.82 2.2-8.6-.6-12.57-2.44-.51-.24-.82-1.45-.8-2.2.06-1.68.43-3.35.57-5.04.04-.56-.26-1.15-.4-1.72-.5.15-1.02.23-1.44.48-.64.38-1.23.85-1.8 1.33-3.07 2.6-6.62 3-10.45 2.35-1.4-.23-2.02-.87-2.11-2.27-.16-2.32-.59-4.63-.63-6.95-.02-1.95-1.04-2.82-2.63-3.5-2.24-.94-4.42-2.03-6.65-3.01a5.94 5.94 0 0 1-3.45-3.9c-.8-2.53-1.76-5-2.55-7.54-.5-1.6-1.39-2.5-3.12-2.66a92.2 92.2 0 0 1-6.62-.87c-1.41-.24-2.43.21-3.37 1.25-2.2 2.42-4.7 4.62-6.67 7.22-1.84 2.41-3.2 5.2-4.66 7.88-1.19 2.2-1.2 2.26-2.85.24-.14-.16-.26-.34-.39-.5-2.16-2.76-2.18-2.8-5.29-1.38-1.09.5-1.53.3-1.62-.93-.34-4.44.19-8.52 3.17-12.23 2.85-3.53 5.19-7.49 7.74-11.26.36-.53.73-1.05 1-1.62.13-.24.15-.76.01-.84-.3-.2-.83-.39-1.1-.25-.83.44-1.6 1.03-2.38 1.56l-3.17 2.17c.35-1.24.38-1.81.65-2.25 1.73-2.79 3.52-5.54 5.27-8.31.5-.78 1.31-1.5.54-2.56l2.44-3.35.8-.54c2.87-3.96 5.76-7.9 8.58-11.88.63-.9 1.05-1.96 1.57-2.94l-.06.03.33-.65c4.12-3.92 8.16-7.96 12.42-11.74 2.28-2.02 4.98-3.55 7.4-5.42 4.7-3.6 9.34-7.28 14-10.93l.7-.53zm324.39 144.42c-2.35-4.38-4.7-8.77-7.2-13.05-.6-1.02-1.72-2.1-2.8-2.4-5.59-1.48-8.8-5.56-11.48-10.18a9.49 9.49 0 0 0-4.02-3.86c-2.16-1.12-4.16-2.54-6.3-3.68-1.37-.72-1.81-1.72-1.48-3.12a438.48 438.48 0 0 1 4.05-15.96c.57-2.1.03-3.6-1.95-4.79-2.64-1.57-5.05-3.5-7.67-5.1-1-.6-2.32-.88-3.51-.98-3.26-.26-6.54-.36-9.8-.5-4.75-.21-9.5-.46-14.24-.53-.78-.01-1.75.64-2.33 1.27-1.71 1.87-3.28 3.87-4.88 5.84-1.63 2-1.63 2.45.18 4.26 3.14 3.13 6.34 6.22 9.5 9.33.68.67 1.5 1.3 1.9 2.12.41.87.7 2 .52 2.92-.43 2.17-1.16 4.27-1.8 6.4-.76 2.59-.63 4.88 1.35 7.05 2.7 2.97 5.16 6.16 7.67 9.3.97 1.22 1.59.92 2.43-.16 2.38-3.04 2.42-3.02 4.51.28 1.07 1.7 2.19 3.37 3.18 5.12.66 1.15 1.53 1.48 2.64.92 5.31-2.7 8.78.24 11.95 3.92a205.83 205.83 0 0 1 17.4 23.38c1.42 2.22 3.15 4.25 4.85 6.28.4.47 1.24.74 1.9.77.21 0 .57-1 .7-1.59a25 25 0 0 0 .44-3.14c.44-5.43 1.97-10.59 4-15.61.28-.69.52-1.39.9-2.4-.14-.53-.23-1.4-.61-2.11zm-182.29-103.5c-.48-3.7.43-7.14 1.79-10.5a8.3 8.3 0 0 0 .06-6.46c-.96-2.46-1.72-5-2.63-7.48-.88-2.38-1.28-2.47-2.8-.52-3.13 4-6.18 8.05-9.25 12.1-1.54 2.01-3 4.08-4.6 6.05-.83 1.01-.62 1.6.34 2.31 5 3.71 9.99 7.47 15 11.17.48.35 1.18.68 1.69.59.31-.06.46-.96.54-1.14-.04-2.32.11-4.24-.14-6.11zm-54.87-14.1c1.28 1.38 2.45 2.94 3.95 4.03.77.57 2.21.61 3.24.39 3.82-.84 7.59-1.88 11.38-2.83 1.38-.35 2.2-.9 1.97-2.62-.67-4.92-1.13-9.87-1.73-14.8-.07-.56-.48-1.08-.73-1.63-.54.27-1.18.42-1.6.81-5.18 4.83-10.32 9.68-15.46 14.54-.45.42-.8.94-1.12 1.33.05.38-.01.66.1.78zm112.25 98.42c.35 1.21 1.3.85 2 .25 1.28-1.1 2.5-2.26 3.76-3.38 1.89-1.67 3.81-3.31 5.7-4.99 1.29-1.15 1.92-2.47 1.05-4.2-1.65-3.31-3.26-6.63-4.87-9.95-.45-.92-1.13-1.56-1.81-.42-2.58 4.35-5.03 8.78-7.51 13.18-.15.27-.18.6-.39 1.4.6 2.42 1.25 5.3 2.07 8.11zm-115.02-45.32c.76-.07 1.8-.48 2.15-1.07 2-3.42 3.82-6.94 5.45-10.66-7.87 3.69-15.26 8.01-22.63 12.37l.25.58c4.92-.4 9.86-.75 14.78-1.22zm-51.14 43.86c-.74 1.34-.03 2.36 1.47 2.08.85-.16 1.77-.7 2.35-1.36 1.87-2.13 3.63-4.37 5.37-6.62.43-.55.93-1.3.9-1.93-.12-2.48-.44-4.96-.69-7.44l-.73-.07c-2.9 5.11-5.82 10.2-8.67 15.34zM42.98 265.58c-1.15 2.61.51 4.54 3.42 4.15.27-.03.55-.26.76-.46.14-.13.18-.38.22-.59l3.11-17.57-.78-.14c-2.25 4.87-4.57 9.7-6.73 14.6zm155.15-81.83c-.45 3.1-.84 6.2-1.25 9.3l.63.15 4.87-13c-3.82.76-3.85.76-4.25 3.55z"/>
  <path fill="#935941" d="M145.04 67.03c.74-1 1.39-2.1 2.25-2.98.88-.9 1.99-1.57 2.95-2.4.67-.58 1.77-1.01 1.16-2.18-.05-.1-1.39.42-2.1.74-1.2.55-2.38 1.17-3.57 1.75.43-.56.74-1.29 1.3-1.65 3.7-2.44 7.28-5.15 11.23-7.1 7.1-3.54 14.43-6.62 21.68-9.86 4.83-2.15 9.69-4.25 14.53-6.37l1.68-.76 1.35-.57c2.32-.64 4.68-1.18 6.96-1.95 3-1 5.95-2.16 8.9-3.33.64-.25 1.15-.84 1.72-1.28l1.4-.51.58-.23 1.15-.32.87-.36 14.12-5.27c1 .05 2.03.3 2.98.1 10.5-2.08 20.94-4.46 31.48-6.27 4.97-.86 10.11-.71 15.18-.93 7.08-.3 14.17-.69 21.25-.72 5.06-.02 10.12.45 15.18.76 3.59.22 7.16.57 10.75.8 7.47.47 14.5 2.84 21.62 4.89 6.3 1.81 12.64 3.5 18.83 5.64a118.6 118.6 0 0 1 13.38 5.76c9.61 4.72 19.12 9.62 28.68 14.44 4.54 2.3 9.27 4.28 13.56 6.97 2.88 1.82 5.16 4.6 7.68 7 3.51 3.34 6.38 7.36 10.7 9.85 6.62 3.79 13.28 7.52 19.72 11.59 7.17 4.53 14.1 9.43 21.16 14.12 1.98 1.32 1.52 3.36 1.67 5.17.23 2.7.12 2.69-2.65 2.7-2.06 0-4.1.06-6.16.1l-.2.7c2.52 1.22 5.02 2.46 7.54 3.66a285.5 285.5 0 0 0 7.5 3.48c1.35.6 2.26 1.5 2.65 2.94.84 3.07 1.73 6.11 2.53 9.19.44 1.69.07 2.14-1.72 1.97-2.22-.2-4.42-.58-6.63-.84a5.6 5.6 0 0 0-2.97.33c2.37 2.01 4.73 4.04 7.12 6.04 2.11 1.76 4.35 3.39 6.36 5.26a13.74 13.74 0 0 1 3.07 3.92c.97 2 2.34 3.5 4.05 4.8 3.29 2.49 6.57 5 9.9 7.44a5.44 5.44 0 0 1 2.25 3.3c3.58 14.7 7.12 29.43 10.92 44.09.97 3.75 2.84 7.27 4.3 10.9 2.49 6.18 5.16 12.3 7.43 18.57 2.1 5.8 4.6 11.34 8.28 16.34.7.97 1.12 2.3 1.23 3.51.95 10.01 1.56 20.06 2.76 30.04.6 5.01 2.33 9.88 3.38 14.86 1.86 8.8 3.52 17.65 5.4 26.45.82 3.86-.85 7.29-1.51 10.88-.56 3-1.5 5.94-2.24 8.91-1.09 4.41-1.97 8.88-3.26 13.23-2.2 7.42-4.12 14.9-4.74 22.63a9.94 9.94 0 0 1-2.81 6.2c-4.74 5.13-9.32 10.4-14.03 15.57-1.48 1.63-1.6 1.56-3.2 0a109.78 109.78 0 0 1-3.78-3.85 4.74 4.74 0 0 0-4.6-1.49c-1.05.19-2.1.52-3.14.49-5.5-.17-9.77 2.68-14.32 5.24-5.05 2.84-8.1 7.33-11.48 11.63-1.96 2.5-3.77 5.13-5.83 7.54-1.68 1.96-2.05 4.38-2.85 6.65-.96 2.69-1.65 5.47-2.6 8.17-.29.84-.88 1.7-1.57 2.26-3.5 2.76-6.9 5.7-10.66 8.04-2.74 1.7-6 2.6-9.05 3.79a93.51 93.51 0 0 1-6 2.1c-1.68.52-2.17 1.6-1.65 3.16.4 1.2.83 2.4 1.43 3.5 1.58 2.88 3.3 5.68 4.9 8.55a5.8 5.8 0 0 0 3.47 3.01c2.53.78 4.98 1.79 7.5 2.6 1.74.58 3.46.67 5.22-.25 5.63-2.95 11.89-3.77 18-5.05 2.68-.57 3.04-.29 3.96 2.31 1.17 3.3 2.27 6.62 3.42 9.92 1.1 3.21 1.11 3.2 4.41 3.06 1.45-.06 2.89-.1 4.87-.15-.69 1.04-.96 1.72-1.46 2.16-2.13 1.9-4.35 3.7-6.48 5.6a13.95 13.95 0 0 1-6.74 3.33c-2.5.5-4.94 1.22-7.4 1.84-1.3.33-2.05.98-1.79 2.48.18 1.04 0 2.15.26 3.16.75 2.82-.3 4.92-2.33 6.76-4.7 4.25-6.64 10.25-9.78 15.5-.64 1.06-.21 1.8.83 2.28 3.4 1.61 5.51 4.55 7.63 7.48 1.51 2.1 1.43 2.7-.67 4.07-3.19 2.08-6.42 4.09-9.61 6.17-3.28 2.13-6.54 4.3-9.78 6.48-4.56 3.09-9.04 6.28-13.65 9.27a12.4 12.4 0 0 1-4.4 1.65c-5.83 1.1-11.77 1.7-17.5 3.14-3.53.88-6.78 2.86-10.1 4.46a81.11 81.11 0 0 0-7 3.76c-3.16 1.92-6.7 2.7-10.21 3.3a19.14 19.14 0 0 0-8.67 3.68c-6.74 5.24-14.84 7.6-22.41 11.07-9.7 4.46-20.22 6.2-30.29 9.43-6.16 1.98-12.34 1.33-18.54 1.32-6.65 0-13.3-.12-19.96-.27-3.27-.08-6.56-.2-9.81-.53-9.37-.95-18.71-2.4-28.1-2.9-5.9-.32-11.46-1.7-17.1-3.01-5.87-1.36-11.8-2.46-17.67-3.8-3.8-.88-7.57-1.98-11.34-3-7.14-1.95-14.28-3.86-21.4-5.89-4.87-1.38-9.78-2.62-14.34-5.02-6.28-3.3-12.71-6.32-19.1-9.4-1.03-.5-2.18-.7-3.28-1.05l-1.38-.66-1.59-1.02c-1.6-.8-3.2-1.62-4.81-2.41-7.49-3.68-13.66-9.18-19.97-14.47-3.23-2.7-6.4-5.48-9.59-8.22 1.05.42 2.2.68 3.12 1.3 5.3 3.51 10.62 7 15.78 10.72 6.99 5.03 14.45 9.22 22.13 13.08 4.26 2.15 8.44 4.43 12.67 6.64a36.99 36.99 0 0 0 9.84 3.45c5.68 1.16 11.3 2.66 16.96 3.98 5.04 1.18 10.1 2.29 15.14 3.48 5.24 1.24 10.45 2.59 15.7 3.81 5.35 1.25 10.69 2.57 16.08 3.58 7.39 1.38 14.82 2.46 22.23 3.73 3.12.54 6.21 1.24 9.33 1.84 6.28 1.2 12.64.78 18.98.97 3.38.1 6.8.4 10.13.05 4.84-.5 9.63-1.41 14.42-2.28 4.17-.76 8.3-1.7 12.46-2.54 3.29-.68 3.27-.67 1.66-3.45-1.33-2.29-2.61-4.6-3.86-6.94a5.2 5.2 0 0 0-3.84-2.94c-4.35-.86-8.65-2-12.97-2.99a7.65 7.65 0 0 1-4.79-3.39c-2.19-3.24-4.55-6.37-6.74-9.61a5.48 5.48 0 0 0-4.47-2.57c-4.32-.31-8.65-.62-12.95-1.15-8.73-1.08-17.48-2.07-26.15-3.58-5.07-.88-9.98-2.7-14.96-4.1-7.93-2.26-15.85-4.56-23.8-6.77-5.8-1.61-11.74-2.77-17.4-4.75-6.09-2.13-11.93-4.96-17.84-7.54a54.3 54.3 0 0 0-11.46-3.67c-5.59-1.08-11.1-2.6-16.64-3.92-2.37-.57-4.71-1.23-7.1-1.67-7.26-1.34-13.76-4.83-20.64-7.21-1.13-.4-1.66-1.15-1.99-2.25-1.32-4.47-2.45-9.02-4.15-13.34-1.54-3.92-3.7-7.6-5.64-11.36-1.22-2.35-2.68-4.59-3.76-7-.97-2.17-2.75-3.43-4.48-4.81-1.06-.84-1.74-.42-2.21.66-.21.48-.42.97-.6 1.47-1.12 3.17-3 5.28-6.53 6.2-2.25.58-4.2 2.35-6.25 3.65-.97.6-.92 1.35.02 1.98 1.84 1.26 3.68 2.51 5.54 3.72 1.5.99 2.99 2.04 4.59 2.84 2.49 1.25 3.46 3.09 3.19 5.87-.21 2.16-.13 2.44-2.22 2.6-3.48.25-6.97.31-10.46.45-.31.02-.65-.1-.95-.02-.96.27-1.91.6-2.86.9.47.8.85 1.67 1.45 2.36 3.95 4.55 7.94 9.07 11.93 13.6 3.63 4.12 7.3 8.22 10.87 12.4.64.74.92 1.8 1.37 2.7-3.63-2.83-7.29-5.65-10.9-8.52-4.53-3.59-7.67-8.44-11.35-12.79a702.44 702.44 0 0 1-14.3-17.42 420.3 420.3 0 0 1-13.24-17.41c-5.88-8.28-11.54-16.7-17.18-25.14-2.51-3.77-4.78-7.66-6.3-12-2.3-6.6-4.9-13.1-7.54-19.56-4.06-9.9-7.8-19.9-10.2-30.36-1.6-6.92-3.57-13.74-5.32-20.61-.86-3.38-1.87-6.76-2.35-10.2a1951.3 1951.3 0 0 1-4.59-35.92c-.34-2.9-.2-5.88-.27-8.83l.28.04.28.06c.52 3.24.8 6.53 1.62 9.7 1.77 6.86 3.76 13.68 5.75 20.49 2.9 9.96 5.85 19.91 8.83 29.85.3.98.75 2.08 1.48 2.73 3.17 2.81 6.48 5.46 9.7 8.2.97.82 1.7.73 2.3-.35.83-1.48 1.66-2.96 2.43-4.47 2.96-5.75 6.01-11.35 11.04-15.74 2.3-2 4.4-2.83 7.37-2.62 3.99.27 7.94.06 11.97-.65 5.37-.96 10.93-.93 16.41-1.23.91-.05 1.87.32 2.77.62 4.5 1.53 8.98 3.18 13.52 4.63 2.1.67 3.74 1.82 5.19 3.46 2.8 3.17 5.93 6.08 8.49 9.43 2.22 2.92 4.57 3.03 7.68 1.93 3.28-1.17 6.65-2.17 10.22-1.93 2.64.17 5.27.48 7.9.64 2.16.12 2.51.52 1.98 2.68-.38 1.54-.76 3.07-1.17 4.6-.59 2.18-.01 3.81 1.81 5.28 3.06 2.45 5.92 5.14 8.89 7.7 2.18 1.9 2.42 1.9 4.19-.47 1.83-2.46 3.45-5.09 5.3-7.55 2.42-3.22 2.48-3.2 6.18-1.92 1.2.41 2.37.92 3.46 1.55 5.31 3.09 10.71 6.05 15.84 9.42 3.71 2.43 7.5 1.58 11.36 1.22.38-.03.78-.33 1.08-.6 3.02-2.66 6.1-5.25 8.98-8.06 2.47-2.41 5.38-4.06 8.37-5.68 1.1-.6 1.89-.46 2.85.34 2.52 2.1 5.29 3.93 7.67 6.17 1.83 1.73 3.45 1.83 5.7 1 6.46-2.37 12.9-4.91 19.97-4.72 1.69.04 3.4-.13 5.07-.37 2.8-.4 5.46-.1 8.06 1.02a13.74 13.74 0 0 0 7.4 1.14c7.46-.97 14.93-1.8 22.38-2.83 2.7-.37 5.52-.74 7.98-1.8 3.58-1.55 6.89-3.74 10.32-5.62a4.32 4.32 0 0 0 2.22-2.88c.96-3.47 2.31-6.83 3.17-10.31a6.81 6.81 0 0 1 4.82-5.29c2.03-.69 3.98-1.6 6.53-2.65l-.5 3.77c-.6 4.52-1.22 9.04-1.81 13.56-.45 3.41-.24 3.72 3.12 4.57.72.18 1.47.23 2.2.37 2.17.44 4.37.8 6.5 1.38 1.5.4 2.38-.12 3.25-1.25 3.36-4.37 6.75-8.71 10.22-12.99a9.37 9.37 0 0 0 2.16-5.15c.32-3.16.77-6.32 1.26-9.46.3-1.83.71-2.1 2.3-1.15 3 1.77 6.15 3.3 8.6 5.92 3.18 3.4 6.6 6.58 9.74 10.01 1.32 1.45 2.51 1.6 4.2.95 2.57-.99 5.17-1.9 7.82-2.67a18.8 18.8 0 0 1 5.28-.93c5.6.05 11.23.19 16.32 3.1.91.51 2 .7 2.94 1.2 4.4 2.27 9.06 2.79 13.88 2.09a24.4 24.4 0 0 0 5.18-1.2c9.1-3.46 18.18-7 27.24-10.58a25.48 25.48 0 0 0 3.92-2.05 91.14 91.14 0 0 0 5.01-3.34c1.69-1.19 3.32-2.46 5.18-3.85-1.51-1-3.58-.64-3.23-2.96.78-5.24 1.43-10.5 2.14-15.75.16-1.13.62-1.6 1.94-1.33 2 .41 2.05.29 1.76-1.86-.37-2.83-.7-5.67-1.2-8.49-.62-3.63-.33-7.13.83-10.64 1.36-4.12 2.55-8.29 3.75-12.46.57-2 .27-2.54-1.84-2.36-4.36.37-8.01-1.64-11.85-3.07-1.35-.5-1.88-1.34-1.94-2.86-.2-6.28.66-12.45 1.24-18.67.52-5.52 2.13-10.28 6.42-13.94.24-.2.43-.47.63-.72 1.24-1.6 1.28-2.02-.1-3.53-1-1.09-2.13-2.07-3.26-3.03-1.77-1.48-2.37-3.16-2-5.57 1.4-9.12 2.46-18.28 3.87-27.4a8.22 8.22 0 0 0-1.88-7 59.16 59.16 0 0 1-7.67-12.39c-1.65-3.55-3.28-7.13-5.17-10.56a71.69 71.69 0 0 0-9.97-13.47c-.98-1.04-2.25-1.8-3.41-2.66-1.43-1.05-3.17-1.83-4.25-3.16-2.33-2.87-4.24-6.07-6.5-9.01-1.08-1.42-1.03-2.47-.16-3.98.77-1.34 2.2-2.55 1.92-4.36-.3-.09-.4-.16-.5-.14-.2.04-.4.1-.6.2-2.42 1.1-2.46 1.12-3.32-1.29-.96-2.7-1.91-5.4-2.74-8.13-.54-1.77-1.47-2.98-3.33-3.47-1.22-.32-2.4-.84-3.6-1.26-1.48-.52-2.26-1.41-1.92-3.11.27-1.35.32-2.74.57-4.1.26-1.43-.2-2.42-1.42-3.21-2.23-1.44-4.35-3.04-6.6-4.44-3.2-1.99-5.1-5.03-6.84-8.19a3.86 3.86 0 0 1-.38-2.69c1.43-4.63 2.27-9.48 4.78-13.74 1.62-2.74 3.08-5.57 4.8-8.23 1.33-2.07 1.58-3.91.46-6.23a152.31 152.31 0 0 0-11.74-19.95 10.52 10.52 0 0 0-3.73-3.29 4306.36 4306.36 0 0 0-43.12-21.79c-5.89-2.93-11.59-6.15-17.1-9.74-3.44-2.23-6.83-4.65-11.13-5.17-2.19-.27-4.32-1-6.48-1.51-5.34-1.29-10.69-2.55-16.02-3.87-3.81-.94-7.6-.23-11.37.2-10.41 1.2-20.8 2.58-31.2 3.92-.66.08-1.28.4-2.3.72 1.24.9 2.04 1.58 2.94 2.1 6.84 4.03 13.58 8.25 20.6 11.94 3.68 1.93 6.51 4.2 7.8 8.2.1.3.27.57.43.85.85 1.45.33 2.31-1.13 2.94-3.2 1.38-6.4 2.82-9.57 4.28-1.24.57-2.23.22-3.23-.54-2.28-1.73-4.67-3.31-6.84-5.17a27.3 27.3 0 0 0-14.86-6.5 149.76 149.76 0 0 1-15.28-2.82c-5.97-1.37-11.86-3.1-17.8-4.6a4.55 4.55 0 0 0-2.47.14c-6.3 2.2-12.8 3.82-18.56 7.4-3.54 2.2-7.34 3.67-11.62 3.73a24.63 24.63 0 0 0-10.37 2.68 116 116 0 0 1-21.4 7.99c-6.3 1.61-12.21 4.16-18.04 7-2.08 1-4.29 1.75-6.44 2.62l-.04-.06zm11.17-11.32l-.71.54-.21.11.23-.07.72-.55.7-.55.2-.08-.21.06-.72.54zm125.84 453.8c-.78-1.28-.8-2.32.41-3.32 1.3-1.07 2.56-2.19 3.83-3.3 1.73-1.48 1.86-1.92.57-3.67a371.86 371.86 0 0 0-7.5-9.82c-1.47-1.86-2.44-1.84-3.48.31-.69 1.44-.93 3.2-.98 4.82-.06 1.99.19 4 .48 5.98.32 2.1-.39 3.7-1.84 5.12-1.22 1.17-2.44 2.34-3.57 3.59-.9 1-.71 1.7.56 2.1 4.7 1.46 9.42 2.86 14.13 4.28l.38-.6c-.99-1.83-1.92-3.7-3-5.48zM192.4 467.4c-.38-1.1-1.14-1.22-1.96-.52-.8.68-1.5 1.48-2.25 2.21-.9.87-.7 1.76.06 2.5 2.23 2.2 4.52 4.34 6.79 6.5l.86-.59c-1.17-3.37-2.32-6.74-3.5-10.1z"/>
  <path fill="#5D493E" d="M233.2 22.4c1 .05 2.03.3 2.98.1 10.5-2.08 20.94-4.46 31.48-6.27 4.97-.86 10.11-.71 15.18-.93 7.08-.3 14.16-.69 21.25-.72 5.06-.02 10.12.45 15.18.76 3.58.22 7.16.57 10.75.8 7.47.47 14.5 2.84 21.62 4.89 6.3 1.81 12.64 3.5 18.83 5.64a118.6 118.6 0 0 1 13.38 5.76c9.61 4.72 19.12 9.62 28.68 14.44 4.54 2.3 9.27 4.28 13.56 6.97 2.88 1.82 5.16 4.6 7.68 7 3.5 3.34 6.37 7.36 10.7 9.85 6.62 3.79 13.28 7.52 19.72 11.59 7.17 4.53 14.1 9.43 21.16 14.12 1.98 1.32 1.52 3.36 1.67 5.17.22 2.7.12 2.69-2.65 2.7-2.06 0-4.1.06-6.16.1l-.2.7c2.52 1.22 5.02 2.46 7.54 3.66a285.5 285.5 0 0 0 7.5 3.48c1.35.6 2.26 1.5 2.65 2.94.83 3.07 1.73 6.11 2.53 9.19.44 1.7.06 2.14-1.72 1.97-2.22-.2-4.42-.58-6.63-.84a5.6 5.6 0 0 0-2.97.33c2.37 2.01 4.73 4.04 7.12 6.04 2.11 1.76 4.35 3.39 6.36 5.26a13.74 13.74 0 0 1 3.07 3.92c.97 2 2.34 3.5 4.04 4.8 3.3 2.49 6.58 5 9.9 7.44a5.44 5.44 0 0 1 2.26 3.3c3.58 14.7 7.11 29.43 10.92 44.09.97 3.75 2.83 7.27 4.3 10.9 2.49 6.18 5.15 12.3 7.43 18.57 2.1 5.8 4.6 11.34 8.27 16.34.71.97 1.13 2.3 1.24 3.51.95 10.01 1.56 20.06 2.76 30.04.6 5.01 2.33 9.88 3.38 14.86 1.86 8.8 3.52 17.65 5.4 26.45.82 3.86-.85 7.29-1.51 10.88-.56 3-1.5 5.94-2.24 8.91-1.09 4.41-1.97 8.88-3.26 13.23-2.2 7.43-4.12 14.9-4.74 22.63a9.94 9.94 0 0 1-2.82 6.2c-4.73 5.13-9.31 10.4-14.02 15.57-1.49 1.63-1.6 1.56-3.2 0a109.78 109.78 0 0 1-3.78-3.85 4.74 4.74 0 0 0-4.6-1.49c-1.05.19-2.1.52-3.14.49-5.5-.17-9.77 2.68-14.33 5.24-5.04 2.84-8.09 7.33-11.47 11.63-1.96 2.5-3.77 5.13-5.83 7.54-1.68 1.96-2.05 4.38-2.86 6.65-.95 2.7-1.64 5.47-2.58 8.17-.3.84-.89 1.7-1.59 2.26-3.48 2.76-6.88 5.7-10.65 8.04-2.74 1.7-6 2.6-9.05 3.79a93.51 93.51 0 0 1-6 2.1c-1.68.52-2.17 1.6-1.65 3.16.4 1.2.83 2.4 1.43 3.5 1.58 2.88 3.3 5.68 4.9 8.55a5.8 5.8 0 0 0 3.47 3.02c2.53.77 4.98 1.78 7.5 2.6 1.74.57 3.46.66 5.22-.26 5.63-2.95 11.88-3.77 17.99-5.05 2.7-.56 3.05-.29 3.97 2.31 1.17 3.3 2.27 6.62 3.41 9.92 1.12 3.21 1.12 3.2 4.42 3.06 1.44-.06 2.89-.1 4.87-.15-.69 1.04-.97 1.72-1.46 2.16-2.13 1.9-4.35 3.7-6.48 5.6a13.95 13.95 0 0 1-6.74 3.33c-2.5.5-4.94 1.22-7.4 1.84-1.3.33-2.05.98-1.79 2.48.18 1.04 0 2.16.26 3.16.75 2.82-.3 4.92-2.33 6.76-4.7 4.25-6.64 10.25-9.78 15.5-.64 1.06-.21 1.8.83 2.28 3.4 1.62 5.51 4.56 7.62 7.48 1.52 2.1 1.43 2.7-.66 4.07-3.19 2.08-6.42 4.09-9.61 6.17-3.28 2.13-6.55 4.3-9.79 6.48-4.55 3.09-9.03 6.28-13.64 9.28a12.4 12.4 0 0 1-4.4 1.64c-5.83 1.1-11.77 1.7-17.5 3.14-3.53.88-6.79 2.86-10.1 4.46a81.11 81.11 0 0 0-7 3.76c-3.16 1.92-6.7 2.7-10.22 3.3a19.14 19.14 0 0 0-8.67 3.68c-6.73 5.24-14.83 7.6-22.4 11.07-9.7 4.46-20.22 6.2-30.29 9.43-6.16 1.98-12.34 1.33-18.54 1.32-6.66 0-13.31-.12-19.96-.27-3.28-.08-6.56-.2-9.81-.53-9.38-.95-18.72-2.4-28.1-2.9-5.9-.32-11.46-1.7-17.1-3.01-5.87-1.36-11.8-2.46-17.67-3.8-3.81-.88-7.57-1.98-11.34-3-7.14-1.95-14.28-3.86-21.4-5.89-4.87-1.38-9.78-2.62-14.34-5.02-6.28-3.3-12.71-6.32-19.11-9.4-1.02-.5-2.17-.7-3.27-1.05.9.7 1.73 1.51 2.7 2.1 5.86 3.5 11.68 7.09 17.66 10.39 2.93 1.61 6.16 2.67 9.25 3.98.6.03 1.25-.06 1.8.12 6.8 2.34 13.58 4.77 20.4 7.05 5.2 1.75 10.4 3.63 15.73 4.89 5.97 1.4 12.08 2.17 18.12 3.21l.94.17c6.96 1.33 13.9 2.75 20.87 3.94 2.59.44 5.28.23 7.9.54 6.42.76 12.82 1.67 19.24 2.49 1.25.15 2.53.2 3.79.17 8.88-.18 17.76-.33 26.64-.61 4.33-.14 8.73-.09 12.96-.86 16.26-2.94 32.56-5.78 48.51-10.2 4.49-1.24 9.22-1.95 13.42-3.82 17.11-7.65 34.21-15.37 51.03-23.65 8.9-4.38 17.14-10.06 25.79-14.97 5.93-3.37 11.34-7.26 16.04-12.25 6.02-6.4 12.43-12.42 18.47-18.8 4.58-4.85 8.9-9.96 13.22-15.04a48.8 48.8 0 0 0 4.21-5.93c4.92-7.92 9.54-16.02 14.72-23.77 2.58-3.86 3.38-7.86 3.4-12.26.03-4.38.39-8.68 2.96-12.46.47-.7.85-1.47 1.26-2.2 8.38-14.72 15.2-30.32 25.04-44.22a8.46 8.46 0 0 0 1.27-3.84c.5-4.52.76-9.06 1.21-13.59 1.2-11.8 3.48-23.45 4.22-35.33.38-6.09 1.86-12.12 3-18.14.66-3.42 1.78-6.75 2.43-10.17.78-4.04 1.51-8.09 1.07-12.29-.63-5.9-.9-11.82-1.38-17.73-.21-2.73-.3-5.51-.86-8.19-2.54-12.24-5.24-24.45-7.86-36.67-1.36-6.31-2.52-12.68-4.1-18.94-1.45-5.74-3.32-11.38-5.04-17.06-3.03-10.08-6.95-19.75-12.9-28.51-2.2-3.24-4.27-6.57-6.37-9.87-1.36-2.14-1.3-2.42.84-3.7 1.81-1.1 3.7-2.07 5.52-3.15 2.58-1.5 2.59-1.54 1.34-4.13-2.03-4.2-4.13-8.36-6.12-12.58a72.72 72.72 0 0 0-7.62-12.43c-1.96-2.63-3.72-5.4-5.66-8.05-2.06-2.82-3.92-5.9-6.41-8.28-10.1-9.66-19.34-20.2-30.65-28.57-7.57-5.6-14.75-11.75-22.39-17.26-8.76-6.33-17.82-12.24-26.78-18.3a55.5 55.5 0 0 0-4.92-2.91c-6.82-3.65-13.65-7.28-20.5-10.87-3.56-1.87-7.04-3.96-10.77-5.42-8.28-3.25-16.71-6.1-25.04-9.22a138.4 138.4 0 0 0-21.6-6.23c-3.43-.68-6.84-1.39-10.25-2.13-7.4-1.6-14.63-4.06-22.33-4.25-6.02-.15-12.02-.95-18.03-1.06-9.08-.18-18.18.1-27.26-.06-2.35-.05-4.86.9-7.11-.58-8.05 1.27-16.11 2.5-24.16 3.82-5.01.82-10.07 1.53-15 2.72-3.98.97-7.8 2.56-11.7 3.87z"/>
  <path fill="#2A3232" d="M284.05 12c2.26 1.48 4.76.53 7.11.57 9.09.16 18.18-.11 27.26.06 6.02.12 12.02.92 18.03 1.07 7.7.19 14.93 2.64 22.33 4.25 3.4.74 6.83 1.45 10.25 2.13a138.32 138.32 0 0 1 21.6 6.23c8.33 3.12 16.76 5.97 25.04 9.21 3.73 1.46 7.22 3.55 10.78 5.43 6.85 3.59 13.68 7.22 20.5 10.87a55.5 55.5 0 0 1 4.91 2.9c8.96 6.06 18.02 11.98 26.79 18.3 7.63 5.52 14.8 11.67 22.38 17.27 11.31 8.37 20.56 18.91 30.65 28.56 2.5 2.4 4.35 5.47 6.42 8.29 1.93 2.64 3.7 5.42 5.65 8.05 2.92 3.91 5.54 8 7.62 12.42 1.99 4.22 4.1 8.38 6.12 12.58 1.25 2.6 1.24 2.63-1.33 4.14-1.83 1.07-3.71 2.05-5.53 3.14-2.14 1.28-2.2 1.57-.84 3.7 2.1 3.31 4.17 6.64 6.37 9.87 5.95 8.77 9.87 18.44 12.9 28.51 1.72 5.68 3.6 11.32 5.04 17.07 1.58 6.26 2.74 12.62 4.1 18.94 2.63 12.22 5.32 24.43 7.86 36.67.56 2.67.65 5.45.87 8.2.47 5.9.75 11.82 1.37 17.72.44 4.2-.29 8.24-1.06 12.29-.66 3.42-1.78 6.74-2.43 10.16-1.14 6.03-2.63 12.06-3 18.15-.75 11.87-3.03 23.53-4.22 35.33-.46 4.52-.72 9.06-1.22 13.58a8.46 8.46 0 0 1-1.27 3.85c-9.83 13.9-16.66 29.5-25.03 44.21-.42.74-.8 1.51-1.27 2.2-2.57 3.79-2.93 8.09-2.95 12.46-.02 4.4-.83 8.4-3.41 12.27-5.17 7.74-9.8 15.85-14.71 23.76a48.88 48.88 0 0 1-4.21 5.93c-4.33 5.09-8.64 10.2-13.23 15.05-6.03 6.38-12.44 12.4-18.46 18.8-4.7 4.99-10.12 8.88-16.05 12.25-8.64 4.9-16.9 10.6-25.79 14.97-16.82 8.28-33.91 16-51.03 23.64-4.2 1.88-8.93 2.58-13.41 3.83-15.96 4.41-32.25 7.25-48.52 10.2-4.23.77-8.63.72-12.96.85-8.87.28-17.76.44-26.64.62-1.26.02-2.54-.02-3.79-.18-6.42-.8-12.82-1.72-19.24-2.49-2.62-.3-5.3-.1-7.9-.54-6.97-1.19-13.91-2.6-20.87-3.93l-.93-.17c-6.05-1.04-12.16-1.81-18.12-3.22-5.34-1.25-10.53-3.14-15.74-4.88-6.82-2.29-13.6-4.72-20.4-7.05-.55-.19-1.2-.09-1.8-.13.9.54 1.75 1.2 2.7 1.58 7.85 3.22 15.74 6.31 23.56 9.58 5.6 2.34 11.53 3.46 17.36 4.96 4.81 1.24 9.62 2.49 14.45 3.64 5.24 1.25 10.47 2.61 15.78 3.53 4.05.7 8.2.72 12.3 1.13 7.8.78 15.57 1.8 23.38 2.37 4.2.31 8.46-.04 12.68-.18 8.57-.27 17.15-.39 25.7-.97 4.83-.33 9.62-1.43 14.42-2.22 18.74-3.07 37.15-7.64 55.49-12.48a47.2 47.2 0 0 0 7.69-2.97c8.46-3.92 16.97-7.75 25.27-11.98 6.22-3.17 12.16-6.87 18.2-10.38 4.48-2.61 8.97-5.22 13.35-8 3.4-2.14 6.73-4.42 9.9-6.88 8.8-6.8 17.52-13.7 26.2-20.65a52.88 52.88 0 0 0 5.68-5.53c6.9-7.48 13.95-14.82 20.5-22.6 4.08-4.83 7.4-10.31 11-15.55 2.21-3.23 4.36-6.51 6.42-9.85 5.67-9.2 11.27-18.43 16.9-27.65.82-1.36 1.6-2.74 2.48-4.07 3.47-5.33 4.66-11.55 6.7-17.42 3.3-9.49 6.34-19.08 9.3-28.68 2.32-7.47 4.77-14.86 6.28-22.6a565.1 565.1 0 0 0 5.34-31.28c.27-1.98.93-3.9 1.3-5.88a71.6 71.6 0 0 0 .92-15.8c-.46-11.42-.8-22.84-1.07-34.26-.37-15.47-1.68-30.87-3.14-46.25-.28-2.87-1.61-5.67-2.65-8.43-3.77-10.01-7.88-19.9-11.36-30.01-3.18-9.24-7-18.18-11.01-27.06-2-4.45-3.82-8.98-6-13.34a129.65 129.65 0 0 0-6.17-10.7c-5.33-8.53-10.7-17.03-16.2-25.44-1.61-2.46-3.72-4.6-5.65-6.84-4.76-5.54-9.63-10.98-14.29-16.6a108.96 108.96 0 0 0-17.48-16.55C498.84 83 493 78.1 487.02 73.35c-2.66-2.1-5.4-4.1-8.15-6.08-6.7-4.82-13.39-9.68-20.2-14.37a82.41 82.41 0 0 0-9.03-5.3c-9.13-4.7-18.26-9.43-27.53-13.87-3.99-1.91-8.3-3.17-12.5-4.63-8.19-2.86-16.39-5.71-24.62-8.44-2.7-.9-5.52-1.43-8.3-2.05-8.06-1.8-16.12-3.53-24.17-5.31-7.87-1.75-15.89-2.15-23.9-2.58-14.17-.77-28.32.45-42.49.76-.7.01-1.39.34-2.08.52z"/>
  <path fill="#9E7E6E" d="M121.68 536.69l-1.48-1.22-.63-.56c-.44-.92-.72-1.97-1.36-2.72-3.58-4.17-7.25-8.27-10.88-12.4-3.98-4.52-7.98-9.04-11.93-13.6-.6-.68-.97-1.56-1.45-2.35.95-.3 1.9-.63 2.87-.9.29-.08.63.04.95.02 3.48-.14 6.97-.2 10.45-.46 2.1-.15 2.01-.43 2.22-2.59.28-2.78-.7-4.62-3.19-5.87-1.6-.8-3.08-1.85-4.59-2.84-1.86-1.21-3.7-2.46-5.54-3.72-.94-.63-.99-1.37-.02-1.98 2.06-1.3 4-3.07 6.26-3.65 3.52-.92 5.4-3.03 6.53-6.2.18-.5.38-.99.6-1.47.47-1.08 1.15-1.5 2.2-.66 1.74 1.38 3.51 2.64 4.49 4.81 1.07 2.41 2.54 4.64 3.75 7 1.94 3.76 4.1 7.44 5.64 11.36 1.7 4.32 2.83 8.87 4.16 13.34.33 1.1.85 1.85 1.98 2.25 6.89 2.38 13.39 5.87 20.64 7.21 2.4.44 4.74 1.1 7.1 1.67 5.55 1.33 11.06 2.84 16.65 3.92 4 .78 7.75 2.06 11.45 3.67 5.92 2.58 11.76 5.41 17.84 7.54 5.66 1.98 11.61 3.14 17.41 4.75 7.95 2.21 15.86 4.51 23.8 6.76 4.97 1.42 9.88 3.23 14.96 4.11 8.66 1.51 17.42 2.5 26.15 3.58 4.3.53 8.62.84 12.94 1.15 1.96.14 3.37.94 4.47 2.57 2.2 3.24 4.55 6.37 6.75 9.61a7.65 7.65 0 0 0 4.78 3.4c4.33.99 8.62 2.12 12.97 2.98a5.2 5.2 0 0 1 3.84 2.94c1.25 2.34 2.54 4.65 3.86 6.94 1.61 2.78 1.63 2.77-1.66 3.45-4.15.85-8.29 1.78-12.45 2.54-4.8.87-9.59 1.79-14.42 2.28-3.34.34-6.76.05-10.14-.05-6.33-.2-12.7.24-18.98-.97-3.11-.6-6.2-1.3-9.33-1.84-7.4-1.27-14.84-2.35-22.22-3.73-5.4-1-10.74-2.33-16.09-3.58-5.24-1.22-10.46-2.57-15.7-3.81-5.04-1.2-10.1-2.3-15.14-3.48-5.65-1.32-11.27-2.82-16.96-3.98a36.95 36.95 0 0 1-9.84-3.45c-4.22-2.21-8.4-4.5-12.67-6.64-7.67-3.86-15.14-8.05-22.13-13.08-5.16-3.72-10.48-7.2-15.78-10.73-.92-.6-2.07-.87-3.11-1.29l-.02-.03zm170.1 36a7.42 7.42 0 0 1-4.44-3.3c-2.08-3.06-4.32-6.02-6.42-9.07-1.46-2.1-3.9-2.06-5.94-2.63a936.43 936.43 0 0 0-25.14-6.6c-8.2-2.08-16.41-4.03-24.63-6.03-8-1.94-16.02-3.85-24.02-5.82-1.01-.25-1.97-.76-2.92-1.22-4.58-2.22-9.25-4.28-13.68-6.76-4.07-2.27-8.54-3.02-12.91-4.2-2.35-.63-4.73-1.1-7.11-1.6-6.94-1.4-13.9-2.75-20.83-4.17-5.59-1.14-11.23-2.11-16.73-3.6-3.23-.86-6.27-2.5-9.34-3.9-4.53-2.07-9.01-4.24-13.53-6.34-.44-.2-1-.15-1.49-.21.1.55.01 1.23.3 1.64 4.8 6.85 9.61 13.69 14.5 20.47a10.3 10.3 0 0 0 2.59 2.3c8.75 5.98 17.52 11.94 26.3 17.87 1.14.77 2.35 1.47 3.6 1.99 15.37 6.35 30.76 12.64 46.62 17.67 2.41.76 4.9 1.32 7.37 1.86 5.88 1.3 11.79 2.49 17.67 3.78 3.5.77 6.98 1.68 10.48 2.49.92.2 1.87.35 2.81.41 2.11.14 4.22.23 6.33.32l4.74.19c.64.02 1.29 0 1.9.12 4.44.94 8.86 2 13.32 2.86 3.83.73 7.66 1.55 11.65 1.03 4.4-.57 8.9-.63 13.25-1.45 5.37-1.01 10.63-2.59 15.94-3.92v-1c-3.4-1.08-6.79-2.26-10.24-3.18zM59.78 151.27c-2.44 3.57-5.34 6.91-7.24 10.75a1242.52 1242.52 0 0 0-17.53 37.05 73.7 73.7 0 0 0-5.2 16.93c.7-1.49 1.47-2.94 2.08-4.46 1.37-3.42 2.66-6.87 3.98-10.3 1.77-4.98 3.55-9.91 6.41-14.45 5.92-9.4 11.57-18.96 17.35-28.44.81-1.33 1.22-2.57.63-4.17-.33-.9-.03-2.02 0-3.04a.56.56 0 0 0-.48.13z"/>
  <path fill="#E2B780" d="M22.3 242.59c-.14.61-.33 1.22-.42 1.85-1.58 11.32-3.33 22.62-4.65 33.97-.7 6.07-.69 12.22-.93 18.34-.11 2.83-.06 5.67-.08 8.51l.86.14c.51-7.26.94-14.52 1.55-21.77.57-6.73 1.24-13.45 2.07-20.15.49-3.97 1.52-7.87 2.04-11.84.91-7.03 2.33-13.92 4.62-20.63l-1.92-.18-.62 1.77c.28 1.88.86 3.84-1.4 5.02l-.86 4.03-.26.94z"/>
  <path fill="#C5A483" d="M86.22 120c-.75.81-1.65 1.5-2.48 2.26.05-.12.08-.24.1-.36l-.66-.22.02-.01c-.72.54-1.57.97-2.14 1.63-2.25 2.63-4.38 5.35-6.62 8-.73.86-1.64 1.59-2.46 2.38l-.09-.11c3.61-6.5 8.26-12.21 13.32-17.63 4.67-5.01 9.28-10.1 13.97-15.1 1.2-1.28 2.56-2.4 3.86-3.59-.52.99-.94 2.04-1.57 2.94-2.82 3.99-5.7 7.93-8.57 11.88l-.8.55-2.45 3.34c-1.14 1.35-2.24 2.73-3.43 4.03zm-.47-1.33l-.28.07-.71.54-.45.4.3.27.23-.57.69-.56.22-.14zm.94-1.47l.14-.25-.24-.01.1.26z"/>
  <path fill="#5D493E" d="M197.5 35.65c2.32-.64 4.68-1.18 6.96-1.95 3-1 5.95-2.16 8.9-3.33.64-.25 1.15-.84 1.72-1.27-1.6.45-3.23.83-4.8 1.37a280.35 280.35 0 0 0-9.81 3.49c-1.05.4-1.98 1.12-2.97 1.7z"/>
  <path fill="#C5A483" d="M35.87 201.23c-1.32 3.44-2.6 6.89-3.98 10.3-.6 1.53-1.39 2.98-2.09 4.47l-.27 1.2.1 1.14.2.24 1.22.09c.59-1.78 1.28-3.54 1.76-5.35 1.08-4.01 2.05-8.06 3.06-12.1zM17.09 305.4l-.87-.14-.2 10.88.3.04.27.06.94-6.82-.44-4.02zM25.44 230.83l1.92.18.32-1.22-.94-1.65 1.76-.83.31-1.22-1.27-.9c-.19.01-.37 0-.56 0l-1.54 5.64zM28.1 221.49l-.52 1.8c.16 0 .3.04.44.11.64-.8 1.16-.58 1.63.18l.6-3-.42-2-.2-.24c-.15.06-.32.09-.49.08l-.3.95-.73 2.12zM23.43 237.61c2.25-1.17 1.67-3.13 1.4-5.01l-1.4 5.01zM65.68 142.53l-1.76 2.85.07.06 1.7-2.98v.07z"/>
  <path fill="#5D493E" d="M157.65 562.84zM194.47 36.98l1.68-.77-1.68.77z"/>
  <path fill="#9E7E6E" d="M26.98 225.19c.19 0 .37.01.56 0l.48-1.79a.87.87 0 0 0-.44-.11l-.6 1.9z"/>
  <path fill="#935941" d="M121.68 536.69l-1.48-1.22 1.48 1.22z"/>
  <path fill="#9E7E6E" d="M28.1 221.49a5161.44 5161.44 0 0 0 0 0z"/>
  <path fill="#C5A483" d="M71.28 134.25l-.8 1.15.8-1.16zM70.48 135.4l-.8 1.17v.01l.8-1.18zM69.68 136.57l-.8 1.18.8-1.17zM68.88 137.75l-.8 1.18.8-1.17v-.01zM68.08 138.93l-.8 1.17v.01l.8-1.18zM67.29 140.1l-.8 1.18.8-1.17zM66.49 141.28l-.8 1.25v-.06l.8-1.18zM63.92 145.38l-.8 1.17.07.06.8-1.17-.07-.06z"/>
  <path fill="#C5A483" d="M63.12 146.54l-.8 1.18.07.07.8-1.18-.07-.07zM61.52 148.9l-.8 1.17.07.07.8-1.17-.07-.07zM60.72 150.07l-.94 1.2c.13-.12.3-.16.47-.13l.54-1-.07-.06z"/>
  <path fill="#9E7E6E" d="M29.14 218.42c.17 0 .34-.02.5-.08l-.11-1.14-.39 1.22z"/>
  <path fill="#C5A483" d="M62.32 147.72l-.8 1.18.07.07.8-1.18-.07-.07z"/>
  <path fill="#935941" d="M144.8 62.72l.9-.72-.9.72zM143.6 63.6l.92-.67-.92.68z"/>
  <path fill="#C5A483" d="M71.89 133.57l-.61.68v-.01l.7-.56-.09-.11zM102.98 97.28l.32-.64-.32.64z"/>
  <path fill="#935941" d="M137.13 68.55l.7-.54-.7.54zM137.88 67.98l.67-.51-.67.51zM138.6 67.43l.66-.51-.67.51zM139.3 66.89l.68-.52-.67.52zM140.02 66.34l.67-.51-.67.51z"/>
  <path fill="#9E7E6E" d="M22.3 242.59l.26-.94-.26.94z"/>
  <path fill="#935941" d="M140.74 65.8l.67-.52-.67.52zM141.45 65.25l.68-.51-.68.51zM142.17 64.7l.67-.5-.67.5zM142.88 64.16l.67-.51-.67.5z"/>
  <path fill="#5D493E" d="M216.48 28.58l.58-.23-.58.23zM218.2 28.03l.88-.36-.87.36z"/>
  <path fill="#F57345" d="M71.98 133.68l-.7.56-.8 1.16-.8 1.18-.8 1.18-.8 1.17-.8 1.18-.8 1.18-.79 1.17-1.7 2.98-.8 1.17-.8 1.18-.8 1.18-.8 1.17-.54 1c-.02 1.02-.32 2.15 0 3.03.6 1.6.2 2.85-.62 4.18-5.79 9.48-11.43 19.04-17.35 28.44-2.86 4.54-4.64 9.46-6.4 14.44-1.02 4.03-2 8.08-3.07 12.1-.48 1.8-1.17 3.56-1.77 5.34l-.79 1.9-.6 3-.84 2.52c-.1.4-.2.82-.32 1.23l-.82 2.47-.31 1.22c-2.3 6.71-3.7 13.6-4.62 20.63-.52 3.97-1.55 7.87-2.04 11.84-.83 6.7-1.5 13.42-2.07 20.15-.61 7.25-1.04 14.51-1.55 21.77l.45 4.02c.83-6.1 1.74-12.18 2.46-18.28.77-6.51 1.31-13.05 2.08-19.56.18-1.55.69-3.1 1.33-4.53a78.42 78.42 0 0 1 8.17-14.31c4.07-5.53 7.4-11.57 12.18-16.63 1.58-1.68 2.29-4.26 3.16-6.52 3.68-9.58 7.27-19.2 10.92-28.79.26-.68.54-1.4 1.01-1.93 2.7-2.98 5.44-5.93 8.22-8.84.98-1.01 4.42-.47 4.98.8.18.41-.1 1.21-.42 1.65-2.54 3.52-5.15 6.99-7.74 10.47-2.59 3.49-5.19 6.96-7.74 10.47a2.9 2.9 0 0 0-.63 1.72c.23 3.14.56 6.28.88 9.73 1-.93 1.63-2 2.54-.47.98 1.63 2.14 3.14 3.14 4.76 1.54 2.47 2.19 2.59 3.67.14 3.06-5.08 5.96-10.25 8.94-15.38.85-1.46 1.73-2.9 2.6-4.36.7-1.14 1.59-1.37 2.64-.5 2.5 2.05 3.27 2.79 1.73 5.82-1.44 2.82-2.52 5.83-3.88 8.7a4.11 4.11 0 0 0-.18 3.65c.75 1.72 1.49 3.44 2.5 5.82l3.05-5.3c.48-.82 1-1.62 1.44-2.46.55-1.03 1.17-1.15 1.94-.26.35.4.66.84 1.02 1.22 3.74 3.92 3.74 3.92.66 8.52-3.35 5-3.4 5.17 2.34 6.97 2.55.8 3.6 2.18 3.87 4.66.34 3.16.94 6.29 1.33 9.44.31 2.45-.3 2.92-2.55 2.1-1.3-.46-2.63-.87-3.85-1.5-1.57-.8-2.43-.2-2.89 1.25-.63 2.01-1.03 4.1-1.76 6.08-.8 2.18-1.66 4.4-2.89 6.34-.8 1.25-2.22 2.24-3.55 3-2.16 1.22-3.55 2.64-3.98 5.29-.58 3.63-1.7 7.18-2.7 10.74-.16.56-.87 1.26-1.42 1.36-1.8.3-5-1.71-5.88-3.46-1.72-3.4-3.43-6.8-5.19-10.18-.53-1.01-1.21-1.95-2.09-3.34-.4 1.03-.7 1.62-.85 2.25-.59 2.47-1.06 4.96-1.72 7.4-.2.77-.74 1.52-1.32 2.08a67.08 67.08 0 0 1-4.73 4.22 6.3 6.3 0 0 0-2.4 4.96c-.22 4.85-.48 9.7-.7 14.55-.02.58.14 1.16.3 2.36 1.69-1.72 3.11-2.94 4.26-4.38 1.37-1.73 2.99-2.2 5.04-1.67.5.14 1.05.14 1.57.22 1.23.18 2-.2 2.33-1.53.34-1.42.88-2.8 1.5-4.75 1.22 1.17 2.24 2.13 3.23 3.11.9.9 1.82 1.78 2.63 2.75 1 1.2 2.2 1.42 3.69 1.32a98.16 98.16 0 0 0 26.66-5.48c3.89-1.38 7.9-2.4 11.78-3.83a14.4 14.4 0 0 0 4.47-2.82c3.3-2.97 6.43-6.12 9.65-9.18.36-.34.85-.55 1.6-1.03.29 3.25-.9 5.86-2 8.35-1.6 3.58-3.58 6.97-5.4 10.44-.4.75-.78 1.51-1.17 2.26-.61 1.17-.2 2.03.81 2.7 3.57 2.36 7.33 4.3 11.65 4.67 4.86.4 9.32 2.25 13.58 4.2 3.78 1.75 6.96 4.79 10.4 7.26.33.25.62.57.96.83 1.59 1.2 2.76 1.27 3.8-.74 2-3.85 4.23-7.58 6.37-11.36.2-.35.46-.68 1-1.46.7 2.21 1.29 4.03 1.82 5.88.36 1.21.87 2.45.9 3.7.13 5.18 3.88 7.43 7.65 9.66 1.55.92 2.51.82 2.91-.99 1.11-4.97 4.69-4.82 8.44-4.65 2.22.1 4.45.02 6.65.24 1.57.16 2.6-.4 3.56-1.55a84.6 84.6 0 0 1 4.4-5.01c1.31-1.36 1.97-1.24 2.86.42 1.3 2.43 2.63 4.85 3.76 7.36.75 1.68 1.75 2.12 3.5 1.68 1.95-.48 4.05-.46 5.92-1.12 1.95-.69 3.74-1.88 5.55-2.94.91-.53 1.65-1.35 2.55-1.89 2.48-1.48 4.1-3.6 5.13-6.26.27-.69.7-1.3.97-2 .64-1.74 1.92-2.15 3.56-1.72 4.19 1.08 8.42 2.04 12.54 3.33 4.14 1.3 8.17 2.92 12.22 4.48 1.35.52 2.58.64 3.98.13 3.37-1.22 6.7-2.64 10.4-2.59 1.5.02 1.95-.67 1.85-2.2-.2-3.26-.23-6.54-.2-9.82.02-1.5-.6-2.18-2-2.26-3.05-.17-6.1-.41-9.17-.43-1.46-.01-1.92-.53-1.71-1.87l.07-.64c.5-5.27.5-5.28 5.35-7.34.69-.29 1.44-.45 2.06-.83 1.64-.98 2.98-.5 4.36.6 3.88 3.04 3.88 3 6.25-1.4 1.15-2.14 2.33-4.28 3.6-6.36.93-1.52 1.87-1.51 2.9-.03.8 1.13 1.47 2.33 2.2 3.49 1.03 1.61.93 1.99-.64 3.04-2.42 1.63-4.83 3.3-7.24 4.96l.25.6c.55-.02 1.12.03 1.65-.08 2.18-.43 4.4-.75 6.52-1.39 4.76-1.42 9.49-2.94 14.18-4.57.73-.25 1.62-1.24 1.7-1.97.33-2.94.56-5.9.42-8.85-.05-1.09-1.12-2.22-1.93-3.16-2-2.32-4.06-4.6-6.2-6.78a31.4 31.4 0 0 1-5.53-8.06c-.74-1.46-1.25-1.46-2.3-.23-1.16 1.36-2.26 2.78-3.63 4.47-.4-.92-.75-1.51-.93-2.15-.72-2.66-1.5-5.3-2.07-8-1.24-5.82-5.29-9.46-10.18-11.8-5.87-2.8-11.56-5.72-16.48-10.02a12.89 12.89 0 0 0-3.15-2.12c-.91-.4-2.21-.78-3-.42-2.86 1.26-6.08 1.7-8.37 4.3-1.87 2.11-4.23 3.81-6.45 5.61-1.65 1.34-2.56 1.06-2.64-.98-.12-3.38-2.04-5.6-4.19-7.88-2.53-2.69-4.84-5.6-7.24-8.4-.42-.5-.72-1.23-1.23-1.43-.8-.31-1.85-.55-2.59-.27-.49.18-.92 1.36-.84 2.03.18 1.67.68 3.3 1.04 4.96.22 1.05-.13 1.54-1.29 1.62-3.45.23-6.82.3-9.33-2.7-.13-.15-.33-.25-.52-.36l-3.79-2.21-1.69 3.56c-.09.19-.23.35-.5.73-.72-1.67-.63-3.23-.42-4.82.53-3.89 1.1-7.77 1.56-11.67.27-2.2-.01-2.36-2.22-2.05-1.2.17-2.82.65-3.56.09a10.26 10.26 0 0 1-3.17-4.2 85.19 85.19 0 0 1-3.27-10.28c-.52-2.02-.4-4.18-.72-6.26-.72-4.62.9-8.5 3.62-12.07.26-.34.54-.67.7-1.05.44-1.02.82-2.07 1.22-3.1-1.1-.15-2.2-.38-3.31-.43-1.9-.07-3.8.03-5.7-.04-1.45-.06-2.18.57-2.3 1.98-.31 3.47-.64 6.94-.93 10.42-.37 4.32-.57 8.67-2.54 12.68a58.92 58.92 0 0 0-1.77 4.08c-.57 1.41-1.55 1.94-3.02 1.57-2.04-.52-4.13-.92-6.11-1.64-.8-.29-1.5-1.17-1.98-1.95-2-3.24-3.97-6.5-5.8-9.84-2.32-4.22-1.43-8.63-.46-13.02.23-1.06.23-2.18.33-3.28-1.12.07-2.4-.18-3.36.25-4.81 2.2-8.6-.6-12.57-2.44-.5-.24-.82-1.45-.8-2.2.06-1.68.44-3.36.57-5.04.05-.56-.26-1.15-.4-1.72-.49.15-1.01.23-1.44.48-.63.38-1.22.85-1.79 1.33-3.08 2.6-6.63 3-10.46 2.35-1.39-.24-2.01-.87-2.1-2.27-.17-2.32-.6-4.63-.63-6.95-.03-1.95-1.04-2.82-2.63-3.5-2.25-.95-4.43-2.03-6.66-3.01a5.94 5.94 0 0 1-3.45-3.9c-.79-2.53-1.75-5-2.54-7.54-.5-1.6-1.4-2.5-3.12-2.66a92.2 92.2 0 0 1-6.62-.87c-1.42-.24-2.43.21-3.37 1.24-2.21 2.43-4.7 4.63-6.68 7.23-1.83 2.41-3.2 5.2-4.65 7.88-1.19 2.2-1.2 2.26-2.86.24-.13-.17-.25-.34-.39-.5-2.16-2.76-2.17-2.8-5.28-1.38-1.1.5-1.54.3-1.63-.93-.33-4.44.2-8.52 3.17-12.23 2.85-3.54 5.2-7.49 7.75-11.26.35-.53.72-1.05 1-1.62.12-.24.14-.76.01-.85-.31-.19-.84-.38-1.1-.24-.84.44-1.6 1.03-2.38 1.56l-3.17 2.17c.34-1.24.38-1.81.64-2.25 1.73-2.79 3.52-5.54 5.28-8.32.49-.77 1.3-1.5.53-2.55-1.13 1.35-2.23 2.73-3.42 4.03-.76.82-1.65 1.51-2.48 2.26l-.77 1.48c.04-.5.07-.99.12-1.48.02-.2.07-.39.1-.58-.71.53-1.56.96-2.13 1.63-2.25 2.63-4.39 5.35-6.62 8-.73.86-1.64 1.59-2.46 2.38z"/>
  <path fill="#A95D3E" d="M462.84 214.54c-.15-.53-.24-1.4-.62-2.11-2.35-4.38-4.7-8.77-7.21-13.05-.6-1.02-1.71-2.1-2.8-2.4-5.58-1.48-8.8-5.56-11.47-10.18a9.49 9.49 0 0 0-4.02-3.86c-2.16-1.12-4.16-2.54-6.3-3.68-1.37-.72-1.81-1.72-1.48-3.12a438.48 438.48 0 0 1 4.04-15.96c.58-2.1.04-3.6-1.94-4.79-2.64-1.57-5.05-3.5-7.67-5.1-1-.6-2.32-.88-3.51-.98-3.26-.26-6.54-.36-9.8-.5-4.75-.21-9.5-.46-14.24-.53-.78-.01-1.76.64-2.33 1.27-1.71 1.87-3.29 3.87-4.89 5.84-1.62 2-1.62 2.45.19 4.26 3.14 3.13 6.34 6.22 9.5 9.33.68.67 1.5 1.3 1.9 2.12.41.87.7 2 .52 2.92-.43 2.17-1.16 4.27-1.8 6.4-.76 2.59-.63 4.88 1.35 7.05 2.7 2.97 5.16 6.16 7.67 9.3.97 1.22 1.59.92 2.43-.16 2.38-3.04 2.42-3.02 4.5.28 1.08 1.7 2.2 3.37 3.2 5.12.64 1.15 1.52 1.48 2.63.92 5.3-2.7 8.78.24 11.95 3.92a205.83 205.83 0 0 1 17.4 23.38c1.42 2.22 3.15 4.25 4.85 6.28.4.47 1.24.74 1.9.77.21 0 .57-1 .7-1.59a25 25 0 0 0 .44-3.14c.44-5.43 1.96-10.59 4-15.61.27-.69.52-1.39.9-2.4zM280.07 115.05c-.04-2.32.11-4.24-.13-6.11-.5-3.72.42-7.15 1.78-10.5a8.3 8.3 0 0 0 .06-6.47c-.96-2.46-1.72-5-2.63-7.48-.88-2.38-1.28-2.47-2.8-.52-3.13 4-6.18 8.05-9.25 12.1-1.54 2.01-3 4.08-4.6 6.05-.83 1.01-.62 1.6.34 2.31 5 3.71 9.99 7.47 15 11.17.48.35 1.18.68 1.7.59.3-.06.45-.96.53-1.14z"/>
  <path fill="#935941" d="M224.97 94.05c.04.38-.02.66.1.78 1.27 1.38 2.44 2.94 3.94 4.03.77.57 2.21.61 3.24.39 3.82-.83 7.59-1.88 11.38-2.83 1.38-.35 2.2-.9 1.97-2.62-.66-4.92-1.13-9.86-1.73-14.8-.07-.56-.48-1.08-.73-1.63-.54.27-1.18.42-1.6.81-5.18 4.83-10.32 9.68-15.46 14.54-.45.42-.8.94-1.12 1.33z"/>
  <path fill="#F57345" d="M335.24 185.15c.6 2.41 1.25 5.28 2.07 8.1.35 1.21 1.3.85 2 .25 1.28-1.1 2.5-2.27 3.76-3.38 1.89-1.67 3.81-3.31 5.7-5 1.29-1.14 1.92-2.46 1.05-4.2-1.65-3.3-3.26-6.62-4.87-9.94-.45-.92-1.13-1.56-1.81-.42-2.58 4.35-5.03 8.78-7.51 13.18-.15.27-.17.6-.39 1.4zM207.5 149.15c4.93-.4 9.87-.75 14.79-1.22.76-.07 1.8-.48 2.15-1.07 2-3.42 3.82-6.94 5.45-10.66-7.87 3.69-15.26 8.01-22.63 12.37l.25.58zM179.82 176.45c-2.9 5.11-5.82 10.2-8.67 15.34-.74 1.34-.03 2.36 1.47 2.08.85-.16 1.77-.7 2.35-1.36 1.87-2.13 3.63-4.37 5.37-6.62.43-.55.93-1.3.9-1.93-.12-2.48-.44-4.96-.69-7.44l-.73-.07zM49.71 250.97c-2.25 4.87-4.57 9.7-6.73 14.6-1.15 2.62.51 4.55 3.42 4.16.28-.03.55-.26.77-.46.13-.13.18-.38.21-.59l3.11-17.57-.78-.14zM202.38 180.2c-3.82.76-3.85.76-4.25 3.55-.45 3.1-.84 6.2-1.25 9.3l.63.15 4.87-13z"/>
  <path fill="#935941" d="M145.04 67.03l-.55.05.13.32.47-.3-.05-.07z"/>
  <path fill="#F57345" d="M92.9 112.07l-.8.55.8-.55z"/>
  <path fill="#A95D3E" d="M285.04 515c-.99-1.83-1.92-3.7-3-5.49-.77-1.28-.78-2.32.42-3.32 1.3-1.07 2.56-2.2 3.83-3.3 1.73-1.48 1.86-1.92.57-3.67a371.86 371.86 0 0 0-7.5-9.82c-1.47-1.86-2.44-1.84-3.47.31-.7 1.44-.94 3.2-1 4.82-.05 1.99.2 4 .5 5.98.3 2.1-.4 3.7-1.85 5.12-1.21 1.17-2.44 2.33-3.57 3.59-.9 1-.71 1.7.56 2.1 4.7 1.46 9.42 2.86 14.13 4.28l.38-.6zM195.9 477.5c-1.17-3.37-2.32-6.74-3.5-10.1-.38-1.1-1.14-1.22-1.96-.52-.8.68-1.5 1.48-2.25 2.21-.9.87-.7 1.76.06 2.5 2.23 2.2 4.52 4.34 6.79 6.5l.86-.59z"/>
  <path fill="#D7673F" d="M155.5 56.25l-.21.11.23-.07-.03-.04zM156.21 55.71l-.71.54.02.04.71-.55-.02-.03z"/>
  <path fill="#D7673F" d="M156.93 55.17l-.72.54.02.03.71-.55-.01-.02z"/>
  <path fill="#D7673F" d="M156.94 55.19l.2-.08-.21.06.01.02z"/>
  <path fill="#C5A483" d="M302.02 576.87c-5.3 1.33-10.57 2.9-15.94 3.92-4.35.82-8.85.88-13.25 1.45-3.99.52-7.82-.3-11.65-1.04-4.46-.85-8.88-1.91-13.32-2.85-.61-.13-1.26-.1-1.9-.12l-4.74-.19c-2.11-.1-4.22-.18-6.33-.32-.94-.07-1.9-.2-2.81-.42-3.5-.8-6.98-1.71-10.48-2.48-5.88-1.3-11.79-2.49-17.67-3.78a83.97 83.97 0 0 1-7.37-1.87c-15.86-5.02-31.25-11.31-46.61-17.66a20.63 20.63 0 0 1-3.61-2c-8.78-5.93-17.55-11.88-26.3-17.87a10.29 10.29 0 0 1-2.6-2.3c-4.88-6.78-9.7-13.6-14.49-20.46-.29-.41-.2-1.1-.3-1.65.5.07 1.05.02 1.49.22 4.52 2.1 9 4.27 13.53 6.33 3.07 1.4 6.11 3.05 9.34 3.92 5.5 1.47 11.14 2.45 16.73 3.6 6.94 1.4 13.89 2.76 20.83 4.17 2.38.48 4.76.96 7.1 1.6 4.38 1.17 8.85 1.91 12.92 4.19 4.43 2.48 9.1 4.53 13.68 6.76.95.46 1.9.97 2.92 1.22 8 1.97 16.02 3.88 24.02 5.82 8.22 2 16.44 3.95 24.63 6.02 8.4 2.12 16.8 4.25 25.14 6.6 2.03.58 4.48.54 5.94 2.64 2.1 3.05 4.34 6 6.42 9.07a7.42 7.42 0 0 0 4.44 3.3c3.45.91 6.84 2.1 10.25 3.17v1zm-97.64-27.57c-3.16-.05-6.31-.7-9.45-1.23a83.44 83.44 0 0 1-8.65-1.88c-.83-.23-1.72-1.23-2.05-2.09a82.57 82.57 0 0 1-2.36-7.57c-.48-1.73-1.36-2.78-3.28-2.83-5.44-.13-10.28-2.32-15.04-4.65-1.87-.93-3.33-.87-4.9.52-2.62 2.3-5.34 4.5-8.01 6.74-.85.71-1.4 1.38.1 2.05 7.74 3.44 15.38 7.09 23.21 10.28 3.28 1.33 6.92 1.86 10.44 2.5 6.87 1.25 13.77 2.3 20.64 3.48 2.08.36 4.1.96 6.17 1.4.36.09.77-.04 1.5-.1-2.1-3.4-3.79-6.54-8.32-6.62z"/>
  <path fill="#E2B780" d="M83.2 121.67c-.04.2-.09.39-.1.58-.06.5-.09.99-.13 1.48l.77-1.47c.05-.12.08-.24.1-.36l-.66-.22.02-.01z"/>
  <path fill="#F57345" d="M86.58 116.94l.1.26.15-.25zM84.76 119.27l-.45.41.3.27.23-.57-.08-.1zM83.18 121.68l.67.22-.67-.22zM85.53 118.82l.22-.15-.28.07.06.08z"/>
  <path fill="#F57345" d="M84.84 119.39l.69-.57-.06-.08-.71.54.08.1z"/>
  <path fill="#E2B780" d="M30.25 220.57l.8-1.9-1.22-.1.43 2zM28.81 226.09l.84-2.51c-.47-.77-1-.98-1.63-.18l-.48 1.8 1.27.89zM27.68 229.79l.82-2.48-1.76.83.94 1.65zM212.7 555.92c-2.1-3.4-3.79-6.54-8.32-6.62-3.15-.05-6.31-.7-9.44-1.23a83.44 83.44 0 0 1-8.66-1.88c-.83-.23-1.72-1.23-2.05-2.09a82.57 82.57 0 0 1-2.36-7.57c-.47-1.73-1.36-2.78-3.27-2.83-5.45-.13-10.3-2.32-15.05-4.65-1.87-.93-3.33-.87-4.9.52-2.62 2.3-5.34 4.5-8.01 6.73-.85.72-1.4 1.39.1 2.06 7.74 3.44 15.38 7.09 23.21 10.28 3.28 1.33 6.92 1.86 10.45 2.5 6.86 1.25 13.76 2.3 20.63 3.48 2.08.36 4.11.96 6.17 1.4.36.09.77-.04 1.5-.1z"/>
</svg>
