<svg xmlns="http://www.w3.org/2000/svg" viewBox="0 0 620 620">
  <path fill="none" d="M341.54 49.11c-.71-.63-1.62-.8-2.5-1 .88.2 1.79.37 2.5 1zM479.16 503z"/>
  <path fill="#445CAC" d="M599.38 306.26c.85 3.84 1.7 7.7 2.53 11.55.11-7.4.05-14.82-.02-22.22l-.1-10.74c0-.63-.1-1.26-.16-1.9l-.14-.96-.32-4.1-.72-5.15-.01-.09-.36-1.75-.78-5.78-.34-1.96-.28-1.86-.44-2.19-.18-.98-.22-1.25-.11-1.24a71.97 71.97 0 0 0-2.91-17.44c-2.51-8.3-5.09-16.58-7.75-24.83-1.53-4.73-3.1-9.46-4.69-14.17-1.37-4.05-3.79-7.74-5.73-11.6l-.77-1.3-.64-1.28-.04.04.04-.04-.64-1.27-.54-1.08c-5.3 1.76-10.6 3.53-15.9 5.32-4.01 1.35-8 2.79-12 4.15-.63.21-1.35.66-2 .03.22-.66.66-.86 1.07-1.07 3.5-1.86 7-3.7 10.48-5.56l15.77-8.41-.08-.17-.06-.13-.64-1.27-.64-1.27c-.2-.43-.42-.85-.63-1.27l-.63-1.27-.64-1.27v-.01l-.63-1.25-.01-.01-.51-.74a82.66 82.66 0 0 0-8.3-15.5c-.82-1.25-1.67-2.48-2.54-3.7-3.97-5.6-7.85-11.24-11.82-16.82-1.02-1.42-2.23-2.7-3.35-4.05l.06.03-.24-.68c-3.57-4.44-7.03-8.96-10.74-13.27-1.48-1.71-3.22-3.2-4.91-4.73a7293.53 7293.53 0 0 1-33.9 16.02c-.67.31-1.41.59-2.14.67-5.71.62-11.43 1.2-17.14 1.77-6.46.64-12.93 1.24-19.4 1.88-7.12.7-14.26 1.26-21.34 2.22-2.66.36-4.47-.47-6.38-2.01-6.69-5.38-13.44-10.66-20.16-15.98a37.27 37.27 0 0 0-7.17-4.5c-5.87-2.8-11.71-5.67-17.57-8.49-1.1-.53-2.24-.99-3.35-1.52-6.54-3.14-13.08-6.29-19.6-9.46-.55-.26-1.33-.42-1.18-1.48 1.07-.47 2.25-.66 3.47-.8 4.4-.47 8.8-1 13.2-1.5l17.12-1.91c5.24-.59 10.48-1.15 15.71-1.77 2-.24 2.27-.83 1.35-2.6-.22-.41-.5-.8-.75-1.2-2.72-4.3-5.58-8.52-8.13-12.92a8.92 8.92 0 0 0-6.06-4.53c-11.17-2.75-22.28-5.74-33.42-8.56-4.2-1.06-8.36-2.34-12.65-3.02a15.67 15.67 0 0 1-2.94 3.04c-4.34 3.62-8.7 7.22-13.02 10.85a11.2 11.2 0 0 1-4.68 2.5c-4.96 1.15-9.92 2.29-14.86 3.5-10.98 2.69-22.06 4.94-32.92 8.11-15.74 4.6-31.5 9.12-47.23 13.68-1.57.46-3.1.65-4.73.23-6.02-1.55-12.06-3.02-18.09-4.55-.66-.17-1.52-.15-1.8-1.06.67-.82 1.66-.9 2.53-1.19 6.53-2.14 13.09-4.22 19.62-6.37 17.81-5.86 35.6-11.77 53.44-17.57 4.02-1.31 8-2.88 12.19-3.6 12.9-2.2 25.83-4.24 38.73-6.46.8-.14 1.62-.24 2.44-.35 2.44-.3 4.9-.6 7.18-1.7-.72-.64-1.62-.81-2.5-1.02a11.4 11.4 0 0 1-.37-.1c-6.11-1.58-12.23-3.13-18.34-4.73-.73-.19-1.62-.17-2.16-.87.43-.57.9-.6 1.36-.7l13.76-3.2c9.45-2.19 18.9-4.36 28.36-6.56 8.62-2.01 17.23-4.06 25.85-6.1a35.25 35.25 0 0 0-1.82-2.11L373.15 20c-.66-.28-1.3-.69-2-.8-13.97-2.18-27.82-5.26-41.95-6.39-2.34-.18-4.67-.37-7.01-.53l-3.26 1.58a5.68 5.68 0 0 0-3.33 4.18c-1.37 5.58-2.96 11.11-4.38 16.68-.37 1.46-1.15 2.21-2.6 2.6-4.46 1.18-8.9 2.47-13.34 3.73-14.6 4.15-29.23 8.21-43.8 12.46a5546.58 5546.58 0 0 0-52.04 15.5c-3.68 1.12-7.52 1.81-10.94 3.75-10.74 6.1-21.49 12.17-32.23 18.27-9.1 5.16-18.17 10.36-27.27 15.52a10.2 10.2 0 0 0-2.98 2.54c-6.1 7.56-12.24 15.07-18.35 22.6-3.03 3.74-6.04 7.49-9.07 11.22-2.42 2.98-2.49 3.22.06 6.18a71.2 71.2 0 0 0 5.3 5.49c1.3 1.21 1.45 2.42.9 4.04A608.31 608.31 0 0 0 99.4 175a7.63 7.63 0 0 1-3.35 4.34c-7.51 4.87-15.01 9.77-22.43 14.8a6.3 6.3 0 0 1-6.1.75c-5-1.71-10.07-3.2-15.07-4.9-1.9-.64-3.29-.43-4.86.96-3.36 2.98-6.78 5.9-10.2 8.83-1.28 2.3-2.69 4.64-3.27 7.14-3.49 15.03-6.82 30.1-9.24 45.35l-1.52 9.45c-1.32 8.12-2.67 16.22-4.1 24.31a71.5 71.5 0 0 0-1.17 15.78c.1 2 .5 3.99.5 5.98.04 10.57.5 21.12 1.14 31.67.46 7.87 1.9 15.5 3.2 23.2 1.67 9.9 3.4 19.8 5.41 29.63 1.24 6.08 1.6 12.4 4.32 18.12.69 1.44 1.28 2.9 1.92 4.36l4.13 9.38 6.44.6c6.19.6 12.38 1.17 18.56 1.8 2.15.22 2.6.72 2.85 2.77.76 6.17 1.56 12.34 2.22 18.52.17 1.54.75 2.6 1.94 3.55 5.96 4.77 11.9 9.56 17.76 14.46a10.3 10.3 0 0 0 5.58 2.44c.75.09 1.49.25 2.23.39 9.64 1.8 19.27 3.6 28.9 5.43 8.71 1.65 17.42 3.31 26.12 5 3.1.6 3.28 1 1.85 3.93-1.42 2.88-2.9 5.72-4.28 8.62-.78 1.65-.48 2.03 1.36 1.7 8.71-1.6 17.43-3.2 26.13-4.87 2.38-.45 2.63-.97 2.77-3.5.14-2.37-.4-4.68-.48-7.03-.18-5.27-.3-10.55-.46-15.81-.23-7.44-.84-14.87-.71-22.32.08-4.25-.64-8.45-.6-12.7.02-1.94-.3-2.07-2.34-2.44-2.42-.43-4.86-.44-7.32-.5-4.04-.1-8.11.3-12.13-.52-1.78-.37-1.9-.7-.7-2.13 6.12-7.3 12.27-14.56 18.38-21.85 3.32-3.97 6.94-7.73 8.84-12.7.6-1.58 1.35-3.1 2.07-4.64 3.58-7.6 7.29-15.12 10.69-22.8a12.2 12.2 0 0 1 4.69-5.42c1.96-1.3 3.89-2.66 5.83-4 7.84-5.4 15.68-10.8 23.5-16.24 1.15-.8 2.06-.69 3 .25 1.14 1.12 2.3 2.24 3.48 3.32 6.1 5.6 12.31 11.1 18.3 16.84 2.34 2.25 4.75 3.83 8.03 4.23 1.97.23 4 .53 5.93 1.34-.38.75-.87.77-1.33.85-13 2.26-26 4.56-39 6.75-3.43.58-6.83 1.58-10.36 1.2-3.56-.39-7.12-.78-10.67-1.25-3.88-.51-3.93-.5-3.19 3.32 2.04 10.56 4.06 21.11 6.13 31.66a8.27 8.27 0 0 1-.16 4.16c-3.41 11.09-6.77 22.19-10.18 33.27a8.91 8.91 0 0 0-.12 5.28c.8 2.8 1.52 5.64 2.33 8.45.24.85.34 1.85 1.22 2.37 1.05-.57 1.24-1.54 1.59-2.39 3.4-8.18 6.85-16.35 10.13-24.58a5.4 5.4 0 0 1 4.43-3.7c8.13-1.64 16.22-3.49 24.33-5.26 1.57-.34 3.03-.91 4.42-1.8 6.6-4.2 13.21-8.38 19.89-12.46 3.61-2.21 7.03-4.77 11-6.36 27.5-11 55.03-21.87 82.4-33.15 10.38-4.27 20.85-8.32 31.08-12.93 12.37-5.58 24.8-11.06 37.15-16.68 3-1.36 6.12-2.48 8.91-4.27 10.4-6.67 20.8-13.34 31.18-20.02a25.64 25.64 0 0 1 5.85-2.8c8.42-2.78 16.82-5.6 25.24-8.39.85-.28 1.68-.85 2.68-.53.07.93-.67 1.13-1.17 1.47a35948.47 35948.47 0 0 1-53.18 36.96c-1.79 1.24-3.56 2.49-5.55 3.39-9.97 4.5-19.92 9.03-29.86 13.59-10.45 4.8-20.87 9.67-31.32 14.45-16.37 7.5-32.76 14.95-49.14 22.42-.37.17-.92.3-.66 1.15.97-.3 1.95-.56 2.9-.88 10.64-3.6 21.25-7.25 31.9-10.78 5.1-1.7 10.15-3.54 15.15-5.51 24.74-9.76 49.44-19.59 74.19-29.32 5.87-2.3 11.57-5.08 17.73-6.62 27.27-6.8 54.52-13.65 81.8-20.4a9.03 9.03 0 0 0 5.66-3.79c2.2-3.17 4.6-6.21 6.93-9.3 6.39-8.52 12.78-17.05 19.2-25.56 1.56-2.08 1.89-2.02 2.88.3 2.14 5.03 4.24 10.08 6.39 15.1 1.26 2.96 2.75 5.83 3.44 8.98zm-522.26-72.6c-2.76 1.62-5.42 3.4-8.13 5.1-2.96 1.83-5.98 3.56-8.89 5.48-3.15 2.08-5.76 4.82-8.5 7.39-4.04 3.8-7.88 7.81-11.84 11.71-.59.58-1.06 1.55-2.73 1.12a3226 3226 0 0 1 40.32-51.66c.8 1.84.5 3.19.7 4.46.68 4.28.28 8.64.92 12.93.23 1.55-.45 2.64-1.85 3.47zM289.2 345.74c.27-1.02 1.1-1.16 1.74-1.46 2.2-1.06 4.47-2 6.66-3.1 11.64-5.79 23.4-11.34 35.1-17.01 11.7-5.67 23.38-11.37 35.11-16.97 13.01-6.22 25.95-12.58 38.92-18.87 2.66-1.3 2.8-1.29 4.9.8 4.34 4.31 8.67 8.65 13 12.99.46.47.92.95 1.27 1.5.44.68.27 1.28-.54 1.55-.44.14-.93.15-1.39.22-6.7.98-13.41 1.98-20.12 2.95-12.76 1.86-25.52 3.72-38.29 5.55-2.65.38-5.03 1.2-7.3 2.73-13.76 9.28-27.6 18.42-41.37 27.67a10.15 10.15 0 0 1-6.07 1.84c-6.31-.1-12.63-.02-18.94-.04-.9 0-1.85.22-2.68-.35zm41.49-47.12a190.3 190.3 0 0 1-6.47 3.43l-2.07 1.06c-4.8 2.5-9.49 5.24-14.45 7.43-.43.34-.74.92-1.5.69l-.16-.06c.27-.71.92-.7 1.46-.88.32-.96 1.13-1.46 1.88-2.03 2.6-2 5.37-3.83 7.78-6.04 4.34-4 9.89-3.94 15.25-5.35-.24 1.33-1.11 1.42-1.72 1.75zm-201.13 145l12.76-36.9c1.03.8 1.04 1.59 1.15 2.31 1.07 7.16 2.1 14.33 3.2 21.48.24 1.54-.32 2.5-1.5 3.33-4.55 3.19-9.07 6.42-13.61 9.6-.47.33-.97 1.02-2 .17zm-10.02-237.4c-2.82 2.75-5.79 5.35-8.6 8.1-4.17 4.08-8.25 8.25-12.4 12.34-.7.7-1.26 1.65-2.6 1.9-.21-1.4.52-2.22.97-3.11 4.22-8.3 8.45-16.58 12.7-24.85.91-1.75 1.89-3.47 2.88-5.17.75-1.28 1.08-1.35 2.08-.27 1.73 1.85 3.36 3.79 5.06 5.67 2.16 2.4 2.2 3.16-.09 5.39zm42.4-51.43c-1.6.1-3.2.02-4.79.04-1.47.01-2.1-.7-2.36-2.17-.71-3.98-.35-8.04-1.02-12.02-.04-.23.15-.5.44-1.41 3.16 4.83 6.05 9.19 8.86 13.6.8 1.25.41 1.87-1.14 1.96zm14.15 32.2c2.3-4.22 4.53-8.47 6.96-12.62 1.05-1.8 1.75-3.88 3.48-5.52.8 1.22.53 2.34.42 3.42-.7 6.83-1.48 13.65-2.06 20.5-.16 1.83-.72 2.87-2.48 3.59-6.2 2.52-12.33 5.21-18.5 7.8-1.62.67-3.13 1.7-5.2 1.85.02-1.47.96-1.93 1.59-2.58 3.94-4.04 8.38-7.58 12.27-11.69 1.37-1.45 2.56-3 3.52-4.75zm21.54-85.25c-.76 1.1-1.67 2.04-2.58 2.99-3 3.12-6.18 6.06-8.96 9.4a44.01 44.01 0 0 1-6.33 6.22c-.72-.88-.46-1.53-.35-2.16 1.26-6.86 2.5-13.71 3.77-20.56.82-4.39.85-4.4 4.87-2.74 2.96 1.22 5.91 2.47 8.84 3.76 2.02.9 2.04 1.2.74 3.1zm140.42 99.7c-.09.93-.3 1.86-.46 2.79-.55 3.34-1.04 6.7-1.67 10.03-.26 1.42-.88 1.55-1.84.51-.45-.48-.8-1.05-1.23-1.55-1.8-2.06-2.38-2.1-4.35-.3-.77.7-1.51 1.43-2.3 2.1-5.33 4.63-10.76 9.16-15.96 13.93-2.07 1.9-3.9 2.36-6.6 1.48-6.26-2.05-12.65-3.74-18.97-5.64-1.75-.52-3.13-.24-4.3 1.16-.55.65-1.17 1.23-1.74 1.86-2.43 2.75-4.83 5.53-7.3 8.25-4.6 5.1-9.27 10.15-13.86 15.27a8.18 8.18 0 0 1-2.64 2.06c-4.87 2.27-9.77 4.48-14.6 6.83-4.9 2.38-10.14 4.12-14.34 7.8-2.27 2-4.66 3.83-7.02 5.71-2.14 1.7-4.36 3.17-7.1 3.91-11.92 3.24-23.8 6.61-35.67 10-7.39 2.1-7.37 2.13-14.33-.57-3.7-1.43-7.43-2.75-11.12-4.17-1.42-.55-2.55-.46-3.44.88-.26.39-.62.71-.92 1.08l-17.92 21.84c-1.8 2.19-3.62 4.34-5.4 6.54-1.07 1.34-.9 1.84.72 2.41.35.13.72.22 1.08.31l15.89 4.1c3.65.93 3.8 1.12 1.3 3.91-3.83 4.28-7.97 8.28-11.86 12.51-5.54 6.04-11.34 11.84-17.02 17.75-.52.54-.94 1.18-1.44 1.74a94.28 94.28 0 0 1-6.98 7.06c-.79-.43-.73-.95-.86-1.38-.65-2.2-.4-4.5-.66-6.74-.56-5.15-1.01-10.3-1.5-15.46-.48-4.96-.87-9.93-1.46-14.88a7.7 7.7 0 0 1 .82-4.9c3.44-6.17 6.78-12.4 10.28-18.54 5.93-10.4 11.99-20.72 17.89-31.13 1.3-2.3 2.97-4.06 5.16-5.48 12.88-8.38 25.75-16.76 38.6-25.19 10.48-6.87 20.9-13.84 31.4-20.7 3.95-2.57 7.98-5.02 12.06-7.38 15.41-8.92 30.89-17.73 46.27-26.72 2.07-1.2 3.7-1.23 5.73-.13 9.12 4.92 18.31 9.7 27.45 14.6a12.97 12.97 0 0 0 6.73 1.7c2.83-.08 5.64-.44 8.45-.51 8.28-.22 16.56-.54 24.82-1.1 1.82-.12 2.4.5 2.21 2.35zm161.69-2.52c-.09 1.69-.2 3.4-.56 5.03-.28 1.3-1.62 1.78-2.67 2.37-9.1 5.15-18.23 10.27-27.35 15.4a15.4 15.4 0 0 1-4.96 2c-2.7.45-5.4.85-8.1 1.28-6.8 1.06-13.6 2.09-20.38 3.21-2.3.39-2.37.6-1.68 2.8 1.28 4.15 2.6 8.28 3.94 12.4 1.5 4.63 1.52 4.6 6.12 3.5 13.2-3.17 26.4-6.32 39.61-9.46.64-.15 1.38-.72 2.04.03-.24 1.13-1 1.84-1.7 2.6-5.06 5.46-10.18 10.85-15.14 16.4-2.13 2.4-4.48 4.6-6.46 7.1-1.5 1.88-3.3 3-5.47 3.76-8.89 3.14-17.77 6.3-26.65 9.47-9.5 3.4-19.01 6.75-28.47 10.23-5.34 1.97-10.67 3.24-16.5 3.1-13.08-.28-26.19-.1-39.28.5-1.12.04-2.25.18-3.35.41-12.55 2.64-25.09 5.32-37.63 7.96-21.96 4.62-43.91 9.23-65.87 13.83-1.76.37-3.44.94-5.05 1.79-7.41 3.91-14.85 7.8-22.27 11.7-6.51 3.42-12.97 6.94-19.53 10.26-4.94 2.5-9.69 5.4-15.28 6.5-13.5 2.69-26.96 5.58-40.43 8.38-.45.1-.92.27-1.6-.28.3-.41.48-.74.73-1 9.78-9.82 19.6-19.6 29.1-29.68a11.04 11.04 0 0 1 3.72-2.52c7.86-3.43 15.72-6.86 23.59-10.27 10.9-4.73 21.78-9.47 32.7-14.15 2.15-.92 4.25-2 6.6-2.49 15.68-3.29 31.35-6.65 47.03-9.95a9.06 9.06 0 0 0 4.06-1.83c3.27-2.7 6.6-5.33 9.89-8 7.4-5.98 14.8-11.96 22.18-17.98a7.26 7.26 0 0 1 3.76-1.76c8.5-1.1 16.99-2.26 25.49-3.4 1.1-.14 2.19-.25 3.14-.86-.12-.3-.14-.56-.26-.63-2.13-1.2-4.25-2.43-6.42-3.58-3.75-1.99-5.1-1.47-.31-5.22 10.23-8.02 20.47-16.04 30.6-24.19 11.46-9.21 22.8-18.56 34.17-27.88a8.67 8.67 0 0 1 4.59-2c5.33-.62 10.67-1.2 16-1.76 2.06-.22 4.12-.43 6.19-.58 1.37-.1 2.11.62 2.14 2.02.01.75.03 1.5.03 2.26 0 7.92 0 15.84.02 23.76 0 .88-.2 1.82.26 2.65.6-.16.76-.52.9-.85 2.14-4.93 4.2-9.89 6.42-14.79a4.6 4.6 0 0 0-.3-4.53 210.9 210.9 0 0 1-4.77-8.99c-.73-1.47-.53-1.92 1.02-2.11 2.7-.33 4.69-1.79 6.56-3.6 1.97-1.89 4.02-3.7 6.08-5.49 1.5-1.3 2.02-1.2 3.05.54.95 1.62 1.84 3.28 2.75 4.94 3.09 5.61 6.2 11.21 9.24 16.85a3.44 3.44 0 0 0 3.4 2.01 46.1 46.1 0 0 1 4.53.08c7.23.58 14.46 1.05 21.72 1.08 1.33 0 2.62.28 3.9.57.59.14 1.2.45 1.17 1.06z"/>
  <path fill="#425CAF" d="M242.44 600.56c-4.74-.97-9.33-2.7-13.99-4.11-3.92-1.2-7.82-2.46-11.7-3.78l12.95 3.6c2.36.65 4.7 1.38 7.07 2.02 2.52.68 2.64.63 4.15-1.6 5.22-7.74 10.51-15.42 15.6-23.24 1.68-2.6 3.87-4.6 6.12-6.58 5.8-5.11 11.65-10.14 17.48-15.2a7.95 7.95 0 0 1 4.35-1.84c12.41-1.61 24.8-3.46 37.25-4.84 5.08-.57 9.67-2.42 14.37-4.03 17.29-5.94 34.54-11.98 51.8-17.99 6.97-2.42 14.24-3.64 21.4-5.3a3823.9 3823.9 0 0 1 39.41-8.92c8.56-1.89 17.03-4.15 25.68-5.6l.6-.1c1.4-.2 2.78-.26 4.18-.05-.4.81-1.12 1.17-1.9 1.47l-.33.12c-9.76 3.5-19.51 7.02-29.27 10.53-14.1 5.06-28.18 10.19-42.32 15.15-4.17 1.46-8.49 2.5-12.76 3.66-10 2.72-20.03 5.39-30.03 8.11-1.05.29-2.54.26-2.86 1.48-.35 1.36 1.26 1.67 2.01 2.43 1.19 1.21 2.4 2.4 3.64 3.56 6.3 5.94 12.62 11.87 18.94 17.8 2.21 2.08 2.54 2.14 5.09.43 7.9-5.31 15.91-10.47 23.63-16.03 5.16-3.71 10.8-6.08 16.8-7.82 2.36-.68 4.65-1.56 7.03-2.14 3.23-.78 5.8-2.58 8.26-4.68 8.53-7.27 17.1-14.49 25.63-21.75 4.52-3.85 9-7.73 13.48-11.62.7-.62 1.29-1.37 1.93-2.05.32-.6.75-.64 1.4-.5 4 .89 7.82.57 11.26-1.84 12.2-8.54 24.39-17.08 36.54-25.66a23.83 23.83 0 0 1 8.62-4.03c4.34-.98 8.66-2.04 12.98-3.1-1.88 3.38-3.71 6.79-5.46 10.24-2.08 4.1-4.85 7.65-7.84 11.04a1075 1075 0 0 1-20.33 22.6 419.2 419.2 0 0 1-15.43 15.48 703.9 703.9 0 0 1-16.45 15.35c-4.22 3.82-7.97 8.2-12.93 11.16a848.42 848.42 0 0 1-7.5 4.4l-4.42 2.59-.7.47-1.63 1.01-.02.03c-3.52 2.3-7.02 4.62-10.57 6.87-6.96 4.4-13.79 9.02-21.69 11.66-1.7.57-3.39 1.17-5.08 1.75l-1.7.8-1.47.47c-.97.58-1.9 1.27-2.94 1.72-6.27 2.7-12.5 5.47-18.87 7.94-2.84 1.1-5.87 1.72-8.84 2.49l-.84.22c-.96.4-1.88.95-2.88 1.2-8.19 2.15-16.4 4.16-24.58 6.36-5.68 1.53-11.5 1.88-17.3 2.54l-.54.07c-4.93.58-9.86 1.18-14.8 1.68-5.35.54-10.7 1.2-16.07 1.4-4.1.15-8.22-.38-12.34-.52-7.81-.26-15.64-.28-23.45-.75-4.2-.25-8.36-1.16-12.52-1.86-8.44-1.4-16.92-2.66-25.3-4.37z"/>
  <path fill="#3A4385" d="M315.6 18.05c-1.37 5.58-2.95 11.11-4.38 16.68-.37 1.46-1.14 2.21-2.6 2.6-4.46 1.18-8.9 2.47-13.34 3.73-14.6 4.15-29.22 8.21-43.8 12.46a5546.58 5546.58 0 0 0-52.03 15.5c-3.69 1.12-7.53 1.81-10.95 3.75-10.73 6.1-21.49 12.17-32.22 18.27-9.1 5.16-18.18 10.36-27.28 15.52a10.2 10.2 0 0 0-2.98 2.54c-6.09 7.56-12.23 15.07-18.35 22.6-3.03 3.74-6.03 7.49-9.06 11.22-2.43 2.98-2.5 3.22.05 6.18a71.2 71.2 0 0 0 5.31 5.49c1.3 1.21 1.45 2.42.88 4.04A608.31 608.31 0 0 0 99.4 175a7.63 7.63 0 0 1-3.35 4.34c-7.51 4.87-15 9.77-22.43 14.8a6.3 6.3 0 0 1-6.1.75c-5-1.7-10.07-3.19-15.06-4.9-1.9-.64-3.3-.43-4.86.96-3.37 2.98-6.79 5.9-10.2 8.83l.47-.86c5.05-9.4 10.43-18.65 15.22-28.2.69-1.36 1.4-2.71 2.1-4.07a303.93 303.93 0 0 1 8.82-15.44c1.17-1.94 2.37-3.88 3.57-5.8a257.5 257.5 0 0 0 2-3.27c1.85-3.08 3.68-6.17 5.7-9.14 2.3-3.4 4.9-6.62 7.53-9.78 6.4-7.73 12.84-15.43 19.4-23.02 1.93-2.22 4.3-4.06 6.51-6.02 5.44-4.85 10.99-9.6 16.34-14.53a108.79 108.79 0 0 1 19.5-14.06c6.59-3.82 13.03-7.9 19.57-11.8 2.9-1.72 5.88-3.34 8.87-4.93 7.28-3.88 14.54-7.8 21.9-11.55a82.33 82.33 0 0 1 9.64-4.03c9.66-3.45 19.32-6.92 29.09-10.08 4.2-1.36 8.63-2.04 12.98-2.93 8.49-1.74 16.98-3.48 25.5-5.08 2.78-.53 5.65-.69 8.49-.93 8.2-.7 16.4-1.35 24.61-2.05 5.68-.49 11.33-.3 16.98.08l-3.25 1.58a5.68 5.68 0 0 0-3.33 4.18z"/>
  <path fill="#39427E" d="M543.95 469.62c4.34-.98 8.66-2.04 12.98-3.1a501.13 501.13 0 0 1 4.6-8.12 268.83 268.83 0 0 0 8.69-16.18c1.99-4.08 3.82-8.24 5.43-12.51 2.4-6.4 5.16-12.68 7.73-19.03l.27-.66c1.3-3.24 2.75-6.45 3.68-9.8l1.33-4.87a1796.15 1796.15 0 0 0 7.97-30.05c.43-1.68.7-3.4.93-5.13.17-1.2.33-2.39.52-3.58l1.13-9.74.12-1.05c.36-2.81.78-5.62 1.05-8.44.57-6.08 1.4-12.17 1.51-18.27l.02-1.28-2.53-11.55c-.7-3.14-2.18-6.02-3.44-8.97-2.14-5.03-4.24-10.08-6.39-15.1-.99-2.32-1.31-2.38-2.88-.3-6.42 8.5-12.8 17.03-19.2 25.55-2.32 3.1-4.72 6.13-6.92 9.3a9.03 9.03 0 0 1-5.66 3.8c-27.28 6.74-54.54 13.59-81.8 20.4-6.17 1.53-11.87 4.3-17.74 6.62-24.74 9.73-49.45 19.56-74.19 29.31a293.1 293.1 0 0 1-15.15 5.51c-10.64 3.54-21.26 7.19-31.89 10.78-.95.33-1.93.59-2.9.88-.27-.85.29-.97.66-1.14 16.37-7.48 32.76-14.93 49.13-22.42 10.46-4.79 20.87-9.66 31.33-14.46 9.93-4.56 19.89-9.08 29.85-13.59 2-.9 3.77-2.14 5.55-3.38a34172.96 34172.96 0 0 0 53.18-36.96c.5-.35 1.25-.55 1.17-1.47-.99-.32-1.82.24-2.68.53-8.42 2.78-16.82 5.6-25.24 8.39a25.6 25.6 0 0 0-5.84 2.8l-31.18 20.01c-2.8 1.8-5.92 2.91-8.92 4.28-12.35 5.62-24.78 11.1-37.15 16.67-10.23 4.62-20.7 8.67-31.07 12.94-27.37 11.28-54.91 22.15-82.4 33.15-3.98 1.59-7.4 4.15-11 6.36-6.68 4.08-13.3 8.26-19.9 12.46a13.42 13.42 0 0 1-4.42 1.8c-8.1 1.77-16.2 3.61-24.32 5.25a5.4 5.4 0 0 0-4.44 3.7c-3.28 8.24-6.73 16.4-10.13 24.59-.35.84-.53 1.82-1.58 2.39-.88-.53-.98-1.52-1.23-2.38-.8-2.8-1.52-5.64-2.33-8.45a8.91 8.91 0 0 1 .13-5.27c3.4-11.09 6.76-22.19 10.17-33.27.43-1.4.45-2.74.17-4.17-2.08-10.54-4.1-21.1-6.13-31.65-.74-3.82-.7-3.84 3.18-3.33 3.55.47 7.11.87 10.67 1.25 3.54.39 6.94-.61 10.36-1.2 13.01-2.18 26-4.48 39-6.74.46-.08.95-.1 1.34-.85a21.8 21.8 0 0 0-5.94-1.35c-3.27-.39-5.69-1.98-8.03-4.22-5.98-5.74-12.2-11.24-18.3-16.84-1.18-1.08-2.33-2.2-3.47-3.33-.95-.93-1.86-1.04-3-.24-7.82 5.43-15.67 10.83-23.5 16.24-1.95 1.34-3.87 2.7-5.84 4a12.22 12.22 0 0 0-4.69 5.42c-3.4 7.67-7.1 15.2-10.68 22.8-.73 1.53-1.47 3.06-2.08 4.64-1.9 4.97-5.51 8.73-8.84 12.69-6.1 7.3-12.25 14.56-18.37 21.85-1.21 1.44-1.08 1.77.7 2.13 4.01.83 8.08.42 12.13.52 2.45.06 4.9.08 7.32.5 2.04.37 2.35.5 2.33 2.45-.04 4.25.68 8.44.6 12.7-.13 7.44.48 14.87.71 22.31.16 5.27.29 10.54.47 15.81.08 2.35.61 4.67.48 7.04-.14 2.53-.4 3.04-2.78 3.5-8.7 1.67-17.41 3.27-26.13 4.86-1.84.34-2.14-.05-1.36-1.7 1.38-2.9 2.86-5.74 4.28-8.61 1.44-2.93 1.26-3.34-1.85-3.94-8.7-1.68-17.4-3.35-26.11-5-9.63-1.82-19.27-3.62-28.9-5.43-.75-.14-1.49-.3-2.23-.39a10.3 10.3 0 0 1-5.59-2.44c-5.85-4.9-11.8-9.69-17.75-14.46-1.2-.95-1.78-2-1.94-3.54-.66-6.19-1.46-12.35-2.23-18.52-.25-2.06-.7-2.55-2.85-2.77-6.18-.64-12.37-1.21-18.55-1.8l-6.45-.6c2.97 6.75 5.93 13.5 8.93 20.23 1.6 3.57 3.29 7.1 5.05 10.6 2.86 5.66 5.42 11.53 8.82 16.86 5.45 8.55 11.46 16.76 17.3 25.07l.76 1.08c3.6 3.66 7.2 7.32 11.12 10.64 1.57 1.34 3.1 2.8 4.32 4.46a896.5 896.5 0 0 1 5.14 7.1c2.24 2.3 4.48 4.59 6.73 6.87a128.7 128.7 0 0 0 8.88 8.13c3.97 3.32 8.07 6.5 12.16 9.68 5.5 4.28 10.9 8.73 16.63 12.68 7.66 5.3 15.57 10.21 23.43 15.21a47.25 47.25 0 0 0 7.22 3.96c13.72 5.66 27.5 11.16 41.55 15.94l12.96 3.6c2.36.65 4.7 1.38 7.06 2.02 2.52.68 2.65.63 4.15-1.6 5.22-7.74 10.51-15.42 15.6-23.24 1.68-2.6 3.88-4.6 6.12-6.58 5.8-5.11 11.65-10.14 17.48-15.2a7.95 7.95 0 0 1 4.35-1.84c12.42-1.61 24.8-3.45 37.25-4.84 5.08-.57 9.67-2.42 14.37-4.03 17.29-5.94 34.54-11.98 51.8-17.99 6.97-2.42 14.24-3.64 21.4-5.3a3823.9 3823.9 0 0 1 39.42-8.92c8.55-1.89 17.02-4.15 25.67-5.6l.6-.1c1.4-.2 2.78-.26 4.18-.05l6.97-1.35c.32-.6.76-.63 1.4-.5 4 .89 7.82.57 11.26-1.84 12.2-8.54 24.39-17.07 36.54-25.66a23.8 23.8 0 0 1 8.62-4.03zm-185.4-21.11v.01-.01.01-.01zm13.23-47.4c-.24 1.04-1.12 1.63-1.82 2.3-4.55 4.38-9.1 8.74-13.65 13.09-3.4 3.24-6.81 6.47-10.23 9.7-.48.45-.92 1.14-2 .76 7.06-10.38 17.32-17.15 26.13-25.39.37-.35.72-.93 1.57-.47zm6-5.8l.02.02-.57.57-.01-.01h.01l-.57.57c-.18.2-.37.38-.56.57l-.01-.01c-.18.2-.37.39-.56.57.18-.2.37-.38.56-.57a301.77 301.77 0 0 1 1.13-1.13l.56-.57.02.01h-.01v-.01zm4.2 39.84c-4.83 2.9-9.7 5.76-14.56 8.64-1.86 1.1-3.72 2.2-5.6 3.28-.54.3-1.23.91-1.74.2-.47-.65.23-1.2.64-1.7.12-.15.26-.27.38-.42l5.85-6.87 10.28-12c.42-.5.85-1.01 1.54-1.18.8 0 1.13.58 1.44 1.17.94 1.84 1.9 3.68 2.79 5.55.98 2.05.98 2.12-1.01 3.33zm93.55 7.9c-.13.69-.2 1.14-.3 1.59l-8.19 37.84c-.54 2.48-1.07 4.97-1.72 7.43-.48 1.83-.77 1.94-2.62 1.6-.37-.06-.73-.17-1.1-.25l-31.08-7.36c-.82-.2-1.64-.42-2.45-.65-.97-.28-1.4-.91-1.15-1.93.13-.55.24-1.1.4-1.64 1.44-5.27 2.9-10.54 4.35-15.8.62-2.28 1.2-4.56 1.89-6.81.44-1.44.94-1.55 1.87-.45 1.04 1.22 1.97 2.53 2.93 3.8l14.94 19.89c.5.66.85 1.72 1.8 1.62 1.14-.13 1.14-1.38 1.4-2.23a53.6 53.6 0 0 1 4.14-9.58c2.36-4.5 4.7-9.02 7.05-13.53 2.14-4.1 4.27-8.18 6.43-12.27.25-.46.35-1.1 1.41-1.28zm63.17-116.13c-.14 1.62-.89 2.35-1.49 3.14-2.6 3.45-5.3 6.83-7.83 10.35-1.16 1.61-2.5 2.47-4.48 2.27-.38-.04-.76-.02-1.13 0-6.1.26-12.23-.34-18.32.51-1.11.16-2.35.3-3.9-.5 12.58-5.28 24.61-10.65 37.15-15.77z"/>
  <path fill="#5D7BC0" d="M499.18 203.95c.37-1.64.47-3.34.56-5.03.03-.61-.58-.92-1.17-1.05a17.8 17.8 0 0 0-3.9-.57c-7.26-.04-14.5-.5-21.72-1.09-1.5-.12-3.02-.1-4.52-.07a3.44 3.44 0 0 1-3.41-2.01c-3.04-5.65-6.15-11.25-9.24-16.86-.91-1.65-1.8-3.32-2.76-4.94-1.02-1.74-1.55-1.84-3.05-.54-2.06 1.8-4.1 3.6-6.07 5.5-1.88 1.8-3.86 3.26-6.56 3.6-1.55.18-1.76.64-1.02 2.1 1.52 3.04 3.11 6.04 4.78 9a4.6 4.6 0 0 1 .28 4.53c-2.2 4.9-4.28 9.85-6.41 14.78-.15.34-.3.7-.9.86-.47-.83-.27-1.77-.27-2.65l-.01-23.77-.03-2.26c-.03-1.4-.77-2.1-2.15-2.01-2.06.14-4.12.35-6.18.57-5.34.57-10.67 1.14-16 1.76-1.72.2-3.23.88-4.6 2-11.36 9.32-22.7 18.67-34.16 27.88-10.13 8.16-20.37 16.17-30.6 24.2-4.78 3.75-3.44 3.23.31 5.22 2.16 1.14 4.29 2.37 6.41 3.58.12.07.14.31.27.62-.95.61-2.05.72-3.15.87-8.5 1.13-16.99 2.29-25.49 3.39-1.47.2-2.63.84-3.76 1.76-7.37 6.02-14.78 12-22.17 17.99-3.3 2.66-6.62 5.3-9.9 7.99a9.05 9.05 0 0 1-4.06 1.83c-15.68 3.3-31.35 6.67-47.03 9.96-2.35.49-4.44 1.56-6.6 2.48-10.9 4.68-21.8 9.42-32.7 14.15L168.62 318c-1.4.61-2.66 1.4-3.72 2.52-9.5 10.09-19.32 19.87-29.1 29.69-.25.25-.43.58-.72.99.68.56 1.14.38 1.6.28 13.47-2.8 26.93-5.69 40.43-8.37 5.59-1.11 10.34-4.01 15.28-6.51 6.56-3.32 13.02-6.83 19.52-10.25l22.28-11.71a19.1 19.1 0 0 1 5.05-1.79c21.95-4.6 43.91-9.2 65.86-13.83 12.55-2.64 25.09-5.31 37.63-7.95 1.1-.23 2.24-.37 3.36-.42 13.09-.6 26.2-.78 39.28-.49 5.83.13 11.15-1.14 16.5-3.1 9.46-3.49 18.97-6.84 28.47-10.24 8.88-3.17 17.76-6.32 26.65-9.46a11.52 11.52 0 0 0 5.46-3.77c1.99-2.5 4.34-4.7 6.47-7.1 4.95-5.54 10.08-10.94 15.13-16.4.7-.76 1.47-1.47 1.71-2.6-.67-.75-1.4-.17-2.04-.02-13.2 3.13-26.41 6.28-39.61 9.45-4.6 1.1-4.62 1.14-6.12-3.5a896.47 896.47 0 0 1-3.94-12.4c-.69-2.2-.62-2.41 1.68-2.8 6.78-1.12 13.58-2.15 20.38-3.21 2.7-.42 5.4-.83 8.1-1.28 1.8-.3 3.39-1.12 4.96-2 9.12-5.13 18.24-10.25 27.34-15.4 1.06-.6 2.4-1.07 2.68-2.37zm-126.53 72.93l-78.44 19.99c.23-1.28 1.04-1.24 1.58-1.47 8.54-3.75 17.1-7.44 25.64-11.19 4.56-2 9.04-3.93 14.18-4.33 11.26-.87 22.47-2.17 33.7-3.28.93-.09 1.87-.28 3.34.28z"/>
  <path fill="#5E79C1" d="M338.05 201.44c.18-1.85-.39-2.47-2.2-2.35-8.27.56-16.54.88-24.83 1.1-2.8.07-5.62.43-8.44.52-2.46.07-4.6-.56-6.74-1.7-9.13-4.9-18.32-9.7-27.45-14.61-2.03-1.1-3.65-1.08-5.73.13-15.38 8.99-30.85 17.8-46.27 26.72-4.07 2.36-8.1 4.81-12.05 7.39-10.5 6.85-20.92 13.82-31.4 20.7-12.86 8.42-25.73 16.8-38.61 25.18a15.42 15.42 0 0 0-5.16 5.48c-5.9 10.4-11.96 20.73-17.89 31.13-3.5 6.14-6.84 12.37-10.27 18.54a7.7 7.7 0 0 0-.83 4.9c.6 4.95.99 9.92 1.46 14.89.5 5.15.94 10.3 1.5 15.45.26 2.24.02 4.53.67 6.74.13.43.07.95.86 1.38a94.28 94.28 0 0 0 6.97-7.06c.5-.56.92-1.2 1.44-1.74 5.68-5.91 11.49-11.7 17.03-17.75 3.88-4.23 8.02-8.23 11.85-12.5 2.5-2.8 2.36-2.99-1.3-3.93-5.3-1.35-10.59-2.72-15.88-4.09-.37-.1-.74-.18-1.09-.3-1.61-.58-1.79-1.08-.71-2.42 1.77-2.2 3.6-4.35 5.4-6.54l17.92-21.85c.3-.36.65-.68.91-1.07.9-1.34 2.03-1.43 3.44-.88 3.7 1.42 7.43 2.74 11.12 4.17 6.97 2.7 6.95 2.67 14.33.57 11.88-3.39 23.75-6.76 35.67-10 2.74-.74 4.96-2.2 7.1-3.91 2.36-1.88 4.76-3.72 7.02-5.7 4.2-3.69 9.45-5.43 14.35-7.8 4.83-2.36 9.72-4.57 14.59-6.84a8.18 8.18 0 0 0 2.65-2.06c4.59-5.12 9.25-10.17 13.86-15.27 2.46-2.72 4.86-5.5 7.3-8.25.56-.63 1.19-1.2 1.73-1.86 1.18-1.4 2.56-1.68 4.3-1.16 6.32 1.9 12.71 3.59 18.98 5.64 2.7.88 4.53.42 6.6-1.48 5.2-4.77 10.63-9.3 15.96-13.93.78-.68 1.52-1.4 2.3-2.1 1.96-1.8 2.54-1.76 4.34.3.44.5.78 1.07 1.23 1.55.97 1.03 1.58.91 1.85-.5.62-3.34 1.12-6.7 1.67-10.04.15-.93.36-1.86.45-2.8zm-102.83 8.97l-.59.45-.01-.01c.17-.19.05-.78.6-.44zm3.46-2.51c-.32.97-.88 1.32-2.1 1.4.51-1.15 1.08-1.51 2.1-1.4zm3.45-2.22c-.2 1.08-.85 1.32-2.16 1.43.65-1.04 1.13-1.58 2.16-1.43zm22.75-13.93a314.86 314.86 0 0 1-21.03 13.01c1.58-2.26 15.19-11.72 18.27-13.02.73-.3 1.47-.9 2.75.01z"/>
  <path fill="#5A7BCF" d="M489.13 126.44c-5.71.62-11.42 1.2-17.14 1.77-6.46.64-12.93 1.25-19.4 1.88-7.12.7-14.26 1.26-21.34 2.22-2.66.36-4.47-.47-6.38-2-6.68-5.38-13.44-10.67-20.16-15.99a37.27 37.27 0 0 0-7.17-4.5c-5.87-2.8-11.71-5.66-17.57-8.49-1.1-.53-2.24-.98-3.35-1.51-6.54-3.15-13.08-6.3-19.6-9.46-.55-.27-1.33-.42-1.18-1.49 1.07-.47 2.26-.66 3.47-.79 4.4-.48 8.8-1 13.2-1.5 5.7-.65 11.4-1.28 17.12-1.92 5.24-.59 10.48-1.15 15.72-1.77 1.99-.24 2.26-.83 1.34-2.6-.22-.4-.5-.8-.74-1.2-2.73-4.3-5.59-8.51-8.13-12.92a8.92 8.92 0 0 0-6.07-4.52c-11.17-2.76-22.27-5.75-33.42-8.57-4.2-1.06-8.36-2.34-12.65-3.01-1.29-.72-2.71-.83-4.14-.96-.71-.63-1.61-.8-2.5-1a11.4 11.4 0 0 1-.37-.1c-6.1-1.59-12.23-3.14-18.33-4.74-.74-.19-1.63-.17-2.17-.87.43-.56.91-.6 1.36-.7l13.76-3.2c9.46-2.19 18.91-4.35 28.36-6.56 8.62-2.01 17.23-4.06 25.85-6.1 2.42 2.22 5.1 4.16 7.35 6.58a8.16 8.16 0 0 0 4.07 2.37c11.92 3.14 23.84 6.31 35.75 9.5.55.14 1.1.27 1.65.37l.97.42.54.3 1.32.7c1.53.66 3.09 1.26 4.57 2 3.1 1.53 6.2 3.1 9.24 4.75.99.54 1.82 1.37 2.72 2.07l1.26.74 1.56.97c4.3 2.62 8.6 5.2 12.88 7.84l.65.4c6.75 4.17 13.6 8.2 20.16 12.63 1.33.9 2.6 1.89 3.83 2.92l.54.46.64.56c1.74 1.5 3.43 3.07 5.16 4.58.5.43.71 1.2 1.06 1.81l.04.05.78.82.21.04.04.2.83.8.03.04.6.6.04.04.6.6.04.03.6.6.03.04.6.6.04.03.6.6.03.04.6.6.04.03.6.6.03.04.6.6.04.04.62.62 5.43 5.57c2.31 2.38 4.63 4.75 6.98 7.1.55.56 1.12 1.09 1.7 1.62L513 115.53c-7.24 3.42-14.49 6.85-21.74 10.24-.67.32-1.41.6-2.14.67z"/>
  <path fill="#3B4888" d="M345.68 50.07a15.67 15.67 0 0 1-2.94 3.03c-4.34 3.62-8.69 7.22-13.01 10.85a11.2 11.2 0 0 1-4.7 2.5c-4.95 1.15-9.9 2.3-14.85 3.5-10.97 2.7-22.06 4.95-32.92 8.12-15.74 4.58-31.49 9.11-47.23 13.68-1.57.45-3.1.64-4.72.22-6.03-1.55-12.07-3.02-18.1-4.55-.66-.17-1.52-.15-1.8-1.06.67-.82 1.66-.9 2.53-1.19 6.53-2.14 13.09-4.22 19.62-6.37 17.82-5.85 35.6-11.77 53.44-17.57 4.02-1.3 8-2.88 12.19-3.6 12.9-2.19 25.83-4.24 38.73-6.45.8-.14 1.62-.25 2.44-.35 2.45-.31 4.9-.6 7.18-1.71 1.43.12 2.85.23 4.14.95z"/>
  <path fill="#6F8AD3" d="M398.93 34.8a8.15 8.15 0 0 1-4.08-2.38c-2.24-2.42-4.92-4.36-7.35-6.58a35.25 35.25 0 0 0-1.81-2.11l4.34 1.3c2.18.64 4.35 1.3 6.52 1.96 4.86 1.48 9.77 2.85 14.5 4.68 3.8 1.48 7.38 3.56 11.06 5.38l13.27 7.09.82.47.12.05c-.55-.1-1.1-.23-1.65-.38-11.91-3.18-23.82-6.35-35.75-9.49z"/>
  <path fill="#3D5096" d="M290.94 344.28c2.2-1.07 4.47-2 6.66-3.1 11.64-5.79 23.4-11.34 35.1-17.01 11.7-5.67 23.38-11.37 35.11-16.97 13.01-6.22 25.95-12.58 38.92-18.87 2.66-1.3 2.8-1.29 4.9.8 4.34 4.31 8.67 8.65 13 12.99.46.46.92.95 1.27 1.5.44.68.27 1.28-.54 1.55-.44.14-.93.15-1.39.22-6.7.98-13.41 1.98-20.12 2.95-12.76 1.86-25.53 3.72-38.3 5.55-2.64.38-5.02 1.2-7.3 2.73-13.75 9.28-27.59 18.42-41.36 27.67a10.15 10.15 0 0 1-6.07 1.84c-6.31-.1-12.63-.02-18.94-.04-.9 0-1.85.22-2.68-.36.27-1.01 1.1-1.15 1.74-1.45z"/>
  <path fill="#4867C5" d="M546.15 192.15c-.62.2-1.33.66-1.98.03.21-.67.66-.86 1.06-1.08l10.48-5.55c5.26-2.8 10.52-5.6 15.77-8.42l.49.97.31.78 1.05 2.34.64 1.26.1.19c-5.3 1.76-10.6 3.53-15.9 5.32-4.02 1.35-8 2.79-12.01 4.16z"/>
  <path fill="#3D5096" d="M90.69 508.64c1.57 1.34 3.1 2.8 4.32 4.46a896.5 896.5 0 0 1 5.14 7.1c-5.52-5.65-11.01-11.34-16.46-17.06a46.5 46.5 0 0 1-4.12-5.14c3.6 3.66 7.2 7.31 11.12 10.64z"/>
  <path fill="#3B4888" d="M77.12 233.66c-2.76 1.62-5.42 3.4-8.13 5.1-2.96 1.83-5.99 3.56-8.89 5.48-3.15 2.08-5.76 4.82-8.5 7.39-4.04 3.8-7.88 7.81-11.84 11.71-.59.58-1.06 1.55-2.73 1.12a3226 3226 0 0 1 40.32-51.66c.8 1.84.5 3.19.7 4.46.68 4.28.28 8.64.92 12.93.23 1.55-.45 2.64-1.85 3.47z"/>
  <path fill="#3D5096" d="M186.53 168.85c.8 1.22.53 2.34.42 3.42-.7 6.83-1.48 13.65-2.06 20.5-.16 1.83-.73 2.87-2.49 3.59-6.2 2.52-12.32 5.21-18.49 7.8-1.62.67-3.13 1.7-5.2 1.85.02-1.47.96-1.93 1.59-2.58 3.94-4.04 8.38-7.58 12.27-11.69 1.37-1.45 2.56-3 3.51-4.75 2.3-4.22 4.54-8.47 6.97-12.62 1.05-1.8 1.75-3.88 3.48-5.52zM143.47 409.04c1.07 7.15 2.1 14.32 3.2 21.47.24 1.54-.31 2.5-1.5 3.33-4.55 3.19-9.06 6.42-13.61 9.6-.47.34-.97 1.02-2 .17l12.76-36.88c1.03.8 1.04 1.58 1.15 2.3zM119.54 206.22c-2.82 2.75-5.79 5.35-8.6 8.1-4.17 4.08-8.25 8.25-12.4 12.34-.7.7-1.26 1.65-2.6 1.9-.21-1.4.52-2.22.97-3.11 4.22-8.3 8.45-16.58 12.7-24.85.91-1.75 1.89-3.47 2.88-5.17.75-1.28 1.08-1.35 2.08-.27 1.73 1.85 3.36 3.79 5.06 5.67 2.16 2.4 2.2 3.16-.09 5.39zM195.05 104.73c-3 3.12-6.18 6.06-8.96 9.4a44.01 44.01 0 0 1-6.33 6.22c-.72-.88-.46-1.53-.35-2.16 1.26-6.86 2.5-13.71 3.77-20.56.82-4.39.85-4.4 4.87-2.74 2.96 1.22 5.91 2.47 8.84 3.76 2.02.9 2.04 1.2.74 3.1-.76 1.09-1.67 2.03-2.58 2.98zM161.93 154.8c-1.58.1-3.18.01-4.78.03-1.47.01-2.1-.7-2.36-2.17-.71-3.98-.35-8.04-1.02-12.02-.04-.23.15-.5.44-1.41 3.16 4.83 6.05 9.19 8.86 13.6.8 1.25.41 1.87-1.14 1.96z"/>
  <path fill="#5D7BC0" d="M324.22 302.05l-2.07 1.06c-4.8 2.5-9.49 5.24-14.45 7.43-.42.34-.74.92-1.5.69l-.16-.06c.27-.71.92-.7 1.46-.88.32-.96 1.13-1.46 1.88-2.03 2.6-2 5.37-3.83 7.78-6.04 4.34-4 9.89-3.94 15.25-5.35-.24 1.33-1.11 1.42-1.72 1.75a186.74 186.74 0 0 1-6.47 3.43z"/>
  <path fill="#5378CC" d="M486.13 501.65c-.64.68-1.23 1.43-1.93 2.05-4.48 3.89-8.96 7.78-13.48 11.62-8.53 7.26-17.1 14.48-25.63 21.75-2.46 2.1-5.03 3.9-8.26 4.68-2.37.58-4.67 1.46-7.03 2.14-6 1.74-11.64 4.1-16.8 7.82-7.72 5.55-15.73 10.72-23.63 16.02-2.55 1.72-2.88 1.66-5.1-.42-6.31-5.93-12.63-11.86-18.93-17.8a123.37 123.37 0 0 1-3.64-3.56c-.75-.76-2.36-1.07-2.01-2.43.32-1.22 1.81-1.2 2.86-1.48 10-2.72 20.02-5.39 30.03-8.1 4.27-1.17 8.6-2.21 12.76-3.67 14.14-4.97 28.22-10.09 42.32-15.15 9.76-3.5 19.51-7.02 29.26-10.53l.34-.12c.78-.3 1.5-.66 1.9-1.47a9463 9463 0 0 1 6.96-1.35z"/>
  <path fill="#3D5096" d="M467.04 482.48c-.54 2.48-1.07 4.97-1.72 7.43-.48 1.83-.77 1.94-2.62 1.6-.37-.06-.73-.17-1.1-.25l-31.08-7.36c-.82-.2-1.64-.42-2.45-.65-.97-.28-1.4-.91-1.15-1.93.13-.55.24-1.1.4-1.64 1.44-5.27 2.9-10.54 4.35-15.8.62-2.28 1.2-4.56 1.89-6.81.44-1.44.94-1.55 1.88-.45 1.03 1.22 1.96 2.53 2.92 3.8l14.94 19.89c.5.66.86 1.72 1.8 1.62 1.14-.13 1.14-1.38 1.4-2.23a53.6 53.6 0 0 1 4.14-9.58c2.36-4.5 4.7-9.02 7.05-13.53 2.14-4.1 4.27-8.18 6.43-12.27.25-.46.35-1.1 1.41-1.28-.13.7-.2 1.15-.3 1.6l-8.19 37.84z"/>
  <path fill="#36334B" d="M529.38 340.4c-1.16 1.62-2.5 2.48-4.48 2.28-.38-.04-.76-.02-1.13 0-6.1.26-12.22-.34-18.31.51-1.12.16-2.36.3-3.92-.5 12.6-5.28 24.62-10.65 37.16-15.77-.14 1.62-.89 2.35-1.49 3.14-2.6 3.45-5.3 6.83-7.83 10.35zM381.99 435.15c-4.84 2.9-9.71 5.76-14.57 8.64-1.86 1.1-3.72 2.2-5.6 3.28-.54.3-1.23.91-1.74.2-.47-.65.23-1.2.64-1.7.12-.15.26-.27.38-.42l5.85-6.87 10.28-12c.42-.5.85-1.01 1.54-1.18.8 0 1.13.58 1.44 1.17.94 1.84 1.9 3.68 2.79 5.55.98 2.05.98 2.12-1.01 3.33z"/>
  <path fill="#445CAC" d="M369.95 403.42c-4.54 4.37-9.08 8.73-13.64 13.08-3.4 3.24-6.81 6.47-10.23 9.7-.48.45-.92 1.14-2 .76 7.06-10.38 17.32-17.15 26.13-25.39.37-.35.72-.93 1.57-.47-.24 1.05-1.12 1.64-1.82 2.32z"/>
  <path fill="none" d="M375.53 397.6l-.01-.02"/>
  <path fill="#445CAC" d="M376.1 397.03l-.57.56c.18-.2.37-.38.56-.57z"/>
  <path fill="#445CAC" d="M376.66 396.46l-.56.57-.01-.01.56-.57.01.01zM377.23 395.9l-.57.56c.18-.2.37-.38.56-.57h.01z"/>
  <path fill="#445CAC" d="M377.8 395.33l-.57.57-.01-.01.56-.57.02.01z"/>
  <path fill="none" d="M358.54 448.51l.02.01"/>
  <path fill="#36334B" d="M358.56 448.52l-.02-.01h.01z"/>
  <path fill="#445CAC" d="M377.8 395.33h-.01v-.01z"/>
  <path fill="#87A2CD" d="M295.8 295.4c8.53-3.75 17.1-7.44 25.63-11.19 4.56-2 9.04-3.93 14.18-4.33 11.25-.87 22.47-2.17 33.7-3.28.93-.09 1.87-.28 3.34.28l-78.44 19.99c.23-1.28 1.04-1.24 1.58-1.47z"/>
  <path fill="#6F8AD3" d="M262.12 191.74c.73-.3 1.47-.9 2.76.01a314.86 314.86 0 0 1-21.03 13.01c1.58-2.26 15.19-11.72 18.27-13.02zM239.97 207.11c.65-1.04 1.13-1.58 2.16-1.43-.2 1.08-.85 1.32-2.16 1.43zM236.59 209.3c.5-1.15 1.07-1.51 2.09-1.4-.32.96-.88 1.32-2.1 1.4zM234.62 210.84c.17-.18.05-.77.6-.43l-.59.45-.01-.02z"/>
</svg>
