<svg id="Layer_1" xmlns="http://www.w3.org/2000/svg" viewBox="-250 351 110 92">
  <style>
    .st1,.st3{fill:#fff}.st3{display:none}
  </style>
  <circle cx="-198.5" cy="397" r="40.1" fill="#0b3d91"/>
  <circle class="st1" cx="-200.8" cy="364.6" r=".4"/>
  <circle class="st1" cx="-196.2" cy="365.2" r=".4"/>
  <circle class="st1" cx="-190.1" cy="373.3" r=".5"/>
  <circle class="st1" cx="-223.4" cy="415.3" r=".5"/>
  <circle class="st1" cx="-222.2" cy="418.9" r=".4"/>
  <circle class="st1" cx="-227.8" cy="415.9" r=".3"/>
  <circle class="st1" cx="-209.5" cy="422.9" r=".3"/>
  <circle class="st1" cx="-180.8" cy="417" r=".3"/>
  <circle class="st1" cx="-172.4" cy="407.9" r=".3"/>
  <circle class="st1" cx="-213.3" cy="376" r=".3"/>
  <circle class="st1" cx="-204.2" cy="369.2" r=".3"/>
  <circle class="st1" cx="-205.1" cy="368.6" r=".3"/>
  <circle class="st1" cx="-206" cy="367.9" r=".3"/>
  <circle class="st1" cx="-211.9" cy="377.7" r=".3"/>
  <circle class="st1" cx="-198.4" cy="360.2" r=".3"/>
  <circle class="st1" cx="-196.1" cy="369.9" r=".3"/>
  <circle class="st1" cx="-199.7" cy="368" r=".3"/>
  <circle class="st1" cx="-205.7" cy="370.6" r=".3"/>
  <circle class="st1" cx="-179.2" cy="425.9" r=".3"/>
  <circle class="st1" cx="-224" cy="417.6" r=".3"/>
  <circle class="st1" cx="-200.5" cy="422" r=".3"/>
  <circle class="st1" cx="-217" cy="417.3" r=".3"/>
  <circle class="st1" cx="-214.1" cy="422.1" r=".3"/>
  <circle class="st1" cx="-192.6" cy="419.1" r=".3"/>
  <circle class="st1" cx="-180.7" cy="412.4" r=".3"/>
  <circle class="st1" cx="-171.8" cy="416.5" r=".3"/>
  <circle class="st1" cx="-168.7" cy="418.5" r=".3"/>
  <circle class="st1" cx="-168.2" cy="413.1" r=".3"/>
  <circle class="st1" cx="-212.8" cy="405.6" r=".3"/>
  <circle class="st1" cx="-212.7" cy="413.3" r=".5"/>
  <circle class="st1" cx="-210" cy="419" r=".4"/>
  <circle class="st1" cx="-177.7" cy="413.1" r=".5"/>
  <circle class="st1" cx="-166" cy="412.4" r=".5"/>
  <circle class="st1" cx="-171.8" cy="410" r=".5"/>
  <circle class="st1" cx="-177.7" cy="410.2" r=".5"/>
  <path class="st1" d="M-189.8 364.3l1.1-.1-1.1-.1c0-.2-.2-.4-.4-.4l-.1-1.1-.1 1.1c-.2 0-.4.2-.4.4l-1.1.1 1.2.1c0 .2.2.3.4.4l.1 1.1.1-1.1c.1 0 .3-.2.3-.4zM-208.7 376.7l1.1-.1-1.1-.1c0-.2-.2-.4-.4-.4l-.1-1.1-.1 1.1c-.2 0-.4.2-.4.4l-1.1.1 1.2.1c0 .2.2.3.4.4l.1 1.1.1-1.1c.1 0 .3-.1.3-.4zM-166.8 409.7l1.1-.1-1.1-.1c0-.2-.2-.4-.4-.4l-.1-1.1-.1 1.1c-.2 0-.4.2-.4.4l-1.1.1 1.2.1c0 .2.2.3.4.4l.1 1.1.1-1.1c.1-.1.2-.2.3-.4zM-212.5 426.9l1.1-.1-1.1-.1c0-.2-.2-.4-.4-.4l-.1-1.1-.1 1.1c-.2 0-.4.2-.4.4l-1.1.1 1.2.1c0 .2.2.3.4.4l.1 1.1.1-1.1c.1 0 .3-.2.3-.4zM-170.4 418.5l1.1-.1-1.1-.1c0-.2-.2-.4-.4-.4l-.1-1.1-.1 1.1c-.2 0-.4.2-.4.4l-1.1.1 1.2.1c0 .2.2.3.4.4l.1 1.1.1-1.1c.1 0 .3-.2.3-.4z"/>
  <path d="M-188.9 387.4c-4.7 1.8-9.2 3.4-13.1 4.6-7.8 2.4-29.2 9.1-42.1 17.4l1.1.4c7.9-4.4 13-5.8 17.9-7.4 5.3-1.7 22.6-5.7 30.4-7.9 2.6-.7 5.7-1.7 9-2.9-.8-1.1-1.6-2.1-2.4-3.2-.3-.3-.5-.7-.8-1zm5.7 7.8c-1.1.8-2.1 1.4-2.7 1.8-3.8 2.2-22.6 15-26.8 17.9s-16.1 14.1-19.6 17.3l-.1 1.3c11.2-10.1 14.7-12.6 19.2-16 5.5-4.2 16.9-12 20.8-14.5 3.7-2.4 7.1-4.6 10.1-6.6 0-.1-.1-.2-.1-.2-.4-.2-.6-.6-.8-1zm17.5-18.5c-5.5 3.2-14.1 7.1-22.4 10.4.2.2.4.5.6.7.9 1.2 1.8 2.4 2.6 3.5 6.6-2.4 13.8-5.7 19.5-9.6-2.7 2.6-11.7 9.3-17.2 13.1.3.5.6.9.8 1.4 8.3-5.6 13.9-9.7 17.2-12.4 4.5-3.8 14.8-12.2 18.7-23.6-6.9 8.7-15 13.7-19.8 16.5z" fill="#fc3d21"/>
  <path class="st1" d="M-203.6 406.9c-.9-1.1-2.1-2.6-3-3.8-1.2-1.5-2.4-3.1-3.4-4.7l-1 .3c1.3 2 2.7 3.9 4.2 5.8 1.1 1.4 2.1 2.5 2.6 3.2.1.1.3.5.6.9.3-.2.7-.4 1-.7-.4-.2-.7-.6-1-1zm6.4 5.9c-.7-.7-2.5-1.8-4.3-3.6-.4.3-.8.6-1.2.8 1.2 1.7 2.8 3.7 4.1 4.3 1.9 1 2.4-.6 1.4-1.5zm9.7-25c-10.5-13.2-23.3-20.5-28.8-16.1-4.3 3.4-2.5 13.4 3.4 23.8l.9-.3c-6-10.2-7.6-19.7-3.6-22.9 5.1-4 17.4 3.2 27.6 16.1 2.1 2.7 4 5.3 5.5 7.9 6 10 7.9 18.9 3.7 22.6-1.3 1.1-5.2 1.6-10.2-.7-.1.1 0 .3.1.4 4.4 1.8 8.6 2.4 10.7.8 5.1-4.1 1.2-18.4-9.3-31.6z"/>
  <path class="st3" d="M-232.5 389.4h6.7l5.6 9.6v-7.5c0-.8-1.1-1.9-1.4-2.1h4.7c-.3.1-1.2 1.2-1.2 2.1v11c0 .7 1 1.6 1.4 2h-6.5l-5.7-9.6v7.6c0 .8.7 1.5 1.5 2.1h-4.9c.7-.3 1.4-1.2 1.4-2 .1-.8 0-10.4 0-10.8 0-1.1-.9-1.8-1.6-2.4zM-171.1 404.4h8.9c-.5-.1-1-.7-1.3-1.5l-5-13.6h-3.4c-1 .7-2 1.4-3.1 2.2v.1c-.1.9-2.8 10.5-3 11-.2.7-1.4 1.4-1.8 1.8h4.8c-.5-.5-.9-1.1-.8-1.7.1-.6.4-1.8.4-1.8h5c.2.6.4 1.1.5 1.7 0 .7-.6 1.3-1.2 1.8zm-3.9-5.3l1.7-5.5 2.2 5.5h-3.9zm-.7-9.2c.2-.2.5-.4.7-.5h-1.3c.1.1.3.3.6.5zM-209.9 402.8c.1-.6.4-1.8.4-1.8h5c.2.6.4 1.1.5 1.7s-.5 1.3-1.1 1.8h7.9c.2-.1.3-.2.5-.3-.3-.3-.6-.7-.8-1.2l-5-13.6h-7.8c.4.3 1.5 1.3 1.3 2.3-.1.9-2.8 10.5-3 11-.2.7-1.4 1.4-1.8 1.8h4.8c-.6-.6-1-1.1-.9-1.7zm2.4-9.2l2.2 5.5h-3.9l1.7-5.5zM-182.8 396.8c-1.5 1-3 2-4.6 3.1.7.4 1.3.8 1.4 1.4.1 1.1-2.1 1.6-4 1.4-.4 0-.8-.1-1.1-.3-.4.3-.8.5-1.2.8s-.9.6-1.5 1v1.6c.4-.8 1.2-1.5 1.9-1.5.3 0 1.3.9 5.4.7 2-.1 5.8-2.2 5.7-4.7-.2-1.5-1-2.6-2-3.5zm-11.2 3.8v1.6c.4-.2.7-.5 1.1-.7-.6-.4-1-.8-1.1-.9zm9.9-4.7c-.4-.2-.8-.4-1.1-.6-1.9-.9-3.9-1.1-4.3-2.3-.3-.9.5-1.6 2.6-1.6 2 0 3.9 1.2 4.4 1.7v-3.9c-.2.1-.8.9-1.4.8-1.2-.2-3.1-.6-5.4-.5-2.6 0-4.8 2-4.9 4.5-.1 3.5 2.7 4.5 4.3 5 .2.1.4.1.6.2 1.5-1 2.7-1.8 3.4-2.2.4-.3 1-.7 1.8-1.1z"/>
  <g>
    <path class="st1" d="M-220.77 383h-3.44c-1.68-.06-1.93.41-.75 1.41 2.11 1.9 3.15 3.73 3.11 5.52s-1.07 2.85-3.1 3.2h-7.52v-4.3h2.98c1.84.05 2.07-.47.7-1.58-2.27-2.13-3.23-4.1-2.9-5.88s1.41-2.68 3.21-2.68h7.7v4.3z"/>
    <path class="st1" d="M-220.78 393.13v-14.44h9.19c1.13.1 2.07.4 2.81.9.74.5 1.27 1.18 1.59 2.06.28 1.07.4 1.87.35 2.4a6.8 6.8 0 0 1-.32 1.5c-.15.47-.58 1-1.29 1.62a5.44 5.44 0 0 1-2.81 1.19h-4.42v4.77h-5.1zm5.1-10.84v2.66h3.56c.19 0 .4-.07.61-.21.23-.15.34-.51.36-1.09-.04-.55-.17-.92-.4-1.1-.23-.17-.43-.26-.58-.26h-3.55zM-207.48 393.13l4.65-14.44h7l4.73 14.44h-5.34l-.9-2.6h-4.18l-.9 2.6h-5.06zm8.16-11.24l-2.02 5.72h3.9l-1.88-5.72zM-181.8 388.83h4.42v4.3h-6.25c-1.54 0-2.92-.28-4.16-.84a6.62 6.62 0 0 1-2.93-2.5 7.42 7.42 0 0 1-1.07-4.09c0-1.13.22-2.14.64-3.03s1.02-1.63 1.78-2.22a7.76 7.76 0 0 1 2.6-1.32c.98-.3 2.03-.44 3.14-.44h6.25v4.3h-4.42c-.99 0-1.72.03-2.2.1-.47.05-.9.15-1.27.3-.37.13-.7.37-.98.72-.3.35-.46.96-.5 1.84.03.85.2 1.46.5 1.83.3.37.66.6 1.09.73.43.12.87.2 1.33.25.46.05 1.13.07 2.03.07zM-176.8 393.13v-14.44h12.11v4.3h-7.5v1.66h4.84v2.52h-4.85v1.66h8.7v4.3h-13.3zM-233.85 408.43V394h12.1v4.3h-7.5v1.66h4.84v2.51h-4.85v5.96h-4.6zM-205.15 401.3c0 1.57-.32 2.92-.97 4.03a6.07 6.07 0 0 1-2.8 2.51c-1.22.56-2.68.84-4.37.84-1.7 0-3.15-.28-4.37-.84a5.96 5.96 0 0 1-2.76-2.5 8.09 8.09 0 0 1-.94-4.05c0-1.2.18-2.26.54-3.18.36-.92.88-1.69 1.57-2.31a6.85 6.85 0 0 1 2.54-1.43c1-.32 2.14-.48 3.42-.48 1.68 0 3.14.28 4.36.85a6.15 6.15 0 0 1 2.81 2.52 7.9 7.9 0 0 1 .97 4.03zm-11.2.03c0 .93.2 1.74.62 2.42.4.69 1.2 1.03 2.4 1.03.93 0 1.62-.18 2.08-.54.46-.36.75-.77.86-1.23a5.22 5.22 0 0 0-.43-4.1c-.39-.69-1.23-1.03-2.5-1.03-2.02 0-3.03 1.15-3.03 3.45zM-204.48 408.43V394h9.2c1.13.1 2.06.41 2.79.92a4.4 4.4 0 0 1 1.6 2.04c.26 1.28.28 2.26.04 2.96a3.7 3.7 0 0 1-1.23 1.74c-.59.46-1.43.83-2.52 1.1l1.05 1.37h4.23v4.3h-5.58l-4.47-4.77v4.77h-5.1zm5.1-10.83v2.66h3.56c.2 0 .4-.08.62-.22.22-.14.34-.5.35-1.08-.03-.56-.16-.92-.4-1.1-.22-.17-.42-.26-.58-.26h-3.54z"/>
    <path class="st1" d="M-179.82 404.13h4.42v4.3h-6.26c-1.53 0-2.92-.28-4.15-.83-1.24-.56-2.22-1.4-2.93-2.5s-1.07-2.48-1.07-4.1c0-1.13.21-2.14.64-3.03a6.13 6.13 0 0 1 1.77-2.22 7.76 7.76 0 0 1 2.6-1.32c.99-.29 2.03-.43 3.14-.43h6.26v4.3h-4.42c-1 0-1.72.03-2.2.09-.48.06-.9.16-1.27.3-.37.14-.7.38-.99.73s-.45.95-.5 1.83c.03.86.2 1.47.5 1.83.3.37.67.61 1.1.73.43.12.87.2 1.33.25s1.13.07 2.03.07zM-174.82 408.43V394h12.1v4.3h-7.5v1.66h4.85v2.51h-4.85v1.66h8.7v4.3h-13.3z"/>
  </g>
  <g>
    <path class="st1" d="M-212.56 430.27v-4.1h2.62c.32.03.59.11.8.25.21.14.36.34.45.59.08.3.12.53.1.68s-.04.3-.09.43a1.2 1.2 0 0 1-.36.46c-.2.17-.47.29-.8.34h-1.26v1.35h-1.46zm1.46-3.08v.76h1.01c.05 0 .11-.02.17-.06.07-.04.1-.15.1-.31s-.04-.26-.1-.31c-.07-.05-.13-.08-.17-.08h-1.01zM-208.38 430.27v-4.1h3.44v1.22h-2.13v.47h1.38v.72h-1.38v.47h2.47v1.22h-3.78z"/>
    <path class="st1" d="M-202.2 428.53l-.42 1.74h-1.3l-1.23-4.1h1.3l.56 1.77.47-1.77h1.2l.57 1.77.37-1.77h1.3l-1 4.1h-1.3l-.52-1.74zM-199.5 429.2v-1.02h1.6v1.02h-1.6zM-197.48 430.27v-4.1h2.62c.32.03.59.11.8.25.2.14.36.34.45.59.08.3.11.53.1.68s-.05.3-.1.43-.16.28-.36.46c-.2.17-.47.29-.8.34h-1.26v1.35h-1.45zm1.45-3.08v.76h1.02c.05 0 .1-.02.17-.06.06-.04.1-.15.1-.31s-.05-.26-.11-.31c-.07-.05-.12-.08-.17-.08h-1zM-193.3 430.27v-4.1h3.44v1.22H-192v.47h1.38v.72H-192v.47h2.48v1.22h-3.78z"/>
    <path class="st1" d="M-187.12 428.53l-.42 1.74h-1.31l-1.23-4.1h1.31l.55 1.77.48-1.77h1.2l.56 1.77.38-1.77h1.3l-1 4.1h-1.31l-.51-1.74z"/>
  </g>
</svg>
