<?xml version="1.0" encoding="utf-8"?>
<!-- Generator: Adobe Illustrator 19.0.0, SVG Export Plug-In . SVG Version: 6.00 Build 0)  -->
<svg version="1.1" id="background" xmlns="http://www.w3.org/2000/svg" xmlns:xlink="http://www.w3.org/1999/xlink" x="0px" y="0px"
	 viewBox="0 0 620 620" enable-background="new 0 0 620 620" xml:space="preserve">
<g>
	<g>
		<path fill="#05030B" d="M580.337,402.977c0.243-0.933,0.66-1.707,1.251-2.359c-0.618,1.531-1.234,3.062-1.844,4.596
			C579.942,404.469,580.142,403.724,580.337,402.977z"/>
		<path fill="#344648" d="M416.268,49.226c2.526,3.482,5.827,5.913,9.909,7.422c11.246,4.155,22.111,9.19,32.409,15.467
			c4.116,2.509,4.239,2.933,0.413,5.864c-2.701,2.069-5.524,3.969-8.277,5.968c-1.694,1.23-3.618,1.809-5.601,2.256
			c-4.993,1.127-9.999,2.2-14.972,3.419c-2.745,0.673-2.974,1.471-0.915,3.485c6.407,6.269,12.757,12.659,21.561,15.39
			c7.448,2.31,13.06,6.56,15.514,14.614c0.831,2.726,2.462,5.202,3.831,7.733c0.965,1.784,0.876,3.353-0.306,5.006
			c-2.158,3.017-4.224,6.103-6.349,9.145c-1.054,1.509-2.407,2.584-4.202,3.048c-4.436,1.147-8.868,2.312-13.29,3.516
			c-2.326,0.634-4.179-0.018-5.818-1.778c-2.223-2.387-4.565-4.655-6.813-7.018c-1.341-1.41-2.882-1.84-4.76-1.479
			c-5.42,1.04-10.867,1.931-16.272,3.047c-3.481,0.718-3.774,1.658-1.864,4.774c0.357,0.582,0.842,1.085,1.164,1.684
			c2.125,3.96,5.297,5.38,9.697,4.885c6.122-0.688,11.868,0.765,17.574,3.238c9.505,4.12,19.259,7.637,28.89,11.457
			c6.54,2.594,13.42,3.901,20.218,5.454c5.956,1.361,11.579,3.36,16.833,6.542c3.115,1.887,6.355,3.558,9.562,5.282
			c2.049,1.102,2.909,2.794,2.469,5.122c-0.72,3.806-1.496,7.6-2.258,11.398c-0.419,2.09-1.988,2.823-3.743,3.328
			c-5.443,1.567-10.851,3.292-16.342,4.647c-3.339,0.824-5.581,2.556-6.633,5.916c-0.082,0.262-0.206,0.516-0.344,0.752
			c-4.436,7.524-6.748,15.696-6.914,24.45c-0.082,4.337-2.119,6.352-5.974,8.135c-11.672,5.399-23.945,7.203-36.461,7.969
			c-7.528,0.461-14.334,3.54-21.329,5.964c-0.194,0.067-0.298,0.418-0.615,0.892c2.545,1.359,5.36,1.659,8.021,2.057
			c10.155,1.518,19.987,4.178,29.366,8.382c6.56,2.94,13.572,3.505,20.475,3.909c7.669,0.448,13.889,3.489,19.701,8.193
			c4.42,3.577,5.344,2.572,2.538,9.36c-4.923,11.91-2.19,8.848-13.04,13.406c-10.248,4.305-20.794,7.624-31.423,10.681
			c-3.451,0.992-6.502,2.548-9.188,4.991c-1.512,1.376-3.092,2.712-4.789,3.825c-7.026,4.603-11.697,11.342-16.113,18.366
			c-1.356,2.157-1.756,4.271-0.966,6.683c0.471,1.438,0.727,2.953,1.22,4.381c3.266,9.456,4.398,19.337,5.429,29.247
			c0.306,2.941-0.053,5.801-0.687,8.648c-0.391,1.756-0.704,3.55-1.305,5.233c-2.693,7.54-1.362,15.022-0.048,22.532
			c0.363,2.072,1.586,3.456,3.017,4.729c3.445,3.065,6.845,6.189,10.395,9.121c2.508,2.072,3.416,4.621,3.603,7.885
			c0.385,6.748-1,13.16-2.554,19.65c-2.012,8.401-2.574,6.421,3.236,12.566c6.552,6.931,13.585,13.293,20.958,19.27
			c0.21,0.171,0.417,0.346,0.625,0.52c3.835,3.221,3.777,3.675-0.887,5.933c-3.657,1.77-7.273,3.654-11.019,5.197
			c-3.59,1.479-6.092,3.807-7.58,7.532c-1.432,3.586-3.179,7.043-4.837,10.532c-0.889,1.87-0.946,3.647-0.118,5.575
			c2.55,5.933,4.948,11.926,8.738,17.199c1.299,1.807,2.717,3.346,4.518,4.613c1.482,1.043,2.949,2.106,4.414,3.175
			c-1.71,1.173-3.426,2.338-5.148,3.492c-2.841,1.903-5.878,3.549-8.943,5.077c-9.032,4.505-18.059,9.03-27.219,13.265
			c-3.944,1.823-8.191,3.003-12.331,4.385c-8.084,2.699-16.171,5.394-24.298,7.962c-2.662,0.842-5.441,1.332-8.183,1.904
			c-7.928,1.654-15.867,3.253-23.796,4.902c-5.483,1.141-11.03,1.618-16.591,1.913c-2.302,0.122-4.606,0.213-6.91,0.307
			c-13.934,0.563-27.815-0.815-41.721-1.304c-0.685-0.024-1.359-0.352-2.038-0.538c-2.262-0.387-4.524-0.772-6.787-1.157
			c2.834-0.061,5.669-0.14,8.501-0.068c7.017,0.177,13.48-1.706,19.723-4.752c7.357-3.589,14.798-7.008,22.187-10.533
			c1.089-0.519,2.331-0.812,3.455-2.168c-5.719-1.703-11.604-1.514-17.023-3.178c-0.348-1.312,0.601-1.756,1.231-2.293
			c2.987-2.546,6.016-5.042,9.03-7.556c1.139-0.951,2.499-1.482,3.848-2.039c3.835-1.583,7.683-3.139,11.491-4.786
			c1.259-0.545,3.005-0.782,2.834-2.787c-0.151-1.768-1.782-3.388-3.853-3.632c-3.117-0.367-6.255-0.551-9.382-0.83
			c-1.539-0.137-3.13-0.033-4.517-0.776c-0.339-1.214,0.61-1.441,1.221-1.794c3.69-2.132,7.368-4.288,11.124-6.299
			c3.378-1.809,7.156-1.692,10.839-1.846c3.228-0.135,6.442-0.244,9.494-1.15c0.269-1.289-0.655-1.544-1.267-1.906
			c-3.67-2.165-7.368-4.283-11.065-6.402c-0.484-0.278-0.993-0.559-1.527-0.693c-6.849-1.727-13.702-3.441-20.562-5.126
			c-1.466-0.36-2.891,0.096-4.31,0.437c-4.252,1.021-8.505,2.037-12.758,3.049c-0.431,0.103-0.876,0.257-1.446-0.241
			c0.724-1.26,1.968-2.021,3.15-2.753c7.046-4.36,13.029-9.838,17.934-16.531c2.089-2.851,4.83-4.859,8.23-6.128
			c9.365-3.496,18.405-7.7,26.966-12.904c3.422-2.08,3.522-2.426,0.311-4.756c-2.267-1.646-4.634-3.153-6.944-4.741
			c-1.422-0.977-3.031-1.424-4.688-1.764c-4.175-0.856-8.36-1.668-12.518-2.599c-2.296-0.514-2.491-1.158-0.784-2.814
			c5.312-5.153,10.576-10.404,17.91-12.718c6.205-1.957,10.865-5.466,12.867-12.02c0.678-2.219,2.026-4.244,3.154-6.31
			c0.795-1.456,0.712-2.727-0.284-4.053c-1.819-2.42-3.561-4.897-5.353-7.338c-0.888-1.211-2.024-2.066-3.525-2.421
			c-3.71-0.879-7.417-1.772-11.115-2.697c-1.945-0.487-3.488,0.063-4.847,1.508c-1.842,1.96-3.784,3.824-5.647,5.765
			c-1.112,1.158-2.395,1.524-3.965,1.253c-4.531-0.781-9.083-1.44-13.602-2.282c-2.91-0.542-3.16-1.301-1.584-3.847
			c0.294-0.476,0.697-0.889,0.962-1.378c1.751-3.233,4.391-4.42,8.067-4.07c5.115,0.487,9.902-0.756,14.652-2.825
			c7.911-3.447,16.034-6.409,24.051-9.615c5.445-2.177,11.181-3.315,16.846-4.651c4.964-1.171,9.646-2.856,14.014-5.495
			c2.59-1.565,5.285-2.956,7.952-4.39c1.704-0.917,2.413-2.297,2.032-4.179c-0.623-3.076-1.292-6.142-1.951-9.21
			c-0.362-1.689-1.676-2.264-3.143-2.654c-4.553-1.208-9.077-2.543-13.669-3.578c-2.792-0.63-4.674-2.007-5.571-4.718
			c-0.07-0.211-0.174-0.416-0.292-0.605c-3.747-6.046-5.723-12.642-5.912-19.733c-0.094-3.513-1.805-5.123-5.033-6.523
			c-9.775-4.241-20.031-5.563-30.483-6.039c-6.287-0.287-11.986-2.705-17.84-4.589c-0.163-0.052-0.251-0.335-0.519-0.716
			c2.117-1.131,4.465-1.406,6.684-1.759c8.469-1.346,16.661-3.615,24.466-7.128c5.46-2.458,11.31-2.996,17.07-3.402
			c6.399-0.451,11.575-2.986,16.399-6.865c3.669-2.949,4.446-2.145,2.065-7.614c-4.178-9.594-1.879-7.145-10.963-10.713
			c-8.58-3.371-17.403-5.94-26.293-8.294c-2.887-0.765-5.443-1.99-7.699-3.939c-1.27-1.098-2.596-2.162-4.02-3.044
			c-5.891-3.649-9.83-9.056-13.556-14.697c-1.145-1.732-1.491-3.441-0.845-5.404c0.385-1.17,0.59-2.401,0.993-3.564
			c2.672-7.7,3.561-15.72,4.364-23.762c0.238-2.387-0.078-4.7-0.623-7c-0.336-1.418-0.608-2.869-1.119-4.225
			c-2.292-6.079-1.223-12.157-0.169-18.258c0.291-1.684,1.304-2.819,2.491-3.867c2.858-2.523,5.679-5.093,8.625-7.51
			c2.082-1.708,2.825-3.784,2.962-6.43c0.283-5.473-0.91-10.652-2.245-15.893c-1.728-6.785-2.186-5.173,2.629-10.22
			c5.43-5.691,11.264-10.927,17.385-15.855c0.175-0.14,0.347-0.285,0.519-0.428c3.183-2.654,3.132-3.021-0.774-4.797
			c-3.063-1.392-6.093-2.877-9.228-4.085c-3.006-1.158-5.108-3.016-6.371-6.017c-1.216-2.89-2.694-5.671-4.098-8.479
			c-0.753-1.505-0.811-2.945-0.13-4.516c2.094-4.837,4.062-9.72,7.196-14.037c1.074-1.479,2.249-2.742,3.745-3.79
			c3.398-2.379,6.709-4.884,10.103-7.268c1.601-1.125,2.409-2.574,2.49-4.509c0.094-2.24,0.253-4.478,0.388-6.717
			c0.106-1.761-0.716-2.745-2.462-2.976c-1.223-0.162-2.44-0.37-3.666-0.503c-10.04-1.094-19.993-2.778-29.952-4.416
			c-1.145-0.188-2.774,0.085-3.172-1.357c-0.339-1.23,1.082-1.817,1.821-2.603c1.382-1.47,2.803-2.905,4.239-4.324
			c1.215-1.201,1.398-2.49,0.486-3.935c-0.06-0.095-0.098-0.204-0.162-0.294c-2.986-4.213-4.561-8.898-5.062-14.041
			c-0.237-2.431-0.955-2.96-3.553-3.216c-8.701-0.858-17.384-1.991-26.155-1.937c-1.742,0.011-3.485-0.098-5.538-0.161
			c0.966-1.462,2.156-1.555,3.153-1.925c3.889-1.445,7.84-2.732,11.697-4.256c2.983-1.179,6.032-1.613,9.203-1.652
			c3.585-0.043,7.17-0.197,10.752-0.356c0.724-0.032,1.579,0.137,2.107-0.638c-0.233-0.667-0.849-0.676-1.356-0.832
			c-12.955-3.98-13.005-4.154-26.118-0.467c-7.924,2.228-16.068,3.033-24.097,4.554c-6.855,1.298-13.867,0.713-20.799,1.172
			c-0.648,0.043-1.465,0.238-1.829-0.469c-0.501-0.973,0.417-1.4,1.006-1.838c6.657-4.953,13.25-9.994,20.576-13.975
			c1.274-0.693,3.563-1.022,3.222-2.855c-0.055-0.298-0.2-0.52-0.4-0.695c0.666-0.042,1.331-0.087,1.995-0.145
			c7.662-0.665,15.309-1.561,22.983-2.024c4.129-0.25,8.302,0.156,12.453,0.342c8.409,0.377,16.831,0.608,25.216,1.292
			c4.747,0.387,9.433,1.533,14.141,2.369c3.973,0.705,7.928,1.483,11.87,2.314c10.566,2.227,21.036,4.86,31.464,7.662
			C404.809,35.988,411.038,42.016,416.268,49.226z"/>
		<path fill="#587579" d="M274.654,22.796c-7.325,3.981-13.919,9.022-20.576,13.975c-0.589,0.438-1.507,0.865-1.006,1.838
			c0.364,0.708,1.181,0.512,1.829,0.469c6.932-0.458,13.944,0.127,20.799-1.172c8.029-1.521,16.173-2.325,24.097-4.554
			c13.113-3.688,13.163-3.514,26.118,0.467c0.507,0.156,1.123,0.165,1.356,0.832c-0.528,0.774-1.384,0.606-2.107,0.638
			c-3.582,0.159-7.167,0.312-10.752,0.356c-3.171,0.039-6.221,0.473-9.203,1.652c-3.857,1.524-7.807,2.811-11.697,4.256
			c-0.997,0.37-2.187,0.463-3.153,1.925c2.053,0.063,3.796,0.172,5.538,0.161c8.771-0.055,17.454,1.079,26.155,1.937
			c2.598,0.256,3.316,0.785,3.553,3.216c0.501,5.144,2.076,9.829,5.062,14.041c0.064,0.091,0.103,0.2,0.162,0.294
			c0.913,1.445,0.729,2.735-0.486,3.935c-1.436,1.418-2.857,2.853-4.239,4.324c-0.739,0.786-2.16,1.373-1.821,2.603
			c0.398,1.442,2.026,1.168,3.172,1.357c9.959,1.638,19.912,3.323,29.952,4.416c1.226,0.133,2.443,0.341,3.666,0.503
			c1.746,0.231,2.568,1.215,2.462,2.976c-0.135,2.239-0.294,4.477-0.388,6.717c-0.081,1.935-0.889,3.385-2.49,4.509
			c-3.395,2.384-6.705,4.889-10.103,7.268c-1.496,1.047-2.671,2.311-3.745,3.79c-3.134,4.316-5.101,9.2-7.196,14.037
			c-0.681,1.572-0.622,3.011,0.13,4.516c1.404,2.808,2.882,5.589,4.098,8.479c1.263,3.001,3.365,4.859,6.371,6.017
			c3.135,1.207,6.165,2.692,9.228,4.085c3.906,1.776,3.957,2.143,0.774,4.797c-0.172,0.144-0.344,0.288-0.519,0.428
			c-6.121,4.928-11.955,10.164-17.385,15.855c-4.815,5.046-4.357,3.435-2.629,10.22c1.335,5.241,2.528,10.421,2.245,15.893
			c-0.137,2.646-0.88,4.723-2.962,6.43c-2.946,2.417-5.767,4.987-8.625,7.51c-1.187,1.048-2.2,2.183-2.491,3.867
			c-1.054,6.101-2.123,12.179,0.169,18.258c0.511,1.357,0.783,2.807,1.119,4.225c0.545,2.3,0.862,4.613,0.623,7
			c-0.804,8.042-1.692,16.062-4.364,23.762c-0.403,1.163-0.608,2.393-0.993,3.564c-0.646,1.963-0.3,3.672,0.845,5.404
			c3.727,5.641,7.665,11.048,13.556,14.697c1.424,0.882,2.75,1.947,4.02,3.044c2.256,1.949,4.812,3.175,7.699,3.939
			c8.89,2.355,17.713,4.924,26.293,8.294c9.084,3.569,6.785,1.119,10.963,10.713c2.381,5.468,1.604,4.664-2.065,7.614
			c-4.824,3.878-10,6.413-16.399,6.865c-5.76,0.406-11.61,0.944-17.07,3.402c-7.806,3.514-15.998,5.782-24.466,7.128
			c-2.219,0.353-4.568,0.628-6.684,1.759c0.267,0.381,0.356,0.664,0.519,0.716c5.854,1.884,11.553,4.302,17.84,4.589
			c10.453,0.477,20.708,1.798,30.483,6.039c3.228,1.4,4.94,3.01,5.033,6.523c0.189,7.091,2.165,13.687,5.912,19.733
			c0.117,0.19,0.222,0.394,0.292,0.605c0.897,2.711,2.779,4.088,5.571,4.718c4.592,1.035,9.116,2.371,13.669,3.578
			c1.467,0.389,2.781,0.965,3.143,2.654c0.658,3.068,1.328,6.134,1.951,9.21c0.381,1.881-0.327,3.262-2.032,4.179
			c-2.667,1.434-5.362,2.826-7.952,4.39c-4.368,2.639-9.051,4.323-14.014,5.495c-5.666,1.336-11.401,2.474-16.846,4.651
			c-8.017,3.206-16.14,6.168-24.051,9.615c-4.749,2.069-9.537,3.312-14.652,2.825c-3.676-0.35-6.316,0.837-8.067,4.07
			c-0.265,0.489-0.667,0.902-0.962,1.378c-1.577,2.547-1.327,3.305,1.584,3.847c4.519,0.842,9.071,1.502,13.602,2.282
			c1.57,0.271,2.854-0.095,3.965-1.253c1.862-1.941,3.805-3.805,5.647-5.765c1.358-1.445,2.901-1.995,4.847-1.508
			c3.698,0.925,7.405,1.818,11.115,2.697c1.501,0.355,2.636,1.211,3.525,2.421c1.792,2.441,3.534,4.918,5.353,7.338
			c0.996,1.325,1.079,2.596,0.284,4.053c-1.128,2.066-2.476,4.091-3.154,6.31c-2.002,6.554-6.662,10.063-12.867,12.02
			c-7.334,2.314-12.598,7.565-17.91,12.718c-1.707,1.656-1.512,2.3,0.784,2.814c4.158,0.931,8.343,1.743,12.518,2.599
			c1.657,0.34,3.267,0.787,4.688,1.764c2.31,1.587,4.677,3.095,6.944,4.741c3.21,2.331,3.111,2.676-0.311,4.756
			c-8.561,5.204-17.601,9.409-26.966,12.904c-3.399,1.269-6.141,3.277-8.23,6.128c-4.905,6.693-10.888,12.171-17.934,16.531
			c-1.182,0.732-2.426,1.493-3.15,2.753c0.57,0.498,1.015,0.344,1.446,0.241c4.254-1.013,8.507-2.028,12.758-3.049
			c1.419-0.341,2.844-0.797,4.31-0.437c6.86,1.685,13.712,3.398,20.562,5.126c0.534,0.135,1.044,0.416,1.527,0.693
			c3.697,2.119,7.395,4.237,11.065,6.402c0.613,0.361,1.536,0.616,1.267,1.906c-3.052,0.907-6.266,1.016-9.494,1.15
			c-3.683,0.154-7.462,0.037-10.839,1.846c-3.756,2.011-7.435,4.167-11.124,6.299c-0.611,0.353-1.559,0.58-1.221,1.794
			c1.387,0.743,2.978,0.639,4.517,0.776c3.127,0.279,6.265,0.462,9.382,0.83c2.071,0.244,3.702,1.864,3.853,3.632
			c0.171,2.005-1.575,2.242-2.834,2.787c-3.808,1.647-7.655,3.203-11.491,4.786c-1.349,0.557-2.709,1.088-3.848,2.039
			c-3.014,2.515-6.043,5.01-9.03,7.556c-0.631,0.537-1.579,0.982-1.231,2.293c5.419,1.664,11.304,1.476,17.023,3.178
			c-1.124,1.356-2.367,1.648-3.455,2.168c-7.389,3.524-14.83,6.944-22.187,10.533c-6.244,3.046-12.706,4.929-19.723,4.752
			c-2.833-0.072-5.667,0.007-8.501,0.068c-1.963-0.334-3.926-0.669-5.889-1.004c-1.464-0.25-2.927-0.498-4.391-0.751
			c-2.202-0.38-4.403-0.763-6.603-1.153c-4.918-0.871-9.871-1.64-14.702-2.871c-3.893-0.992-7.627-2.608-11.432-3.947
			c-4.599-1.788-9.199-3.575-13.798-5.363c-0.283-0.121-0.567-0.241-0.85-0.362c-0.043-0.013-0.087-0.025-0.13-0.038
			c-0.332-0.097-0.663-0.194-0.995-0.29c-0.187-0.076-0.374-0.154-0.561-0.232c-0.459-0.176-0.918-0.351-1.377-0.527
			c-1.568-0.465-3.159-0.865-4.698-1.409c-2.77-0.98-5.532-1.987-8.272-3.049c8.636,1.161,17.321,1.796,26.076,1.721
			c2.039-0.018,4.024-0.173,5.9-1.071c7.387-3.533,14.88-6.823,22.531-9.746c0.506-0.193,1.066-0.368,1.369-1.146
			c-0.915-0.791-2.053-0.488-3.086-0.449c-3.808,0.146-7.614,0.338-11.419,0.545c-2.399,0.131-4.671-0.221-6.846-1.318
			c-3.103-1.565-6.263-3.017-9.382-4.552c-0.982-0.484-2.051-0.869-2.789-1.68c0.313-1.147,1.219-1.041,1.937-1.188
			c9.44-1.943,18.886-3.853,28.323-5.809c2.115-0.438,4.248-0.228,6.37-0.338c3.581-0.187,7.175-0.382,10.754-0.275
			c3.982,0.119,7.53-0.672,10.558-3.418c1.387-1.258,3.146-2.095,4.3-3.555c-0.421-1.179-1.329-0.961-2.04-0.945
			c-10.679,0.229-21.288-0.449-31.804-2.379c-7.714-1.416-15.43-0.485-23.131,0.073c-3.287,0.238-6.245-0.028-8.706-2.482
			c-0.892-0.89-1.816-1.674-1.584-3.124c0.268-1.673-0.772-1.858-2.057-1.738c-2.574,0.24-5.098,0.752-7.626,1.274
			c-2.083,0.43-4.195,0.717-6.299,1.038c-1.68,0.256-2.845-0.462-3.433-2.03c-0.786-2.099-1.595-4.197-2.239-6.341
			c-0.604-2.012-0.208-2.688,1.816-3.132c1.858-0.408,3.754-0.686,5.648-0.877c3.802-0.382,7.529-1.152,11.262-1.927
			c1.718-0.357,3.122-1.196,4.47-2.216c3.218-2.437,6.491-4.807,9.625-7.348c2.528-2.049,5.327-3,8.538-3.523
			c12.714-2.071,25.558-3.429,38.09-6.513c5.22-1.285,10.333-3.003,15.492-4.535c0.421-0.125,0.858-0.268,1.159-0.926
			c-0.614-1.113-1.945-1.177-3.01-1.618c-9.061-3.749-18.489-6.3-28.155-7.714c-5.125-0.75-8.437-3.823-11.838-7.081
			c-1.12-1.072-1.05-2.202,0.042-3.207c5.409-4.975,9.975-10.976,17.262-13.642c3.147-1.152,6.098-2.833,9.164-4.218
			c1.723-0.778,2.919-1.974,3.691-3.711c1.23-2.766,2.642-5.451,3.835-8.231c0.809-1.885,0.392-2.581-1.634-2.476
			c-3.242,0.168-6.47,0.614-9.702,0.958c-10.321,1.098-7.092,1.879-16.388-3.436c-1.947-1.113-3.912-2.201-5.795-3.416
			c-1.752-1.131-1.845-2.008-0.182-2.992c5.774-3.417,11.129-7.601,17.649-9.669c6.088-1.931,11.858-4.823,18.135-6.167
			c4.928-1.055,9.895-1.942,14.86-2.815c2.441-0.43,4.789-1.098,7.13-1.909c11.585-4.013,22.635-9.159,33.316-15.17
			c2.848-1.603,5.131-3.48,6.654-6.371c1.044-1.98,2.381-3.804,3.442-5.776c0.7-1.301,0.258-1.906-1.236-1.818
			c-1.226,0.073-2.461,0.256-3.657,0.542c-10.883,2.603-21.98,2.871-33.083,3.072c-2.64,0.048-3.121-0.339-4.178-2.966
			c-2.558-6.359-4.517-12.915-6.173-19.552c-0.618-2.478-1.837-4.211-4.027-5.462c-3.015-1.723-5.763-3.873-8.802-5.582
			c-1.815-1.021-3.489-1.251-5.437-0.556c-3.695,1.32-7.427,2.534-11.15,3.774c-0.849,0.283-1.71,0.565-2.588,0.722
			c-1.328,0.238-1.997-0.479-1.725-1.725c0.357-1.635,1.067-3.194,1.417-4.831c1.345-6.297,4.614-11.272,9.751-15.165
			c2.402-1.82,4.535-4.009,6.704-6.119c1.421-1.383,3.16-2.092,4.943-2.772c10.478-3.998,21.042-7.757,31.672-11.329
			c5.188-1.743,5.1-1.862,2.621-6.667c-3.754-7.275-8.875-13.422-14.671-19.11c-1.752-1.719-3.507-2.55-5.994-2.07
			c-4.841,0.933-9.725,1.634-14.573,2.535c-2.339,0.435-4.442,0.101-6.417-1.207c-10.27-6.799-21.565-11.413-33.107-15.494
			c-1.633-0.577-3.009-1.45-4.115-2.788c-1.358-1.642-2.715-3.288-4.154-4.858c-1.413-1.542-1.5-3.099-0.54-4.913
			c1.73-3.271,3.362-6.594,5.03-9.897c0.881-1.744,2.312-3.003,3.716-4.299c2.059-1.9,4.077-3.845,6.118-5.764
			c1.171-1.102,1.493-2.271,0.145-3.429c-5.317-4.566-10.044-9.999-17.528-11.28c-2.861-0.49-5.66-1.402-8.445-2.258
			c-1.902-0.585-2.129-1.232-1.072-2.957c1.64-2.675,3.412-5.27,5.114-7.908c0.903-1.4,2.294-2.088,3.767-2.684
			c4.573-1.852,9.134-3.733,13.714-5.568c1.488-0.596,2.833-1.348,3.78-2.683c8.873-12.507,19.268-23.965,26.139-37.85
			c1.297-2.62,3.227-4.48,5.795-5.852c3.361-1.796,6.636-3.755,9.926-5.682c3.143-1.841,3.166-2.314,0.296-4.745
			c-2.481-2.102-5.01-4.146-7.466-6.276c-7.968-6.914-15.452-14.331-22.627-22.057c-1.906-2.053-4.04-3.432-6.841-3.919
			c-2.425-0.422-4.817-1.073-7.187-1.754c-1.627-0.468-1.856-1.209-0.684-2.363c2.395-2.357,4.894-4.611,7.388-6.865
			c0.848-0.766,1.962-1.055,3.05-1.353c4.433-1.216,8.85-2.498,13.302-3.642c3.185-0.818,6.155-2.001,8.84-3.947
			c2.268-1.644,4.645-3.139,6.996-4.667c1.536-0.998,2.091-2.269,1.322-4.01c-0.226-0.512-0.451-1.032-0.607-1.568
			c-0.994-3.415-2.923-5.165-6.813-5.01c-3.899,0.155-7.828-0.346-11.757-0.363c-6.686-0.03-13.075-1.918-19.493-3.478
			c-3.258-0.792-5.388-6.42-3.802-9.467c1.711-3.288,3.781-6.35,5.979-9.337c1.629-2.213,1.401-2.767-1.37-3.077
			c-10.149-1.138-20.316-1.849-30.539-1.07c-2.456,0.187-4.928,0.188-7.393,0.203c-0.769,0.005-1.598-0.083-2.295-0.378
			c-1.105-0.467-2.697-0.829-2.772-2.145c-0.088-1.532,1.659-1.59,2.734-2.002c3.978-1.526,8.001-2.933,11.992-4.425
			c2.169-0.811,4.378-0.812,6.634-0.572c4.683,0.497,9.367,0.992,14.058,1.413c2.962,0.266,6.121-2.019,6.829-4.794
			c0.166-0.652-0.071-1.146-0.676-1.314c-0.525-0.146-1.106-0.128-1.662-0.118c-11.768,0.211-23.526,0.609-35.269,1.488
			c-7.551,0.565-14.735,2.844-22.089,4.327c-7.471,1.506-14.954,2.952-22.441,4.371c-0.974,0.185-2.04,0.222-3.008,0.039
			c-0.429-0.081-0.853-0.135-1.274-0.169c5.242-3.057,10.469-6.144,15.817-9.003c2.643-1.413,5.53-2.367,8.339-3.47
			c0.266-0.105,0.532-0.208,0.797-0.316c0.888-0.512,1.729-1.144,2.672-1.516c7.744-3.052,15.532-5.99,23.253-9.095
			c5.365-2.158,11.014-3.188,16.589-4.519c0.176-0.042,0.353-0.084,0.53-0.127c4.741-1.15,9.481-2.315,14.24-3.385
			c5.164-1.16,10.318-2.426,15.539-3.253c3.329-0.527,6.729-0.596,10.11-0.807c0.2,0.175,0.345,0.397,0.4,0.695
			C278.217,21.774,275.929,22.104,274.654,22.796z"/>
		<path fill="#587579" d="M148.366,541.966c9.792,0.092,19.473,1.061,29,3.378c4.304,1.047,8.614,1.265,13.008,0.544
			c3.871-0.635,7.773-1.099,11.673-1.526c3.304-0.362,3.857,0.271,3.373,3.46c-0.467,3.079-1.071,3.602-4.134,3.501
			c-3.81-0.126-7.622-0.441-11.428-0.375c-6.876,0.12-13.231-2.179-19.709-3.922c-11.312-3.043-7.116-3.109-17.999,0.885
			c-4.127,1.515-4.176,1.948-0.981,4.989c1.971,1.876,3.961,3.734,5.944,5.598c-1.162-0.629-2.293-1.316-3.406-2.041
			c-0.196-0.128-0.391-0.259-0.586-0.388c-0.232-0.154-0.463-0.307-0.693-0.463c-1.87-1.268-3.705-2.602-5.572-3.867
			c-0.54-0.366-0.839-1.087-1.249-1.644l-0.043-0.041c-0.288-0.237-0.576-0.474-0.864-0.711l-0.207-0.018
			c0,0-0.066-0.197-0.065-0.197c-0.298-0.226-0.598-0.452-0.898-0.679l-0.043-0.036c-0.218-0.171-0.436-0.342-0.653-0.513
			l-0.042-0.032c-0.218-0.171-0.436-0.342-0.654-0.513l-0.042-0.032c-0.218-0.171-0.436-0.342-0.654-0.513l-0.041-0.032
			c-0.218-0.171-0.436-0.342-0.654-0.513l-0.041-0.032c-0.218-0.171-0.436-0.342-0.654-0.513l-0.041-0.032
			c-0.218-0.171-0.436-0.342-0.654-0.513l-0.041-0.032c-0.218-0.171-0.436-0.342-0.654-0.513l-0.041-0.032
			c-0.218-0.171-0.436-0.342-0.654-0.513l-0.041-0.034c-0.226-0.177-0.453-0.355-0.68-0.533c-1.762-1.417-3.521-2.838-5.281-4.258
			c2.458,0.64,4.917,1.276,7.374,1.917C142.304,541.947,145.346,541.937,148.366,541.966z"/>
		<path fill="#89ADB4" d="M173.872,54.867c7.487-1.419,14.97-2.865,22.441-4.371c7.354-1.483,14.538-3.762,22.089-4.327
			c11.743-0.878,23.501-1.277,35.269-1.488c0.555-0.01,1.137-0.028,1.662,0.118c0.605,0.168,0.843,0.662,0.676,1.314
			c-0.708,2.776-3.867,5.06-6.829,4.794c-4.69-0.421-9.374-0.916-14.058-1.413c-2.255-0.24-4.465-0.239-6.634,0.572
			c-3.991,1.492-8.014,2.899-11.992,4.425c-1.075,0.412-2.822,0.47-2.734,2.002c0.075,1.316,1.667,1.679,2.772,2.145
			c0.697,0.294,1.526,0.382,2.295,0.378c2.465-0.015,4.938-0.016,7.393-0.203c10.222-0.779,20.39-0.068,30.539,1.07
			c2.771,0.311,2.999,0.865,1.37,3.077c-2.199,2.987-4.268,6.049-5.979,9.337c-1.586,3.047,0.544,8.675,3.802,9.467
			c6.418,1.56,12.807,3.449,19.493,3.478c3.929,0.017,7.858,0.518,11.757,0.363c3.89-0.155,5.819,1.595,6.813,5.01
			c0.156,0.536,0.381,1.055,0.607,1.568c0.769,1.741,0.213,3.012-1.322,4.01c-2.35,1.528-4.728,3.023-6.996,4.667
			c-2.685,1.945-5.655,3.129-8.84,3.947c-4.452,1.143-8.868,2.425-13.302,3.642c-1.087,0.298-2.202,0.587-3.05,1.353
			c-2.494,2.254-4.992,4.508-7.388,6.865c-1.173,1.154-0.944,1.896,0.684,2.363c2.369,0.681,4.762,1.333,7.187,1.754
			c2.8,0.487,4.935,1.867,6.841,3.919c7.174,7.726,14.658,15.143,22.627,22.057c2.456,2.13,4.985,4.175,7.466,6.276
			c2.87,2.431,2.847,2.904-0.296,4.745c-3.29,1.927-6.565,3.885-9.926,5.682c-2.568,1.373-4.499,3.232-5.795,5.852
			c-6.872,13.885-17.266,25.343-26.139,37.85c-0.947,1.335-2.292,2.087-3.78,2.683c-4.58,1.834-9.141,3.716-13.714,5.568
			c-1.473,0.596-2.864,1.284-3.767,2.684c-1.702,2.638-3.474,5.232-5.114,7.908c-1.058,1.725-0.831,2.372,1.072,2.957
			c2.785,0.857,5.584,1.769,8.445,2.258c7.484,1.281,12.212,6.714,17.528,11.28c1.348,1.158,1.026,2.328-0.145,3.429
			c-2.041,1.92-4.059,3.864-6.118,5.764c-1.404,1.296-2.835,2.555-3.716,4.299c-1.668,3.303-3.3,6.626-5.03,9.897
			c-0.96,1.814-0.873,3.371,0.54,4.913c1.439,1.57,2.796,3.215,4.154,4.858c1.106,1.338,2.482,2.211,4.115,2.788
			c11.541,4.081,22.837,8.695,33.107,15.494c1.976,1.308,4.078,1.642,6.417,1.207c4.847-0.902,9.732-1.603,14.573-2.535
			c2.488-0.479,4.243,0.352,5.994,2.07c5.797,5.688,10.917,11.835,14.671,19.11c2.479,4.804,2.567,4.923-2.621,6.667
			c-10.63,3.572-21.194,7.331-31.672,11.329c-1.783,0.68-3.522,1.389-4.943,2.772c-2.168,2.11-4.302,4.299-6.704,6.119
			c-5.137,3.893-8.406,8.868-9.751,15.165c-0.349,1.636-1.06,3.195-1.417,4.831c-0.272,1.246,0.396,1.963,1.725,1.725
			c0.878-0.158,1.739-0.439,2.588-0.722c3.723-1.24,7.456-2.454,11.15-3.774c1.948-0.696,3.621-0.465,5.437,0.556
			c3.039,1.709,5.787,3.859,8.802,5.582c2.19,1.251,3.408,2.984,4.027,5.462c1.656,6.637,3.615,13.192,6.173,19.552
			c1.057,2.628,1.538,3.014,4.178,2.966c11.103-0.201,22.2-0.468,33.083-3.072c1.195-0.286,2.43-0.469,3.657-0.542
			c1.495-0.089,1.936,0.517,1.236,1.818c-1.061,1.972-2.398,3.796-3.442,5.776c-1.524,2.89-3.806,4.768-6.654,6.371
			c-10.682,6.012-21.731,11.157-33.316,15.17c-2.341,0.811-4.689,1.479-7.13,1.909c-4.965,0.874-9.931,1.76-14.86,2.815
			c-6.277,1.344-12.047,4.236-18.135,6.167c-6.521,2.068-11.876,6.252-17.649,9.669c-1.664,0.985-1.57,1.861,0.182,2.992
			c1.883,1.215,3.848,2.303,5.795,3.416c9.295,5.315,6.067,4.534,16.388,3.436c3.232-0.344,6.46-0.79,9.702-0.958
			c2.027-0.105,2.444,0.591,1.634,2.476c-1.194,2.78-2.606,5.465-3.835,8.231c-0.772,1.736-1.969,2.933-3.691,3.711
			c-3.065,1.385-6.016,3.067-9.164,4.218c-7.287,2.666-11.852,8.667-17.262,13.642c-1.092,1.005-1.162,2.135-0.042,3.207
			c3.401,3.258,6.714,6.332,11.838,7.081c9.666,1.414,19.094,3.965,28.155,7.714c1.065,0.441,2.396,0.505,3.01,1.618
			c-0.301,0.658-0.739,0.801-1.159,0.926c-5.159,1.531-10.272,3.25-15.492,4.535c-12.532,3.084-25.376,4.443-38.09,6.513
			c-3.211,0.523-6.011,1.474-8.538,3.523c-3.134,2.541-6.407,4.911-9.625,7.348c-1.348,1.021-2.752,1.86-4.47,2.216
			c-3.734,0.775-7.46,1.545-11.262,1.927c-1.894,0.19-3.79,0.469-5.648,0.877c-2.024,0.445-2.42,1.12-1.816,3.132
			c0.644,2.145,1.453,4.242,2.239,6.341c0.587,1.568,1.753,2.286,3.433,2.03c2.104-0.321,4.217-0.608,6.299-1.038
			c2.528-0.522,5.053-1.035,7.626-1.274c1.285-0.12,2.325,0.066,2.057,1.738c-0.232,1.45,0.692,2.234,1.584,3.124
			c2.461,2.455,5.419,2.721,8.706,2.482c7.701-0.558,15.418-1.489,23.131-0.073c10.516,1.931,21.125,2.609,31.804,2.379
			c0.711-0.015,1.619-0.234,2.04,0.945c-1.154,1.46-2.914,2.297-4.3,3.555c-3.028,2.746-6.576,3.537-10.558,3.418
			c-3.579-0.107-7.173,0.088-10.754,0.275c-2.122,0.11-4.255-0.1-6.37,0.338c-9.437,1.956-18.883,3.865-28.323,5.809
			c-0.717,0.148-1.624,0.042-1.937,1.188c0.738,0.811,1.807,1.196,2.789,1.68c3.119,1.535,6.279,2.987,9.382,4.552
			c2.175,1.097,4.447,1.449,6.846,1.318c3.805-0.208,7.611-0.399,11.419-0.545c1.033-0.04,2.171-0.342,3.086,0.449
			c-0.303,0.778-0.863,0.952-1.369,1.146c-7.652,2.923-15.144,6.213-22.531,9.746c-1.876,0.897-3.861,1.053-5.9,1.071
			c-8.754,0.076-17.439-0.56-26.076-1.721c-0.436-0.169-0.873-0.336-1.309-0.508c-1.028-0.408-1.933-1.128-2.894-1.705
			c-0.441-0.19-0.881-0.38-1.322-0.57c-0.546-0.256-1.09-0.513-1.636-0.77c-4.502-2.046-9.014-4.07-13.505-6.14
			c-0.227-0.105-0.455-0.208-0.681-0.313c-7.078-3.273-14.234-6.398-21.166-9.957c-0.228-0.117-0.452-0.24-0.678-0.362
			c-1.983-1.864-3.973-3.722-5.944-5.598c-3.194-3.041-3.146-3.474,0.981-4.989c10.883-3.994,6.687-3.928,17.999-0.885
			c6.478,1.742,12.834,4.042,19.709,3.922c3.806-0.066,7.618,0.249,11.428,0.375c3.063,0.101,3.667-0.422,4.134-3.501
			c0.484-3.19-0.069-3.823-3.373-3.46c-3.9,0.428-7.803,0.891-11.673,1.526c-4.394,0.721-8.704,0.503-13.008-0.544
			c-9.527-2.317-19.208-3.285-29-3.378c-3.02-0.029-6.062-0.019-9.026-0.792c-2.457-0.641-4.916-1.277-7.374-1.917
			c-0.225-0.181-0.449-0.362-0.674-0.544c-2.541-2.049-5.085-4.095-7.649-6.116c-0.603-0.476-1.225-0.93-1.852-1.378
			c3.731-2.356,7.459-4.716,11.194-7.065c-3.735,2.349-7.464,4.709-11.195,7.065c-1.827-1.302-3.708-2.54-5.352-4.04
			c-2.741-2.501-5.384-5.108-8.022-7.722c11.033-0.129,21.887-1.514,32.511-4.626c2.576-0.754,5.01-0.707,7.57,0.13
			c4.582,1.497,9.253,2.718,13.843,4.192c2.433,0.781,4.721,0.798,7.235,0.211c11.684-2.727,23.4-5.311,34.761-9.246
			c1.059-0.367,2.146-0.654,3.202-1.029c2.892-1.027,3.002-1.725,0.788-3.735c-1.392-1.264-2.964-1.42-4.7-1.189
			c-4.335,0.578-8.685,1.051-13.006,1.715c-3.607,0.555-7.14,0.35-10.686-0.4c-3.62-0.765-7.262-1.425-10.887-2.167
			c-0.845-0.173-2.018,0.037-2.373-0.936c-0.422-1.154,0.736-1.779,1.388-2.465c1.852-1.949,3.718-3.899,5.72-5.691
			c1.948-1.743,2.697-3.75,2.174-6.303c-1.442-7.041,1.348-13.485,2.902-20.1c0.3-1.277,1.248-2.079,2.271-2.815
			c4.004-2.882,8.014-5.757,11.985-8.685c2.205-1.627,4.617-2.702,7.285-3.322c2.838-0.661,5.646-1.452,8.457-2.225
			c3.16-0.868,3.302-1.465,0.939-3.886c-1.331-1.364-2.757-2.639-4.037-4.049c-1.719-1.894-1.715-2.679,0.321-4.061
			c4.266-2.897,8.615-5.673,12.972-8.434c1.433-0.908,3.117-1.293,4.766-1.588c16.165-2.89,31.704-8.095,47.389-12.757
			c0.537-0.16,1.058-0.401,1.605-0.501c8.168-1.493,15.001-5.727,21.58-10.486c0.363-0.263,0.759-0.486,1.099-0.776
			c1.311-1.117,1.245-1.739-0.279-2.377c-0.617-0.258-1.289-0.383-1.925-0.603c-9.251-3.203-18.805-5.171-28.408-6.916
			c-4.112-0.747-8.04-1.95-11.805-3.783c-3.427-1.668-6.914-3.221-10.428-4.698c-1.881-0.79-3.272-1.919-3.843-3.913
			c-0.792-2.766-2.669-4.501-5.094-5.947c-7.706-4.598-15.059-9.74-22.461-14.807c-1.894-1.297-2.573-2.772-2.539-5.037
			c0.1-6.545,0.01-6.551,6.295-7.971c10.715-2.422,21.43-4.842,32.148-7.25c1.99-0.447,3.862-1.146,5.57-2.278
			c3.926-2.602,7.842-5.22,11.804-7.766c1.591-1.023,2.614-2.332,3.142-4.171c2.135-7.435,4.213-14.887,6.764-22.199
			c1.059-3.036,0.812-3.246-2.194-4.439c-11.468-4.552-23.138-8.553-34.73-12.767c-2.26-0.822-4.558-1.139-6.93-1.071
			c-5.042,0.145-10.083,0.418-15.125,0.428c-2.648,0.005-4.392,1.449-6.144,3.032c-3.993,3.608-8.04,7.162-11.912,10.897
			c-2.058,1.985-4.347,2.96-7.156,3.222c-3.905,0.365-7.814,0.835-11.668,1.546c-3.289,0.607-5.698-0.153-7.299-3.207
			c-0.568-1.083-1.281-2.141-2.125-3.02c-2.916-3.033-3.743-6.58-3.611-10.742c0.224-7.072,0.329-14.107,2.413-20.965
			c0.628-2.065,1.364-3.971,2.654-5.737c2.313-3.167,4.944-6.099,6.972-9.48c1.636-2.728,1.721-3.086-0.582-5.105
			c-5.477-4.805-10.915-9.682-18.349-11.396c-1.348-0.311-3.381-0.495-3.627-2.01c-0.299-1.84,1.878-2.245,3.108-3.073
			c9.048-6.09,18.52-11.412,28.78-15.185c3.296-1.212,4.778-3.301,5.663-6.713c1.631-6.292,1.951-12.616,1.754-19.009
			c-0.097-3.14,0.843-5.435,3.281-7.595c7.562-6.697,15.035-13.466,23.965-18.37c1.471-0.808,2.865-1.764,4.252-2.715
			c2.637-1.808,2.577-2.155,0.934-4.798c-1.866-3.001-4.167-4.174-7.831-3.618c-11.543,1.75-23.193,2.222-34.861,2.44
			c-3.912,0.073-7.815,0.68-11.719,1.076c-2.221,0.226-4.427,0.335-6.578-0.098c-0.299-1.202,0.583-1.538,1.105-2.05
			c8.076-7.926,17.54-13.969,27.32-19.45c4.76-2.668,10.027-4.49,15.181-6.374c3.671-1.342,6.231-3.517,8.238-6.901
			c5.9-9.947,6.054-9.82,15.579-16.686c5.643-4.068,11.404-7.953,17.205-11.785c1-0.66,2.137-1.19,2.873-2.415
			c-1.248-0.937-2.512-0.534-3.651-0.409c-11.151,1.218-22.335,1.871-33.546,2.083c-3.529,0.067-6.855,1.037-10.19,2.028
			c-16.712,4.966-16.714,4.896-34.01,5.058c-5.483,0.051-10.962,0.567-16.443,0.87c-1.119,0.062-2.238,0.154-3.358,0.175
			c-1.581,0.031-2.548-0.828-2.86-2.314c-0.31-1.475,0.869-1.926,1.915-2.336c6.871-2.694,13.52-6.124,21.13-6.387
			c0.653-0.022,1.299-0.229,2.619-0.475c-2.743-1.148-5.115-0.22-7.418-0.936c0.41-1.356,1.52-1.434,2.385-1.718
			c3.941-1.296,7.904-2.524,11.854-3.795c1.298-0.418,2.51-0.944,3.114-2.339c0.735-1.699,0.218-2.657-1.569-2.71
			c-0.443-0.013-0.909,0.026-1.332,0.149c-3.579,1.043-7.286,1.294-10.955,1.712c-5.296,0.603-10.341,2.149-15.203,4.17
			c-7.38,3.068-14.911,4.802-22.922,3.767c-3.634-0.469-7.075,0.41-10.527,1.21c1.274-0.964,2.549-1.928,3.822-2.894
			c0.206-0.182,0.412-0.363,0.618-0.545c0.492-0.393,0.983-0.786,1.475-1.179l0.016-0.028c3.172-2.652,6.316-5.339,9.521-7.95
			c6.272-5.111,12.399-10.433,19.801-13.944c1.592-0.755,3.171-1.535,4.758-2.302c0.524-0.327,1.047-0.655,1.571-0.983
			c0.457-0.212,0.913-0.424,1.372-0.634c0.886-0.679,1.713-1.461,2.671-2.018c0.557-0.324,1.114-0.648,1.67-0.973
			c0.421,0.034,0.845,0.087,1.274,0.169C171.833,55.09,172.898,55.052,173.872,54.867z"/>
		<path fill="#89ADB4" d="M22.411,332.183c-0.133,0.321-0.261,0.644-0.39,0.967c-0.155-2.205-0.237-4.418-0.287-6.634
			C23.093,328.245,23.308,330.014,22.411,332.183z"/>
		<path fill="#B8DEE1" d="M122.297,88.187c-0.066,0.05-0.133,0.101-0.199,0.151c-2.272,1.718-4.542,3.439-6.797,5.18
			c-4.495,3.472-7.643,8.189-11.314,12.417c-0.137,0.158-0.273,0.318-0.411,0.476c3.703-1.14,7.325-2.547,10.988-3.822
			c4.628-1.611,9.328-2.956,14.179-3.826c-0.946,1.034-2.256,1.341-3.461,1.801c-7.95,3.036-15.713,6.524-23.583,9.748
			c-0.814,0.333-1.611,0.693-2.396,1.07c-3.234,3.791-6.435,7.612-9.58,11.476c-4.501,5.53-8.978,11.093-13.185,16.846
			c1.069-0.52,2.234-0.842,3.552-0.94c3.464-0.258,6.907-0.786,10.366-1.117c2.608-0.25,5.021-0.98,7.338-2.227
			c4.443-2.39,8.957-4.646,13.432-6.977c2.005-1.044,4.113-1.785,6.323-2.23c3.516-0.708,7.033-1.409,10.558-2.063
			c2.516-0.467,4.614-1.519,6.26-3.576c2.451-3.061,5.031-6.019,7.589-8.993c1.314-1.528,2.703-2.993,4.052-4.492
			c0.878-0.976,1.952-1.432,3.276-1.42c5.716,0.051,11.433,0.063,17.15,0.11c1.36,0.011,2.68,0.229,3.831,1.051
			c2.919,2.084,5.884,4.107,8.752,6.26c1.981,1.487,2.024,1.951,0.901,4.261c-2.108,4.335-4.26,8.649-6.362,12.988
			c-0.84,1.735-1.907,3.279-3.28,4.64c-4.217,4.182-8.406,8.393-12.6,12.598c-0.975,0.977-2.114,1.655-3.452,1.99
			c-6.74,1.691-13.436,3.594-20.232,5.019c-10.967,2.299-22,4.289-32.726,7.613c-3.207,0.994-6.611,1.526-9.487,3.346
			c-5.399,3.418-10.697,6.995-16.034,10.51c-1.061,0.699-1.843,1.632-2.265,2.842c-0.215,0.616-0.636,1.305,0.012,1.845
			c0.491,0.409,1.076,0.067,1.559-0.196c1.28-0.697,2.538-1.433,3.811-2.142c4.603-2.561,8.97-5.787,13.865-7.527
			c8.419-2.992,17.11-5.602,26.259-2.874c0.319,0.095,0.663,0.113,0.996,0.158c2.505,0.341,4.717,1.284,6.668,2.941
			c1.964,1.669,4.098,3.137,6.058,4.809c1.827,1.558,3.822,2.049,6.209,1.926c4.811-0.247,9.635-0.251,14.453-0.337
			c1.944-0.035,3.802,0.337,5.444,1.438c2.234,1.498,4.481,2.98,6.659,4.556c2.205,1.594,2.22,2.159,0.019,3.661
			c-9.912,6.767-20.109,13.082-30.457,19.159c-1.875,1.101-3.516,0.98-5.378,0.057c-4.118-2.041-8.331-3.891-12.437-5.955
			c-2.16-1.086-4.175-1.248-6.438-0.323c-4.255,1.738-8.562,3.351-12.88,4.929c-2.755,1.007-5.339,2.324-7.835,3.844
			c-3.734,2.274-7.481,4.528-11.219,6.797c-0.574,0.348-1.155,0.695-1.687,1.103c-1.076,0.824-1.294,1.849-0.37,2.889
			c1.115,1.255,2.422,2.346,3.478,3.645c2.211,2.721,4.667,3.164,8.015,1.957c9.599-3.459,19.383-6.371,29.218-9.095
			c0.68-0.188,1.42-0.809,2.268,0.111c-2.296,2.897-5.241,5.143-7.783,7.781c-1.509,1.566-3.283,2.631-5.304,3.44
			C93.574,232.742,80.39,237.81,67.101,242.6c-4.014,1.447-7.933,3.082-11.66,5.188c-6.743,3.809-13.648,7.262-21.144,9.4
			c-3.112,0.888-6.192,1.895-8.364,4.423c-0.61,4.138-1.209,8.278-1.789,12.42c-0.75,5.355-1.48,10.714-2.193,16.074
			c-0.225,1.688-0.278,3.398-0.309,5.112c-0.013,0.74-0.026,1.48-0.042,2.22c3.363-5.993,7.466-11.585,11.231-17.359
			c0.695-1.066,1.562-1.943,2.936-2.003c4.253-0.185,8.507-0.365,12.762-0.508c1.45-0.048,2.103,0.581,1.549,2.1
			c-0.244,0.669-0.125,1.294,0.431,1.837c2.165,2.112,7.501,3.041,10.349,1.746c4.694-2.135,9.382-4.284,14.064-6.445
			c1.433-0.662,2.866-1.217,4.487-1.279c4.814-0.184,9.627-0.419,14.438-0.678c2.769-0.149,5.315,0.333,7.644,1.974
			c3.573,2.517,7.247,4.889,10.833,7.389c2.119,1.478,2.247,2.151,0.809,4.447c-1.785,2.849-3.717,5.605-5.527,8.438
			c-1.174,1.837-2.817,2.732-4.942,3.093c-3.644,0.619-7.278,1.322-10.878,2.156c-2.372,0.55-2.632,1.375-1.075,3.193
			c1.821,2.127,3.828,4.092,5.7,6.177c6.273,6.984,4.476,5.805,13.696,6.592c6.278,0.536,12.522,0.888,18.752-0.361
			c2.416-0.484,4.835-0.955,7.248-1.454c6.442-1.332,12.959-0.761,19.449-0.726c3.357,0.018,6.73-0.068,10.064,0.514
			c5.521,0.964,11.068,1.799,16.554,2.929c2.584,0.532,4.494-0.079,6.437-1.768c3.975-3.456,8.129-6.704,12.169-10.086
			c1.448-1.212,2.852-1.512,4.616-0.641c3.818,1.887,7.694,3.659,11.555,5.457c1.275,0.594,2.275,1.417,2.71,2.809
			c1.038,3.32,1.78,6.713,2.427,10.126c0.328,1.729-0.304,3.121-1.862,3.964c-5.407,2.924-10.459,6.465-16.431,8.377
			c-17.612,5.638-35.411,10.725-52.592,17.661c-3.344,1.35-6.564,2.873-9.628,4.754c-3.057,1.877-6.179,3.654-9.177,5.621
			c-3.17,2.08-6.573,3.153-10.35,3.588c-7.004,0.806-14.127,1.048-20.895,3.269c-3.671,1.204-7.253,1.059-10.935,0.3
			c-4.72-0.973-9.464-1.833-14.193-2.766c-1.445-0.285-2.885-0.349-4.348-0.2c-12.492,1.279-24.949,2.795-37.222,5.54
			c-1.846,0.413-3.56,0.414-5.044-0.953c-0.616,0.17-1.274,0.258-1.862,0.481c0.083,0.416,0.167,0.832,0.25,1.248
			c0.436,1.648,0.872,3.295,1.307,4.942c0.009,0.028,0.018,0.055,0.028,0.083c0.183,0.555,0.367,1.11,0.55,1.665
			c0.481,1.853,0.962,3.706,1.443,5.56c0.188,0.625,0.376,1.249,0.564,1.873c0.165,0.591,0.33,1.183,0.495,1.774
			c0.227,0.696,0.454,1.392,0.681,2.089c0.098,0.313,0.196,0.626,0.294,0.939c0.12,0.4,0.24,0.8,0.36,1.2
			c0.085,0.396,0.17,0.793,0.255,1.189c0.121,0.697,0.252,1.392,0.389,2.085c0.865,4.336,2.071,8.589,3.701,12.674
			c0.352-1.287,0.652-2.593,0.971-3.889c0.516-2.097,1.324-4.067,2.634-5.773c1.505-1.96,2.077-4.146,2.164-6.576
			c0.14-3.92,0.378-7.837,0.649-11.751c0.218-3.151,1.001-3.959,4.153-3.999c2.584-0.032,5.14-0.285,7.71-0.466
			c8.883-0.625,17.481-2.725,26.062-4.908c2.816-0.717,5.468-0.729,8.22,0.337c3.97,1.538,8.026,2.853,12.041,4.275
			c1.697,0.601,3.411,1.195,5.22,1.212c6.275,0.06,12.551,0.095,18.826,0.042c1.44-0.012,2.894-0.336,4.312-0.65
			c2.734-0.607,5.445-1.32,8.17-1.969c4.416-1.05,8.838-1.33,13.325-0.34c7.188,1.586,13.922,4.315,19.975,8.448
			c4.152,2.836,8.311,5.153,13.507,5.202c2.941,0.028,5.725,0.986,8.397,2.224c8.919,4.135,18.126,7.068,28.097,7.168
			c6.827,0.068,13.188,2.438,19.608,4.43c0.732,0.227,1.684,0.342,1.872,1.215c0.212,0.983-0.78,1.278-1.41,1.658
			c-3.263,1.968-6.621,3.786-9.818,5.854c-2.586,1.673-5.269,2.138-8.305,1.929c-11.183-0.768-22.365-1.515-33.521-2.624
			c-1.89-0.188-3.812-0.518-5.688,0c-3.477,0.961-7.059,1.248-10.605,1.77c-1.67,0.246-3.315,0.561-4.894,1.17
			c-0.769,0.296-1.422,0.683-1.388,1.659c0.075,2.125,3.043,5.262,5.193,5.405c2.804,0.186,5.596,0.008,8.385-0.348
			c1.163-0.148,2.398-0.54,3.545,0.153c-0.108,0.343-0.111,0.65-0.242,0.721c-1.374,0.745-2.753,1.486-4.161,2.166
			c-10.618,5.132-21.692,9.135-32.833,12.92c-7.74,2.63-15.472,5.364-23.465,7.163c-7.758,1.746-15.611,3.093-23.327,5.002
			c-6.831,1.69-13.878,2.716-20.305,5.849c-1.154,0.563-2.412,0.421-3.641,0.267c-5.451-0.68-10.896-1.404-16.352-2.034
			c-1.53-0.177-2.832-0.687-3.983-1.539c1.656,2.677,3.654,5.191,5.402,7.824v0c0.304,0.395,0.607,0.791,0.91,1.186
			c0.257,0.389,0.514,0.779,0.771,1.168l0.04-0.039c-0.019,0.019-0.04,0.039-0.04,0.039c0.257,0.388,0.513,0.776,0.769,1.163
			c0.219,0.332,0.438,0.664,0.656,0.996c0.038,0.057,0.076,0.114,0.113,0.171c0.258,0.387,0.517,0.773,0.775,1.16
			c0.433,0.721,0.866,1.442,1.299,2.162c0.133,0.24,0.266,0.479,0.398,0.719v0l0.001,0c0.196,0.298,0.392,0.597,0.588,0.896
			c0.034,0.052,0.068,0.103,0.102,0.155l-0.004-0.006c0.027,0.04,0.053,0.081,0.079,0.121c0.257,0.388,0.513,0.777,0.77,1.166
			c0.256,0.388,0.512,0.777,0.769,1.166c0.256,0.389,0.512,0.778,0.768,1.167c0.257,0.389,0.513,0.778,0.77,1.167
			c0.257,0.388,0.513,0.777,0.77,1.165l0,0.007c0.255,0.381,0.511,0.761,0.766,1.142l0.006,0.008l0.005,0.004
			c0.194,0.22,0.387,0.44,0.581,0.661c2.757,5.126,6.173,9.764,9.921,14.162c0.956,1.121,1.932,2.228,2.925,3.322
			c4.529,4.987,8.986,10.039,13.521,15.02c1.158,1.271,2.491,2.383,3.743,3.568l-0.057-0.03c0.104,0.213,0.208,0.426,0.313,0.64
			c1.348,1.317,2.685,2.645,4.024,3.972c11.033-0.129,21.887-1.514,32.511-4.626c2.576-0.754,5.01-0.707,7.57,0.13
			c4.582,1.497,9.253,2.718,13.843,4.192c2.433,0.781,4.721,0.798,7.235,0.211c11.684-2.727,23.4-5.311,34.761-9.246
			c1.059-0.367,2.146-0.654,3.202-1.029c2.892-1.027,3.002-1.725,0.788-3.735c-1.392-1.264-2.964-1.42-4.7-1.189
			c-4.335,0.578-8.685,1.051-13.006,1.715c-3.607,0.555-7.14,0.35-10.686-0.4c-3.62-0.765-7.262-1.425-10.887-2.167
			c-0.845-0.173-2.018,0.037-2.373-0.936c-0.422-1.154,0.736-1.779,1.388-2.465c1.852-1.949,3.718-3.899,5.72-5.691
			c1.948-1.743,2.697-3.75,2.174-6.303c-1.442-7.041,1.348-13.485,2.902-20.1c0.3-1.277,1.248-2.079,2.271-2.815
			c4.004-2.882,8.014-5.757,11.985-8.685c2.205-1.627,4.617-2.702,7.285-3.322c2.838-0.661,5.646-1.452,8.457-2.225
			c3.16-0.868,3.302-1.465,0.939-3.886c-1.331-1.364-2.757-2.639-4.037-4.049c-1.719-1.894-1.715-2.679,0.321-4.061
			c4.266-2.897,8.615-5.673,12.972-8.434c1.433-0.908,3.117-1.293,4.766-1.588c16.165-2.89,31.704-8.095,47.389-12.757
			c0.537-0.16,1.058-0.401,1.605-0.501c8.168-1.493,15.001-5.727,21.58-10.486c0.363-0.263,0.759-0.486,1.099-0.776
			c1.311-1.117,1.245-1.739-0.279-2.377c-0.617-0.258-1.289-0.383-1.925-0.603c-9.251-3.203-18.805-5.171-28.408-6.916
			c-4.112-0.747-8.04-1.95-11.805-3.783c-3.427-1.668-6.914-3.221-10.428-4.698c-1.881-0.79-3.272-1.919-3.843-3.913
			c-0.792-2.766-2.669-4.501-5.094-5.947c-7.706-4.598-15.059-9.74-22.461-14.807c-1.894-1.297-2.573-2.772-2.539-5.037
			c0.1-6.545,0.01-6.551,6.295-7.971c10.715-2.422,21.43-4.842,32.148-7.25c1.99-0.447,3.862-1.146,5.57-2.278
			c3.926-2.602,7.842-5.22,11.804-7.766c1.591-1.023,2.614-2.332,3.142-4.171c2.135-7.435,4.213-14.887,6.764-22.199
			c1.059-3.036,0.812-3.246-2.194-4.439c-11.468-4.552-23.138-8.553-34.73-12.767c-2.26-0.822-4.558-1.139-6.93-1.071
			c-5.042,0.145-10.083,0.418-15.125,0.428c-2.648,0.005-4.392,1.449-6.144,3.032c-3.993,3.608-8.04,7.162-11.912,10.897
			c-2.058,1.985-4.347,2.96-7.156,3.222c-3.905,0.365-7.814,0.835-11.668,1.546c-3.289,0.607-5.698-0.153-7.299-3.207
			c-0.568-1.083-1.281-2.141-2.125-3.02c-2.916-3.033-3.743-6.58-3.611-10.742c0.224-7.072,0.329-14.107,2.413-20.965
			c0.628-2.065,1.364-3.971,2.654-5.737c2.313-3.167,4.944-6.099,6.972-9.48c1.636-2.728,1.721-3.086-0.582-5.105
			c-5.477-4.805-10.915-9.682-18.349-11.396c-1.348-0.311-3.381-0.495-3.627-2.01c-0.299-1.84,1.878-2.245,3.108-3.073
			c9.048-6.09,18.52-11.412,28.78-15.185c3.296-1.212,4.778-3.301,5.663-6.713c1.631-6.292,1.951-12.616,1.754-19.009
			c-0.097-3.14,0.843-5.435,3.281-7.595c7.562-6.697,15.035-13.466,23.965-18.37c1.471-0.808,2.865-1.764,4.252-2.715
			c2.637-1.808,2.577-2.155,0.934-4.798c-1.866-3.001-4.167-4.174-7.831-3.618c-11.543,1.75-23.193,2.222-34.861,2.44
			c-3.912,0.073-7.815,0.68-11.719,1.076c-2.221,0.226-4.427,0.335-6.578-0.098c-0.299-1.202,0.583-1.538,1.105-2.05
			c8.076-7.926,17.54-13.969,27.32-19.45c4.76-2.668,10.027-4.49,15.181-6.374c3.671-1.342,6.231-3.517,8.238-6.901
			c5.9-9.947,6.054-9.82,15.579-16.686c5.643-4.068,11.404-7.953,17.205-11.785c1-0.66,2.137-1.19,2.873-2.415
			c-1.248-0.937-2.512-0.534-3.651-0.409c-11.151,1.218-22.335,1.871-33.546,2.083c-3.529,0.067-6.855,1.037-10.19,2.028
			c-16.712,4.966-16.714,4.896-34.01,5.058c-5.483,0.051-10.962,0.567-16.443,0.87c-1.119,0.062-2.238,0.154-3.358,0.175
			c-1.581,0.031-2.548-0.828-2.86-2.314c-0.31-1.475,0.869-1.926,1.915-2.336c6.871-2.694,13.52-6.124,21.13-6.387
			c0.653-0.022,1.299-0.229,2.619-0.475c-2.743-1.148-5.115-0.22-7.418-0.936c0.41-1.356,1.52-1.434,2.385-1.718
			c3.941-1.296,7.904-2.524,11.854-3.795c1.298-0.418,2.51-0.944,3.114-2.339c0.735-1.699,0.218-2.657-1.569-2.71
			c-0.443-0.013-0.909,0.026-1.332,0.149c-3.579,1.043-7.286,1.294-10.955,1.712c-5.296,0.603-10.341,2.149-15.203,4.17
			c-7.38,3.068-14.911,4.802-22.922,3.767C129.189,86.508,125.749,87.388,122.297,88.187z M94.683,479.86
			c-0.624,0.69-1.442,0.513-2.196,0.285c-2.573-0.779-5.141-1.575-7.698-2.403c-2.533-0.82-5.05-1.686-7.575-2.532
			c-0.03-0.336-0.06-0.673-0.09-1.009c3.989-1.57,8.034-2.997,12.361-3.454c1.23-0.13,2.078,0.772,2.628,1.803
			c0.895,1.68,1.738,3.388,2.556,5.106C95.007,478.363,95.323,479.153,94.683,479.86z M112.998,462.916
			c-4.92,1.47-9.87,2.844-14.839,4.139c-2.268,0.591-2.967,0.025-3.486-2.333c-0.119-0.542-0.141-1.106-0.299-2.414
			c-0.058-1.299-0.959-3.692,1.593-4.884c4.853-2.267,9.781-4.377,14.695-6.511c1.557-0.676,2.652-0.018,3.106,1.524
			c0.63,2.139,1.227,4.298,1.654,6.485C115.885,461.296,115.369,462.208,112.998,462.916z M128.123,509.031
			c-4.951,0.684-9.156,1.35-13.431,1.36C118.656,507.497,122.68,505.126,128.123,509.031z M85.51,252.734
			c-4.673,2.388-9.389,4.692-14.094,7.015c-0.478,0.236-0.984,0.56-1.555,0.228c-0.026-0.217-0.139-0.467-0.062-0.626
			c0.601-1.235,1.72-2.035,2.608-3.031c2.165-2.428,2.219-3.068,0.5-5.826c-0.118-0.189-0.267-0.359-0.391-0.544
			c-0.84-1.253-0.454-2.091,0.897-2.567c0.948-0.334,1.898-0.667,2.866-0.931c3.338-0.912,6.68-1.814,10.031-2.677
			c1.004-0.258,2.031-0.371,2.455,0.971C89.674,247.622,88.227,251.346,85.51,252.734z"/>
		<path fill="#C8EEF0" d="M80.091,138.763c3.464-0.258,6.907-0.786,10.366-1.117c2.608-0.25,5.021-0.98,7.338-2.227
			c4.443-2.39,8.957-4.646,13.432-6.977c2.005-1.044,4.113-1.785,6.323-2.23c3.516-0.708,7.033-1.409,10.558-2.063
			c2.516-0.467,4.614-1.519,6.26-3.576c2.451-3.061,5.031-6.019,7.589-8.993c1.314-1.528,2.703-2.993,4.052-4.492
			c0.878-0.976,1.952-1.432,3.276-1.42c5.716,0.051,11.433,0.063,17.15,0.11c1.36,0.011,2.68,0.229,3.831,1.051
			c2.919,2.084,5.884,4.107,8.752,6.26c1.981,1.487,2.024,1.951,0.901,4.261c-2.108,4.335-4.26,8.649-6.362,12.988
			c-0.84,1.735-1.907,3.279-3.28,4.64c-4.217,4.182-8.406,8.393-12.6,12.598c-0.975,0.977-2.114,1.655-3.452,1.99
			c-6.74,1.691-13.436,3.594-20.232,5.019c-10.967,2.299-22,4.289-32.726,7.613c-3.207,0.994-6.611,1.526-9.487,3.346
			c-5.399,3.418-10.697,6.995-16.034,10.51c-1.061,0.699-1.843,1.632-2.265,2.842c-0.215,0.616-0.636,1.305,0.012,1.845
			c0.491,0.409,1.076,0.067,1.559-0.196c1.28-0.697,2.538-1.433,3.811-2.142c4.603-2.561,8.97-5.787,13.865-7.527
			c8.419-2.992,17.11-5.602,26.259-2.874c0.319,0.095,0.663,0.113,0.996,0.158c2.505,0.341,4.717,1.284,6.668,2.941
			c1.964,1.669,4.098,3.137,6.058,4.809c1.827,1.558,3.822,2.049,6.209,1.926c4.811-0.247,9.635-0.251,14.453-0.337
			c1.944-0.035,3.802,0.337,5.444,1.438c2.234,1.498,4.481,2.98,6.659,4.556c2.205,1.594,2.22,2.159,0.019,3.661
			c-9.912,6.767-20.109,13.082-30.457,19.159c-1.875,1.101-3.516,0.98-5.378,0.057c-4.118-2.041-8.331-3.891-12.437-5.955
			c-2.16-1.086-4.175-1.248-6.438-0.323c-4.255,1.738-8.562,3.351-12.88,4.929c-2.755,1.007-5.339,2.324-7.835,3.844
			c-3.734,2.274-7.481,4.528-11.219,6.797c-0.574,0.348-1.155,0.695-1.687,1.103c-1.076,0.824-1.294,1.849-0.37,2.889
			c1.115,1.255,2.422,2.346,3.478,3.645c2.211,2.721,4.667,3.164,8.015,1.957c9.599-3.459,19.383-6.371,29.218-9.095
			c0.68-0.188,1.42-0.809,2.268,0.111c-2.296,2.897-5.241,5.143-7.783,7.781c-1.509,1.566-3.283,2.631-5.304,3.44
			C93.574,232.742,80.39,237.81,67.101,242.6c-4.014,1.447-7.933,3.082-11.66,5.188c-6.743,3.809-13.648,7.262-21.144,9.4
			c-3.112,0.888-6.192,1.895-8.364,4.423c0.088-0.597,0.174-1.194,0.262-1.791c0.244-1.64,0.484-3.281,0.733-4.92
			c0.513-3.376,1.548-6.68,2.438-9.992c0.061-0.227,0.124-0.454,0.186-0.681c1.762-6.498,3.709-12.95,5.309-19.487
			c1.067-4.363,2.37-8.637,3.83-12.855c1.969-5.688,4.224-11.272,6.583-16.828c0.67-1.576,1.336-3.155,1.995-4.736
			c0.517-1.24,1.029-2.482,1.536-3.726c1.437-3.525,2.828-7.069,4.132-10.643c1.069-2.931,2.489-5.641,4.09-8.243
			c1.514,0.079,3.029,0.135,4.542,0.224c2.118,0.125,3.942-0.592,5.632-1.811c3.359-2.422,6.806-4.727,10.098-7.236
			c5.443-4.15,11.801-6.463,18.095-8.699c5.761-2.047,9.039-6.644,13.531-10.671c-1.812-0.765-2.904-0.372-3.978-0.145
			c-3.722,0.784-7.412,1.74-11.156,2.39c-3.133,0.545-6.04,1.58-8.874,2.969c-2.612,1.28-5.256,2.516-7.956,3.594
			c-4.116,1.643-7.857,3.803-11.218,6.583c3.53-5.077,7.091-10.133,10.738-15.126c0.019-0.026,0.039-0.052,0.058-0.079
			C77.608,139.184,78.773,138.862,80.091,138.763z"/>
		<path fill="#C8EEF0" d="M38.834,408.173c-0.319,1.296-0.619,2.601-0.971,3.889c0.258,0.646,0.524,1.29,0.804,1.927
			c3.425,7.808,6.914,15.591,10.488,23.333c2.051,4.444,4.13,8.874,6.243,13.288c0.464,0.969,0.992,1.907,1.56,2.826
			c1.151,0.852,2.453,1.363,3.983,1.539c5.456,0.63,10.902,1.354,16.352,2.034c1.23,0.153,2.487,0.295,3.641-0.267
			c6.427-3.133,13.474-4.159,20.305-5.849c7.715-1.909,15.568-3.256,23.327-5.002c7.994-1.799,15.725-4.533,23.465-7.163
			c11.141-3.785,22.214-7.788,32.833-12.92c1.408-0.68,2.787-1.42,4.161-2.166c0.131-0.071,0.134-0.378,0.242-0.721
			c-1.147-0.693-2.382-0.301-3.545-0.153c-2.789,0.356-5.581,0.534-8.385,0.348c-2.149-0.143-5.118-3.28-5.193-5.405
			c-0.035-0.976,0.619-1.362,1.388-1.659c1.579-0.609,3.224-0.925,4.894-1.17c3.546-0.521,7.128-0.809,10.605-1.77
			c1.876-0.518,3.798-0.188,5.688,0c11.156,1.108,22.339,1.855,33.521,2.624c3.037,0.209,5.719-0.256,8.305-1.929
			c3.197-2.068,6.555-3.885,9.818-5.854c0.63-0.38,1.622-0.674,1.41-1.658c-0.188-0.874-1.14-0.988-1.872-1.215
			c-6.42-1.992-12.781-4.361-19.608-4.43c-9.971-0.1-19.179-3.033-28.097-7.168c-2.672-1.239-5.456-2.197-8.397-2.224
			c-5.196-0.049-9.354-2.366-13.507-5.202c-6.052-4.134-12.786-6.862-19.975-8.448c-4.487-0.99-8.909-0.711-13.325,0.34
			c-2.725,0.648-5.436,1.362-8.17,1.969c-1.418,0.314-2.872,0.638-4.312,0.65c-6.275,0.053-12.55,0.018-18.826-0.042
			c-1.809-0.017-3.523-0.611-5.22-1.212c-4.015-1.422-8.072-2.737-12.041-4.275c-2.751-1.066-5.404-1.054-8.22-0.337
			c-8.58,2.183-17.178,4.283-26.062,4.908c-2.57,0.181-5.126,0.434-7.71,0.466c-3.151,0.039-3.934,0.848-4.153,3.999
			c-0.271,3.914-0.509,7.831-0.649,11.751c-0.086,2.43-0.658,4.616-2.164,6.576C40.158,404.106,39.351,406.077,38.834,408.173z
			 M124.147,429.724c2.512-2.716,4.17-5.475,7.599-6.279c4.249-0.995,8.487-2.038,12.745-2.991c1.583-0.354,3.112-1.201,5.328-0.792
			c-2.73,2.911-4.583,6.081-8.694,6.735c-3.084,0.49-6.067,1.589-9.145,2.138C129.625,428.956,127.369,430.139,124.147,429.724z
			 M52.637,436.957c0.871-0.507,1.775-0.961,2.681-1.406c8.267-4.06,16.297-8.505,23.565-14.225c1.761-1.385,3.632-2.63,5.447-3.947
			c1.474-1.069,3.095-1.851,4.87-2.205c8.898-1.778,17.683-4.178,26.78-4.877c2.347-0.18,4.686-0.47,7.03-0.683
			c8.399-0.764,16.563-2.849,25.487-4.553c0.553-0.039,1.788-0.259,3.007-0.19c5.709,0.326,11.413,0.73,17.119,1.115
			c0.445,0.03,0.9,0.08,1.325,0.207c1.267,0.38,1.454,1.261,1.001,2.374c-0.376,0.925-1.17,1.323-2.077,1.528
			c-1.968,0.444-3.922,1.11-5.913,1.26c-10.606,0.8-20.666,3.994-30.811,6.828c-2.055,0.574-4.058,1.268-5.91,2.378
			c-4.039,2.421-8.07,4.86-12.18,7.157c-2.146,1.199-3.367,2.793-3.575,5.279c-0.168,2.006-0.71,3.982-0.868,5.989
			c-0.241,3.065-1.613,4.7-4.733,5.581c-8.511,2.401-17.146,4.528-25.018,8.784c-0.898,0.485-1.89,0.717-2.926,0.609
			c-5.799-0.604-11.598-1.213-17.397-1.822c-1.544-0.162-2.664-0.884-3.552-2.219c-1.801-2.709-3.434-5.504-4.848-8.427
			C49.915,438.959,50.096,438.436,52.637,436.957z"/>
		<path fill="#C8EEF0" d="M35.766,278.075c4.253-0.185,8.507-0.365,12.762-0.508c1.45-0.048,2.103,0.581,1.549,2.1
			c-0.244,0.669-0.125,1.294,0.431,1.837c2.165,2.112,7.501,3.041,10.349,1.746c4.694-2.135,9.382-4.284,14.064-6.445
			c1.433-0.662,2.866-1.217,4.487-1.279c4.814-0.184,9.627-0.419,14.438-0.678c2.769-0.149,5.315,0.333,7.644,1.974
			c3.573,2.517,7.247,4.889,10.833,7.389c2.119,1.478,2.247,2.151,0.809,4.447c-1.785,2.849-3.717,5.605-5.527,8.438
			c-1.174,1.837-2.817,2.732-4.942,3.093c-3.644,0.619-7.278,1.322-10.878,2.156c-2.372,0.55-2.632,1.375-1.075,3.193
			c1.821,2.127,3.828,4.092,5.7,6.177c6.273,6.984,4.476,5.805,13.696,6.592c6.278,0.536,12.522,0.888,18.752-0.361
			c2.416-0.484,4.835-0.955,7.248-1.454c6.442-1.332,12.959-0.761,19.449-0.726c3.357,0.018,6.73-0.068,10.064,0.514
			c5.521,0.964,11.068,1.799,16.554,2.929c2.584,0.532,4.494-0.079,6.437-1.768c3.975-3.456,8.129-6.704,12.169-10.086
			c1.448-1.212,2.852-1.512,4.616-0.641c3.818,1.887,7.694,3.659,11.555,5.457c1.275,0.594,2.275,1.417,2.71,2.809
			c1.038,3.32,1.78,6.713,2.427,10.126c0.328,1.729-0.304,3.121-1.862,3.964c-5.407,2.924-10.459,6.465-16.431,8.377
			c-17.612,5.638-35.411,10.725-52.592,17.661c-3.344,1.35-6.564,2.873-9.628,4.754c-3.057,1.877-6.179,3.654-9.177,5.621
			c-3.17,2.08-6.573,3.153-10.35,3.588c-7.004,0.806-14.127,1.048-20.895,3.269c-3.671,1.204-7.253,1.059-10.935,0.3
			c-4.72-0.973-9.464-1.833-14.193-2.766c-1.445-0.285-2.885-0.349-4.348-0.2c-12.492,1.279-24.949,2.795-37.222,5.54
			c-1.846,0.413-3.56,0.414-5.044-0.953c3.487-2.736,7.408-4.64,11.727-5.512c11.411-2.301,22.855-4.43,34.337-6.362
			c5.041-0.848,10.068-0.619,15.077-0.266c7.111,0.5,13.948-0.364,20.921-1.924c10.656-2.384,20.275-6.992,29.844-11.903
			c1.235-0.634,2.302-1.43,2.763-2.789c0.934-2.757,1.848-5.521,2.719-8.298c0.434-1.383-0.164-2.186-1.601-2.265
			c-2.012-0.11-4.027-0.193-6.042-0.231c-12.997-0.24-25.932,0.37-38.897,1.588c-18.181,1.707-35.682,6.35-53.273,10.774
			c-7.643,1.922-15.132,4.313-22.613,6.749c-0.716-5.57-1.404-11.143-1.992-16.726c-0.044-0.416-0.089-0.833-0.132-1.25
			c-0.092-0.897-0.164-1.796-0.227-2.695c0.129-0.323,0.257-0.646,0.39-0.967c0.897-2.169,0.681-3.938-0.677-5.667
			c-0.066-2.897-0.084-5.797-0.16-8.691c-0.072-2.785,0.016-5.575,0.032-8.363c-0.002-0.348-0.003-0.696-0.005-1.044
			c-0.013-3.215-0.027-6.43-0.041-9.644c0.018-0.445,0.027-0.891,0.038-1.337c3.363-5.993,7.466-11.585,11.231-17.359
			C33.525,279.012,34.391,278.134,35.766,278.075z"/>
		<path fill="#D4F9F9" d="M100.258,336.298c12.964-1.217,25.9-1.828,38.897-1.588c2.015,0.037,4.029,0.121,6.042,0.231
			c1.438,0.079,2.035,0.882,1.601,2.265c-0.871,2.777-1.785,5.541-2.719,8.298c-0.461,1.359-1.528,2.155-2.763,2.789
			c-9.569,4.912-19.188,9.519-29.844,11.903c-6.972,1.56-13.81,2.425-20.921,1.924c-5.009-0.352-10.036-0.582-15.077,0.266
			c-11.482,1.931-22.926,4.061-34.337,6.362c-4.32,0.871-8.24,2.776-11.727,5.512c-0.616,0.17-1.274,0.258-1.862,0.481
			c-0.182-0.908-0.364-1.816-0.546-2.724c-0.081-0.309-0.162-0.618-0.243-0.928c-0.132-0.607-0.311-1.208-0.388-1.822
			c-0.441-3.493-0.898-6.985-1.353-10.477c-0.216-1.656-0.431-3.313-0.644-4.97c7.481-2.436,14.97-4.827,22.613-6.749
			C64.576,342.647,82.076,338.005,100.258,336.298z"/>
		<path fill="#89ADB4" d="M112.998,462.916c-4.92,1.47-9.87,2.844-14.839,4.139c-2.268,0.591-2.967,0.025-3.486-2.333
			c-0.119-0.542-0.141-1.106-0.299-2.414c-0.058-1.299-0.959-3.692,1.593-4.884c4.853-2.267,9.781-4.377,14.695-6.511
			c1.557-0.676,2.652-0.018,3.106,1.524c0.63,2.139,1.227,4.298,1.654,6.485C115.885,461.296,115.369,462.208,112.998,462.916z"/>
		<path fill="#89ADB4" d="M85.51,252.734c-4.673,2.388-9.389,4.692-14.094,7.015c-0.478,0.236-0.984,0.56-1.555,0.228
			c-0.026-0.217-0.139-0.467-0.062-0.626c0.601-1.235,1.72-2.035,2.608-3.031c2.165-2.428,2.219-3.068,0.5-5.826
			c-0.118-0.189-0.267-0.359-0.391-0.544c-0.84-1.253-0.454-2.091,0.897-2.567c0.948-0.334,1.898-0.667,2.866-0.931
			c3.338-0.912,6.68-1.814,10.031-2.677c1.004-0.258,2.031-0.371,2.455,0.971C89.674,247.622,88.227,251.346,85.51,252.734z"/>
		<path fill="#89ADB4" d="M128.744,98.762c-0.946,1.034-2.256,1.341-3.461,1.801c-7.95,3.036-15.713,6.524-23.583,9.748
			c-0.814,0.333-1.611,0.693-2.396,1.07c1.418-1.662,2.842-3.32,4.273-4.971c3.703-1.14,7.325-2.547,10.988-3.822
			C119.193,100.978,123.893,99.633,128.744,98.762z"/>
		<path fill="#89ADB4" d="M94.683,479.86c-0.624,0.69-1.442,0.513-2.196,0.285c-2.573-0.779-5.141-1.575-7.698-2.403
			c-2.533-0.82-5.05-1.686-7.575-2.532c-0.03-0.336-0.06-0.673-0.09-1.009c3.989-1.57,8.034-2.997,12.361-3.454
			c1.23-0.13,2.078,0.772,2.628,1.803c0.895,1.68,1.738,3.388,2.556,5.106C95.007,478.363,95.323,479.153,94.683,479.86z"/>
		<path fill="#89ADB4" d="M114.692,510.391c3.964-2.894,7.988-5.265,13.431-1.36C123.172,509.715,118.966,510.381,114.692,510.391z"
			/>
		<path fill="#D4F9F9" d="M84.916,144.732c2.834-1.389,5.741-2.425,8.874-2.969c3.744-0.651,7.434-1.607,11.156-2.39
			c1.074-0.226,2.166-0.62,3.978,0.145c-4.492,4.027-7.77,8.623-13.531,10.671c-6.294,2.236-12.652,4.55-18.095,8.699
			c-3.292,2.51-6.739,4.814-10.098,7.236c-1.69,1.219-3.514,1.935-5.632,1.811c-1.513-0.089-3.028-0.145-4.542-0.224
			c0.722-1.173,1.477-2.327,2.26-3.465c2.145-3.117,4.296-6.23,6.456-9.337c3.361-2.78,7.102-4.94,11.218-6.583
			C79.661,147.247,82.304,146.012,84.916,144.732z"/>
		<path fill="#D4F9F9" d="M52.637,436.957c0.871-0.507,1.775-0.961,2.681-1.406c8.267-4.06,16.297-8.505,23.565-14.225
			c1.761-1.385,3.632-2.63,5.447-3.947c1.474-1.069,3.095-1.851,4.87-2.205c8.898-1.778,17.683-4.178,26.78-4.877
			c2.347-0.18,4.686-0.47,7.03-0.683c8.399-0.764,16.563-2.849,25.487-4.553c0.553-0.039,1.788-0.259,3.007-0.19
			c5.709,0.326,11.413,0.73,17.119,1.115c0.445,0.03,0.9,0.08,1.325,0.207c1.267,0.38,1.454,1.261,1.001,2.374
			c-0.376,0.925-1.17,1.323-2.077,1.528c-1.968,0.444-3.922,1.11-5.913,1.26c-10.606,0.8-20.666,3.994-30.811,6.828
			c-2.055,0.574-4.058,1.268-5.91,2.378c-4.039,2.421-8.07,4.86-12.18,7.157c-2.146,1.199-3.367,2.793-3.575,5.279
			c-0.168,2.006-0.71,3.982-0.868,5.989c-0.241,3.065-1.613,4.7-4.733,5.581c-8.511,2.401-17.146,4.528-25.018,8.784
			c-0.898,0.485-1.89,0.717-2.926,0.609c-5.799-0.604-11.598-1.213-17.397-1.822c-1.544-0.162-2.664-0.884-3.552-2.219
			c-1.801-2.709-3.434-5.504-4.848-8.427C49.915,438.959,50.096,438.436,52.637,436.957z"/>
		<path fill="#89ADB4" d="M144.491,420.454c1.583-0.354,3.112-1.201,5.328-0.792c-2.73,2.911-4.583,6.081-8.694,6.735
			c-3.084,0.49-6.067,1.589-9.145,2.138c-2.354,0.42-4.611,1.603-7.832,1.188c2.512-2.716,4.17-5.475,7.599-6.279
			C135.995,422.45,140.233,421.407,144.491,420.454z"/>
		<path fill="#24292A" d="M580.337,402.977c-0.195,0.747-0.395,1.492-0.592,2.237c-1.44,3.625-2.844,7.264-4.162,10.933
			c-0.51,1.416-1.039,2.823-1.577,4.225c-2.091,5.45-4.384,10.803-6.787,16.113c-0.922,2.037-1.858,4.069-2.806,6.096
			c-0.53,1.133-1.047,2.274-1.56,3.415c-1.45,3.225-2.876,6.462-4.497,9.599c-1.856,3.59-4.009,7.038-6.201,10.438
			c-5.349,8.297-10.728,16.577-16.247,24.761c-1.615,2.394-3.717,4.465-5.64,6.645c-4.743,5.377-9.599,10.656-14.246,16.113
			c-5.156,6.055-11.048,11.254-17.386,16.023c-5.983,4.503-11.792,9.238-17.723,13.813c-2.634,2.031-5.352,3.957-8.079,5.863
			c-4.951,3.461-9.89,6.942-14.871,10.358c-1.464-1.069-2.932-2.132-4.414-3.175c-1.801-1.267-3.219-2.806-4.518-4.613
			c-3.79-5.273-6.188-11.266-8.738-17.199c-0.829-1.928-0.771-3.705,0.118-5.575c1.658-3.489,3.405-6.946,4.837-10.532
			c1.487-3.725,3.99-6.053,7.58-7.532c3.745-1.543,7.362-3.427,11.019-5.197c4.664-2.257,4.722-2.712,0.887-5.933
			c-0.208-0.174-0.415-0.349-0.625-0.52c-7.373-5.977-14.406-12.339-20.958-19.27c-5.81-6.145-5.248-4.165-3.236-12.566
			c1.554-6.49,2.939-12.902,2.554-19.65c-0.186-3.263-1.094-5.813-3.603-7.885c-3.549-2.932-6.949-6.056-10.395-9.121
			c-1.431-1.273-2.654-2.657-3.017-4.729c-1.314-7.51-2.646-14.992,0.048-22.532c0.601-1.683,0.914-3.477,1.305-5.233
			c0.634-2.848,0.993-5.708,0.687-8.648c-1.031-9.91-2.163-19.792-5.429-29.247c-0.493-1.428-0.749-2.943-1.22-4.381
			c-0.79-2.412-0.39-4.526,0.966-6.683c4.416-7.024,9.087-13.763,16.113-18.366c1.698-1.112,3.277-2.449,4.789-3.825
			c2.686-2.443,5.737-3.999,9.188-4.991c10.629-3.056,21.175-6.376,31.423-10.681c10.851-4.558,8.118-1.496,13.04-13.406
			c2.806-6.788,1.882-5.783-2.538-9.36c-5.811-4.704-12.032-7.744-19.701-8.193c-6.903-0.404-13.915-0.969-20.475-3.909
			c-9.38-4.204-19.211-6.864-29.366-8.382c-2.661-0.398-5.476-0.698-8.021-2.057c0.317-0.474,0.421-0.825,0.615-0.892
			c6.996-2.424,13.802-5.504,21.329-5.964c12.516-0.766,24.789-2.57,36.461-7.969c3.855-1.783,5.891-3.798,5.974-8.135
			c0.166-8.753,2.478-16.926,6.914-24.45c0.139-0.236,0.262-0.49,0.344-0.752c1.052-3.36,3.294-5.092,6.633-5.916
			c5.491-1.356,10.898-3.08,16.342-4.647c1.754-0.505,3.323-1.238,3.743-3.328c0.763-3.797,1.538-7.592,2.258-11.398
			c0.44-2.328-0.42-4.02-2.469-5.122c-3.207-1.724-6.447-3.396-9.562-5.282c-5.254-3.182-10.877-5.182-16.833-6.542
			c-6.798-1.553-13.677-2.859-20.218-5.454c-9.63-3.82-19.384-7.337-28.89-11.457c-5.706-2.473-11.452-3.925-17.574-3.238
			c-4.4,0.494-7.572-0.925-9.697-4.885c-0.322-0.599-0.807-1.102-1.164-1.684c-1.91-3.116-1.617-4.056,1.864-4.774
			c5.405-1.116,10.852-2.007,16.272-3.047c1.878-0.361,3.419,0.069,4.76,1.479c2.248,2.363,4.59,4.631,6.813,7.018
			c1.639,1.76,3.492,2.412,5.818,1.778c4.422-1.204,8.854-2.369,13.29-3.516c1.795-0.464,3.147-1.539,4.202-3.048
			c2.125-3.042,4.191-6.128,6.349-9.145c1.182-1.652,1.271-3.222,0.306-5.006c-1.369-2.531-3-5.007-3.831-7.733
			c-2.454-8.054-8.066-12.304-15.514-14.614c-8.804-2.731-15.154-9.121-21.561-15.39c-2.059-2.014-1.83-2.812,0.915-3.485
			c4.973-1.219,9.978-2.292,14.972-3.419c1.982-0.447,3.906-1.027,5.601-2.256c2.753-1.998,5.575-3.898,8.277-5.968
			c3.826-2.93,3.703-3.355-0.413-5.864c-10.298-6.276-21.162-11.312-32.409-15.467c-4.083-1.508-7.383-3.939-9.909-7.422
			c-5.231-7.21-11.459-13.237-18.67-18.169c3.668,0.986,7.331,1.991,10.991,3.009c2.587,0.719,5.084,1.853,7.516,3.018
			c8.257,3.958,16.562,7.833,24.662,12.095c6.063,3.191,11.854,6.903,17.736,10.434c4.367,2.622,8.742,5.239,13.007,8.023
			c3.303,2.157,6.545,4.436,9.63,6.892c2.465,1.962,4.924,3.933,7.379,5.908c6.056,4.872,12.083,9.781,18.082,14.722
			c1.66,1.367,3.17,2.936,4.628,4.536c0.293,0.321,0.585,0.644,0.874,0.966c6.671,7.433,13.503,14.739,19.836,22.453
			c3.944,4.804,7.135,10.232,10.594,15.426c2.133,3.203,4.204,6.451,6.179,9.754c3.72,6.221,7.409,12.461,11.097,18.701
			c1.71,2.893,3.419,5.786,5.132,8.678c0.795,1.343,1.551,2.71,2.386,4.028c3.342,5.277,4.425,11.402,6.355,17.191
			c3.122,9.364,5.972,18.823,8.764,28.293c2.17,7.361,4.48,14.653,5.862,22.276c1.855,10.235,3.555,20.473,4.833,30.79
			c0.241,1.948,0.868,3.846,1.195,5.788c0.866,5.147,0.986,10.319,0.704,15.539c-0.436,8.069-0.803,16.143-1.133,24.219
			c-0.128,3.137-0.252,6.273-0.369,9.41c-0.57,15.18-2.053,30.286-3.694,45.373c-0.273,2.508-1.372,4.95-2.355,7.359
			c-0.121,0.296-0.241,0.592-0.356,0.888c-1.807,4.613-3.688,9.198-5.544,13.793C580.997,401.27,580.58,402.044,580.337,402.977z"/>
	</g>
</g>
</svg>
