<?xml version="1.0" encoding="utf-8"?>
<!-- Generator: Adobe Illustrator 19.0.0, SVG Export Plug-In . SVG Version: 6.00 Build 0)  -->
<svg version="1.1"
	 id="svg2" xmlns:cc="http://web.resource.org/cc/" xmlns:dc="http://purl.org/dc/elements/1.1/" xmlns:inkscape="http://www.inkscape.org/namespaces/inkscape" xmlns:rdf="http://www.w3.org/1999/02/22-rdf-syntax-ns#" xmlns:sodipodi="http://inkscape.sourceforge.net/DTD/sodipodi-0.dtd" xmlns:svg="http://www.w3.org/2000/svg" sodipodi:version="0.32" sodipodi:docname="venus.svg" sodipodi:docbase="/home/dan/pictures/vectored planets" inkscape:version="0.42"
	 xmlns="http://www.w3.org/2000/svg" xmlns:xlink="http://www.w3.org/1999/xlink" x="0px" y="0px" viewBox="-19.362 86.787 620 620"
	 style="enable-background:new -19.362 86.787 620 620;" xml:space="preserve">
<style type="text/css">
	.st0{fill:#E8D794;}
	.st1{fill:url(#path2836_1_);}
	.st2{fill:url(#path2851_1_);}
	.st3{fill:url(#path4361_1_);}
	.st4{fill:url(#path2856_1_);}
	.st5{fill:url(#path2858_1_);}
	.st6{fill:url(#path2860_1_);}
	.st7{fill:url(#path2864_1_);}
	.st8{fill:url(#path2866_1_);}
	.st9{fill:url(#path2868_1_);}
	.st10{fill:url(#path4357_1_);}
	.st11{fill:url(#path4359_1_);}
	.st12{fill:url(#path5910_1_);}
	.st13{fill:url(#path4363_1_);}
	.st14{fill:url(#path4365_1_);}
	.st15{fill:url(#path4390_1_);}
	.st16{fill:url(#path6029_1_);}
	.st17{fill:url(#path4393_1_);}
	.st18{fill:url(#path4395_1_);}
	.st19{fill:url(#path4397_1_);}
	.st20{fill:url(#path4399_1_);}
	.st21{fill:url(#path4401_1_);}
	.st22{fill:url(#path4403_1_);}
	.st23{fill:url(#path4405_1_);}
	.st24{fill:url(#path4407_1_);}
	.st25{fill:url(#path5904_1_);}
	.st26{fill:url(#path6010_1_);}
	.st27{fill:url(#path6014_1_);}
	.st28{fill:url(#path7041_1_);}
</style>
<sodipodi:namedview  bordercolor="#666666" borderopacity="1.0" id="base" inkscape:cx="400.67189" inkscape:cy="346.74095" inkscape:zoom="0.49497475" pagecolor="#ffffff" showborder="false" inkscape:current-layer="layer1" inkscape:pageopacity="0.0" inkscape:window-width="1017" inkscape:pageshadow="2" inkscape:document-units="px" inkscape:window-height="703" inkscape:window-y="0" inkscape:window-x="0">
	</sodipodi:namedview>
<g id="layer1" inkscape:label="Layer 1" inkscape:groupmode="layer">
	<g id="g6033">
		
			<path id="path1379" sodipodi:cy="359.50504" sodipodi:cx="365.71429" sodipodi:ry="304.28571" sodipodi:rx="304.28571" sodipodi:type="arc" class="st0" d="
			M584.984,395.96c0,162.227-131.818,293.739-294.423,293.739S-3.862,558.187-3.862,395.96s131.818-293.739,294.423-293.739
			S584.984,233.732,584.984,395.96z"/>
		
			<radialGradient id="path2836_1_" cx="150.2657" cy="-910.4664" r="207.656" gradientTransform="matrix(1.6979 0.3652 0.1382 -0.6425 -5.6674 -113.1656)" gradientUnits="userSpaceOnUse">
			<stop  offset="0" style="stop-color:#FFFFFF"/>
			<stop  offset="1" style="stop-color:#F8F1DC;stop-opacity:0"/>
		</radialGradient>
		
			<path id="path2836" sodipodi:nodetypes="ccsssssssssssssssssssssssssssssssssssssssssssssssssssssssssssssssssssssssssssssssssssssssssssssssssssssssssssssssssssssc" class="st1" d="
			M438.719,649.811c5.091-2.831,7.359-4.344,10.724-6.434c-4.442-2.004-10.633-8.92-15.442-11.324
			c-5.788-2.894-6.702-6.219-8.236-12.354c-1.158-4.634,12.054-4.118,16.472-4.118c9.852,0-0.502-10.111-1.373-10.981
			c-2.206-2.206-15.147-3.1-19.217-4.118c-7.172-1.793-11.336-2.745-19.217-2.745c-8.577,0-11.004,1.419-13.726,6.863
			c-2.24,4.479-2.245,12.726-4.118,16.472c-2.165,4.33-17.891,0.331-19.217,0c-4.976-1.244-13.056-7.047-16.472-9.608
			c-5.795-4.346-10.875-6.837-16.472-8.236c-6.762-1.69-13.431-6.298-17.844-9.608c-3.219-2.414-13.011-4.625-16.472-5.491
			c-6.403-1.601-11.78-1.373-19.217-1.373c-5.275,0-14.535-1.232-20.59-2.745c-9.691-2.423-19.336-1.745-28.825-4.118
			c-7.349-1.837-15.522-4.118-23.335-4.118c-7.499,0-17.575-5.08-24.707-6.863c-5.749-1.437-13.952-6.689-17.844-9.608
			c-3.935-2.951-11.247-4.937-15.099-6.863c-4.625-2.313-12.707-1.373-19.217-1.373c-7.043,0-12.46-1.399-17.844-2.745
			c-5.497-1.374-9.387-5.269-12.354-8.236c-3.846-3.846,1.215-13.095,1.373-13.726c0.29-1.161,12.01-2.742,13.726-9.608
			c2.098-8.391,11.477,0.992,12.354,2.745c2.691,5.383,12.006,1.286,17.844,2.745c5.258,1.315,6.754,8.127,9.608,10.981
			c5.623,5.623,2.279-2.253,4.118-9.608c0.833-3.333,14.231-2.745,17.844-2.745c4.993,0,13.918,1.764,17.844,2.745
			c9.782,2.445,10.212-4.996,24.707-1.373c6.449,1.612,9.96,6.608,16.472,8.236c9.43,2.357,11.197-1.157,16.472,4.118
			c4.959,4.959,1.895,10.459,9.608,2.745c6.149-6.149,3.195-2.318,5.491,6.863c1.92,7.679,10.148-1.912,12.354-4.118
			c4.092-4.092-5.491,10.684-5.491,16.472c0,2.325,13.639,4.761,15.099,5.49c3.566,1.783,3.637,11.533,2.745,15.099
			c-2.466,9.866,1.907,7.969,6.863,5.491c5.737-2.868,3.918-10.409,2.745-15.099c-1.524-6.096-2.924-10.268-1.373-16.472
			c0.656-2.624,5.118,9.725,4.118,13.726c-2.699,10.796,5.652,8.195,10.981,6.863c0.712-0.178,0-18.73,0-20.589
			c0-2.288,5.491,1.83,5.491,4.118c0,1.337,15.783-7.547,5.491,2.745c-7.732,7.732,3.72,4.317,6.863,2.745
			c5.327-2.663,5.358,1.24,9.608,5.491c2.145,2.145,0.582-19.232,0-20.59c-0.87-2.031-10.876-6.758-12.354-8.236
			c-3.777-3.777-7.919-5.174-12.354-9.608c-7.051-7.051-7.541-2.067-9.608,0c-3.689,3.689,8.665,5.92,12.354,9.608
			c2.827,2.827,13.071,8.236,1.373,8.236c-3.587,0-11.269-5.635-13.726-6.863c-4.873-2.437-4.284-10.271-5.491-15.099
			c-1.687-6.749-1.599-13.258-2.745-17.844c-2.172-8.689,2.737-15.091-4.118-8.236c-1.241,1.241,3.346,14.755,4.118,17.844
			c1.496,5.986,0,14.383,0,20.589c0,10.203-6.121-6.64-6.863-9.608c-1.642-6.569-2.745-10.724-2.745-17.844
			c0-6.709-3.38-10.879-5.491-15.099c-2.791-5.582-2.867-9.73-6.863-13.726c-0.492-0.492,2.305,14.709,2.745,16.472
			c1.477,5.906,3.933,10.241,5.491,16.472c1.376,5.503,2.745,9.656,2.745,17.844c0,11.926-4.532,4.662-6.863,0
			c-2.362-4.723-5.189-9.307-8.236-12.354c-5.854-5.854,3.684-11.09-6.863-13.726c-7.29-1.822-5.558-4.821-13.726-6.863
			c-4.259-1.065,6.187-10.305,6.863-10.981c6.977-6.977-17.445-5.69-4.118-12.354c7.16-3.58-7.098-9.04-8.236-9.608
			c-0.886-0.443-8.236-18.68-8.236-4.118c0,8.013-0.301,7.013-8.236,10.981c-3.713,1.856,1.373,12.161,1.373,16.472
			c0,7.902,3.043,9.906,6.863,13.726c5.817,5.817,5.758,12.764-1.373,10.981c-5.523-1.381-9.019-4.118-17.844-4.118
			c-8.321,0-2.382-8.236-12.354-8.236c-8.286,0-10.75,1.488-16.472-1.373c-7.164-3.582-5.541-9.408-4.118-15.099
			c2.156-8.625-5.312-8.191-10.981-9.608c-7.285-1.821-12.225,1.373-19.217,1.373c-6.024,0-5.867,8.988-8.236,13.726
			c-0.841,1.683-11.481,6.302-13.726,6.863c-4.211,1.053-10.909-5.455-13.726-6.863c-5.171-2.585-13.075-1.373-19.217-1.373
			c-4.521,0-11.95-5.733-16.472-6.863c-8.202-2.05-13.03,2.726-15.099,6.863c-3.618,7.235-1.988,9.23-8.236,12.354
			c-4.611,2.306-16.382-0.664-19.217-1.373c-5.516-1.379-9.379-5.261-12.354-8.236c-4.199-4.199-6.686-6.819-12.354-8.236
			c-9.973-2.493-8.709,0.806-7.035,6.177c9.155,29.366,26.124,59.41,41.522,80.471c2.196,3.004,31.804-2.129,34.144-1.544
			c6.254,1.563,12.402,2.083,19.217,5.491c5.777,2.888,13.578,3.358,17.844,5.491c7.297,3.649,11.95,7.449,20.59,9.608
			c7.295,1.824,12.162,1.229,17.844,5.491c3.78,2.835,16.275,5.441,21.962,6.863c6.847,1.712,13.609,4.089,19.217,5.491
			c8.015,2.004,18.44,9.906,23.335,12.354c6.594,3.297,15.339,5.264,23.335,6.863c8.539,1.708,15.312,4.118,24.707,4.118
			c7.53,0,17.398,5.036,24.707,6.863c2.663,0.666,1.941,6.295,0,8.236c-1.309,1.309,14.148,5.253,15.099,5.491
			c6.697,1.674,13.987,1.095,20.589,2.745c5.986,1.496,14.383,0,20.59,0c6.863,0,13.726,0,20.589,0c9.151,0,18.302,0,27.453,0
			c8.289,0,12.244-1.345,17.844-2.745C427.633,648.4,432.513,649.811,438.719,649.811z"/>
		
			<radialGradient id="path2851_1_" cx="555.8586" cy="-443.0674" r="207.656" gradientTransform="matrix(0.3091 0.5785 0.496 -0.265 529.4946 -35.2603)" gradientUnits="userSpaceOnUse">
			<stop  offset="0" style="stop-color:#FFFFFF"/>
			<stop  offset="1" style="stop-color:#F8F1DC;stop-opacity:0"/>
		</radialGradient>
		<path id="path2851" class="st2" d="M560.969,419.294c3.361,9.99,3.497,21.774-1.483,31.241c-4.01,1.981-7.651,3.374-6.299,9.218
			c-4.403,6.694,1.441,13.143,3.913,19.256c3.27,4.419,7.095,17.671-2.697,14.295c-2.502-5.224-7.323-9.143-11.298-2.439
			c-3.274,7.392-1.829,16.322,5.935,19.847c3.689,7.556-12.308,5.054-8.66,14.275c2.167,7.677-7.045,14.775-12.198,7.536
			c-1.018-6.389-6.5-7.172-8.391-0.673c-0.77,11.724-11.21,1.296-11.993-5.021c-2.103-7.557-11.954-7.363-14.423-14.361
			c-0.823-6.883-3.709-16.125-12.433-14.963c-8.94,3.761-4.045,15.079,0.815,20.304c3.979,6.853,9.775,11.754,16.193,16.114
			c3.975,3.821,15.435,12.708,8.389,17.724c-9.172-1.453-15.946-9.57-21.41-16.568c-5.611-8.307-14.525-13.848-20.031-22.236
			c-3.559-8.789,1.011-17.146,0.573-25.951c-2.516-6.916,1.669-15.232,9.715-10.867c5.147,0.543,10.801-7.321,14.023,1.161
			c1.861,6.847,14.631,11.51,8.936,18.769c-5.614,7.165,3.057,7.304,7.92,5.01c6.299-0.436,15.395,2.095,19.578-3.586
			c-0.221-7.004,1.882-14.85,8.427-18.531c4.966-4.45,4.047-14.641-0.675-19.16c-7.373-5.061-2.149-14.53-5.129-21.365
			c-1.9-5.59,10.313-12.066,1.45-16.045c-9.069,3.256-8.133-10.059-14.109-10.413c-3.761,5.992-13.292,2.878-15.033,11.547
			c-7.259,4.817-17.73,3.267-21.08-5.576c-4.763-10.725-9.197,4.047-6.296,9.337c3.595,9.154-7.721,8.08-11.746,10.53
			c0.318,6.086-0.934,13.338-8.897,9.89c-9.306-3.229-0.22-15.292-2.002-19.59c-7.446-0.674-20.473,0.782-21.026-9.693
			c4.382-8.007,14.512-8.611,22.545-9.205c2.998-3.535,4.701-7.614,9.827-4.991c7.204-4.013,6.716-12.068,0.718-16.785
			c-0.17-4.354-1.063-13.578,1.74-15.242c4.574,1.256,5.789,14.233,9.695,10.408c-2.126-6.05-2.277-16.97,6.688-10.66
			c0.909,5.172-0.682,16.223,8.221,12.063c6.395-5.146,18.848-2.989,14.014,7.047c-5.435,3.937-7.655,18.121,2.692,15.386
			c8.023,0.675,12.804-11.147,21.286-7.167c5.319,6.837,11.128,13.849,20.911,12.317
			C552.795,412.879,556.488,416.924,560.969,419.294z"/>
		
			<radialGradient id="path4361_1_" cx="852.7018" cy="-748.0263" r="207.656" gradientTransform="matrix(0.0229 0.1179 0.6938 -0.1347 747.5331 99.9763)" gradientUnits="userSpaceOnUse">
			<stop  offset="0" style="stop-color:#E2C05B"/>
			<stop  offset="1" style="stop-color:#E4C873;stop-opacity:0.6531"/>
		</radialGradient>
		<path id="path4361" class="st3" d="M166.337,308.111c8.832,1.448,17.041-3.735,25.652-4.845
			c11.571-1.496,23.519,0.656,34.816-3.066c7.068-1.421,12.431-7.002,19.628-8.117c6.353-3.116,13.583-2.288,20.056-4.629
			c6.362-3.506,13.433-4.991,20.389-6.805c6.453-2.24,12.615-5.388,19.544-6.005c7.594-2.204,15.908-1.595,23.293,0.66
			c-5.669,5.816-13.009,9.502-19.705,13.929c-7.562,5.81-12.161,14.649-14.383,23.772c-2.481,5.235-7.099,10.076-12.811,11.582
			c-13.77,2.91-28.09-0.182-41.837,3.141c-10.764,1.644-21.694,0.517-32.508,1.444c-7.526,0.447-12.608-5.924-19.216-8.147
			c-6.442-0.775-14.083-0.313-18.348-6.355C169.156,312.651,167.713,310.392,166.337,308.111z"/>
		
			<radialGradient id="path2856_1_" cx="241.6128" cy="-37.6907" r="207.656" gradientTransform="matrix(1.2592 -0.2768 -0.1528 -0.6951 -77.8716 373.2213)" gradientUnits="userSpaceOnUse">
			<stop  offset="0" style="stop-color:#FFFFFF"/>
			<stop  offset="1" style="stop-color:#F8F1DC;stop-opacity:0"/>
		</radialGradient>
		<path id="path2856" class="st4" d="M357.133,275.168c2.726,0,15.639,1.508,20.59,2.745c8.642,2.16-9.13,8.236-12.354,8.236
			c-6.32,0-12.798,1.373-20.59,1.373c-8.216,0-12.158,0.981-19.217,2.745c-7.291,1.823-13.443,4.663-17.844,6.863
			c-6.953,3.476-11.636,5.818-16.472,8.236c-4.962,2.481-7.8,6.428-10.981,9.608c-7.563,7.563-0.051,7.562,2.745,6.863
			c5.577-1.394,8.882-4.764,12.354-8.236c3.713-3.713,9.864-4.932,13.726-6.863c6.029-3.015,11.244-4.184,16.472-5.491
			c6.134-1.534,10.008-2.502,16.472-4.118c5.756-1.439,10.029-2.745,17.844-2.745c7.837,0,11.056-0.649,17.844,2.745
			c6.681,3.341,15.495,0.93,2.745,4.118c-7.069,1.767-13.626,0.636-17.844,2.745c-5.062,2.531-0.116,12.47-4.118,16.472
			c-5.268,5.268-5.936,6.863-15.099,6.863c-6.613,0-9.315-4.044-15.099-5.491c-3.208-0.802-9.539,6.828-12.354,8.236
			c-6.027,3.014-9.48,2.617-13.726,6.863c-3.293,3.293-5.303,10.606-6.863,13.726c-3.198,6.396-5.674,9.975-8.236,15.099
			c-2.7,5.401-12.354,4.192-12.354-2.745c0-6.82,4.118-10.102,4.118-17.844c0-6.203,4.456-11.319-2.745-4.118
			c-3.66,3.66-1.83,12.811-5.491,16.472c-5.054,5.054-12.507-7.78-16.472-13.726c-1.795-2.692-3.628,6.863-6.863,6.863
			c-8.855,0-0.988-15.483-10.981-5.491c-2.489,2.489,4.118,12.137,4.118,16.472c0,8.805-0.875,10.514-8.236,12.354
			c-6.699,1.675-7.777,1.602-13.726-1.373c-4.597-2.299-9.624-6.185-13.726-8.236c-6.062-3.031-12.294-3.402-16.472-5.491
			c-5.359-2.679-12.88-1.504-17.844-2.745c-8.356-2.089-13.257,0.904-17.844,5.491c-5.802,5.802-5.711,4.694,1.373,8.236
			c8.3,4.15,1.585,8.816-2.745,10.981c-6.277,3.139-13.894,4.16-19.217,5.491c-5.986,1.496-14.383,0-20.59,0
			c-5.339,0-12.941,6.47-16.472,8.236c-8.336,4.168,1.76,11.369,4.118,13.726c4.918,4.918,6.612,4.988,9.608,10.981
			c2.223,4.446,0.437,15.475,1.373,19.217c1.938,7.752,9.315,8.434,10.981,15.099c1.724,6.898-11.297,5.491-16.472,5.491
			c-5.361,0-12.091-9.346-13.726-10.981c-3.432-3.432-4.804-8.922-8.236-12.354c-3.287-3.287-14.439-0.851-17.844,0
			c-9.091,2.273-9.521-5.141-10.981-10.981c-1.13-4.52,3.917-11.951,5.491-15.099c3.233-6.465,4.456-12.373,2.745-19.217
			c-2.136-8.544,0.833-12.77,5.491-15.099c5.648-2.824,12.4-2.082,16.472-4.118c6.638-3.319,7.453-6.324,15.099-8.236
			c9.202-2.301,12.974-2.482,10.981,5.491c-1.394,5.576-9.1,9.608,2.745,9.608c8.54,0,9.764-2.745,17.844-2.745
			c5.538,0,5.491-11.274,5.491-12.354c0-5.356-6.863-5.235-6.863-13.726c0-4.813,9.015-8.236,13.726-8.236
			c8.273,0,10.123-2.231,15.099,2.745c3.558,3.558,6.83,10.848,4.118,0c-2.445-9.78,3.448-9.441,9.608-10.981
			c9.626-2.406,3.999-6.147-4.118-4.118c-10.904,2.726-2.868-8.174,0-9.608c4.778-2.389,16.472,0,21.962,0
			c5.948,0,9.566,4.107,15.099,5.491c7.828,1.957,10.297-2.745,17.844-2.745c6.421,0,9.021-5.687,10.981-9.608
			c0.599-1.198,17.59-2.339,19.217-2.745c5.099-1.275,9.574-5.456,12.354-8.236c2.786-2.786,11.464-5.491,16.472-5.491
			c5.67,0,10.06-5.603,15.099-6.863c4.129-1.032,9.547-4.103,15.099-5.491c7.262-1.816,10.564-5.386,16.472-6.863
			c6.571-1.643,13.232-1.153,17.844,0C349.049,277.265,355.245,275.546,357.133,275.168z"/>
		
			<radialGradient id="path2858_1_" cx="25.3067" cy="-813.3358" r="207.656" gradientTransform="matrix(0.2345 0.0314 0.0131 -0.098 204.5569 338.4694)" gradientUnits="userSpaceOnUse">
			<stop  offset="0" style="stop-color:#FFFFFF"/>
			<stop  offset="1" style="stop-color:#F8F1DC;stop-opacity:0"/>
		</radialGradient>
		<path id="path2858" class="st5" d="M191.045,412.431c6.355,1.589-12.666-4.118-19.217-4.118c-7.014,0-14.058,0.083-19.217,1.373
			c-7.916,1.979-10.943,6.712-12.354,12.354c-2.541,10.165,9.473,3.466,12.354,2.745c7.232-1.808,9.798-5.195,16.472-6.863
			c6.674-1.668,11.133,3.508,15.099,5.491c5.773,2.886,9.045,4.259,15.099,2.745c6.096-1.524,10.268-2.924,16.472-1.373
			c5.92,1.48,15.315-0.397,19.217-1.373c9.165-2.291-8.445-7.945-9.608-8.236c-8.888-2.222-9.684-1.016-15.099-8.236
			c-1.746-2.328-10.489-6.617-13.726-8.236c-6.652-3.326-10.841-6.584-6.863,1.373C193.343,407.418,196.071,399.865,191.045,412.431
			z"/>
		
			<radialGradient id="path2860_1_" cx="269.7344" cy="-1114.7777" r="207.656" gradientTransform="matrix(0.4215 0.0394 0.0371 -0.3969 285.9965 116.2228)" gradientUnits="userSpaceOnUse">
			<stop  offset="0" style="stop-color:#F7EED4"/>
			<stop  offset="1" style="stop-color:#F8F1DC;stop-opacity:0"/>
		</radialGradient>
		<path id="path2860" class="st6" d="M348.898,520.869c2.93,5.859-12.861-5.707-19.217-4.118c-4.372,1.093,1.46,10.338,5.491,12.354
			c6.175,3.088,10.671,4.649,15.099,6.863c5.065,2.533,9.447,4.724,13.726,6.863c8.313,4.156-0.747,10.981-6.863,10.981
			c-4.291,0-2.74,8.215-4.118,13.726c-1.787,7.149-5.913,6.863-13.726,6.863c-7.217,0-6.435-5.018-13.726-1.373
			c-5.159,2.58-7.689,6.317-10.981,9.608c-3.575,3.575,14.198,4.118,16.472,4.118c12.568,0,25.146,1.373,35.688,1.373
			c9.245,0,12.149,0.205,16.472-4.118c7.341-7.341-7.168-9.608-10.981-9.608c-6.149,0-9.86-6.497-10.981-10.981
			c-0.966-3.864,11.984-5.992,13.726-6.863c0.837-0.418-5.148-14.413-5.491-15.099c-2.526-5.052-9.379-10.752-12.354-13.726
			C353.689,524.288,356.266,526.764,348.898,520.869z"/>
		
			<radialGradient id="path2864_1_" cx="-46.1326" cy="-772.6702" r="207.656" gradientTransform="matrix(0.8066 -0.2442 -0.0706 -0.2333 28.7206 121.115)" gradientUnits="userSpaceOnUse">
			<stop  offset="0" style="stop-color:#F7EED4"/>
			<stop  offset="1" style="stop-color:#F8F1DC;stop-opacity:0"/>
		</radialGradient>
		<path id="path2864" sodipodi:nodetypes="ccsssssssssssssssssssssc" class="st7" d="M0.249,346.202
			c5.319-30.884,16.805-63.31,27.453-82.701c-1.706-7.724,13.35,5.8,17.844,10.295c5.608,5.608-2.957,11.087-5.491,12.354
			c-5.468,2.734,12.511,2.745,15.099,2.745c7.778,0,15.557,0,23.335,0c8.437,0,15.874-1.373,24.707-1.373
			c6.746,0,14.472-0.187,19.217-1.373c6.345-1.586,10.755-4.061,16.472-5.491c5.789-1.447,11.034-4.131,16.472-5.491
			c8.144-2.036,16.79-2.139,24.707-4.118c7.901-1.975,18.031-2.449,24.707-4.118c6.708-1.677,16.184-1.373,21.962-1.373
			c7.929,0-12.144,9.017-15.099,9.608c-11.206,2.241-22.238,3.35-32.943,5.491c-10.43,2.086-17.328,8.793-26.08,10.981
			c-9.041,2.26-14.204,5.953-23.335,8.236c-7.734,1.934-16.564,8.291-23.335,12.354c-6.816,4.089-14.17,5.934-19.217,10.981
			c-4.516,4.516-14.816,4.047-20.59,5.491c-8.631,2.158-16.51,2.764-24.707,6.863c-7.47,3.735-13.995,4.252-19.217,6.863
			c-5.252,2.626-10.7,2.675-16.472,4.118C4.408,346.878,1.621,346.202,0.249,346.202z"/>
		
			<radialGradient id="path2866_1_" cx="277.3269" cy="582.851" r="207.656" gradientTransform="matrix(1.4463 -0.3109 -0.0508 -0.2363 -111.2661 393.779)" gradientUnits="userSpaceOnUse">
			<stop  offset="0" style="stop-color:#FFFFFF"/>
			<stop  offset="1" style="stop-color:#F8F1DC;stop-opacity:0"/>
		</radialGradient>
		<path id="path2866" sodipodi:nodetypes="ccsssssssssscsssssssssssssc" class="st8" d="M459.738,155.406
			c-21.655-15.253-51.513-29.888-66.058-34.659c-4.936,1.234-27.652,9.279-35.174,13.04c-5.462,2.731-16.319,3.737-23.335,5.491
			c-9.527,2.382-19.273,3.58-28.825,5.491c-9.562,1.912-17.715,3.543-27.453,5.491c-9.694,1.939-20.067,1.373-30.198,1.373
			c-9.608,0-19.217,0-28.825,0c-7.778,0-15.556,0-23.335,0c-7.321,0-14.641,0-21.962,0c-7.268,0-13.589,0.034-19.217-1.373
			c-15.53-3.883-25.028-1.215-31.571,3.432c-29.003,20.596-49.177,41.456-62.283,57.822c-5.908,6.442,21.971,6.005,30.713,6.005
			c10.034,0,19.867,1.373,30.198,1.373c9.006,0,18.088-1.373,27.453-1.373c8.693,0,17.387,0,26.08,0
			c14.252,0,27.403-2.745,41.179-2.745c11.047,0,21.641-2.745,32.943-2.745c8.321,0,17.923-6.197,26.08-8.236
			c12.676-3.169,23.605-6.588,35.688-9.608c8.725-2.181,18.828-4.118,27.453-4.118c9.059,0,21.477-3.31,30.198-5.491
			c11.563-2.891,25.275-3.715,34.316-8.236c6.223-3.112,14.853-6.216,23.335-9.608c6.677-2.671,11.735-2.247,19.217-4.118
			C451.531,161.318,456.685,156.932,459.738,155.406z"/>
		
			<radialGradient id="path2868_1_" cx="197.8219" cy="-1410.9365" r="207.656" gradientTransform="matrix(0.9694 0.2681 0.0633 -0.229 80.9181 233.0087)" gradientUnits="userSpaceOnUse">
			<stop  offset="0" style="stop-color:#F7EED4"/>
			<stop  offset="1" style="stop-color:#F8F1DC;stop-opacity:0"/>
		</radialGradient>
		<path id="path2868" sodipodi:nodetypes="cssssssssssssssssssssssssc" class="st9" d="M162.22,512.633
			c-3.159,5.587-1.041,13.017,2.745,20.589c3.128,6.255,6.008,8.753,10.981,13.726c4.269,4.269,101.732,32.85,105.693,41.179
			c3.415,7.18-12.464,5.491-16.472,5.491c-8.693,0-185.467-30.198-192.169-30.198c-6.863,0-23.336,1.613-20.418,5.491
			c113.464,150.768,294.574,138.993,388.97,79.441c1.997-1.26-13.475-7.595-14.413-8.064c-5.222-2.611-7.319-9.147-9.608-13.726
			c-2.221-4.442-4.277-12.989-5.491-17.844c-1.476-5.903-5.925-9.717-10.981-10.981c-6.02-1.505-9.767-3.049-16.472-1.373
			c-6.691,1.673-10.141,2.745-17.844,2.745c-4.633,0-12.598,1.373-19.217,1.373c-6.863,0-13.726,0-20.589,0
			c-7.816,0-12.193-0.989-19.217-2.745c-5.758-1.44-10.354-4.491-15.099-6.863c-7.561-3.78-5.269-4.86,2.745-6.863
			c7.065-1.766,14.394,1.02,17.844,2.745c4.904,2.452,11.265,2.816,16.472,4.118c5.986,1.496,14.383,0,20.589,0
			c12.995,0-0.491-16.962-4.118-20.589c-3.864-3.864-5.359-21.474-37.061-24.707c-6.464-0.659-11.044-1.526-16.472-4.118
			C262.758,527.199,170.977,508.95,162.22,512.633z"/>
		
			<radialGradient id="path4357_1_" cx="389.3618" cy="-700.5415" r="207.656" gradientTransform="matrix(0.0105 0.1196 0.7203 -0.0632 773.0695 145.5964)" gradientUnits="userSpaceOnUse">
			<stop  offset="0" style="stop-color:#E2C05B"/>
			<stop  offset="1" style="stop-color:#E4C873;stop-opacity:0.6531"/>
		</radialGradient>
		<path id="path4357" class="st10" d="M405.176,195.555c-16.356,0.598-29.192,12.629-44.097,17.965
			c-11.242,3.784-23.001,6.197-34.915,5.369c-16.259-0.148-32.563,0.65-48.742-1.314c-12.044-0.38-24.021-2.046-36.104-1.432
			c-16.938,0.676-34.974-2.627-50.69,5.475c-12.571,4.199-25.979,5.931-37.661,12.596c-5.556,1.365-9.558,7.98-0.709,6.312
			c6.089,0.053,15.98-1.187,19.485,3.564c-4.132,1.541-16.724,4.186-5.985,7.171c14.519,5.314,29.982,1.458,44.966,1.624
			c14.479-1.016,28.981-1.519,43.463-2.427c13.694,0.524,26.851-3.669,40.264-5.421c16.296-1.036,33.927,2.682,48.803-5.989
			c8.855-2.713,16.409-7.96,24.53-12.146c11.302-4.848,22.761-9.353,33.912-14.531C409.799,208.351,414.861,201.642,405.176,195.555
			z"/>
		
			<radialGradient id="path4359_1_" cx="334.8326" cy="-783.8241" r="207.656" gradientTransform="matrix(0.8108 0.6266 0.9022 -1.1675 805.7348 -711.0527)" gradientUnits="userSpaceOnUse">
			<stop  offset="0" style="stop-color:#DFBA49"/>
			<stop  offset="1" style="stop-color:#E4C873;stop-opacity:0.6531"/>
		</radialGradient>
		<path id="path4359" sodipodi:nodetypes="cccccccccccccccccccccccccccccccccccccccccccccccccccccccccccc" class="st11" d="
			M567.833,494.789c26.651-73.955,23.711-160.608-17.158-236.264c-11.357,0.01-38.366,9.814-34.316,27.624
			c-6.703,1.018-13.572-15.823-20.715-2.745c-9.436,12.352-29.825,1.868-15.004-9.858c19.287-1.836,2.19-47.507-5.46-18.967
			c-0.573,21.061-29.119,9.57-33.046,26.684c-5.072,19.397-33.732-8.065-32.441,15.059c-3.451,15.352-26.913,9.94-27.851,28.262
			c-16.218,6.272-36.257-0.645-50.531,9.343c-11.971,10.146-28.332,17.382-29.345,35.516c-8.108,10.47,10.193,27.579-12.284,20.295
			c-15.414-6.676-25.961-5.71-42.579-9.399c-18.47,9.622,10.688,16.623,19.862,16.165c8.925,4.082-7.138,11.876-25.971,7.539
			c-6.65-1.576-31.867-21.563-23.866-5.337c16.001,12.172,46.005,15.629,55.568,22.957c9.651,13.612,0.358-3.16-17.081,5.915
			c-12.209,13.338,5.409,29.916,17.513,35.869c13.723,8.53,20.583,25.037,36.853,29.728c13.539,11.624,32.794,21.946,47.155,4.361
			c19.393-9.273,25.268,19.181,41.814,23.722c16.103,3.237,27.419,16.06,41.916,22.947c22.033,7.326,0.836,26.21-13.004,25.64
			c-15.466,2.634-30.39-6.12-44.049-12.296c-17.295,0.798-27.549-15.016-41.558-22.5c-16.447-12.649,4.372,9.2,9.166,12.519
			c11.672,11.11,31.134,11.145,38.323,25.756c8.876,15.899,29.272,6.061,43.263,7.053c12.195-9.489,47.04,7.845,61.509,18.443
			c14.96-8.475,18.098-35.885,7.059-43.626c-0.552-10.203-47.592-53.467-55.267-34.728c-6.304,16.323-21.572-6.635-17.28-14.928
			c-14.438-2.843-17.405-14.021-6.711-24.044c5.624-4.47,7.636-24.074-0.669-8.667c-4.976,10.733-23.593,10.054-9.608-1.373
			c6.685-6.276,19.589-24.015,19.127-5.632c7.19,0.726,21.876-1.109,14.517,9.962c7.316,6.937,26.658-9.934,7.535-9.821
			c-3.554-6.4,7.253-21.074-9.587-17.492c-7.227-2.866-9.464-14.428-16.358-1.691c-4.291,5.81-23.025,15.715-22.054,13.792
			c9.999-1.559,6.616-31.776,14.517-21.594c4.151,23.19,13.188-22.656,0.538-19.684c-16.032,11.497-26.155-25.517-4.118-20.589
			c1.642-13.528,16.408-0.029,23.335-12.354c8.137,0.46-1.879,29.946,10.566,14.295c8.201-11.283-0.39-20.819-0.958-33.512
			c13.595-5.748,12.697-21.256,17.992-31.689c-0.05,9.413,2.729,27.546,12.641,11.225c10.261-15.362,11.41,15.702,9.676,22.452
			c5.751,7.603,20.371-3,23.919,10.952c21.777,9.318-3.765-19,3.031-29.412c3.5-13.369,25.79-10.516,19.234-28.612
			c-6.205-17.065,17.632-32.324,27.436-16.685c4.198,13.873,5.104,31.294-2.463,44.116c-8.459,14.521-17.645,29.501-21.948,45.844
			c-0.452,15.662,30.137,14.103,25.694,34.164c-0.33,15.086-13.153,28.44-7.432,44.803
			C560.096,481.652,561.599,489.475,567.833,494.789z"/>
		
			<radialGradient id="path5910_1_" cx="3231.793" cy="-2847.5852" r="207.656" gradientTransform="matrix(0.6169 0.2143 0.0326 -0.0938 -1532.5059 -473.5163)" gradientUnits="userSpaceOnUse">
			<stop  offset="0" style="stop-color:#DAA02F;stop-opacity:0.4471"/>
			<stop  offset="1" style="stop-color:#BC9624;stop-opacity:0.2959"/>
		</radialGradient>
		<path id="path5910" class="st12" d="M438.119,531.85c-9.395-7.13-18.186-15.028-26.952-22.884
			c-3.61-8.721-13.025-11.208-18.479-18.377c-6.161-7.069-16.21-7.295-24.286-10.881c-7.946-1.482-16.017,2.092-24.119,0.193
			c-9.449-0.328-19.741,0.355-27.748-5.681c-7.528-4.443-12.711-12.087-21.17-15.119c-4.706-2.761-13.531-5.767-17.252-3.142
			c8.99,6.259,20.241,9.235,27.755,17.637c7.744,4.932,12.371,13.66,20.748,17.575c8.666,4.595,19.914-0.887,27.525,6.279
			c6.175,4.133,8.526,13.285,16.702,14.124c8.449,1.362,17.067,1.436,25.378,3.685c13.599,1.078,23.007,12.33,31.033,22.14
			c5.344,6.571,16.377,5.449,19.806,13.997c2.273,8.194,10.335,10.932,17.298,14.186c5.522,4.869,18.514,4.702,14.314-5.607
			c-3.58-6.529-11.436-9.3-15.105-15.967C458.322,534.244,445.648,538.163,438.119,531.85L438.119,531.85z"/>
		
			<radialGradient id="path4363_1_" cx="1186.3745" cy="-1387.073" r="207.656" gradientTransform="matrix(0.118 0.0224 0.0201 -0.1062 8.5139 301.7754)" gradientUnits="userSpaceOnUse">
			<stop  offset="0" style="stop-color:#E2C05B"/>
			<stop  offset="1" style="stop-color:#E4C873;stop-opacity:0.6531"/>
		</radialGradient>
		<path id="path4363" class="st13" d="M118.295,467.337c-6.628,0-12.354-7.54-12.354,6.863c0,2.22,11.131,7.013,12.354,8.236
			c3.55,3.55,10.826,3.813,15.099,2.745c5.196-1.299-1.704-11.312-5.491-15.099C125.517,467.695,121.713,468.02,118.295,467.337z"/>
		
			<radialGradient id="path4365_1_" cx="1513.8138" cy="-1212.2249" r="207.656" gradientTransform="matrix(0.118 0.0224 0.0201 -0.1062 8.5139 301.7754)" gradientUnits="userSpaceOnUse">
			<stop  offset="0" style="stop-color:#E2C05B"/>
			<stop  offset="1" style="stop-color:#E4C873;stop-opacity:0.6531"/>
		</radialGradient>
		<path id="path4365" class="st14" d="M152.611,461.846c-5.657-5.657-12.375,2.83-13.726,8.236
			c-1.662,6.649,8.14,6.863,13.726,6.863c5.486,0,8.929-4.118,16.472-4.118c8.733,0,10.968,1.359,15.099,5.491
			c3.301,3.301,6.495,10.613,6.863,10.981c2.499,2.499,4.118-13.685,4.118-16.472c0-5.988-5.469-8.911-9.608-10.981
			c-5.317-2.659-9.986-4.212-15.099-5.491c-5.937-1.484-7.449-6.662-9.608-10.981c-2.722-5.443,5.677-5.101-6.863-8.236
			c-5.177-1.294-8.55-6.942-13.726-8.236c-4.719-1.18,6.169,7.542,9.608,10.981C153.675,443.693,152.611,454.473,152.611,461.846z"
			/>
		
			<radialGradient id="path4390_1_" cx="5140.2466" cy="973.7198" r="207.656" gradientTransform="matrix(0.0126 -0.338 -0.089 -0.0033 597.8278 2168.2822)" gradientUnits="userSpaceOnUse">
			<stop  offset="0" style="stop-color:#CC9223;stop-opacity:0.7765"/>
			<stop  offset="1" style="stop-color:#C29E33;stop-opacity:0.5294"/>
		</radialGradient>
		<path id="path4390" class="st15" d="M576.755,464.591c5.586-24.047,8.802-48.755,8.285-73.471
			c-0.398-3.69,0.201-9.29-1.207-11.774c-1.123,0.655-3.305,0.512-1.07-0.437c-2.867,0.193-3.963,6.838-6.199,2.318
			c-1.458-3.69-6.791-3.445-6.749,0.944c-0.2,3.411,1.735,6.485-0.705,9.491c-1.914,3.778,1.58,6.065,3.343,8.684
			c1.545,4.272-6.124,6.029-2.52,10.398c2.38,3.619,7.616,3.697,10.067,7.293c1.749,3.23-0.99,6.708-0.555,10.135
			c0.656,5.499-2.574,10.723-1.47,16.21c-0.263,4.767-6.288,3.836-8.931,6.392c-2.879,2.524-3.861,7.854-1.057,10.723
			C570.804,462.97,574.025,462.592,576.755,464.591z"/>
		
			<radialGradient id="path6029_1_" cx="544.4575" cy="-138.8263" r="207.656" gradientTransform="matrix(-0.1021 -0.1871 -0.5236 0.2857 529.5743 405.0519)" gradientUnits="userSpaceOnUse">
			<stop  offset="0" style="stop-color:#E2C05B"/>
			<stop  offset="1" style="stop-color:#E4C873;stop-opacity:0.6531"/>
		</radialGradient>
		<path id="path6029" sodipodi:nodetypes="csssssssssssssssssssssc" class="st16" d="M522.637,215.105
			c-5.761-0.75-3.924,6.456-11.504,10.246c-7.035,3.518-10.458,7.288-17.844,10.981c-7.35,3.675-13.383,10.123-20.59,13.726
			c-6.437,3.218-11.399,7.072-16.472,9.608c-6.956,3.478-10.134,3.27-15.099,8.236c-4.177,4.177-14.228,7.332-17.844,8.236
			c-3.346,0.836-7.883,10.053-9.608,12.354c-3.55,4.734-5.861,7.603-8.236,12.354c-2.539,5.079-6.021,7.924-8.236,12.354
			c-2.824,5.647-7.874,8.669,1.373,10.981c5.986,1.496,14.383,0,20.589,0c4.118,0,10.967-6.86,16.472-8.236
			c4.427-1.107,10.135-4.25,15.099-5.491c6.259-1.565,12.868-1.501,17.844-2.745c5.986-1.496,14.383,0,20.59,0
			c6.863,0,13.726,0,20.59,0c6.211,0,10.564,2.745,17.844,2.745c6.863,0,13.726,0,20.59,0c5.044,0,13.928,10.138,15.965,14.212
			c2.897,5.795,4.668,10.158,8.236,13.726c3.603,3.603,8.748,10.717,8.236,7.106C573.602,295.984,544.354,242.039,522.637,215.105z"
			/>
		
			<radialGradient id="path4393_1_" cx="3198.9888" cy="312.5127" r="207.656" gradientTransform="matrix(0.3822 -0.0897 -0.0112 -0.0477 -858.9622 637.2128)" gradientUnits="userSpaceOnUse">
			<stop  offset="0" style="stop-color:#CC9223;stop-opacity:0.7765"/>
			<stop  offset="1" style="stop-color:#C29E33;stop-opacity:0.5294"/>
		</radialGradient>
		<path id="path4393" class="st17" d="M399.685,343.113c6.95,0.42,14.455-1.341,20.855,2.178c4.778,1.507,5.64,7.404,10.423,9.087
			c2.629,1.739,6.593,6.905,0.705,6.661c-4.898,1.203-6.884-4.088-9.387-7.093c-4.676-3.713-10.382,1.069-15.67,0.147
			c-4.292-0.372-10.002,0.751-12.802-3.325c-2.752-4.055,0.742-10.127-3.851-13.142c-7.54-3.928-16.243-1.994-24.362-2.022
			c-4.274,0.51-9.509-0.028-12.766,3.288c-2.546,4.258-6.543,7.108-11.32,8.451c-6.227,2.531-9.912,8.574-15.534,12.043
			c-3.047,3.062-5.35,6.478-9.828,7.331c-1.693,2.116-0.453,9.054-4.775,5.111c-4.477-2.436-6.253-7.357-5.714-12.238
			c0.176-6.823,8.509,2.039,10.265-2.692c1.633-3.863-0.063-8.76,2.556-12.142c3.955-3.175,7.761,1.928,10.858,2.794
			c2.152-5.491,6.529-9.766,8.578-15.417c3.052-3.458,8.271-1.529,12.316-2.045c4.027-4.447,11.48-5.452,15.031,0.335
			c3.713,2.145,8.533,1.944,12.527,0.722c2.985-3.627,9.544-9.16,13.001-3.068c-0.989,4.478-0.857,9.001,4.163,11.062
			C396.401,340.619,398.063,341.835,399.685,343.113z"/>
		
			<radialGradient id="path4395_1_" cx="4346.1309" cy="1428.6899" r="207.656" gradientTransform="matrix(0.1477 -0.0583 -0.0396 -0.1005 -42.7336 678.5658)" gradientUnits="userSpaceOnUse">
			<stop  offset="0" style="stop-color:#CC9223;stop-opacity:0.7765"/>
			<stop  offset="1" style="stop-color:#C29E33;stop-opacity:0.5294"/>
		</radialGradient>
		<path id="path4395" class="st18" d="M548.616,269.677c1.103,1.103,2.339,5.771,4.118,7.549c2.906,2.906,2.825,3.352,0.686,5.491
			c-1.912,1.912-7.481,0.36-8.922,0c-3.87-0.967-4.804-3.362-4.804,5.491c0,1.977-3.868,4.554-4.804,5.491
			c-1.446,1.446-3.89-6.637-4.118-7.549c-1.116-4.465,1.097-5.491,4.804-5.491c4.778,0,6.177,0.961,6.177-4.118
			C541.752,271.415,543.369,270.727,548.616,269.677z"/>
		
			<radialGradient id="path4397_1_" cx="3591.0271" cy="-1484.7606" r="207.656" gradientTransform="matrix(0.1009 0.0139 0.01 -0.0696 66.7467 365.8561)" gradientUnits="userSpaceOnUse">
			<stop  offset="0" style="stop-color:#CC9223;stop-opacity:0.7765"/>
			<stop  offset="1" style="stop-color:#C29E33;stop-opacity:0.5294"/>
		</radialGradient>
		<path id="path4397" class="st19" d="M403.194,498.407c0-3.598-1.31,9.01,1.964,10.619c3.673,1.805,2.946,7.105,2.946,11.585
			c0,5.26,2.805,6.723,6.875,7.723c5.75,1.413,7.59-2.634,9.821-4.827c3.713-3.65-4.881-8.674-6.875-9.654
			c-4.216-2.072-6.042-3.189-7.857-6.758C407.847,502.727,408.371,501.46,403.194,498.407z"/>
		
			<radialGradient id="path4399_1_" cx="2443.6672" cy="-815.3399" r="207.656" gradientTransform="matrix(0.1549 0.0294 0.0264 -0.1397 -90.7218 265.7762)" gradientUnits="userSpaceOnUse">
			<stop  offset="0" style="stop-color:#CC9223;stop-opacity:0.7765"/>
			<stop  offset="1" style="stop-color:#C29E33;stop-opacity:0.5294"/>
		</radialGradient>
		<path id="path4399" class="st20" d="M270.677,439.264c-2.124-4.258,5.987-7.485,8.111-11.743c3.059-6.131-4.013-5.995-6.309-5.42
			c-3.731,0.935-5.733,2.873-9.013,4.516c-2.015,1.01-5.628,4.175-8.111,5.42c-4.115,2.062-0.831,8.27,0,9.936
			c2.429,4.868-1.459,0.475,0,6.323c0.118,0.475,7.724,4.642,9.013,7.226c2.884,5.781-2.152,7.051,3.605,9.936
			c3.606,1.807,5.191-3.613,9.914-3.613c3.432,0,5.448,4.301,9.914,5.42c5.45,1.366,7.769-2.367,9.914-4.516
			c3.639-3.647,0.325-6.575-0.901-9.033c-0.445-0.892-8.506-4.714-9.914-5.42c-1.104-0.553-4.482,5.639-7.21,6.323
			c-1.176,0.295-4.18-8.379-4.506-9.033C274.357,443.93,271.253,440.225,270.677,439.264z"/>
		
			<radialGradient id="path4401_1_" cx="2959.3669" cy="-875.899" r="207.656" gradientTransform="matrix(0.1644 -0.0086 -0.0077 -0.1479 -164.6262 376.9998)" gradientUnits="userSpaceOnUse">
			<stop  offset="0" style="stop-color:#CC9223;stop-opacity:0.7765"/>
			<stop  offset="1" style="stop-color:#C29E33;stop-opacity:0.5294"/>
		</radialGradient>
		<path id="path4401" class="st21" d="M319.628,465.3c-0.77-6.962-14.422-13.999-11.507-2.11c-0.45,8.76-15.161,2.325-12.824,13.023
			c0.872,12.418,14.575,9.629,23.031,11.519c10.019,2.168,10.655,13.317,14.973,20.433c8.351,3.881,14.348-8.203,20.273-12.82
			c7.847-2.753,9.784-17.702-1.523-12.237c-8.378,3.307-15.088-5.447-5.258-9.377c-1.716-4.426-10.849-0.457-13.537-6.75
			C329.462,463.11,324.193,466.298,319.628,465.3z"/>
		
			<radialGradient id="path4403_1_" cx="184.3145" cy="-680.3642" r="207.656" gradientTransform="matrix(0.2874 -0.0537 -0.0227 -0.1219 370.8807 236.18)" gradientUnits="userSpaceOnUse">
			<stop  offset="0" style="stop-color:#F7EED4"/>
			<stop  offset="1" style="stop-color:#F8F1DC;stop-opacity:0"/>
		</radialGradient>
		<path id="path4403" class="st22" d="M445.668,293.012c-0.486-8.023,14.808-10.941,18.895-4.068
			c2.194,8.97,7.564,16.861,9.246,25.642c2.162,10.936-12.605,6.441-15.787,0.388c-4.941-5.628-11.494-6.574-17.043-1.781
			c-5.143-1.03-14.093,3.551-9.724,8.257c8.164-0.503,15.723,4.204,17,12.6c-0.471,6.616-13.178,9.722-17.858,3.966
			c-9.309-1.443-2.778-15.009-12.18-17.551c-5.712-5.57-0.318-13.723,7.237-12.043c5.622-4.999,16.154-2.229,18.218-10.999
			C444.265,295.923,444.836,294.402,445.668,293.012z"/>
		
			<radialGradient id="path4405_1_" cx="-1.363" cy="-833.09" r="207.656" gradientTransform="matrix(0.1481 0.0148 0.0518 -0.5174 416.7899 0.3732)" gradientUnits="userSpaceOnUse">
			<stop  offset="0" style="stop-color:#F7EED4"/>
			<stop  offset="1" style="stop-color:#F8F1DC;stop-opacity:0"/>
		</radialGradient>
		<path id="path4405" class="st23" d="M367.428,374.684c-3.758-3.678-12.561-7.654-14.413,0.686
			c-0.626,5.507,10.362,0.596,7.386,8.187c-0.842,6.487,0.264,12.583,7.996,9.72c4.682,6.311-0.784,16.484,7.953,20.526
			c0.206,8.365,6.588,11.927,12.191,16.995c6.723,4.309,1.388,17.494-6.7,15.262c-5.624-2.441-17.445-0.344-17.171-8.467
			c0.01-5.137,1.401-17.56-6.352-15.187c-7.695,7.032,4.454,15.44-1.338,22.307c-5.737,6.728,6.383,12.975,5.144,20.396
			c-3.992,6.17,0.474,12.192,7.503,9.323c5.877-0.33,6.8-8.369,9.928-9.388c7.616,6.166,3.504-11.952,12.244-10.811
			c6.259-3.527,1.479-14.388,9.353-18.018c4.731-5.47,4.064-15.301-2.594-18.959c-6.224-3.184-7.07-12.136-14.143-12.832
			c-9.279-2.056-6.971-14.992-15.615-18.073C364.718,382.74,371.449,378.434,367.428,374.684z"/>
		
			<radialGradient id="path4407_1_" cx="392.5247" cy="-995.0675" r="207.656" gradientTransform="matrix(0.0297 0.0318 0.146 -0.1364 568.189 236.9873)" gradientUnits="userSpaceOnUse">
			<stop  offset="0" style="stop-color:#F7EED4"/>
			<stop  offset="1" style="stop-color:#F8F1DC;stop-opacity:0"/>
		</radialGradient>
		<path id="path4407" class="st24" d="M454.59,365.762c-7.967-1.465-16.009,2.598-18.611,10.456
			c-2.557,7.175-12.271,8.867-13.231,16.883c-3.358,6.537,7.811,16.96,11.242,8.786c0.81-6.956,2.16-14.149,6.874-19.652
			c5.057-4.401,16.416,0.912,18.364-7.594C459.938,370.437,459.632,366.763,454.59,365.762z"/>
		
			<radialGradient id="path5904_1_" cx="3341.7144" cy="-767.29" r="207.656" gradientTransform="matrix(-0.0113 0.1197 0.8982 0.0847 994.1146 249.0953)" gradientUnits="userSpaceOnUse">
			<stop  offset="0" style="stop-color:#E2C05B"/>
			<stop  offset="1" style="stop-color:#E4C873;stop-opacity:0.6531"/>
		</radialGradient>
		<path id="path5904" class="st25" d="M177.318,551.067c15.576,7.557,31.021,16.291,48.105,19.896
			c7.625,1.189,15.327,2.39,22.501,5.298c8.112,0.925,16.048,2.55,23.765,5.182c14.242,2.566,28.786,0.513,43.157,1.142
			c19.503,0.16,39.037,0.474,58.467-1.495c5.112,0.897,15.513-3.365,17.88-0.029c-11.265,3.861-23.326,4.906-35.051,6.33
			c-9.583,0.075-19.078,1.843-28.674,1.424c-8.824,0.957-17.596,2.884-26.523,2.021c-19.574-0.073-39.978,2.083-58.613-5.326
			c-6.333-4.637-13-8.768-20.337-11.56c-9.006-4.258-18.979-5.815-28.127-9.698c-9.883-0.823-13.744-14.837-24.783-11.813"/>
		
			<radialGradient id="path6010_1_" cx="175.9173" cy="-957.8224" r="207.656" gradientTransform="matrix(0.1215 0.0535 0.0907 -0.2059 567.2813 249.0922)" gradientUnits="userSpaceOnUse">
			<stop  offset="0" style="stop-color:#E2C05B"/>
			<stop  offset="1" style="stop-color:#E4C873;stop-opacity:0.6531"/>
		</radialGradient>
		<path id="path6010" sodipodi:nodetypes="cssssssssssss" class="st26" d="M494.397,431.648c5.911-1.478,9.546-3.87,10.981-9.608
			c1.737-6.947,9.212-4.316,12.354-2.745c5.653,2.827,5.349,8.8,4.118,13.726c-1.81,7.241-3.773,8.581,1.373,13.726
			c3.959,3.959,5.491,10.585,5.491,16.472c0,4.553-6.59,9.063-8.236,12.354c-3.119,6.237-5.094,8.236-13.726,8.236
			c-5.038,0-9.605-5.487-12.354-8.236c-3.713-3.713-9.864-4.932-13.726-6.863c-7.176-3.588-9.087-1.703-12.354-8.236
			c-1.837-3.674,4.962-8.552,6.863-12.354C478.17,442.139,488.411,433.145,494.397,431.648z"/>
		
			<radialGradient id="path6014_1_" cx="3226.2844" cy="-355.4445" r="207.656" gradientTransform="matrix(0.3358 -0.1909 -0.0709 -0.1247 -612.7544 898.77)" gradientUnits="userSpaceOnUse">
			<stop  offset="0" style="stop-color:#DAA02F;stop-opacity:0.4471"/>
			<stop  offset="1" style="stop-color:#BC9624;stop-opacity:0.2959"/>
		</radialGradient>
		<path id="path6014" class="st27" d="M534.203,275.168c-10.081,6.434-13.876,18.263-20.532,27.591
			c-2.122,6.471-8.39,10.396-15.157,9.47c-7.822-0.559-13.658,5.32-20.36,8.263c-5.07,5.446-9.4,11.504-17.944,11.389
			c-6.537,0.214-10.888,5.145-15.764,8.716c-6.568,1.483-15.454,5.122-10.923,13.646c5.885,0.577,12.535-2.769,17.19-6.632
			c6.875-6.527,16.629-8.306,25.78-8.133c6.894-0.26,11.045-9.674,18.303-6.57c5.641,3.223,15.061,8.64,11.481,16.485
			c-2.86,4.138-8.865,15.657,1.366,12.17c7.883-1.537,8.765-10.805,8.748-17.352c1.315-6.645,3.017-13.539,0.138-20.093
			c-2.481-8.075,3.924-14.97,7.683-21.479c3.671-5.724,8.431-10.6,12.895-15.671C539.846,282.993,535.968,278.624,534.203,275.168z"
			/>
	</g>
	
		<radialGradient id="path7041_1_" cx="289.1538" cy="398.0504" r="304.2857" gradientTransform="matrix(0.9676 0 0 -0.9653 10.7792 780.213)" gradientUnits="userSpaceOnUse">
		<stop  offset="0" style="stop-color:#FFFFFF;stop-opacity:0.4639"/>
		<stop  offset="0.5" style="stop-color:#91918F;stop-opacity:0"/>
		<stop  offset="0.6897" style="stop-color:#5A5A57;stop-opacity:0.1959"/>
		<stop  offset="0.8654" style="stop-color:#3F3E3B;stop-opacity:0.4536"/>
		<stop  offset="1" style="stop-color:#171715;stop-opacity:0.7423"/>
	</radialGradient>
	
		<path id="path7041" sodipodi:cy="359.50504" sodipodi:cx="365.71429" sodipodi:ry="304.28571" sodipodi:rx="304.28571" sodipodi:type="arc" class="st28" d="
		M584.984,395.96c0,162.227-131.818,293.739-294.423,293.739S-3.862,558.187-3.862,395.96s131.818-293.739,294.423-293.739
		S584.984,233.732,584.984,395.96z"/>
</g>
</svg>
